G75*
G70*
%OFA0B0*%
%FSLAX24Y24*%
%IPPOS*%
%LPD*%
%AMOC8*
5,1,8,0,0,1.08239X$1,22.5*
%
%ADD10C,0.0000*%
%ADD11R,0.0315X0.0472*%
%ADD12R,0.0157X0.0531*%
%ADD13R,0.0827X0.0630*%
%ADD14R,0.0748X0.0748*%
%ADD15R,0.0217X0.0472*%
%ADD16R,0.0310X0.0350*%
%ADD17C,0.0148*%
%ADD18R,0.0591X0.0591*%
%ADD19R,0.0315X0.0118*%
%ADD20C,0.0300*%
%ADD21R,0.0472X0.0315*%
%ADD22R,0.0197X0.0236*%
%ADD23R,0.0787X0.0787*%
%ADD24R,0.0709X0.0787*%
%ADD25R,0.0394X0.0709*%
%ADD26R,0.0551X0.0630*%
%ADD27R,0.0787X0.0945*%
%ADD28C,0.0080*%
%ADD29C,0.0240*%
%ADD30C,0.0100*%
D10*
X007353Y002892D02*
X007686Y002900D01*
X008018Y002924D01*
X008349Y002964D01*
X008677Y003020D01*
X009002Y003092D01*
X009323Y003180D01*
X009640Y003283D01*
X009951Y003401D01*
X010256Y003534D01*
X010555Y003681D01*
X010846Y003843D01*
X011129Y004019D01*
X011403Y004208D01*
X011667Y004410D01*
X011922Y004625D01*
X012166Y004852D01*
X012398Y005090D01*
X012619Y005339D01*
X012828Y005599D01*
X013023Y005868D01*
X013206Y006147D01*
X013375Y006434D01*
X013529Y006728D01*
X013670Y007030D01*
X013795Y007339D01*
X013906Y007653D01*
X014001Y007972D01*
X014081Y008295D01*
X014145Y008622D01*
X014193Y008952D01*
X014225Y009283D01*
X014241Y009616D01*
X014241Y009948D01*
X014225Y010281D01*
X014193Y010612D01*
X014145Y010942D01*
X014081Y011269D01*
X014001Y011592D01*
X013906Y011911D01*
X013795Y012225D01*
X013670Y012534D01*
X013529Y012836D01*
X013375Y013130D01*
X013206Y013417D01*
X013023Y013696D01*
X012828Y013965D01*
X012619Y014225D01*
X012398Y014474D01*
X012166Y014712D01*
X011922Y014939D01*
X011667Y015154D01*
X011403Y015356D01*
X011129Y015545D01*
X010846Y015721D01*
X010555Y015883D01*
X010256Y016030D01*
X009951Y016163D01*
X009640Y016281D01*
X009323Y016384D01*
X009002Y016472D01*
X008677Y016544D01*
X008349Y016600D01*
X008018Y016640D01*
X007686Y016664D01*
X007353Y016672D01*
X007020Y016664D01*
X006688Y016640D01*
X006357Y016600D01*
X006029Y016544D01*
X005704Y016472D01*
X005383Y016384D01*
X005066Y016281D01*
X004755Y016163D01*
X004450Y016030D01*
X004151Y015883D01*
X003860Y015721D01*
X003577Y015545D01*
X003303Y015356D01*
X003039Y015154D01*
X002784Y014939D01*
X002540Y014712D01*
X002308Y014474D01*
X002087Y014225D01*
X001878Y013965D01*
X001683Y013696D01*
X001500Y013417D01*
X001331Y013130D01*
X001177Y012836D01*
X001036Y012534D01*
X000911Y012225D01*
X000800Y011911D01*
X000705Y011592D01*
X000625Y011269D01*
X000561Y010942D01*
X000513Y010612D01*
X000481Y010281D01*
X000465Y009948D01*
X000465Y009616D01*
X000481Y009283D01*
X000513Y008952D01*
X000561Y008622D01*
X000625Y008295D01*
X000705Y007972D01*
X000800Y007653D01*
X000911Y007339D01*
X001036Y007030D01*
X001177Y006728D01*
X001331Y006434D01*
X001500Y006147D01*
X001683Y005868D01*
X001878Y005599D01*
X002087Y005339D01*
X002308Y005090D01*
X002540Y004852D01*
X002784Y004625D01*
X003039Y004410D01*
X003303Y004208D01*
X003577Y004019D01*
X003860Y003843D01*
X004151Y003681D01*
X004450Y003534D01*
X004755Y003401D01*
X005066Y003283D01*
X005383Y003180D01*
X005704Y003092D01*
X006029Y003020D01*
X006357Y002964D01*
X006688Y002924D01*
X007020Y002900D01*
X007353Y002892D01*
D11*
X008849Y004093D03*
X009558Y004093D03*
G36*
X010234Y004872D02*
X010456Y004650D01*
X010124Y004318D01*
X009902Y004540D01*
X010234Y004872D01*
G37*
G36*
X009733Y005373D02*
X009955Y005151D01*
X009623Y004819D01*
X009401Y005041D01*
X009733Y005373D01*
G37*
G36*
X007554Y007058D02*
X007776Y007280D01*
X008108Y006948D01*
X007886Y006726D01*
X007554Y007058D01*
G37*
G36*
X008055Y007559D02*
X008277Y007781D01*
X008609Y007449D01*
X008387Y007227D01*
X008055Y007559D01*
G37*
G36*
X008960Y007520D02*
X009182Y007742D01*
X009514Y007410D01*
X009292Y007188D01*
X008960Y007520D01*
G37*
G36*
X009461Y008021D02*
X009683Y008243D01*
X010015Y007911D01*
X009793Y007689D01*
X009461Y008021D01*
G37*
G36*
X010305Y008349D02*
X010083Y008571D01*
X010415Y008903D01*
X010637Y008681D01*
X010305Y008349D01*
G37*
G36*
X010887Y009336D02*
X011109Y009114D01*
X010777Y008782D01*
X010555Y009004D01*
X010887Y009336D01*
G37*
G36*
X010386Y009837D02*
X010608Y009615D01*
X010276Y009283D01*
X010054Y009505D01*
X010386Y009837D01*
G37*
G36*
X009804Y008850D02*
X009582Y009072D01*
X009914Y009404D01*
X010136Y009182D01*
X009804Y008850D01*
G37*
G36*
X012197Y009601D02*
X012419Y009379D01*
X012087Y009047D01*
X011865Y009269D01*
X012197Y009601D01*
G37*
G36*
X012391Y009727D02*
X012169Y009949D01*
X012501Y010281D01*
X012723Y010059D01*
X012391Y009727D01*
G37*
G36*
X013364Y010185D02*
X013142Y009963D01*
X012810Y010295D01*
X013032Y010517D01*
X013364Y010185D01*
G37*
G36*
X013865Y010687D02*
X013643Y010465D01*
X013311Y010797D01*
X013533Y011019D01*
X013865Y010687D01*
G37*
G36*
X013249Y011541D02*
X013471Y011319D01*
X013139Y010987D01*
X012917Y011209D01*
X013249Y011541D01*
G37*
G36*
X012748Y012042D02*
X012970Y011820D01*
X012638Y011488D01*
X012416Y011710D01*
X012748Y012042D01*
G37*
G36*
X012127Y010937D02*
X011905Y011159D01*
X012237Y011491D01*
X012459Y011269D01*
X012127Y010937D01*
G37*
G36*
X011890Y010228D02*
X011668Y010450D01*
X012000Y010782D01*
X012222Y010560D01*
X011890Y010228D01*
G37*
G36*
X012628Y010436D02*
X012406Y010658D01*
X012738Y010990D01*
X012960Y010768D01*
X012628Y010436D01*
G37*
G36*
X011132Y011263D02*
X010910Y011485D01*
X011242Y011817D01*
X011464Y011595D01*
X011132Y011263D01*
G37*
G36*
X010659Y010790D02*
X010437Y011012D01*
X010769Y011344D01*
X010991Y011122D01*
X010659Y010790D01*
G37*
G36*
X010158Y011291D02*
X009936Y011513D01*
X010268Y011845D01*
X010490Y011623D01*
X010158Y011291D01*
G37*
G36*
X010631Y011764D02*
X010409Y011986D01*
X010741Y012318D01*
X010963Y012096D01*
X010631Y011764D01*
G37*
X008259Y013050D03*
X007550Y013050D03*
X006881Y013046D03*
X006172Y013046D03*
X003338Y009015D03*
X002629Y009015D03*
X002629Y008294D03*
X003338Y008294D03*
G36*
X003704Y007851D02*
X003926Y008073D01*
X004258Y007741D01*
X004036Y007519D01*
X003704Y007851D01*
G37*
G36*
X004094Y007457D02*
X004316Y007679D01*
X004648Y007347D01*
X004426Y007125D01*
X004094Y007457D01*
G37*
G36*
X004595Y007958D02*
X004817Y008180D01*
X005149Y007848D01*
X004927Y007626D01*
X004595Y007958D01*
G37*
G36*
X004205Y008352D02*
X004427Y008574D01*
X004759Y008242D01*
X004537Y008020D01*
X004205Y008352D01*
G37*
G36*
X005869Y007179D02*
X005647Y006957D01*
X005315Y007289D01*
X005537Y007511D01*
X005869Y007179D01*
G37*
G36*
X006247Y006789D02*
X006025Y006567D01*
X005693Y006899D01*
X005915Y007121D01*
X006247Y006789D01*
G37*
G36*
X005746Y006288D02*
X005524Y006066D01*
X005192Y006398D01*
X005414Y006620D01*
X005746Y006288D01*
G37*
G36*
X005368Y006678D02*
X005146Y006456D01*
X004814Y006788D01*
X005036Y007010D01*
X005368Y006678D01*
G37*
G36*
X012698Y009100D02*
X012920Y008878D01*
X012588Y008546D01*
X012366Y008768D01*
X012698Y009100D01*
G37*
D12*
G36*
X004301Y006116D02*
X004411Y006006D01*
X004037Y005632D01*
X003927Y005742D01*
X004301Y006116D01*
G37*
G36*
X004120Y006297D02*
X004230Y006187D01*
X003856Y005813D01*
X003746Y005923D01*
X004120Y006297D01*
G37*
G36*
X003939Y006478D02*
X004049Y006368D01*
X003675Y005994D01*
X003565Y006104D01*
X003939Y006478D01*
G37*
G36*
X003758Y006659D02*
X003868Y006549D01*
X003494Y006175D01*
X003384Y006285D01*
X003758Y006659D01*
G37*
G36*
X003577Y006840D02*
X003687Y006730D01*
X003313Y006356D01*
X003203Y006466D01*
X003577Y006840D01*
G37*
D13*
G36*
X002840Y007578D02*
X003423Y006995D01*
X002978Y006550D01*
X002395Y007133D01*
X002840Y007578D01*
G37*
G36*
X004566Y005852D02*
X005149Y005269D01*
X004704Y004824D01*
X004121Y005407D01*
X004566Y005852D01*
G37*
D14*
G36*
X003396Y005685D02*
X003924Y005157D01*
X003396Y004629D01*
X002868Y005157D01*
X003396Y005685D01*
G37*
G36*
X002728Y006353D02*
X003256Y005825D01*
X002728Y005297D01*
X002200Y005825D01*
X002728Y006353D01*
G37*
G36*
X001935Y007146D02*
X002463Y006618D01*
X001935Y006090D01*
X001407Y006618D01*
X001935Y007146D01*
G37*
G36*
X004190Y004892D02*
X004718Y004364D01*
X004190Y003836D01*
X003662Y004364D01*
X004190Y004892D01*
G37*
D15*
X002038Y007991D03*
X001664Y007991D03*
X001290Y007991D03*
X001290Y009015D03*
X002038Y009015D03*
G36*
X009106Y006710D02*
X009259Y006863D01*
X009592Y006530D01*
X009439Y006377D01*
X009106Y006710D01*
G37*
G36*
X009857Y006794D02*
X009704Y006641D01*
X009371Y006974D01*
X009524Y007127D01*
X009857Y006794D01*
G37*
G36*
X009635Y007239D02*
X009788Y007392D01*
X010121Y007059D01*
X009968Y006906D01*
X009635Y007239D01*
G37*
G36*
X010359Y006515D02*
X010512Y006668D01*
X010845Y006335D01*
X010692Y006182D01*
X010359Y006515D01*
G37*
G36*
X010094Y006251D02*
X010247Y006404D01*
X010580Y006071D01*
X010427Y005918D01*
X010094Y006251D01*
G37*
G36*
X009830Y005986D02*
X009983Y006139D01*
X010316Y005806D01*
X010163Y005653D01*
X009830Y005986D01*
G37*
G36*
X011552Y009263D02*
X011399Y009110D01*
X011066Y009443D01*
X011219Y009596D01*
X011552Y009263D01*
G37*
G36*
X012081Y009792D02*
X011928Y009639D01*
X011595Y009972D01*
X011748Y010125D01*
X012081Y009792D01*
G37*
G36*
X011357Y010516D02*
X011204Y010363D01*
X010871Y010696D01*
X011024Y010849D01*
X011357Y010516D01*
G37*
G36*
X011093Y010251D02*
X010940Y010098D01*
X010607Y010431D01*
X010760Y010584D01*
X011093Y010251D01*
G37*
G36*
X010828Y009987D02*
X010675Y009834D01*
X010342Y010167D01*
X010495Y010320D01*
X010828Y009987D01*
G37*
D16*
G36*
X010934Y008330D02*
X011153Y008111D01*
X010906Y007864D01*
X010687Y008083D01*
X010934Y008330D01*
G37*
G36*
X011471Y007792D02*
X011690Y007573D01*
X011443Y007326D01*
X011224Y007545D01*
X011471Y007792D01*
G37*
G36*
X010637Y007495D02*
X010856Y007276D01*
X010609Y007029D01*
X010390Y007248D01*
X010637Y007495D01*
G37*
G36*
X008815Y006239D02*
X009034Y006020D01*
X008787Y005773D01*
X008568Y005992D01*
X008815Y006239D01*
G37*
G36*
X009353Y005702D02*
X009572Y005483D01*
X009325Y005236D01*
X009106Y005455D01*
X009353Y005702D01*
G37*
G36*
X008518Y005405D02*
X008737Y005186D01*
X008490Y004939D01*
X008271Y005158D01*
X008518Y005405D01*
G37*
D17*
X002652Y011553D02*
X002726Y011627D01*
X002726Y011381D01*
X002554Y011209D01*
X002308Y011209D01*
X002136Y011381D01*
X002136Y011627D01*
X002308Y011799D01*
X002554Y011799D01*
X002726Y011627D01*
X002615Y011581D01*
X002615Y011427D01*
X002508Y011320D01*
X002354Y011320D01*
X002247Y011427D01*
X002247Y011581D01*
X002354Y011688D01*
X002508Y011688D01*
X002615Y011581D01*
X002504Y011535D01*
X002504Y011473D01*
X002462Y011431D01*
X002400Y011431D01*
X002358Y011473D01*
X002358Y011535D01*
X002400Y011577D01*
X002462Y011577D01*
X002504Y011535D01*
X003359Y012260D02*
X003433Y012334D01*
X003433Y012088D01*
X003261Y011916D01*
X003015Y011916D01*
X002843Y012088D01*
X002843Y012334D01*
X003015Y012506D01*
X003261Y012506D01*
X003433Y012334D01*
X003322Y012288D01*
X003322Y012134D01*
X003215Y012027D01*
X003061Y012027D01*
X002954Y012134D01*
X002954Y012288D01*
X003061Y012395D01*
X003215Y012395D01*
X003322Y012288D01*
X003211Y012242D01*
X003211Y012180D01*
X003169Y012138D01*
X003107Y012138D01*
X003065Y012180D01*
X003065Y012242D01*
X003107Y012284D01*
X003169Y012284D01*
X003211Y012242D01*
X004066Y012968D02*
X004140Y013042D01*
X004140Y012796D01*
X003968Y012624D01*
X003722Y012624D01*
X003550Y012796D01*
X003550Y013042D01*
X003722Y013214D01*
X003968Y013214D01*
X004140Y013042D01*
X004029Y012996D01*
X004029Y012842D01*
X003922Y012735D01*
X003768Y012735D01*
X003661Y012842D01*
X003661Y012996D01*
X003768Y013103D01*
X003922Y013103D01*
X004029Y012996D01*
X003918Y012950D01*
X003918Y012888D01*
X003876Y012846D01*
X003814Y012846D01*
X003772Y012888D01*
X003772Y012950D01*
X003814Y012992D01*
X003876Y012992D01*
X003918Y012950D01*
X003359Y013675D02*
X003433Y013749D01*
X003433Y013503D01*
X003261Y013331D01*
X003015Y013331D01*
X002843Y013503D01*
X002843Y013749D01*
X003015Y013921D01*
X003261Y013921D01*
X003433Y013749D01*
X003322Y013703D01*
X003322Y013549D01*
X003215Y013442D01*
X003061Y013442D01*
X002954Y013549D01*
X002954Y013703D01*
X003061Y013810D01*
X003215Y013810D01*
X003322Y013703D01*
X003211Y013657D01*
X003211Y013595D01*
X003169Y013553D01*
X003107Y013553D01*
X003065Y013595D01*
X003065Y013657D01*
X003107Y013699D01*
X003169Y013699D01*
X003211Y013657D01*
X002652Y012968D02*
X002726Y013042D01*
X002726Y012796D01*
X002554Y012624D01*
X002308Y012624D01*
X002136Y012796D01*
X002136Y013042D01*
X002308Y013214D01*
X002554Y013214D01*
X002726Y013042D01*
X002615Y012996D01*
X002615Y012842D01*
X002508Y012735D01*
X002354Y012735D01*
X002247Y012842D01*
X002247Y012996D01*
X002354Y013103D01*
X002508Y013103D01*
X002615Y012996D01*
X002504Y012950D01*
X002504Y012888D01*
X002462Y012846D01*
X002400Y012846D01*
X002358Y012888D01*
X002358Y012950D01*
X002400Y012992D01*
X002462Y012992D01*
X002504Y012950D01*
X001944Y012260D02*
X002018Y012334D01*
X002018Y012088D01*
X001846Y011916D01*
X001600Y011916D01*
X001428Y012088D01*
X001428Y012334D01*
X001600Y012506D01*
X001846Y012506D01*
X002018Y012334D01*
X001907Y012288D01*
X001907Y012134D01*
X001800Y012027D01*
X001646Y012027D01*
X001539Y012134D01*
X001539Y012288D01*
X001646Y012395D01*
X001800Y012395D01*
X001907Y012288D01*
X001796Y012242D01*
X001796Y012180D01*
X001754Y012138D01*
X001692Y012138D01*
X001650Y012180D01*
X001650Y012242D01*
X001692Y012284D01*
X001754Y012284D01*
X001796Y012242D01*
D18*
G36*
X007121Y006365D02*
X007538Y005948D01*
X007121Y005531D01*
X006704Y005948D01*
X007121Y006365D01*
G37*
G36*
X006452Y005742D02*
X006869Y005325D01*
X006452Y004908D01*
X006035Y005325D01*
X006452Y005742D01*
G37*
G36*
X007900Y004294D02*
X008317Y003877D01*
X007900Y003460D01*
X007483Y003877D01*
X007900Y004294D01*
G37*
D19*
G36*
X007535Y008292D02*
X007756Y008071D01*
X007673Y007988D01*
X007452Y008209D01*
X007535Y008292D01*
G37*
G36*
X007674Y008431D02*
X007895Y008210D01*
X007812Y008127D01*
X007591Y008348D01*
X007674Y008431D01*
G37*
G36*
X007813Y008570D02*
X008034Y008349D01*
X007951Y008266D01*
X007730Y008487D01*
X007813Y008570D01*
G37*
G36*
X007953Y008709D02*
X008174Y008488D01*
X008091Y008405D01*
X007870Y008626D01*
X007953Y008709D01*
G37*
G36*
X008092Y008849D02*
X008313Y008628D01*
X008230Y008545D01*
X008009Y008766D01*
X008092Y008849D01*
G37*
G36*
X008369Y008684D02*
X008148Y008905D01*
X008231Y008988D01*
X008452Y008767D01*
X008369Y008684D01*
G37*
G36*
X008508Y008823D02*
X008287Y009044D01*
X008370Y009127D01*
X008591Y008906D01*
X008508Y008823D01*
G37*
G36*
X008647Y008962D02*
X008426Y009183D01*
X008509Y009266D01*
X008730Y009045D01*
X008647Y008962D01*
G37*
G36*
X008787Y009101D02*
X008566Y009322D01*
X008649Y009405D01*
X008870Y009184D01*
X008787Y009101D01*
G37*
G36*
X008926Y009241D02*
X008705Y009462D01*
X008788Y009545D01*
X009009Y009324D01*
X008926Y009241D01*
G37*
G36*
X009065Y009380D02*
X008844Y009601D01*
X008927Y009684D01*
X009148Y009463D01*
X009065Y009380D01*
G37*
G36*
X008844Y009964D02*
X009065Y010185D01*
X009148Y010102D01*
X008927Y009881D01*
X008844Y009964D01*
G37*
G36*
X008705Y010103D02*
X008926Y010324D01*
X009009Y010241D01*
X008788Y010020D01*
X008705Y010103D01*
G37*
G36*
X008566Y010242D02*
X008787Y010463D01*
X008870Y010380D01*
X008649Y010159D01*
X008566Y010242D01*
G37*
G36*
X008426Y010381D02*
X008647Y010602D01*
X008730Y010519D01*
X008509Y010298D01*
X008426Y010381D01*
G37*
G36*
X008287Y010521D02*
X008508Y010742D01*
X008591Y010659D01*
X008370Y010438D01*
X008287Y010521D01*
G37*
G36*
X008452Y010798D02*
X008231Y010577D01*
X008148Y010660D01*
X008369Y010881D01*
X008452Y010798D01*
G37*
G36*
X008313Y010937D02*
X008092Y010716D01*
X008009Y010799D01*
X008230Y011020D01*
X008313Y010937D01*
G37*
G36*
X008174Y011076D02*
X007953Y010855D01*
X007870Y010938D01*
X008091Y011159D01*
X008174Y011076D01*
G37*
G36*
X008034Y011215D02*
X007813Y010994D01*
X007730Y011077D01*
X007951Y011298D01*
X008034Y011215D01*
G37*
G36*
X007895Y011355D02*
X007674Y011134D01*
X007591Y011217D01*
X007812Y011438D01*
X007895Y011355D01*
G37*
G36*
X007756Y011494D02*
X007535Y011273D01*
X007452Y011356D01*
X007673Y011577D01*
X007756Y011494D01*
G37*
G36*
X007172Y011273D02*
X006951Y011494D01*
X007034Y011577D01*
X007255Y011356D01*
X007172Y011273D01*
G37*
G36*
X007033Y011134D02*
X006812Y011355D01*
X006895Y011438D01*
X007116Y011217D01*
X007033Y011134D01*
G37*
G36*
X006893Y010994D02*
X006672Y011215D01*
X006755Y011298D01*
X006976Y011077D01*
X006893Y010994D01*
G37*
G36*
X006754Y010855D02*
X006533Y011076D01*
X006616Y011159D01*
X006837Y010938D01*
X006754Y010855D01*
G37*
G36*
X006615Y010716D02*
X006394Y010937D01*
X006477Y011020D01*
X006698Y010799D01*
X006615Y010716D01*
G37*
G36*
X006338Y010881D02*
X006559Y010660D01*
X006476Y010577D01*
X006255Y010798D01*
X006338Y010881D01*
G37*
G36*
X006199Y010742D02*
X006420Y010521D01*
X006337Y010438D01*
X006116Y010659D01*
X006199Y010742D01*
G37*
G36*
X006060Y010602D02*
X006281Y010381D01*
X006198Y010298D01*
X005977Y010519D01*
X006060Y010602D01*
G37*
G36*
X005920Y010463D02*
X006141Y010242D01*
X006058Y010159D01*
X005837Y010380D01*
X005920Y010463D01*
G37*
G36*
X005781Y010324D02*
X006002Y010103D01*
X005919Y010020D01*
X005698Y010241D01*
X005781Y010324D01*
G37*
G36*
X005642Y010185D02*
X005863Y009964D01*
X005780Y009881D01*
X005559Y010102D01*
X005642Y010185D01*
G37*
G36*
X005863Y009601D02*
X005642Y009380D01*
X005559Y009463D01*
X005780Y009684D01*
X005863Y009601D01*
G37*
G36*
X006002Y009462D02*
X005781Y009241D01*
X005698Y009324D01*
X005919Y009545D01*
X006002Y009462D01*
G37*
G36*
X006141Y009322D02*
X005920Y009101D01*
X005837Y009184D01*
X006058Y009405D01*
X006141Y009322D01*
G37*
G36*
X006281Y009183D02*
X006060Y008962D01*
X005977Y009045D01*
X006198Y009266D01*
X006281Y009183D01*
G37*
G36*
X006420Y009044D02*
X006199Y008823D01*
X006116Y008906D01*
X006337Y009127D01*
X006420Y009044D01*
G37*
G36*
X006255Y008767D02*
X006476Y008988D01*
X006559Y008905D01*
X006338Y008684D01*
X006255Y008767D01*
G37*
G36*
X006394Y008628D02*
X006615Y008849D01*
X006698Y008766D01*
X006477Y008545D01*
X006394Y008628D01*
G37*
G36*
X006533Y008488D02*
X006754Y008709D01*
X006837Y008626D01*
X006616Y008405D01*
X006533Y008488D01*
G37*
G36*
X006672Y008349D02*
X006893Y008570D01*
X006976Y008487D01*
X006755Y008266D01*
X006672Y008349D01*
G37*
G36*
X006812Y008210D02*
X007033Y008431D01*
X007116Y008348D01*
X006895Y008127D01*
X006812Y008210D01*
G37*
G36*
X006951Y008071D02*
X007172Y008292D01*
X007255Y008209D01*
X007034Y007988D01*
X006951Y008071D01*
G37*
D20*
X006664Y007617D03*
X005523Y008641D03*
X005188Y009979D03*
X006487Y011357D03*
X007078Y011948D03*
X008180Y011574D03*
X008712Y011810D03*
X008712Y011062D03*
X009125Y011121D03*
X009066Y010688D03*
X009440Y010530D03*
X009342Y008660D03*
X008928Y008582D03*
X008554Y008227D03*
X008968Y008168D03*
X008594Y007834D03*
D21*
X001094Y009704D03*
X001094Y010412D03*
D22*
X001325Y007400D03*
X001649Y007400D03*
G36*
X009370Y009957D02*
X009508Y010095D01*
X009674Y009929D01*
X009536Y009791D01*
X009370Y009957D01*
G37*
G36*
X009600Y010187D02*
X009738Y010325D01*
X009904Y010159D01*
X009766Y010021D01*
X009600Y010187D01*
G37*
D23*
G36*
X010316Y014139D02*
X009761Y014694D01*
X010316Y015249D01*
X010871Y014694D01*
X010316Y014139D01*
G37*
D24*
G36*
X011737Y012772D02*
X012238Y013273D01*
X012793Y012718D01*
X012292Y012217D01*
X011737Y012772D01*
G37*
D25*
G36*
X005657Y004931D02*
X005935Y004653D01*
X005435Y004153D01*
X005157Y004431D01*
X005657Y004931D01*
G37*
G36*
X006437Y004152D02*
X006715Y003874D01*
X006215Y003374D01*
X005937Y003652D01*
X006437Y004152D01*
G37*
D26*
X002983Y009881D03*
X001881Y009881D03*
D27*
X006448Y014310D03*
X008023Y014310D03*
D28*
X004319Y003766D02*
X004995Y003458D01*
X005919Y003187D01*
X006872Y003050D01*
X007353Y003033D01*
X007835Y003050D01*
X008788Y003187D01*
X009712Y003458D01*
X010588Y003858D01*
X011398Y004379D01*
X012126Y005010D01*
X012757Y005737D01*
X013278Y006548D01*
X013678Y007424D01*
X013949Y008348D01*
X014086Y009301D01*
X014086Y010264D01*
X013949Y011217D01*
X013678Y012141D01*
X013278Y013017D01*
X012757Y013827D01*
X012126Y014555D01*
X011398Y015186D01*
X010588Y015706D01*
X009712Y016107D01*
X008788Y016378D01*
X007835Y016515D01*
X007353Y016532D01*
X007353Y016532D01*
X006872Y016515D01*
X005919Y016378D01*
X004995Y016107D01*
X004119Y015706D01*
X003308Y015186D01*
X002581Y014555D01*
X001950Y013827D01*
X001429Y013017D01*
X001029Y012141D01*
X000758Y011217D01*
X000621Y010264D01*
X000621Y009301D01*
X000758Y008348D01*
X001029Y007424D01*
X001087Y007298D01*
X001087Y007577D01*
X001125Y007615D01*
X001124Y007615D01*
X001042Y007697D01*
X001042Y008285D01*
X001124Y008367D01*
X001457Y008367D01*
X001479Y008344D01*
X001502Y008358D01*
X001538Y008367D01*
X001650Y008367D01*
X001650Y008005D01*
X001679Y008005D01*
X001679Y008367D01*
X001791Y008367D01*
X001827Y008358D01*
X001849Y008344D01*
X001872Y008367D01*
X002205Y008367D01*
X002287Y008285D01*
X002287Y007697D01*
X002263Y007674D01*
X002343Y007641D01*
X002416Y007567D01*
X002456Y007472D01*
X002456Y007393D01*
X002781Y007719D01*
X002897Y007719D01*
X003564Y007052D01*
X003564Y006981D01*
X003595Y006981D01*
X003631Y006972D01*
X003663Y006953D01*
X003732Y006885D01*
X003445Y006598D01*
X003445Y006598D01*
X003732Y006884D01*
X003800Y006816D01*
X003809Y006800D01*
X003816Y006800D01*
X003966Y006650D01*
X004124Y006807D01*
X004229Y006913D01*
X004739Y006913D01*
X004977Y007151D01*
X005093Y007151D01*
X005509Y006735D01*
X005509Y006723D01*
X005887Y006345D01*
X005887Y006229D01*
X005583Y005924D01*
X005467Y005924D01*
X005273Y006118D01*
X004856Y006118D01*
X004857Y006114D01*
X004857Y006010D01*
X004818Y005915D01*
X004760Y005856D01*
X005290Y005326D01*
X005290Y005210D01*
X005201Y005121D01*
X005279Y005121D01*
X005375Y005081D01*
X005448Y005008D01*
X005474Y004946D01*
X005600Y005072D01*
X005716Y005072D01*
X006076Y004711D01*
X006076Y004595D01*
X005493Y004012D01*
X005377Y004012D01*
X005017Y004373D01*
X005017Y004489D01*
X005143Y004615D01*
X005080Y004641D01*
X005007Y004714D01*
X004967Y004809D01*
X004967Y004888D01*
X004763Y004683D01*
X004646Y004683D01*
X003980Y005349D01*
X003980Y005465D01*
X004005Y005490D01*
X003978Y005490D01*
X003797Y005671D01*
X003604Y005864D01*
X003604Y005865D01*
X003436Y006033D01*
X003436Y006033D01*
X003242Y006226D01*
X003242Y006233D01*
X003227Y006242D01*
X003158Y006311D01*
X003444Y006597D01*
X003445Y006597D01*
X003158Y006311D01*
X003089Y006379D01*
X003071Y006411D01*
X003064Y006436D01*
X003036Y006409D01*
X002920Y006409D01*
X002254Y007075D01*
X002254Y007163D01*
X002248Y007160D01*
X002144Y007160D01*
X002103Y007177D01*
X002604Y006676D01*
X002604Y006560D01*
X001993Y005950D01*
X001877Y005950D01*
X001700Y006126D01*
X001950Y005737D01*
X002581Y005010D01*
X003308Y004379D01*
X003697Y004129D01*
X003521Y004306D01*
X003421Y004306D01*
X003521Y004306D02*
X003521Y004422D01*
X004131Y005032D01*
X004248Y005032D01*
X004858Y004422D01*
X004858Y004306D01*
X005083Y004306D01*
X005017Y004385D02*
X004858Y004385D01*
X004858Y004306D02*
X004319Y003766D01*
X004341Y003757D02*
X005843Y003757D01*
X005796Y003709D02*
X005796Y003593D01*
X006156Y003233D01*
X006272Y003233D01*
X006622Y003583D01*
X007579Y003583D01*
X007842Y003320D01*
X007958Y003320D01*
X008336Y003697D01*
X008559Y003697D01*
X008708Y003697D01*
X008728Y003717D01*
X009065Y003717D01*
X009147Y003799D01*
X009147Y004388D01*
X009065Y004470D01*
X008634Y004470D01*
X008552Y004388D01*
X008552Y004057D01*
X008336Y004057D01*
X007958Y004435D01*
X007842Y004435D01*
X007350Y003943D01*
X006845Y003943D01*
X006495Y004292D01*
X006379Y004292D01*
X005796Y003709D01*
X005796Y003678D02*
X004513Y003678D01*
X004685Y003599D02*
X005796Y003599D01*
X005868Y003521D02*
X004857Y003521D01*
X005048Y003442D02*
X005947Y003442D01*
X006026Y003364D02*
X005316Y003364D01*
X005583Y003285D02*
X006104Y003285D01*
X006325Y003285D02*
X009124Y003285D01*
X009391Y003364D02*
X008002Y003364D01*
X008081Y003442D02*
X009659Y003442D01*
X009850Y003521D02*
X008159Y003521D01*
X008238Y003599D02*
X010022Y003599D01*
X010194Y003678D02*
X008316Y003678D01*
X008634Y003877D02*
X008849Y004093D01*
X008552Y004071D02*
X008322Y004071D01*
X008244Y004149D02*
X008552Y004149D01*
X008552Y004228D02*
X008165Y004228D01*
X008087Y004306D02*
X008552Y004306D01*
X008552Y004385D02*
X008008Y004385D01*
X007792Y004385D02*
X005865Y004385D01*
X005787Y004306D02*
X007713Y004306D01*
X007635Y004228D02*
X006560Y004228D01*
X006638Y004149D02*
X007556Y004149D01*
X007478Y004071D02*
X006717Y004071D01*
X006795Y003992D02*
X007399Y003992D01*
X007785Y003763D02*
X007900Y003877D01*
X008634Y003877D01*
X009104Y003757D02*
X009303Y003757D01*
X009343Y003717D02*
X009774Y003717D01*
X009856Y003799D01*
X009856Y004017D01*
X010040Y004202D01*
X010065Y004176D01*
X010181Y004176D01*
X010597Y004592D01*
X010597Y004708D01*
X010572Y004734D01*
X010862Y005024D01*
X010862Y005173D01*
X010862Y005873D01*
X010757Y005979D01*
X010721Y006015D01*
X010721Y006041D01*
X010750Y006041D01*
X010985Y006277D01*
X010985Y006393D01*
X010569Y006809D01*
X010453Y006809D01*
X010218Y006574D01*
X010218Y006544D01*
X010189Y006544D01*
X009954Y006309D01*
X009954Y006280D01*
X009924Y006280D01*
X009689Y006045D01*
X009689Y005929D01*
X009724Y005894D01*
X009541Y005712D01*
X009433Y005820D01*
X010526Y006913D01*
X010550Y006889D01*
X010666Y006889D01*
X010996Y007219D01*
X010996Y007335D01*
X010695Y007636D01*
X010579Y007636D01*
X010249Y007306D01*
X010249Y007190D01*
X010272Y007168D01*
X010241Y007137D01*
X010141Y007237D01*
X010738Y007833D01*
X010847Y007724D01*
X010963Y007724D01*
X011293Y008053D01*
X011293Y008169D01*
X010992Y008470D01*
X010876Y008470D01*
X010675Y008269D01*
X010665Y008269D01*
X009887Y007491D01*
X009846Y007532D01*
X009729Y007532D01*
X009655Y007458D01*
X009655Y007467D01*
X009239Y007883D01*
X009123Y007883D01*
X008818Y007579D01*
X008818Y007463D01*
X008906Y007375D01*
X008906Y007346D01*
X008926Y007325D01*
X008934Y007298D01*
X008977Y007274D01*
X009230Y007021D01*
X009230Y007004D01*
X009201Y007004D01*
X008965Y006768D01*
X008965Y006652D01*
X009074Y006544D01*
X008891Y006362D01*
X008874Y006380D01*
X008758Y006380D01*
X008428Y006050D01*
X008428Y005934D01*
X008729Y005633D01*
X008737Y005633D01*
X008613Y005509D01*
X008577Y005545D01*
X008461Y005545D01*
X008131Y005216D01*
X008131Y005100D01*
X008387Y004844D01*
X007188Y004844D01*
X006887Y005144D01*
X007010Y005267D01*
X007010Y005383D01*
X006510Y005883D01*
X006394Y005883D01*
X005895Y005383D01*
X005895Y005267D01*
X006394Y004767D01*
X006510Y004767D01*
X006633Y004890D01*
X007039Y004484D01*
X007188Y004484D01*
X008609Y004484D01*
X008714Y004590D01*
X009244Y005119D01*
X009262Y005101D01*
X009259Y005098D01*
X009259Y004982D01*
X009564Y004677D01*
X009680Y004677D01*
X010096Y005094D01*
X010096Y005210D01*
X009822Y005484D01*
X009978Y005640D01*
X010105Y005513D01*
X010221Y005513D01*
X010456Y005748D01*
X010456Y005770D01*
X010503Y005724D01*
X010503Y005173D01*
X010317Y004988D01*
X010292Y005013D01*
X010176Y005013D01*
X009760Y004597D01*
X009760Y004481D01*
X009772Y004470D01*
X009343Y004470D01*
X009261Y004388D01*
X009261Y003799D01*
X009343Y003717D01*
X009261Y003835D02*
X009147Y003835D01*
X009147Y003914D02*
X009261Y003914D01*
X009261Y003992D02*
X009147Y003992D01*
X009147Y004071D02*
X009261Y004071D01*
X009261Y004149D02*
X009147Y004149D01*
X009147Y004228D02*
X009261Y004228D01*
X009261Y004306D02*
X009147Y004306D01*
X009147Y004385D02*
X009261Y004385D01*
X009336Y004463D02*
X009071Y004463D01*
X008824Y004699D02*
X009542Y004699D01*
X009464Y004778D02*
X008902Y004778D01*
X008981Y004856D02*
X009385Y004856D01*
X009307Y004935D02*
X009059Y004935D01*
X009138Y005013D02*
X009259Y005013D01*
X009259Y005092D02*
X009217Y005092D01*
X009383Y005399D02*
X009683Y005099D01*
X009678Y005096D01*
X009637Y005097D01*
X009937Y004935D02*
X010098Y004935D01*
X010019Y004856D02*
X009859Y004856D01*
X009780Y004778D02*
X009941Y004778D01*
X009862Y004699D02*
X009702Y004699D01*
X009784Y004621D02*
X008745Y004621D01*
X008667Y004542D02*
X009760Y004542D01*
X010179Y004595D02*
X009677Y004093D01*
X009558Y004093D01*
X009856Y003992D02*
X010797Y003992D01*
X010919Y004071D02*
X009909Y004071D01*
X009988Y004149D02*
X011041Y004149D01*
X011163Y004228D02*
X010232Y004228D01*
X010311Y004306D02*
X011286Y004306D01*
X011405Y004385D02*
X010390Y004385D01*
X010468Y004463D02*
X011496Y004463D01*
X011587Y004542D02*
X010547Y004542D01*
X010597Y004621D02*
X011677Y004621D01*
X011768Y004699D02*
X010597Y004699D01*
X010616Y004778D02*
X011859Y004778D01*
X011949Y004856D02*
X010694Y004856D01*
X010773Y004935D02*
X012040Y004935D01*
X012129Y005013D02*
X010851Y005013D01*
X010862Y005092D02*
X012197Y005092D01*
X012266Y005170D02*
X010862Y005170D01*
X010862Y005249D02*
X012334Y005249D01*
X012402Y005327D02*
X010862Y005327D01*
X010862Y005406D02*
X012470Y005406D01*
X012538Y005485D02*
X010862Y005485D01*
X010862Y005563D02*
X012606Y005563D01*
X012674Y005642D02*
X010862Y005642D01*
X010862Y005720D02*
X012742Y005720D01*
X012796Y005799D02*
X010862Y005799D01*
X010859Y005877D02*
X012847Y005877D01*
X012897Y005956D02*
X010780Y005956D01*
X010721Y006034D02*
X012948Y006034D01*
X012998Y006113D02*
X010822Y006113D01*
X010900Y006191D02*
X013049Y006191D01*
X013099Y006270D02*
X010979Y006270D01*
X010985Y006349D02*
X013150Y006349D01*
X013200Y006427D02*
X010951Y006427D01*
X010872Y006506D02*
X013251Y006506D01*
X013294Y006584D02*
X010794Y006584D01*
X010715Y006663D02*
X013330Y006663D01*
X013366Y006741D02*
X010637Y006741D01*
X010676Y006898D02*
X013438Y006898D01*
X013402Y006820D02*
X010433Y006820D01*
X010386Y006741D02*
X010354Y006741D01*
X010307Y006663D02*
X010276Y006663D01*
X010229Y006584D02*
X010197Y006584D01*
X010150Y006506D02*
X010119Y006506D01*
X010072Y006427D02*
X010040Y006427D01*
X009993Y006349D02*
X009961Y006349D01*
X009915Y006270D02*
X009883Y006270D01*
X009836Y006191D02*
X009804Y006191D01*
X009758Y006113D02*
X009726Y006113D01*
X009689Y006034D02*
X009647Y006034D01*
X009689Y005956D02*
X009569Y005956D01*
X009490Y005877D02*
X009706Y005877D01*
X009628Y005799D02*
X009454Y005799D01*
X009533Y005720D02*
X009549Y005720D01*
X009583Y005499D02*
X009383Y005499D01*
X009339Y005469D01*
X009339Y005469D01*
X009383Y005399D01*
X009339Y005469D02*
X008534Y004664D01*
X007113Y004664D01*
X006452Y005325D01*
X006075Y005563D02*
X005053Y005563D01*
X004975Y005642D02*
X006153Y005642D01*
X006232Y005720D02*
X004896Y005720D01*
X004818Y005799D02*
X006311Y005799D01*
X006389Y005877D02*
X004780Y005877D01*
X004835Y005956D02*
X005435Y005956D01*
X005357Y006034D02*
X004857Y006034D01*
X004857Y006113D02*
X005278Y006113D01*
X005424Y006298D02*
X004231Y006298D01*
X003988Y006055D01*
X003807Y006236D02*
X004304Y006733D01*
X005091Y006733D01*
X005267Y006977D02*
X005428Y006977D01*
X005350Y007055D02*
X005189Y007055D01*
X005110Y007134D02*
X005271Y007134D01*
X005193Y007212D02*
X004713Y007212D01*
X004761Y007260D02*
X004779Y007292D01*
X004789Y007326D01*
X004863Y007357D01*
X004936Y007430D01*
X004958Y007485D01*
X004985Y007485D01*
X005224Y007723D01*
X005549Y007723D01*
X005654Y007828D01*
X006324Y008498D01*
X006336Y008486D01*
X006348Y008474D01*
X005525Y007652D01*
X005478Y007652D01*
X005174Y007347D01*
X005174Y007231D01*
X005552Y006853D01*
X005552Y006842D01*
X005968Y006426D01*
X006084Y006426D01*
X006388Y006730D01*
X006388Y006846D01*
X006308Y006927D01*
X006392Y007011D01*
X006392Y007518D01*
X006419Y007453D01*
X006500Y007371D01*
X006607Y007327D01*
X006722Y007327D01*
X006829Y007371D01*
X006910Y007453D01*
X006954Y007559D01*
X006954Y007629D01*
X007238Y007913D01*
X007344Y008018D01*
X007344Y008099D01*
X007353Y008109D01*
X007392Y008070D01*
X007400Y008044D01*
X007439Y008024D01*
X007615Y007847D01*
X007731Y007847D01*
X007897Y008012D01*
X007905Y008050D01*
X007905Y008089D01*
X007897Y008125D01*
X007865Y008129D01*
X007747Y008247D01*
X007743Y008279D01*
X007629Y008129D02*
X007604Y008140D01*
X007550Y008168D01*
X007373Y008345D01*
X008692Y009664D01*
X008810Y009664D01*
X008928Y009546D01*
X008996Y009532D01*
X008968Y009546D01*
X008864Y009393D02*
X008857Y009393D01*
X008864Y009393D02*
X009064Y009193D01*
X009086Y009192D01*
X009071Y009186D02*
X009122Y009237D01*
X009123Y009239D01*
X009123Y009239D01*
X009289Y009404D01*
X009289Y009520D01*
X009027Y009782D01*
X009044Y009799D01*
X009121Y009799D01*
X009329Y009799D01*
X009478Y009650D01*
X009594Y009650D01*
X009815Y009871D01*
X009815Y009888D01*
X009819Y009889D01*
X009851Y009907D01*
X009927Y009984D01*
X009752Y010159D01*
X009765Y010172D01*
X009941Y009997D01*
X010017Y010073D01*
X010035Y010105D01*
X010045Y010140D01*
X010045Y010177D01*
X010035Y010213D01*
X010017Y010245D01*
X009927Y010335D01*
X009765Y010173D01*
X009752Y010186D01*
X009914Y010348D01*
X009824Y010438D01*
X009792Y010456D01*
X009756Y010466D01*
X009727Y010466D01*
X009730Y010473D01*
X009730Y010588D01*
X009686Y010695D01*
X009604Y010776D01*
X009498Y010820D01*
X009382Y010820D01*
X009333Y010800D01*
X009312Y010852D01*
X009289Y010875D01*
X009289Y010875D01*
X009371Y010957D01*
X009415Y011063D01*
X009415Y011179D01*
X009371Y011285D01*
X009289Y011367D01*
X009183Y011411D01*
X009067Y011411D01*
X008961Y011367D01*
X008889Y011295D01*
X008876Y011308D01*
X008861Y011314D01*
X009200Y011652D01*
X009305Y011758D01*
X009305Y012227D01*
X009986Y012908D01*
X010043Y012908D01*
X010138Y012948D01*
X010212Y013021D01*
X010251Y013116D01*
X010251Y013220D01*
X010212Y013315D01*
X010138Y013389D01*
X010043Y013428D01*
X009939Y013428D01*
X009844Y013389D01*
X009771Y013315D01*
X009731Y013220D01*
X009731Y013163D01*
X009050Y012482D01*
X008945Y012377D01*
X008945Y011987D01*
X008876Y012056D01*
X008769Y012100D01*
X008654Y012100D01*
X008547Y012056D01*
X008466Y011974D01*
X008422Y011868D01*
X008422Y011752D01*
X008448Y011688D01*
X008447Y011687D01*
X008426Y011738D01*
X008344Y011820D01*
X008238Y011864D01*
X008122Y011864D01*
X008016Y011820D01*
X007934Y011738D01*
X007890Y011631D01*
X007890Y011559D01*
X007871Y011579D01*
X007870Y011579D01*
X007869Y011580D01*
X007814Y011635D01*
X007759Y011690D01*
X007728Y011708D01*
X007692Y011718D01*
X007655Y011718D01*
X007619Y011708D01*
X007588Y011690D01*
X007463Y011566D01*
X007595Y011434D01*
X007595Y011434D01*
X007463Y011565D01*
X007353Y011456D01*
X007258Y011551D01*
X007258Y011718D01*
X007324Y011783D01*
X007368Y011890D01*
X007368Y012005D01*
X007324Y012112D01*
X007242Y012194D01*
X007135Y012238D01*
X007020Y012238D01*
X006914Y012194D01*
X006832Y012112D01*
X006788Y012005D01*
X006788Y011890D01*
X006832Y011783D01*
X006898Y011718D01*
X006898Y011640D01*
X006895Y011637D01*
X006785Y011747D01*
X006680Y011852D01*
X006632Y011852D01*
X006629Y011859D01*
X006556Y011932D01*
X006509Y011951D01*
X006837Y012280D01*
X007082Y012280D01*
X007231Y012280D01*
X007625Y012673D01*
X007625Y012674D01*
X007766Y012674D01*
X007848Y012756D01*
X007848Y013251D01*
X008203Y013605D01*
X008203Y013697D01*
X008474Y013697D01*
X008556Y013779D01*
X008556Y014840D01*
X008474Y014922D01*
X007571Y014922D01*
X007489Y014840D01*
X007489Y013779D01*
X007571Y013697D01*
X007786Y013697D01*
X007514Y013426D01*
X007335Y013426D01*
X007253Y013344D01*
X007253Y012810D01*
X007082Y012639D01*
X006882Y012639D01*
X006913Y012670D01*
X007096Y012670D01*
X007178Y012752D01*
X007178Y013340D01*
X007096Y013422D01*
X006921Y013422D01*
X006916Y013427D01*
X006645Y013697D01*
X006900Y013697D01*
X006982Y013779D01*
X006982Y014840D01*
X006900Y014922D01*
X005996Y014922D01*
X005914Y014840D01*
X005914Y013779D01*
X005996Y013697D01*
X006268Y013697D01*
X006268Y013566D01*
X006583Y013250D01*
X006583Y012850D01*
X005520Y011786D01*
X005520Y011637D01*
X005520Y011086D01*
X005625Y010980D01*
X005931Y010674D01*
X005918Y010661D01*
X005975Y010605D01*
X005975Y010604D01*
X005974Y010604D01*
X005918Y010661D01*
X005885Y010628D01*
X005881Y010638D01*
X005808Y010711D01*
X005712Y010751D01*
X005609Y010751D01*
X005513Y010711D01*
X005440Y010638D01*
X005400Y010543D01*
X005400Y010439D01*
X005410Y010416D01*
X005258Y010264D01*
X005246Y010269D01*
X005130Y010269D01*
X005024Y010225D01*
X004942Y010143D01*
X004898Y010037D01*
X004898Y009921D01*
X004942Y009815D01*
X005024Y009733D01*
X005130Y009689D01*
X005246Y009689D01*
X005319Y009720D01*
X005322Y009714D01*
X005395Y009641D01*
X005491Y009601D01*
X005499Y009601D01*
X005446Y009549D01*
X005046Y009549D01*
X003636Y010959D01*
X003636Y011563D01*
X003676Y011604D01*
X003716Y011699D01*
X003716Y011803D01*
X003676Y011898D01*
X003611Y011963D01*
X003648Y012000D01*
X003648Y012409D01*
X004056Y012409D01*
X004177Y012530D01*
X003845Y012862D01*
X003901Y012918D01*
X004234Y012586D01*
X004355Y012707D01*
X004355Y013130D01*
X004234Y013251D01*
X003901Y012919D01*
X003845Y012975D01*
X004177Y013307D01*
X004056Y013429D01*
X003648Y013429D01*
X003648Y013837D01*
X003349Y014136D01*
X002926Y014136D01*
X002628Y013837D01*
X002628Y013429D01*
X002219Y013429D01*
X001921Y013130D01*
X001921Y012721D01*
X001512Y012721D01*
X001214Y012423D01*
X001214Y012000D01*
X001512Y011702D01*
X001921Y011702D01*
X001921Y011293D01*
X001938Y011275D01*
X001662Y010999D01*
X001662Y010850D01*
X001662Y010336D01*
X001547Y010336D01*
X001470Y010258D01*
X001470Y010373D01*
X001133Y010373D01*
X001133Y010451D01*
X001470Y010451D01*
X001470Y010588D01*
X001460Y010624D01*
X001442Y010656D01*
X001416Y010682D01*
X001384Y010700D01*
X001348Y010710D01*
X001132Y010710D01*
X001132Y010451D01*
X001055Y010451D01*
X001055Y010710D01*
X000839Y010710D01*
X000803Y010700D01*
X000771Y010682D01*
X000745Y010656D01*
X000727Y010624D01*
X000717Y010588D01*
X000717Y010451D01*
X001055Y010451D01*
X001055Y010373D01*
X001132Y010373D01*
X001132Y010115D01*
X001348Y010115D01*
X001384Y010124D01*
X001416Y010143D01*
X001442Y010169D01*
X001460Y010201D01*
X001465Y010220D01*
X001465Y009923D01*
X001388Y010001D01*
X000799Y010001D01*
X000717Y009919D01*
X000717Y009488D01*
X000799Y009406D01*
X000914Y009406D01*
X000914Y009353D01*
X001042Y009225D01*
X001042Y008720D01*
X001124Y008638D01*
X001457Y008638D01*
X001539Y008720D01*
X001539Y009309D01*
X001457Y009391D01*
X001385Y009391D01*
X001370Y009406D01*
X001388Y009406D01*
X001470Y009488D01*
X001470Y009503D01*
X001547Y009426D01*
X001662Y009426D01*
X001662Y009393D01*
X001790Y009264D01*
X001790Y008720D01*
X001872Y008638D01*
X002205Y008638D01*
X002287Y008720D01*
X002287Y008854D01*
X002331Y008854D01*
X002331Y008720D01*
X002398Y008654D01*
X002331Y008588D01*
X002331Y008000D01*
X002413Y007918D01*
X002844Y007918D01*
X002926Y008000D01*
X002926Y008588D01*
X002860Y008654D01*
X002926Y008720D01*
X002926Y009309D01*
X002844Y009391D01*
X002413Y009391D01*
X002331Y009309D01*
X002331Y009214D01*
X002287Y009214D01*
X002287Y009309D01*
X002205Y009391D01*
X002173Y009391D01*
X002152Y009411D01*
X002138Y009426D01*
X002215Y009426D01*
X002296Y009508D01*
X002296Y010254D01*
X002215Y010336D01*
X002022Y010336D01*
X002022Y010850D01*
X002193Y011021D01*
X002219Y010994D01*
X002642Y010994D01*
X002725Y011077D01*
X002725Y010850D01*
X002830Y010744D01*
X003238Y010336D01*
X003023Y010336D01*
X003023Y009921D01*
X002943Y009921D01*
X002943Y009841D01*
X002568Y009841D01*
X002568Y009547D01*
X002577Y009512D01*
X002596Y009480D01*
X002622Y009454D01*
X002654Y009435D01*
X002689Y009426D01*
X002943Y009426D01*
X002943Y009841D01*
X003023Y009841D01*
X003023Y009426D01*
X003277Y009426D01*
X003313Y009435D01*
X003345Y009454D01*
X003371Y009480D01*
X003389Y009512D01*
X003399Y009547D01*
X003399Y009841D01*
X003023Y009841D01*
X003023Y009921D01*
X003399Y009921D01*
X003399Y010175D01*
X004799Y008776D01*
X004948Y008776D01*
X005265Y008776D01*
X005233Y008698D01*
X005233Y008583D01*
X005244Y008555D01*
X004644Y008555D01*
X004484Y008715D01*
X004368Y008715D01*
X004064Y008410D01*
X004064Y008294D01*
X004289Y008068D01*
X004289Y007908D01*
X004219Y007978D01*
X004036Y007796D01*
X003981Y007851D01*
X004164Y008033D01*
X004011Y008186D01*
X003979Y008204D01*
X003944Y008214D01*
X003907Y008214D01*
X003871Y008204D01*
X003839Y008186D01*
X003742Y008089D01*
X003981Y007851D01*
X003926Y007796D01*
X003687Y008034D01*
X003590Y007937D01*
X003572Y007905D01*
X003562Y007870D01*
X003562Y007833D01*
X003572Y007797D01*
X003590Y007765D01*
X003743Y007613D01*
X003926Y007795D01*
X003981Y007741D01*
X004036Y007795D01*
X004134Y007697D01*
X004132Y007695D01*
X004370Y007457D01*
X004316Y007402D01*
X004217Y007500D01*
X004219Y007502D01*
X003981Y007741D01*
X003798Y007558D01*
X003951Y007405D01*
X003966Y007396D01*
X003980Y007372D01*
X004133Y007219D01*
X004316Y007402D01*
X004370Y007347D01*
X004188Y007164D01*
X004340Y007011D01*
X004372Y006993D01*
X004408Y006984D01*
X004445Y006984D01*
X004480Y006993D01*
X004512Y007011D01*
X004609Y007108D01*
X004371Y007347D01*
X004426Y007402D01*
X004664Y007163D01*
X004761Y007260D01*
X004779Y007291D02*
X005174Y007291D01*
X005196Y007370D02*
X004875Y007370D01*
X004943Y007448D02*
X005275Y007448D01*
X005353Y007527D02*
X005027Y007527D01*
X005106Y007605D02*
X005432Y007605D01*
X005557Y007684D02*
X005184Y007684D01*
X005474Y007903D02*
X004872Y007903D01*
X005474Y007903D02*
X006407Y008836D01*
X006448Y008837D01*
X006566Y008956D01*
X006566Y009743D01*
X006527Y009743D01*
X006231Y010038D01*
X005975Y009782D01*
X006231Y010038D02*
X006015Y010255D01*
X005989Y010311D01*
X006015Y010294D01*
X006129Y010450D02*
X006064Y010493D01*
X005964Y010593D01*
X005975Y010605D01*
X005926Y010668D02*
X005851Y010668D01*
X005859Y010747D02*
X005722Y010747D01*
X005780Y010825D02*
X003769Y010825D01*
X003691Y010904D02*
X005702Y010904D01*
X005623Y010983D02*
X003636Y010983D01*
X003636Y011061D02*
X005544Y011061D01*
X005520Y011140D02*
X003636Y011140D01*
X003636Y011218D02*
X005520Y011218D01*
X005520Y011297D02*
X003636Y011297D01*
X003636Y011375D02*
X005520Y011375D01*
X005520Y011454D02*
X003636Y011454D01*
X003636Y011532D02*
X005520Y011532D01*
X005520Y011611D02*
X003679Y011611D01*
X003712Y011689D02*
X005520Y011689D01*
X005520Y011768D02*
X003716Y011768D01*
X003698Y011847D02*
X005580Y011847D01*
X005659Y011925D02*
X003649Y011925D01*
X003648Y012004D02*
X005737Y012004D01*
X005816Y012082D02*
X003648Y012082D01*
X003648Y012161D02*
X005895Y012161D01*
X005973Y012239D02*
X003648Y012239D01*
X003648Y012318D02*
X006052Y012318D01*
X006130Y012396D02*
X003648Y012396D01*
X004075Y012632D02*
X004188Y012632D01*
X004153Y012553D02*
X006287Y012553D01*
X006209Y012475D02*
X004122Y012475D01*
X004279Y012632D02*
X006366Y012632D01*
X006348Y012670D02*
X006384Y012679D01*
X006416Y012698D01*
X006442Y012724D01*
X006460Y012756D01*
X006470Y012791D01*
X006470Y013007D01*
X006211Y013007D01*
X006211Y012670D01*
X006348Y012670D01*
X006428Y012711D02*
X006444Y012711D01*
X006469Y012789D02*
X006523Y012789D01*
X006470Y012868D02*
X006583Y012868D01*
X006583Y012946D02*
X006470Y012946D01*
X006583Y013025D02*
X006211Y013025D01*
X006211Y013007D02*
X006211Y013085D01*
X006133Y013085D01*
X006133Y013007D01*
X005875Y013007D01*
X005875Y012791D01*
X005884Y012756D01*
X005903Y012724D01*
X005929Y012698D01*
X005961Y012679D01*
X005996Y012670D01*
X006133Y012670D01*
X006133Y013007D01*
X006211Y013007D01*
X006211Y012946D02*
X006133Y012946D01*
X006133Y012868D02*
X006211Y012868D01*
X006211Y012789D02*
X006133Y012789D01*
X006133Y012711D02*
X006211Y012711D01*
X005916Y012711D02*
X004355Y012711D01*
X004355Y012789D02*
X005875Y012789D01*
X005875Y012868D02*
X004355Y012868D01*
X004355Y012946D02*
X005875Y012946D01*
X005875Y013085D02*
X006133Y013085D01*
X006133Y013422D01*
X005996Y013422D01*
X005961Y013413D01*
X005929Y013394D01*
X005903Y013368D01*
X005884Y013336D01*
X005875Y013301D01*
X005875Y013085D01*
X005875Y013103D02*
X004355Y013103D01*
X004355Y013025D02*
X006133Y013025D01*
X006133Y013103D02*
X006211Y013103D01*
X006211Y013085D02*
X006211Y013422D01*
X006348Y013422D01*
X006384Y013413D01*
X006416Y013394D01*
X006442Y013368D01*
X006460Y013336D01*
X006470Y013301D01*
X006470Y013085D01*
X006211Y013085D01*
X006211Y013182D02*
X006133Y013182D01*
X006133Y013260D02*
X006211Y013260D01*
X006211Y013339D02*
X006133Y013339D01*
X006133Y013417D02*
X006211Y013417D01*
X006338Y013496D02*
X003648Y013496D01*
X003648Y013574D02*
X006268Y013574D01*
X006268Y013653D02*
X003648Y013653D01*
X003648Y013732D02*
X005962Y013732D01*
X005914Y013810D02*
X003648Y013810D01*
X003596Y013889D02*
X005914Y013889D01*
X005914Y013967D02*
X003517Y013967D01*
X003439Y014046D02*
X005914Y014046D01*
X005914Y014124D02*
X003360Y014124D01*
X002915Y014124D02*
X002207Y014124D01*
X002139Y014046D02*
X002837Y014046D01*
X002758Y013967D02*
X002071Y013967D01*
X002003Y013889D02*
X002679Y013889D01*
X002628Y013810D02*
X001939Y013810D01*
X001888Y013732D02*
X002628Y013732D01*
X002628Y013653D02*
X001838Y013653D01*
X001787Y013574D02*
X002628Y013574D01*
X002628Y013496D02*
X001737Y013496D01*
X001686Y013417D02*
X002208Y013417D01*
X002130Y013339D02*
X001636Y013339D01*
X001585Y013260D02*
X002051Y013260D01*
X001973Y013182D02*
X001535Y013182D01*
X001484Y013103D02*
X001921Y013103D01*
X001921Y013025D02*
X001434Y013025D01*
X001397Y012946D02*
X001921Y012946D01*
X001921Y012868D02*
X001361Y012868D01*
X001325Y012789D02*
X001921Y012789D01*
X001501Y012711D02*
X001289Y012711D01*
X001253Y012632D02*
X001423Y012632D01*
X001344Y012553D02*
X001217Y012553D01*
X001182Y012475D02*
X001266Y012475D01*
X001214Y012396D02*
X001146Y012396D01*
X001110Y012318D02*
X001214Y012318D01*
X001214Y012239D02*
X001074Y012239D01*
X001038Y012161D02*
X001214Y012161D01*
X001214Y012082D02*
X001012Y012082D01*
X000989Y012004D02*
X001214Y012004D01*
X001289Y011925D02*
X000966Y011925D01*
X000943Y011847D02*
X001367Y011847D01*
X001446Y011768D02*
X000920Y011768D01*
X000896Y011689D02*
X001921Y011689D01*
X001921Y011611D02*
X000873Y011611D01*
X000850Y011532D02*
X001921Y011532D01*
X001921Y011454D02*
X000827Y011454D01*
X000804Y011375D02*
X001921Y011375D01*
X001921Y011297D02*
X000781Y011297D01*
X000758Y011218D02*
X001881Y011218D01*
X001803Y011140D02*
X000747Y011140D01*
X000735Y011061D02*
X001724Y011061D01*
X001662Y010983D02*
X000724Y010983D01*
X000713Y010904D02*
X001662Y010904D01*
X001662Y010825D02*
X000701Y010825D01*
X000690Y010747D02*
X001662Y010747D01*
X001662Y010668D02*
X001429Y010668D01*
X001469Y010590D02*
X001662Y010590D01*
X001662Y010511D02*
X001470Y010511D01*
X001470Y010354D02*
X001662Y010354D01*
X001662Y010433D02*
X001133Y010433D01*
X001132Y010511D02*
X001055Y010511D01*
X001055Y010433D02*
X000645Y010433D01*
X000656Y010511D02*
X000717Y010511D01*
X000718Y010590D02*
X000668Y010590D01*
X000679Y010668D02*
X000758Y010668D01*
X001055Y010668D02*
X001132Y010668D01*
X001132Y010590D02*
X001055Y010590D01*
X001055Y010373D02*
X000717Y010373D01*
X000717Y010236D01*
X000727Y010201D01*
X000745Y010169D01*
X000771Y010143D01*
X000803Y010124D01*
X000839Y010115D01*
X001055Y010115D01*
X001055Y010373D01*
X001055Y010354D02*
X001132Y010354D01*
X001132Y010276D02*
X001055Y010276D01*
X001055Y010197D02*
X001132Y010197D01*
X001132Y010119D02*
X001055Y010119D01*
X000825Y010119D02*
X000621Y010119D01*
X000621Y010197D02*
X000729Y010197D01*
X000717Y010276D02*
X000622Y010276D01*
X000634Y010354D02*
X000717Y010354D01*
X000621Y010040D02*
X001465Y010040D01*
X001465Y009961D02*
X001427Y009961D01*
X001465Y010119D02*
X001362Y010119D01*
X001458Y010197D02*
X001465Y010197D01*
X001470Y010276D02*
X001487Y010276D01*
X002022Y010354D02*
X003220Y010354D01*
X003141Y010433D02*
X002022Y010433D01*
X002022Y010511D02*
X003063Y010511D01*
X002984Y010590D02*
X002022Y010590D01*
X002022Y010668D02*
X002906Y010668D01*
X002827Y010747D02*
X002022Y010747D01*
X002022Y010825D02*
X002749Y010825D01*
X002725Y010904D02*
X002076Y010904D01*
X002155Y010983D02*
X002725Y010983D01*
X002725Y011061D02*
X002708Y011061D01*
X002905Y010924D02*
X002905Y011751D01*
X002432Y012223D01*
X002432Y012893D01*
X002431Y012919D01*
X003138Y012211D02*
X003141Y012184D01*
X003141Y010963D01*
X004912Y009192D01*
X005660Y009192D01*
X005857Y009389D01*
X005850Y009393D01*
X005936Y009231D02*
X005660Y008956D01*
X004873Y008956D01*
X002905Y010924D01*
X003456Y010885D02*
X004971Y009369D01*
X005523Y009369D01*
X005700Y009546D01*
X005711Y009535D01*
X005711Y009532D01*
X005466Y009569D02*
X005026Y009569D01*
X004948Y009647D02*
X005388Y009647D01*
X005542Y009861D02*
X005700Y010019D01*
X005711Y010033D01*
X005822Y010172D02*
X005818Y010176D01*
X005818Y010215D01*
X005818Y010255D02*
X005850Y010172D01*
X005822Y010172D01*
X005818Y010255D02*
X005660Y010412D01*
X005660Y010491D01*
X005660Y010412D02*
X005267Y010019D01*
X005227Y010019D01*
X005188Y009979D01*
X005188Y010019D01*
X004996Y010197D02*
X004398Y010197D01*
X004476Y010119D02*
X004932Y010119D01*
X004899Y010040D02*
X004555Y010040D01*
X004633Y009961D02*
X004898Y009961D01*
X004914Y009883D02*
X004712Y009883D01*
X004791Y009804D02*
X004953Y009804D01*
X004869Y009726D02*
X005042Y009726D01*
X004477Y009098D02*
X003635Y009098D01*
X003635Y009053D02*
X003635Y009269D01*
X003626Y009305D01*
X003607Y009337D01*
X003581Y009363D01*
X003549Y009381D01*
X003514Y009391D01*
X003376Y009391D01*
X003376Y009054D01*
X003299Y009054D01*
X003299Y009391D01*
X003162Y009391D01*
X003126Y009381D01*
X003094Y009363D01*
X003068Y009337D01*
X003050Y009305D01*
X003040Y009269D01*
X003040Y009053D01*
X003299Y009053D01*
X003299Y008976D01*
X003040Y008976D01*
X003040Y008760D01*
X003050Y008724D01*
X003068Y008692D01*
X003094Y008666D01*
X003115Y008654D01*
X003094Y008642D01*
X003068Y008616D01*
X003050Y008584D01*
X003040Y008549D01*
X003040Y008333D01*
X003299Y008333D01*
X003299Y008670D01*
X003299Y008976D01*
X003376Y008976D01*
X003376Y008670D01*
X003376Y008333D01*
X003299Y008333D01*
X003299Y008255D01*
X003376Y008255D01*
X003376Y007918D01*
X003514Y007918D01*
X003549Y007927D01*
X003581Y007946D01*
X003607Y007972D01*
X003626Y008004D01*
X003635Y008039D01*
X003635Y008255D01*
X003377Y008255D01*
X003377Y008333D01*
X003635Y008333D01*
X003635Y008549D01*
X003626Y008584D01*
X003607Y008616D01*
X003581Y008642D01*
X003560Y008654D01*
X003581Y008666D01*
X003607Y008692D01*
X003626Y008724D01*
X003635Y008760D01*
X003635Y008976D01*
X003377Y008976D01*
X003377Y009053D01*
X003635Y009053D01*
X003635Y008940D02*
X004634Y008940D01*
X004712Y008862D02*
X003635Y008862D01*
X003635Y008783D02*
X004791Y008783D01*
X004573Y008626D02*
X005233Y008626D01*
X005235Y008705D02*
X004494Y008705D01*
X004358Y008705D02*
X003614Y008705D01*
X003597Y008626D02*
X004279Y008626D01*
X004201Y008548D02*
X003635Y008548D01*
X003635Y008469D02*
X004122Y008469D01*
X004064Y008391D02*
X003635Y008391D01*
X003635Y008234D02*
X004124Y008234D01*
X004064Y008312D02*
X003377Y008312D01*
X003299Y008312D02*
X002926Y008312D01*
X002926Y008234D02*
X003040Y008234D01*
X003040Y008255D02*
X003040Y008039D01*
X003050Y008004D01*
X003068Y007972D01*
X003094Y007946D01*
X003126Y007927D01*
X003162Y007918D01*
X003299Y007918D01*
X003299Y008255D01*
X003040Y008255D01*
X003040Y008155D02*
X002926Y008155D01*
X002926Y008076D02*
X003040Y008076D01*
X003053Y007998D02*
X002924Y007998D01*
X002846Y007919D02*
X003156Y007919D01*
X003299Y007919D02*
X003376Y007919D01*
X003376Y007998D02*
X003299Y007998D01*
X003299Y008076D02*
X003376Y008076D01*
X003376Y008155D02*
X003299Y008155D01*
X003299Y008234D02*
X003376Y008234D01*
X003376Y008391D02*
X003299Y008391D01*
X003299Y008469D02*
X003376Y008469D01*
X003376Y008548D02*
X003299Y008548D01*
X003299Y008626D02*
X003376Y008626D01*
X003376Y008705D02*
X003299Y008705D01*
X003299Y008783D02*
X003376Y008783D01*
X003376Y008862D02*
X003299Y008862D01*
X003299Y008940D02*
X003376Y008940D01*
X003377Y009019D02*
X004555Y009019D01*
X004398Y009176D02*
X003635Y009176D01*
X003635Y009255D02*
X004319Y009255D01*
X004241Y009333D02*
X003609Y009333D01*
X003376Y009333D02*
X003299Y009333D01*
X003299Y009255D02*
X003376Y009255D01*
X003376Y009176D02*
X003299Y009176D01*
X003299Y009098D02*
X003376Y009098D01*
X003299Y009019D02*
X002926Y009019D01*
X002926Y009098D02*
X003040Y009098D01*
X003040Y009176D02*
X002926Y009176D01*
X002926Y009255D02*
X003040Y009255D01*
X003066Y009333D02*
X002902Y009333D01*
X002943Y009490D02*
X003023Y009490D01*
X003023Y009569D02*
X002943Y009569D01*
X002943Y009647D02*
X003023Y009647D01*
X003023Y009726D02*
X002943Y009726D01*
X002943Y009804D02*
X003023Y009804D01*
X003023Y009883D02*
X003691Y009883D01*
X003613Y009961D02*
X003399Y009961D01*
X003399Y010040D02*
X003534Y010040D01*
X003456Y010119D02*
X003399Y010119D01*
X003399Y009804D02*
X003770Y009804D01*
X003848Y009726D02*
X003399Y009726D01*
X003399Y009647D02*
X003927Y009647D01*
X004005Y009569D02*
X003399Y009569D01*
X003377Y009490D02*
X004084Y009490D01*
X004162Y009412D02*
X002152Y009412D01*
X002152Y009411D02*
X002152Y009411D01*
X002262Y009333D02*
X002356Y009333D01*
X002331Y009255D02*
X002287Y009255D01*
X002078Y009231D02*
X002078Y009074D01*
X002038Y009015D01*
X002038Y009034D01*
X002629Y009034D01*
X002629Y009015D01*
X002629Y008294D01*
X002331Y008312D02*
X002260Y008312D01*
X002287Y008234D02*
X002331Y008234D01*
X002331Y008155D02*
X002287Y008155D01*
X002287Y008076D02*
X002331Y008076D01*
X002334Y007998D02*
X002287Y007998D01*
X002287Y007919D02*
X002412Y007919D01*
X002287Y007841D02*
X003562Y007841D01*
X003580Y007919D02*
X003519Y007919D01*
X003622Y007998D02*
X003651Y007998D01*
X003724Y007998D02*
X003833Y007998D01*
X003802Y007919D02*
X003912Y007919D01*
X003881Y007841D02*
X003971Y007841D01*
X003991Y007841D02*
X004081Y007841D01*
X004069Y007762D02*
X004003Y007762D01*
X003959Y007762D02*
X003893Y007762D01*
X003924Y007684D02*
X003814Y007684D01*
X003845Y007605D02*
X003011Y007605D01*
X003090Y007527D02*
X003829Y007527D01*
X003908Y007448D02*
X003168Y007448D01*
X003247Y007370D02*
X003982Y007370D01*
X004061Y007291D02*
X003325Y007291D01*
X003404Y007212D02*
X004236Y007212D01*
X004218Y007134D02*
X003482Y007134D01*
X003561Y007055D02*
X004296Y007055D01*
X004215Y006898D02*
X003718Y006898D01*
X003667Y006820D02*
X003667Y006820D01*
X003588Y006741D02*
X003589Y006741D01*
X003510Y006663D02*
X003510Y006663D01*
X003431Y006584D02*
X003432Y006584D01*
X003353Y006506D02*
X003353Y006506D01*
X003274Y006427D02*
X003275Y006427D01*
X003195Y006349D02*
X003196Y006349D01*
X003120Y006349D02*
X002931Y006349D01*
X002902Y006427D02*
X002853Y006427D01*
X002824Y006506D02*
X002549Y006506D01*
X002604Y006584D02*
X002745Y006584D01*
X002786Y006494D02*
X002670Y006494D01*
X002059Y005883D01*
X002059Y005767D01*
X002670Y005156D01*
X002727Y005156D01*
X002727Y005099D01*
X003338Y004488D01*
X003454Y004488D01*
X004065Y005099D01*
X004065Y005215D01*
X003454Y005826D01*
X003397Y005826D01*
X003397Y005883D01*
X002786Y006494D01*
X002603Y006427D02*
X002470Y006427D01*
X002524Y006349D02*
X002392Y006349D01*
X002446Y006270D02*
X002313Y006270D01*
X002367Y006191D02*
X002234Y006191D01*
X002289Y006113D02*
X002156Y006113D01*
X002210Y006034D02*
X002077Y006034D01*
X002132Y005956D02*
X001999Y005956D01*
X002059Y005877D02*
X001860Y005877D01*
X001870Y005956D02*
X001810Y005956D01*
X001792Y006034D02*
X001759Y006034D01*
X001713Y006113D02*
X001709Y006113D01*
X001910Y005799D02*
X002059Y005799D01*
X002106Y005720D02*
X001965Y005720D01*
X002033Y005642D02*
X002184Y005642D01*
X002263Y005563D02*
X002101Y005563D01*
X002169Y005485D02*
X002342Y005485D01*
X002420Y005406D02*
X002237Y005406D01*
X002305Y005327D02*
X002499Y005327D01*
X002577Y005249D02*
X002373Y005249D01*
X002441Y005170D02*
X002656Y005170D01*
X002734Y005092D02*
X002509Y005092D01*
X002577Y005013D02*
X002813Y005013D01*
X002891Y004935D02*
X002667Y004935D01*
X002758Y004856D02*
X002970Y004856D01*
X003048Y004778D02*
X002848Y004778D01*
X002939Y004699D02*
X003127Y004699D01*
X003206Y004621D02*
X003029Y004621D01*
X003120Y004542D02*
X003284Y004542D01*
X003211Y004463D02*
X003563Y004463D01*
X003521Y004385D02*
X003301Y004385D01*
X003508Y004542D02*
X003641Y004542D01*
X003587Y004621D02*
X003720Y004621D01*
X003665Y004699D02*
X003798Y004699D01*
X003744Y004778D02*
X003877Y004778D01*
X003822Y004856D02*
X003955Y004856D01*
X003901Y004935D02*
X004034Y004935D01*
X003979Y005013D02*
X004112Y005013D01*
X004058Y005092D02*
X004238Y005092D01*
X004267Y005013D02*
X004316Y005013D01*
X004345Y004935D02*
X004395Y004935D01*
X004424Y004856D02*
X004473Y004856D01*
X004502Y004778D02*
X004552Y004778D01*
X004581Y004699D02*
X004630Y004699D01*
X004659Y004621D02*
X005129Y004621D01*
X005070Y004542D02*
X004738Y004542D01*
X004816Y004463D02*
X005017Y004463D01*
X005022Y004699D02*
X004779Y004699D01*
X004857Y004778D02*
X004981Y004778D01*
X004967Y004856D02*
X004936Y004856D01*
X005250Y005170D02*
X005992Y005170D01*
X006070Y005092D02*
X005350Y005092D01*
X005443Y005013D02*
X005541Y005013D01*
X005774Y005013D02*
X006149Y005013D01*
X006227Y004935D02*
X005853Y004935D01*
X005931Y004856D02*
X006306Y004856D01*
X006384Y004778D02*
X006010Y004778D01*
X006076Y004699D02*
X006824Y004699D01*
X006902Y004621D02*
X006076Y004621D01*
X006023Y004542D02*
X006981Y004542D01*
X006745Y004778D02*
X006521Y004778D01*
X006599Y004856D02*
X006667Y004856D01*
X007019Y005013D02*
X008218Y005013D01*
X008296Y004935D02*
X007097Y004935D01*
X007176Y004856D02*
X008375Y004856D01*
X008139Y005092D02*
X006940Y005092D01*
X006913Y005170D02*
X008131Y005170D01*
X008164Y005249D02*
X006992Y005249D01*
X007010Y005327D02*
X008243Y005327D01*
X008321Y005406D02*
X007186Y005406D01*
X007175Y005400D02*
X007207Y005418D01*
X007401Y005612D01*
X007121Y005891D01*
X006842Y005612D01*
X007035Y005418D01*
X007067Y005400D01*
X007103Y005390D01*
X007140Y005390D01*
X007175Y005400D01*
X007056Y005406D02*
X006987Y005406D01*
X006969Y005485D02*
X006908Y005485D01*
X006890Y005563D02*
X006830Y005563D01*
X006871Y005642D02*
X006751Y005642D01*
X006785Y005668D02*
X006591Y005862D01*
X006573Y005894D01*
X006564Y005929D01*
X006564Y005966D01*
X006573Y006002D01*
X006591Y006034D01*
X006785Y006227D01*
X007064Y005948D01*
X007121Y006004D01*
X006842Y006284D01*
X007035Y006477D01*
X007067Y006496D01*
X007103Y006505D01*
X007140Y006505D01*
X007175Y006496D01*
X007207Y006477D01*
X007401Y006284D01*
X007121Y006004D01*
X007178Y005948D01*
X007457Y006227D01*
X007651Y006034D01*
X007669Y006002D01*
X007679Y005966D01*
X007679Y005929D01*
X007669Y005894D01*
X007651Y005862D01*
X007457Y005668D01*
X007178Y005948D01*
X007121Y005891D01*
X007064Y005948D01*
X006785Y005668D01*
X006733Y005720D02*
X006673Y005720D01*
X006654Y005799D02*
X006594Y005799D01*
X006583Y005877D02*
X006516Y005877D01*
X006564Y005956D02*
X005614Y005956D01*
X005693Y006034D02*
X006592Y006034D01*
X006671Y006113D02*
X005771Y006113D01*
X005850Y006191D02*
X006749Y006191D01*
X006821Y006191D02*
X006934Y006191D01*
X006899Y006113D02*
X007012Y006113D01*
X006978Y006034D02*
X007091Y006034D01*
X007151Y006034D02*
X007264Y006034D01*
X007230Y006113D02*
X007343Y006113D01*
X007308Y006191D02*
X007421Y006191D01*
X007493Y006191D02*
X008569Y006191D01*
X008491Y006113D02*
X007571Y006113D01*
X007650Y006034D02*
X008428Y006034D01*
X008428Y005956D02*
X007679Y005956D01*
X007660Y005877D02*
X008485Y005877D01*
X008564Y005799D02*
X007588Y005799D01*
X007509Y005720D02*
X008642Y005720D01*
X008721Y005642D02*
X007371Y005642D01*
X007352Y005563D02*
X008667Y005563D01*
X008400Y005485D02*
X007273Y005485D01*
X007292Y005720D02*
X007405Y005720D01*
X007327Y005799D02*
X007214Y005799D01*
X007248Y005877D02*
X007135Y005877D01*
X007107Y005877D02*
X006994Y005877D01*
X007029Y005799D02*
X006916Y005799D01*
X006950Y005720D02*
X006837Y005720D01*
X007056Y005956D02*
X007072Y005956D01*
X007170Y005956D02*
X007186Y005956D01*
X007387Y006270D02*
X008648Y006270D01*
X008726Y006349D02*
X007336Y006349D01*
X007257Y006427D02*
X008956Y006427D01*
X009035Y006506D02*
X006164Y006506D01*
X006242Y006584D02*
X009034Y006584D01*
X008965Y006663D02*
X008022Y006663D01*
X008069Y006710D02*
X007972Y006613D01*
X007941Y006594D01*
X007905Y006585D01*
X007868Y006585D01*
X007832Y006594D01*
X007801Y006613D01*
X007648Y006765D01*
X007831Y006948D01*
X007886Y007003D01*
X008124Y006764D01*
X008221Y006861D01*
X008240Y006893D01*
X008249Y006929D01*
X008249Y006966D01*
X008240Y007001D01*
X008221Y007033D01*
X008069Y007186D01*
X007886Y007003D01*
X007831Y007058D01*
X008014Y007241D01*
X007861Y007393D01*
X007829Y007412D01*
X007794Y007421D01*
X007757Y007421D01*
X007721Y007412D01*
X007689Y007393D01*
X007592Y007296D01*
X007831Y007058D01*
X007776Y007003D01*
X007831Y006948D01*
X008069Y006710D01*
X008038Y006741D02*
X008965Y006741D01*
X009017Y006820D02*
X008180Y006820D01*
X008241Y006898D02*
X009095Y006898D01*
X009174Y006977D02*
X008246Y006977D01*
X008199Y007055D02*
X009196Y007055D01*
X009117Y007134D02*
X008494Y007134D01*
X008446Y007086D02*
X008750Y007390D01*
X008750Y007506D01*
X008695Y007562D01*
X008758Y007588D01*
X008839Y007669D01*
X008884Y007776D01*
X008884Y007889D01*
X008910Y007878D01*
X009025Y007878D01*
X009132Y007922D01*
X009213Y008004D01*
X009258Y008110D01*
X009258Y008226D01*
X009213Y008332D01*
X009151Y008395D01*
X009174Y008417D01*
X009174Y008418D01*
X009177Y008414D01*
X009284Y008370D01*
X009399Y008370D01*
X009506Y008414D01*
X009587Y008496D01*
X009632Y008603D01*
X009632Y008718D01*
X009587Y008825D01*
X009506Y008906D01*
X009399Y008950D01*
X009385Y008950D01*
X009380Y008956D01*
X009436Y009012D01*
X009442Y009012D01*
X009745Y008709D01*
X009861Y008709D01*
X010277Y009125D01*
X010277Y009142D01*
X010334Y009142D01*
X010750Y009558D01*
X010750Y009674D01*
X010731Y009693D01*
X010734Y009693D01*
X010969Y009928D01*
X010969Y009960D01*
X010994Y009967D01*
X011026Y009986D01*
X011106Y010065D01*
X010850Y010321D01*
X010870Y010341D01*
X011126Y010085D01*
X011205Y010165D01*
X011224Y010197D01*
X011621Y010197D01*
X011671Y010247D02*
X011505Y010080D01*
X011295Y010080D01*
X011189Y009975D01*
X010638Y009424D01*
X010638Y009286D01*
X010414Y009062D01*
X010414Y009045D01*
X010357Y009045D01*
X009941Y008629D01*
X009941Y008513D01*
X010246Y008208D01*
X010362Y008208D01*
X010778Y008624D01*
X010778Y008641D01*
X010835Y008641D01*
X011251Y009057D01*
X011251Y009060D01*
X011342Y008969D01*
X011458Y008969D01*
X011633Y009144D01*
X011790Y009144D01*
X012029Y008906D01*
X012145Y008906D01*
X012561Y009322D01*
X012561Y009438D01*
X012535Y009463D01*
X012612Y009540D01*
X012612Y009689D01*
X012612Y009749D01*
X012865Y010002D01*
X012865Y010042D01*
X013085Y009822D01*
X013201Y009822D01*
X013505Y010127D01*
X013505Y010243D01*
X013089Y010659D01*
X013049Y010659D01*
X013101Y010711D01*
X013101Y010827D01*
X013082Y010846D01*
X013170Y010846D01*
X013170Y010739D01*
X013586Y010323D01*
X013702Y010323D01*
X014007Y010628D01*
X014007Y010744D01*
X013591Y011160D01*
X013511Y011160D01*
X013613Y011262D01*
X013613Y011378D01*
X013593Y011397D01*
X013609Y011413D01*
X013714Y011519D01*
X013714Y011637D01*
X013714Y011786D01*
X012887Y012613D01*
X012934Y012659D01*
X012934Y012775D01*
X012295Y013414D01*
X012179Y013414D01*
X011596Y012831D01*
X011596Y012715D01*
X012235Y012076D01*
X012351Y012076D01*
X012633Y012358D01*
X013339Y011652D01*
X013339Y011652D01*
X013308Y011682D01*
X013192Y011682D01*
X012776Y011266D01*
X012776Y011150D01*
X012795Y011131D01*
X012680Y011131D01*
X012266Y010717D01*
X012186Y010797D01*
X012600Y011212D01*
X012600Y011328D01*
X012581Y011347D01*
X012696Y011347D01*
X013112Y011763D01*
X013112Y011879D01*
X012807Y012184D01*
X012691Y012184D01*
X012275Y011767D01*
X012275Y011651D01*
X012294Y011632D01*
X012179Y011632D01*
X011763Y011216D01*
X011763Y011100D01*
X011941Y010922D01*
X011921Y010902D01*
X011445Y011378D01*
X011605Y011537D01*
X011605Y011653D01*
X011300Y011958D01*
X011184Y011958D01*
X010768Y011542D01*
X010768Y011486D01*
X010712Y011486D01*
X010296Y011070D01*
X010296Y010954D01*
X010600Y010649D01*
X010625Y010649D01*
X010594Y010617D01*
X010850Y010361D01*
X010829Y010341D01*
X010574Y010597D01*
X010494Y010518D01*
X010476Y010486D01*
X010469Y010460D01*
X010437Y010460D01*
X010202Y010225D01*
X010202Y010109D01*
X010332Y009979D01*
X010329Y009979D01*
X009913Y009563D01*
X009913Y009546D01*
X009856Y009546D01*
X009682Y009372D01*
X009287Y009372D01*
X009181Y009266D01*
X009090Y009175D01*
X009081Y009175D01*
X009071Y009186D01*
X009080Y009176D02*
X009091Y009176D01*
X009139Y009255D02*
X009170Y009255D01*
X009218Y009333D02*
X009248Y009333D01*
X009289Y009412D02*
X009722Y009412D01*
X009801Y009490D02*
X009289Y009490D01*
X009240Y009569D02*
X009919Y009569D01*
X009997Y009647D02*
X009162Y009647D01*
X009083Y009726D02*
X009402Y009726D01*
X009670Y009726D02*
X010076Y009726D01*
X010154Y009804D02*
X009748Y009804D01*
X009815Y009883D02*
X010233Y009883D01*
X010312Y009961D02*
X009905Y009961D01*
X009897Y010040D02*
X009871Y010040D01*
X009819Y010119D02*
X009792Y010119D01*
X009789Y010197D02*
X009763Y010197D01*
X009841Y010276D02*
X009868Y010276D01*
X009907Y010354D02*
X010331Y010354D01*
X010409Y010433D02*
X009829Y010433D01*
X009730Y010511D02*
X010491Y010511D01*
X010566Y010590D02*
X009729Y010590D01*
X009697Y010668D02*
X010581Y010668D01*
X010581Y010590D02*
X010621Y010590D01*
X010659Y010511D02*
X010700Y010511D01*
X010738Y010433D02*
X010778Y010433D01*
X010817Y010354D02*
X010842Y010354D01*
X010895Y010276D02*
X010935Y010276D01*
X010974Y010197D02*
X011014Y010197D01*
X011052Y010119D02*
X011092Y010119D01*
X011159Y010119D02*
X011543Y010119D01*
X011671Y010247D02*
X011527Y010392D01*
X011527Y010508D01*
X011667Y010647D01*
X011191Y011123D01*
X011189Y011121D01*
X011133Y011121D01*
X011133Y011065D01*
X011057Y010989D01*
X011082Y010989D01*
X011498Y010573D01*
X011498Y010457D01*
X011263Y010222D01*
X011231Y010222D01*
X011224Y010197D01*
X011316Y010276D02*
X011643Y010276D01*
X011564Y010354D02*
X011395Y010354D01*
X011473Y010433D02*
X011527Y010433D01*
X011531Y010511D02*
X011498Y010511D01*
X011481Y010590D02*
X011609Y010590D01*
X011646Y010668D02*
X011402Y010668D01*
X011324Y010747D02*
X011567Y010747D01*
X011489Y010825D02*
X011245Y010825D01*
X011167Y010904D02*
X011410Y010904D01*
X011332Y010983D02*
X011088Y010983D01*
X011129Y011061D02*
X011253Y011061D01*
X011527Y011297D02*
X011844Y011297D01*
X011922Y011375D02*
X011448Y011375D01*
X011521Y011454D02*
X012001Y011454D01*
X012079Y011532D02*
X011600Y011532D01*
X011605Y011611D02*
X012158Y011611D01*
X012275Y011689D02*
X011569Y011689D01*
X011490Y011768D02*
X012276Y011768D01*
X012354Y011847D02*
X011412Y011847D01*
X011333Y011925D02*
X012433Y011925D01*
X012511Y012004D02*
X011069Y012004D01*
X011076Y012010D02*
X010923Y011858D01*
X010741Y012041D01*
X010686Y012096D01*
X010924Y012334D01*
X010827Y012431D01*
X010795Y012450D01*
X010760Y012459D01*
X010723Y012459D01*
X010687Y012450D01*
X010655Y012431D01*
X010503Y012279D01*
X010685Y012096D01*
X010631Y012041D01*
X010448Y012224D01*
X010295Y012071D01*
X010277Y012039D01*
X010267Y012004D01*
X009305Y012004D01*
X009305Y012082D02*
X010306Y012082D01*
X010267Y012004D02*
X010267Y011987D01*
X010250Y011987D01*
X010215Y011977D01*
X010183Y011959D01*
X010030Y011806D01*
X010213Y011623D01*
X010158Y011568D01*
X010213Y011513D01*
X010268Y011568D01*
X010451Y011385D01*
X010604Y011538D01*
X010622Y011570D01*
X010631Y011606D01*
X010631Y011622D01*
X010648Y011622D01*
X010684Y011632D01*
X010716Y011650D01*
X010868Y011803D01*
X010686Y011986D01*
X010741Y012041D01*
X010979Y012279D01*
X011076Y012182D01*
X011094Y012150D01*
X011104Y012115D01*
X011104Y012078D01*
X011094Y012042D01*
X011076Y012010D01*
X011104Y012082D02*
X012228Y012082D01*
X012150Y012161D02*
X011088Y012161D01*
X011019Y012239D02*
X012071Y012239D01*
X011993Y012318D02*
X010908Y012318D01*
X010939Y012239D02*
X010829Y012239D01*
X010860Y012161D02*
X010751Y012161D01*
X010782Y012082D02*
X010699Y012082D01*
X010672Y012082D02*
X010589Y012082D01*
X010631Y012041D02*
X010685Y011986D01*
X010486Y011786D01*
X010268Y011568D01*
X010213Y011623D01*
X010431Y011841D01*
X010631Y012041D01*
X010594Y012004D02*
X010668Y012004D01*
X010704Y012004D02*
X010777Y012004D01*
X010746Y011925D02*
X010856Y011925D01*
X010825Y011847D02*
X011073Y011847D01*
X011151Y011925D02*
X010991Y011925D01*
X010994Y011768D02*
X010833Y011768D01*
X010755Y011689D02*
X010916Y011689D01*
X010837Y011611D02*
X010631Y011611D01*
X010598Y011532D02*
X010768Y011532D01*
X010680Y011454D02*
X010519Y011454D01*
X010601Y011375D02*
X010351Y011375D01*
X010396Y011331D02*
X010213Y011513D01*
X009974Y011275D01*
X010071Y011178D01*
X010103Y011159D01*
X010139Y011150D01*
X010176Y011150D01*
X010211Y011159D01*
X010243Y011178D01*
X010396Y011331D01*
X010362Y011297D02*
X010523Y011297D01*
X010444Y011218D02*
X010284Y011218D01*
X010366Y011140D02*
X009415Y011140D01*
X009414Y011061D02*
X010296Y011061D01*
X010296Y010983D02*
X009382Y010983D01*
X009318Y010904D02*
X010345Y010904D01*
X010424Y010825D02*
X009323Y010825D01*
X009066Y010688D02*
X009007Y010688D01*
X008889Y010570D01*
X008698Y010570D01*
X008578Y010450D01*
X008692Y010294D02*
X008718Y010311D01*
X008692Y010255D01*
X008574Y010137D01*
X008574Y009979D01*
X008554Y009979D01*
X008857Y010172D02*
X008924Y010192D01*
X009283Y010550D01*
X009440Y010530D01*
X009634Y010747D02*
X010502Y010747D01*
X010714Y011067D02*
X010739Y011082D01*
X011172Y011515D01*
X011187Y011540D01*
X011133Y011436D01*
X011920Y010649D01*
X011920Y010530D01*
X011945Y010505D01*
X012236Y010747D02*
X012296Y010747D01*
X012375Y010825D02*
X012214Y010825D01*
X012292Y010904D02*
X012453Y010904D01*
X012532Y010983D02*
X012371Y010983D01*
X012449Y011061D02*
X012610Y011061D01*
X012528Y011140D02*
X012787Y011140D01*
X012776Y011218D02*
X012600Y011218D01*
X012600Y011297D02*
X012806Y011297D01*
X012885Y011375D02*
X012724Y011375D01*
X012803Y011454D02*
X012964Y011454D01*
X013042Y011532D02*
X012881Y011532D01*
X012960Y011611D02*
X013121Y011611D01*
X013038Y011689D02*
X013302Y011689D01*
X013223Y011768D02*
X013112Y011768D01*
X013112Y011847D02*
X013145Y011847D01*
X013066Y011925D02*
X013066Y011925D01*
X012987Y012004D02*
X012988Y012004D01*
X012908Y012082D02*
X012909Y012082D01*
X012830Y012161D02*
X012831Y012161D01*
X012752Y012239D02*
X012514Y012239D01*
X012592Y012318D02*
X012674Y012318D01*
X012668Y012161D02*
X012435Y012161D01*
X012357Y012082D02*
X012590Y012082D01*
X012693Y011765D02*
X012708Y011751D01*
X012196Y011239D01*
X012182Y011214D01*
X011881Y010983D02*
X011841Y010983D01*
X011802Y011061D02*
X011762Y011061D01*
X011763Y011140D02*
X011684Y011140D01*
X011605Y011218D02*
X011765Y011218D01*
X011919Y010904D02*
X011923Y010904D01*
X012668Y010688D02*
X012683Y010713D01*
X012668Y010688D02*
X011842Y009861D01*
X011838Y009882D01*
X011802Y009900D01*
X011369Y009900D01*
X010818Y009349D01*
X010818Y009113D01*
X010832Y009059D01*
X010818Y009074D01*
X010385Y008641D01*
X010360Y008626D01*
X010545Y008391D02*
X010796Y008391D01*
X010875Y008469D02*
X010623Y008469D01*
X010702Y008548D02*
X012423Y008548D01*
X012405Y008530D02*
X012502Y008433D01*
X012534Y008414D01*
X012569Y008405D01*
X012606Y008405D01*
X012642Y008414D01*
X012674Y008433D01*
X012826Y008585D01*
X012643Y008768D01*
X012405Y008530D01*
X012350Y008585D02*
X012588Y008823D01*
X012643Y008768D01*
X012698Y008823D01*
X012881Y008640D01*
X013034Y008793D01*
X013052Y008825D01*
X013062Y008860D01*
X013062Y008897D01*
X013052Y008933D01*
X013034Y008965D01*
X012937Y009062D01*
X012698Y008823D01*
X012643Y008878D01*
X012588Y008823D01*
X012406Y009006D01*
X012253Y008853D01*
X012234Y008821D01*
X012225Y008786D01*
X012225Y008749D01*
X012234Y008713D01*
X012253Y008681D01*
X012350Y008585D01*
X012392Y008626D02*
X012501Y008626D01*
X012470Y008705D02*
X012580Y008705D01*
X012549Y008783D02*
X012628Y008783D01*
X012659Y008783D02*
X012738Y008783D01*
X012737Y008862D02*
X012660Y008862D01*
X012643Y008878D02*
X012882Y009117D01*
X012785Y009214D01*
X012753Y009232D01*
X012717Y009241D01*
X012681Y009241D01*
X012645Y009232D01*
X012613Y009214D01*
X012460Y009061D01*
X012643Y008878D01*
X012627Y008862D02*
X012550Y008862D01*
X012581Y008940D02*
X012471Y008940D01*
X012502Y009019D02*
X012258Y009019D01*
X012336Y009098D02*
X012497Y009098D01*
X012576Y009176D02*
X012415Y009176D01*
X012493Y009255D02*
X014079Y009255D01*
X014086Y009333D02*
X012561Y009333D01*
X012561Y009412D02*
X014086Y009412D01*
X014086Y009490D02*
X012563Y009490D01*
X012612Y009569D02*
X014086Y009569D01*
X014086Y009647D02*
X012612Y009647D01*
X012612Y009726D02*
X014086Y009726D01*
X014086Y009804D02*
X012667Y009804D01*
X012746Y009883D02*
X013024Y009883D01*
X012945Y009961D02*
X012824Y009961D01*
X012865Y010040D02*
X012867Y010040D01*
X012683Y010240D02*
X012446Y010004D01*
X012432Y009979D01*
X012432Y009614D01*
X012142Y009324D01*
X011338Y009324D01*
X011309Y009353D01*
X011330Y009389D01*
X011330Y009507D01*
X011448Y009625D01*
X011176Y009961D02*
X010973Y009961D01*
X010924Y009883D02*
X011097Y009883D01*
X011019Y009804D02*
X010845Y009804D01*
X010767Y009726D02*
X010940Y009726D01*
X010861Y009647D02*
X010750Y009647D01*
X010750Y009569D02*
X010783Y009569D01*
X010704Y009490D02*
X010682Y009490D01*
X010638Y009412D02*
X010603Y009412D01*
X010638Y009333D02*
X010525Y009333D01*
X010446Y009255D02*
X010607Y009255D01*
X010528Y009176D02*
X010368Y009176D01*
X010450Y009098D02*
X010250Y009098D01*
X010171Y009019D02*
X010332Y009019D01*
X010253Y008940D02*
X010093Y008940D01*
X010014Y008862D02*
X010175Y008862D01*
X010096Y008783D02*
X009935Y008783D01*
X010018Y008705D02*
X009632Y008705D01*
X009632Y008626D02*
X009941Y008626D01*
X009941Y008548D02*
X009609Y008548D01*
X009561Y008469D02*
X009985Y008469D01*
X010063Y008391D02*
X009448Y008391D01*
X009552Y008312D02*
X009222Y008312D01*
X009235Y008391D02*
X009155Y008391D01*
X009254Y008234D02*
X009525Y008234D01*
X009499Y008259D02*
X009738Y008021D01*
X009921Y008204D01*
X009768Y008356D01*
X009736Y008375D01*
X009701Y008384D01*
X009664Y008384D01*
X009628Y008375D01*
X009596Y008356D01*
X009499Y008259D01*
X009444Y008204D02*
X009347Y008108D01*
X009329Y008076D01*
X009319Y008040D01*
X009319Y008003D01*
X009329Y007968D01*
X009347Y007936D01*
X009500Y007783D01*
X009683Y007966D01*
X009444Y008204D01*
X009395Y008155D02*
X009258Y008155D01*
X009243Y008076D02*
X009329Y008076D01*
X009321Y007998D02*
X009207Y007998D01*
X009125Y007919D02*
X009364Y007919D01*
X009442Y007841D02*
X009281Y007841D01*
X009360Y007762D02*
X009589Y007762D01*
X009555Y007728D02*
X009707Y007576D01*
X009739Y007557D01*
X009775Y007548D01*
X009812Y007548D01*
X009847Y007557D01*
X009879Y007576D01*
X009976Y007672D01*
X009738Y007911D01*
X009793Y007966D01*
X009738Y008021D01*
X009683Y007966D01*
X009738Y007911D01*
X009555Y007728D01*
X009599Y007684D02*
X009439Y007684D01*
X009517Y007605D02*
X009678Y007605D01*
X009724Y007527D02*
X009596Y007527D01*
X009851Y007527D02*
X009922Y007527D01*
X009909Y007605D02*
X010000Y007605D01*
X009965Y007684D02*
X010079Y007684D01*
X010031Y007727D02*
X010128Y007824D01*
X010147Y007856D01*
X010156Y007892D01*
X010156Y007929D01*
X010147Y007964D01*
X010128Y007996D01*
X009976Y008149D01*
X009793Y007966D01*
X010031Y007727D01*
X009996Y007762D02*
X009887Y007762D01*
X009918Y007841D02*
X009808Y007841D01*
X009839Y007919D02*
X009746Y007919D01*
X009729Y007919D02*
X009636Y007919D01*
X009651Y007998D02*
X009715Y007998D01*
X009761Y007998D02*
X009825Y007998D01*
X009793Y008076D02*
X009903Y008076D01*
X009872Y008155D02*
X010550Y008155D01*
X010472Y008076D02*
X010048Y008076D01*
X010126Y007998D02*
X010393Y007998D01*
X010315Y007919D02*
X010156Y007919D01*
X010138Y007841D02*
X010236Y007841D01*
X010158Y007762D02*
X010066Y007762D01*
X009668Y007841D02*
X009558Y007841D01*
X009572Y008076D02*
X009682Y008076D01*
X009604Y008155D02*
X009494Y008155D01*
X009812Y008312D02*
X010142Y008312D01*
X010221Y008234D02*
X009891Y008234D01*
X010388Y008234D02*
X010629Y008234D01*
X010718Y008312D02*
X010466Y008312D01*
X010739Y008089D02*
X009873Y007223D01*
X009873Y007184D01*
X009878Y007149D01*
X010165Y007212D02*
X010249Y007212D01*
X010249Y007291D02*
X010195Y007291D01*
X010274Y007370D02*
X010312Y007370D01*
X010352Y007448D02*
X010391Y007448D01*
X010431Y007527D02*
X010470Y007527D01*
X010509Y007605D02*
X010548Y007605D01*
X010588Y007684D02*
X011164Y007684D01*
X011112Y007631D02*
X011222Y007741D01*
X011404Y007560D01*
X011457Y007613D01*
X011653Y007809D01*
X011557Y007905D01*
X011525Y007923D01*
X011489Y007933D01*
X011453Y007933D01*
X011417Y007923D01*
X011385Y007905D01*
X011275Y007794D01*
X011457Y007613D01*
X011510Y007560D01*
X011706Y007756D01*
X011802Y007660D01*
X011821Y007628D01*
X011830Y007592D01*
X011830Y007555D01*
X011821Y007520D01*
X011802Y007488D01*
X011692Y007377D01*
X011510Y007559D01*
X011457Y007506D01*
X011639Y007324D01*
X011529Y007214D01*
X011497Y007196D01*
X011461Y007186D01*
X011424Y007186D01*
X011389Y007196D01*
X011357Y007214D01*
X011261Y007310D01*
X011457Y007506D01*
X011404Y007559D01*
X011208Y007363D01*
X011112Y007459D01*
X011093Y007491D01*
X011084Y007527D01*
X011084Y007564D01*
X011093Y007599D01*
X011112Y007631D01*
X011097Y007605D02*
X010725Y007605D01*
X010804Y007527D02*
X011084Y007527D01*
X011123Y007448D02*
X010882Y007448D01*
X010961Y007370D02*
X011201Y007370D01*
X011214Y007370D02*
X011320Y007370D01*
X011293Y007448D02*
X011399Y007448D01*
X011371Y007527D02*
X011436Y007527D01*
X011477Y007527D02*
X011543Y007527D01*
X011556Y007605D02*
X011464Y007605D01*
X011449Y007605D02*
X011358Y007605D01*
X011386Y007684D02*
X011280Y007684D01*
X011307Y007762D02*
X011002Y007762D01*
X011081Y007841D02*
X011321Y007841D01*
X011410Y007919D02*
X011159Y007919D01*
X011238Y007998D02*
X013846Y007998D01*
X013823Y007919D02*
X011532Y007919D01*
X011621Y007841D02*
X013800Y007841D01*
X013777Y007762D02*
X011607Y007762D01*
X011634Y007684D02*
X011528Y007684D01*
X011778Y007684D02*
X013754Y007684D01*
X013731Y007605D02*
X011827Y007605D01*
X011823Y007527D02*
X013708Y007527D01*
X013685Y007448D02*
X011763Y007448D01*
X011621Y007448D02*
X011515Y007448D01*
X011594Y007370D02*
X013653Y007370D01*
X013617Y007291D02*
X011606Y007291D01*
X011526Y007212D02*
X013581Y007212D01*
X013545Y007134D02*
X010911Y007134D01*
X010833Y007055D02*
X013509Y007055D01*
X013474Y006977D02*
X010754Y006977D01*
X010541Y006898D02*
X010511Y006898D01*
X010623Y007262D02*
X010621Y007263D01*
X008534Y005176D01*
X008504Y005172D01*
X008628Y004463D02*
X005944Y004463D01*
X005708Y004228D02*
X006315Y004228D01*
X006236Y004149D02*
X005630Y004149D01*
X005551Y004071D02*
X006158Y004071D01*
X006079Y003992D02*
X004545Y003992D01*
X004467Y003914D02*
X006000Y003914D01*
X005922Y003835D02*
X004388Y003835D01*
X004624Y004071D02*
X005319Y004071D01*
X005240Y004149D02*
X004702Y004149D01*
X004781Y004228D02*
X005162Y004228D01*
X006326Y003763D02*
X007785Y003763D01*
X007641Y003521D02*
X006560Y003521D01*
X006482Y003442D02*
X007719Y003442D01*
X007798Y003364D02*
X006403Y003364D01*
X006326Y003128D02*
X008381Y003128D01*
X008856Y003207D02*
X005851Y003207D01*
X006874Y003050D02*
X007833Y003050D01*
X009813Y003757D02*
X010366Y003757D01*
X010538Y003835D02*
X009856Y003835D01*
X009856Y003914D02*
X010675Y003914D01*
X010179Y004595D02*
X010183Y004599D01*
X010683Y005099D01*
X010683Y005799D01*
X010383Y006099D01*
X010337Y006161D01*
X010073Y005896D02*
X009983Y005899D01*
X009583Y005499D01*
X009823Y005485D02*
X010503Y005485D01*
X010503Y005563D02*
X010272Y005563D01*
X010350Y005642D02*
X010503Y005642D01*
X010503Y005720D02*
X010429Y005720D01*
X010503Y005406D02*
X009900Y005406D01*
X009978Y005327D02*
X010503Y005327D01*
X010503Y005249D02*
X010057Y005249D01*
X010096Y005170D02*
X010499Y005170D01*
X010421Y005092D02*
X010094Y005092D01*
X010016Y005013D02*
X010342Y005013D01*
X010055Y005563D02*
X009901Y005563D01*
X008883Y006099D02*
X008801Y006006D01*
X008883Y006099D02*
X009383Y006599D01*
X009349Y006620D01*
X009614Y006884D02*
X009597Y006908D01*
X009086Y007420D01*
X009237Y007465D01*
X009039Y007212D02*
X008572Y007212D01*
X008651Y007291D02*
X008946Y007291D01*
X008906Y007370D02*
X008729Y007370D01*
X008750Y007448D02*
X008833Y007448D01*
X008818Y007527D02*
X008730Y007527D01*
X008775Y007605D02*
X008845Y007605D01*
X008845Y007684D02*
X008924Y007684D01*
X008878Y007762D02*
X009002Y007762D01*
X009081Y007841D02*
X008884Y007841D01*
X008594Y007834D02*
X008220Y008208D01*
X008220Y008359D01*
X008022Y008557D01*
X008161Y008697D02*
X008554Y008303D01*
X008554Y008227D01*
X008968Y008168D02*
X008300Y008836D01*
X008439Y008953D02*
X008439Y008975D01*
X008476Y008975D01*
X008869Y008582D01*
X008928Y008582D01*
X008889Y008837D02*
X009243Y008837D01*
X009342Y008739D01*
X009342Y008660D01*
X009550Y008862D02*
X009592Y008862D01*
X009604Y008783D02*
X009671Y008783D01*
X009514Y008940D02*
X009423Y008940D01*
X009361Y009192D02*
X009794Y009192D01*
X009859Y009127D01*
X009873Y009113D01*
X010306Y009546D01*
X010331Y009560D01*
X010346Y009586D01*
X010582Y009822D01*
X010582Y010058D01*
X010585Y010077D01*
X010271Y010040D02*
X009984Y010040D01*
X010039Y010119D02*
X010202Y010119D01*
X010202Y010197D02*
X010039Y010197D01*
X009986Y010276D02*
X010252Y010276D01*
X009519Y009979D02*
X009522Y009943D01*
X009519Y009979D02*
X009046Y009979D01*
X009007Y010019D01*
X008996Y010033D01*
X008439Y010590D02*
X008577Y010727D01*
X008731Y010727D01*
X009125Y011121D01*
X009399Y011218D02*
X010031Y011218D01*
X009996Y011297D02*
X009359Y011297D01*
X009269Y011375D02*
X009874Y011375D01*
X009920Y011330D02*
X010158Y011568D01*
X009975Y011751D01*
X009823Y011599D01*
X009804Y011567D01*
X009795Y011531D01*
X009795Y011494D01*
X009804Y011459D01*
X009823Y011427D01*
X009920Y011330D01*
X009965Y011375D02*
X010075Y011375D01*
X010044Y011454D02*
X010154Y011454D01*
X010122Y011532D02*
X010194Y011532D01*
X010232Y011532D02*
X010304Y011532D01*
X010311Y011611D02*
X010226Y011611D01*
X010201Y011611D02*
X010116Y011611D01*
X010147Y011689D02*
X010037Y011689D01*
X010068Y011768D02*
X009305Y011768D01*
X009305Y011847D02*
X010071Y011847D01*
X010149Y011925D02*
X009305Y011925D01*
X009125Y011832D02*
X009125Y012302D01*
X009991Y013168D01*
X009748Y013260D02*
X008556Y013260D01*
X008556Y013305D02*
X008547Y013340D01*
X008528Y013372D01*
X008502Y013398D01*
X008470Y013417D01*
X008435Y013426D01*
X008298Y013426D01*
X008298Y013089D01*
X008556Y013089D01*
X008556Y013305D01*
X008547Y013339D02*
X009794Y013339D01*
X009914Y013417D02*
X008468Y013417D01*
X008298Y013417D02*
X008220Y013417D01*
X008220Y013426D02*
X008083Y013426D01*
X008047Y013417D01*
X008015Y013398D01*
X007989Y013372D01*
X007971Y013340D01*
X007961Y013305D01*
X007961Y013089D01*
X008220Y013089D01*
X008220Y013426D01*
X008220Y013339D02*
X008298Y013339D01*
X008298Y013260D02*
X008220Y013260D01*
X008220Y013182D02*
X008298Y013182D01*
X008298Y013103D02*
X008220Y013103D01*
X008220Y013089D02*
X008298Y013089D01*
X008298Y013011D01*
X008556Y013011D01*
X008556Y012795D01*
X008547Y012760D01*
X008528Y012728D01*
X008502Y012702D01*
X008470Y012683D01*
X008435Y012674D01*
X008298Y012674D01*
X008298Y013011D01*
X008220Y013011D01*
X008220Y012674D01*
X008083Y012674D01*
X008047Y012683D01*
X008015Y012702D01*
X007989Y012728D01*
X007971Y012760D01*
X007961Y012795D01*
X007961Y013011D01*
X008220Y013011D01*
X008220Y013089D01*
X008220Y013025D02*
X007848Y013025D01*
X007848Y013103D02*
X007961Y013103D01*
X007961Y013182D02*
X007848Y013182D01*
X007857Y013260D02*
X007961Y013260D01*
X007971Y013339D02*
X007936Y013339D01*
X008015Y013417D02*
X008050Y013417D01*
X008093Y013496D02*
X012970Y013496D01*
X013020Y013417D02*
X010069Y013417D01*
X010188Y013339D02*
X012104Y013339D01*
X012025Y013260D02*
X010234Y013260D01*
X010251Y013182D02*
X011947Y013182D01*
X011868Y013103D02*
X010246Y013103D01*
X010213Y013025D02*
X011790Y013025D01*
X011711Y012946D02*
X010134Y012946D01*
X009945Y012868D02*
X011633Y012868D01*
X011596Y012789D02*
X009867Y012789D01*
X009788Y012711D02*
X011600Y012711D01*
X011679Y012632D02*
X009709Y012632D01*
X009631Y012553D02*
X011757Y012553D01*
X011836Y012475D02*
X009552Y012475D01*
X009474Y012396D02*
X010620Y012396D01*
X010542Y012318D02*
X009395Y012318D01*
X009317Y012239D02*
X010542Y012239D01*
X010511Y012161D02*
X010620Y012161D01*
X010385Y012161D02*
X009305Y012161D01*
X008945Y012161D02*
X007275Y012161D01*
X007336Y012082D02*
X008611Y012082D01*
X008495Y012004D02*
X007368Y012004D01*
X007368Y011925D02*
X008445Y011925D01*
X008422Y011847D02*
X008279Y011847D01*
X008396Y011768D02*
X008422Y011768D01*
X008446Y011689D02*
X008448Y011689D01*
X008220Y011515D02*
X008180Y011574D01*
X008220Y011515D02*
X007905Y011200D01*
X007905Y011160D01*
X007882Y011146D01*
X008022Y011007D02*
X008751Y011737D01*
X008712Y011810D01*
X008928Y012004D02*
X008945Y012004D01*
X008945Y012082D02*
X008812Y012082D01*
X008945Y012239D02*
X006797Y012239D01*
X006719Y012161D02*
X006881Y012161D01*
X006820Y012082D02*
X006640Y012082D01*
X006561Y012004D02*
X006788Y012004D01*
X006788Y011925D02*
X006563Y011925D01*
X006685Y011847D02*
X006806Y011847D01*
X006764Y011768D02*
X006847Y011768D01*
X006843Y011689D02*
X006898Y011689D01*
X006605Y011672D02*
X006448Y011672D01*
X006448Y011711D01*
X006409Y011711D01*
X006605Y011672D02*
X006960Y011318D01*
X006964Y011286D01*
X007078Y011436D02*
X007103Y011425D01*
X007078Y011436D02*
X007078Y011948D01*
X007350Y011847D02*
X008081Y011847D01*
X007964Y011768D02*
X007308Y011768D01*
X007258Y011689D02*
X007587Y011689D01*
X007508Y011611D02*
X007258Y011611D01*
X007277Y011532D02*
X007430Y011532D01*
X007496Y011532D02*
X007497Y011532D01*
X007575Y011454D02*
X007575Y011454D01*
X007688Y011475D02*
X007688Y011515D01*
X007786Y011613D01*
X007790Y011611D02*
X007790Y011611D01*
X007814Y011635D02*
X007757Y011579D01*
X007758Y011579D01*
X007814Y011635D01*
X007838Y011611D02*
X007890Y011611D01*
X007914Y011689D02*
X007760Y011689D01*
X007743Y011286D02*
X007708Y011239D01*
X007629Y011160D01*
X007629Y011003D01*
X007747Y010885D01*
X007747Y010491D01*
X007314Y010491D01*
X006566Y009743D01*
X005989Y009253D02*
X005975Y009231D01*
X005936Y009231D01*
X006129Y009114D02*
X005655Y008641D01*
X005523Y008641D01*
X006059Y008234D02*
X006107Y008234D01*
X006138Y008312D02*
X006185Y008312D01*
X006216Y008391D02*
X006264Y008391D01*
X006295Y008469D02*
X006342Y008469D01*
X006336Y008486D02*
X006392Y008542D01*
X006392Y008543D01*
X006392Y008543D01*
X006336Y008486D01*
X006364Y008493D01*
X006564Y008693D01*
X006546Y008697D01*
X006409Y008837D02*
X006407Y008836D01*
X006407Y008836D01*
X006566Y008956D02*
X006763Y008956D01*
X007373Y008345D01*
X007164Y008193D02*
X007103Y008140D01*
X007164Y008093D02*
X007164Y008193D01*
X007164Y008093D02*
X006764Y007693D01*
X006664Y007617D01*
X006954Y007605D02*
X007914Y007605D01*
X007914Y007618D02*
X007914Y007502D01*
X008330Y007086D01*
X008446Y007086D01*
X008281Y007134D02*
X008121Y007134D01*
X008017Y007134D02*
X007907Y007134D01*
X007938Y007055D02*
X007834Y007055D01*
X007828Y007055D02*
X007724Y007055D01*
X007776Y007003D02*
X007537Y007242D01*
X007440Y007145D01*
X007422Y007113D01*
X007412Y007077D01*
X007412Y007040D01*
X007422Y007005D01*
X007440Y006973D01*
X007593Y006820D01*
X007776Y007003D01*
X007750Y006977D02*
X007802Y006977D01*
X007860Y006977D02*
X007912Y006977D01*
X007881Y006898D02*
X007990Y006898D01*
X007959Y006820D02*
X008069Y006820D01*
X007781Y006898D02*
X007671Y006898D01*
X007702Y006820D02*
X006388Y006820D01*
X006388Y006741D02*
X007672Y006741D01*
X007750Y006663D02*
X006321Y006663D01*
X006336Y006898D02*
X007515Y006898D01*
X007438Y006977D02*
X006358Y006977D01*
X006392Y007055D02*
X007412Y007055D01*
X007434Y007134D02*
X006392Y007134D01*
X006392Y007212D02*
X007508Y007212D01*
X007566Y007212D02*
X007676Y007212D01*
X007645Y007134D02*
X007755Y007134D01*
X007598Y007291D02*
X006392Y007291D01*
X006392Y007370D02*
X006504Y007370D01*
X006423Y007448D02*
X006392Y007448D01*
X006212Y007805D02*
X006212Y007085D01*
X005970Y006844D01*
X005731Y006663D02*
X005570Y006663D01*
X005503Y006741D02*
X005652Y006741D01*
X005573Y006820D02*
X005425Y006820D01*
X005346Y006898D02*
X005507Y006898D01*
X005648Y006584D02*
X005809Y006584D01*
X005888Y006506D02*
X005727Y006506D01*
X005805Y006427D02*
X005966Y006427D01*
X005884Y006349D02*
X006906Y006349D01*
X006855Y006270D02*
X005887Y006270D01*
X006085Y006427D02*
X006985Y006427D01*
X007985Y007212D02*
X008203Y007212D01*
X008124Y007291D02*
X007964Y007291D01*
X007885Y007370D02*
X008046Y007370D01*
X007967Y007448D02*
X006906Y007448D01*
X006941Y007527D02*
X007914Y007527D01*
X007914Y007618D02*
X008116Y007820D01*
X007911Y008026D01*
X007899Y008014D01*
X007897Y008013D01*
X007897Y008012D01*
X007883Y007998D02*
X007938Y007998D01*
X008017Y007919D02*
X007804Y007919D01*
X007543Y007919D02*
X007245Y007919D01*
X007166Y007841D02*
X008095Y007841D01*
X008058Y007762D02*
X007088Y007762D01*
X007009Y007684D02*
X007979Y007684D01*
X008332Y007859D02*
X008062Y008129D01*
X008062Y008239D01*
X007882Y008418D01*
X007590Y008168D02*
X007604Y008140D01*
X007464Y007998D02*
X007323Y007998D01*
X007344Y008076D02*
X007386Y008076D01*
X006824Y008418D02*
X006212Y007805D01*
X005871Y007998D02*
X005824Y007998D01*
X005793Y007919D02*
X005745Y007919D01*
X005714Y007841D02*
X005666Y007841D01*
X005636Y007762D02*
X005588Y007762D01*
X005533Y007405D02*
X005592Y007234D01*
X005533Y007405D02*
X006685Y008557D01*
X006028Y008155D02*
X005981Y008155D01*
X005950Y008076D02*
X005902Y008076D01*
X006825Y007370D02*
X007665Y007370D01*
X008332Y007504D02*
X008332Y007859D01*
X008889Y008837D02*
X008612Y009114D01*
X008578Y009114D01*
X008731Y009231D02*
X008718Y009253D01*
X008771Y009231D01*
X009007Y008995D01*
X009164Y008995D01*
X009361Y009192D01*
X010778Y008626D02*
X012308Y008626D01*
X012239Y008705D02*
X010898Y008705D01*
X010977Y008783D02*
X012225Y008783D01*
X012261Y008862D02*
X011056Y008862D01*
X011134Y008940D02*
X011994Y008940D01*
X011915Y009019D02*
X011507Y009019D01*
X011586Y009098D02*
X011837Y009098D01*
X012179Y008940D02*
X012340Y008940D01*
X012706Y008940D02*
X012815Y008940D01*
X012784Y009019D02*
X012894Y009019D01*
X012863Y009098D02*
X014057Y009098D01*
X014068Y009176D02*
X012822Y009176D01*
X012979Y009019D02*
X014045Y009019D01*
X014034Y008940D02*
X013048Y008940D01*
X013062Y008862D02*
X014023Y008862D01*
X014012Y008783D02*
X013024Y008783D01*
X012946Y008705D02*
X014000Y008705D01*
X013989Y008626D02*
X012785Y008626D01*
X012789Y008548D02*
X013978Y008548D01*
X013966Y008469D02*
X012710Y008469D01*
X012465Y008469D02*
X010993Y008469D01*
X011071Y008391D02*
X013955Y008391D01*
X013939Y008312D02*
X011150Y008312D01*
X011228Y008234D02*
X013915Y008234D01*
X013892Y008155D02*
X011293Y008155D01*
X011293Y008076D02*
X013869Y008076D01*
X012816Y008705D02*
X012707Y008705D01*
X013262Y009883D02*
X014086Y009883D01*
X014086Y009961D02*
X013340Y009961D01*
X013419Y010040D02*
X014086Y010040D01*
X014086Y010119D02*
X013497Y010119D01*
X013505Y010197D02*
X014086Y010197D01*
X014084Y010276D02*
X013473Y010276D01*
X013394Y010354D02*
X013555Y010354D01*
X013476Y010433D02*
X013316Y010433D01*
X013237Y010511D02*
X013398Y010511D01*
X013319Y010590D02*
X013158Y010590D01*
X013241Y010668D02*
X013059Y010668D01*
X013101Y010747D02*
X013170Y010747D01*
X013170Y010825D02*
X013101Y010825D01*
X013220Y011121D02*
X013220Y011239D01*
X013194Y011264D01*
X013220Y011278D01*
X013534Y011593D01*
X013534Y011711D01*
X012511Y012735D01*
X012275Y012735D01*
X012265Y012745D01*
X012606Y013103D02*
X013222Y013103D01*
X013273Y013025D02*
X012684Y013025D01*
X012763Y012946D02*
X013310Y012946D01*
X013346Y012868D02*
X012841Y012868D01*
X012920Y012789D02*
X013382Y012789D01*
X013418Y012711D02*
X012934Y012711D01*
X012906Y012632D02*
X013453Y012632D01*
X013489Y012553D02*
X012947Y012553D01*
X013026Y012475D02*
X013525Y012475D01*
X013561Y012396D02*
X013104Y012396D01*
X013183Y012318D02*
X013597Y012318D01*
X013633Y012239D02*
X013261Y012239D01*
X013340Y012161D02*
X013669Y012161D01*
X013695Y012082D02*
X013418Y012082D01*
X013497Y012004D02*
X013718Y012004D01*
X013741Y011925D02*
X013575Y011925D01*
X013654Y011847D02*
X013764Y011847D01*
X013787Y011768D02*
X013714Y011768D01*
X013714Y011689D02*
X013810Y011689D01*
X013833Y011611D02*
X013714Y011611D01*
X013714Y011532D02*
X013856Y011532D01*
X013879Y011454D02*
X013649Y011454D01*
X013613Y011375D02*
X013902Y011375D01*
X013925Y011297D02*
X013613Y011297D01*
X013569Y011218D02*
X013949Y011218D01*
X013960Y011140D02*
X013611Y011140D01*
X013689Y011061D02*
X013971Y011061D01*
X013983Y010983D02*
X013768Y010983D01*
X013846Y010904D02*
X013994Y010904D01*
X014005Y010825D02*
X013925Y010825D01*
X014003Y010747D02*
X014016Y010747D01*
X014007Y010668D02*
X014028Y010668D01*
X014039Y010590D02*
X013969Y010590D01*
X013890Y010511D02*
X014050Y010511D01*
X014062Y010433D02*
X013811Y010433D01*
X013733Y010354D02*
X014073Y010354D01*
X013588Y010742D02*
X013574Y010767D01*
X013220Y011121D01*
X013087Y010240D02*
X012683Y010240D01*
X011254Y010040D02*
X011081Y010040D01*
X011114Y010606D02*
X011094Y010609D01*
X011094Y010688D01*
X010714Y011067D01*
X010382Y011454D02*
X010273Y011454D01*
X010279Y011689D02*
X010389Y011689D01*
X010358Y011768D02*
X010468Y011768D01*
X010436Y011847D02*
X010546Y011847D01*
X010515Y011925D02*
X010625Y011925D01*
X010862Y012396D02*
X011914Y012396D01*
X012527Y013182D02*
X013172Y013182D01*
X013121Y013260D02*
X012449Y013260D01*
X012370Y013339D02*
X013071Y013339D01*
X012919Y013574D02*
X008172Y013574D01*
X008203Y013653D02*
X012869Y013653D01*
X012818Y013732D02*
X008508Y013732D01*
X008556Y013810D02*
X012768Y013810D01*
X012704Y013889D02*
X008556Y013889D01*
X008556Y013967D02*
X012636Y013967D01*
X012568Y014046D02*
X010423Y014046D01*
X010402Y014025D02*
X010665Y014288D01*
X010316Y014637D01*
X009967Y014288D01*
X010230Y014025D01*
X010262Y014006D01*
X010298Y013997D01*
X010334Y013997D01*
X010370Y014006D01*
X010402Y014025D01*
X010501Y014124D02*
X012500Y014124D01*
X012431Y014203D02*
X010580Y014203D01*
X010658Y014281D02*
X012363Y014281D01*
X012295Y014360D02*
X010737Y014360D01*
X010722Y014345D02*
X010985Y014608D01*
X011003Y014640D01*
X011013Y014675D01*
X011013Y014712D01*
X011003Y014748D01*
X010985Y014780D01*
X010722Y015043D01*
X010373Y014694D01*
X010316Y014750D01*
X010259Y014694D01*
X009910Y015043D01*
X009647Y014780D01*
X009629Y014748D01*
X009619Y014712D01*
X009619Y014675D01*
X009629Y014640D01*
X009647Y014608D01*
X009910Y014345D01*
X010259Y014694D01*
X010316Y014637D01*
X010373Y014694D01*
X010722Y014345D01*
X010706Y014360D02*
X010593Y014360D01*
X010628Y014438D02*
X010515Y014438D01*
X010549Y014517D02*
X010436Y014517D01*
X010471Y014596D02*
X010358Y014596D01*
X010353Y014674D02*
X010392Y014674D01*
X010431Y014753D02*
X010319Y014753D01*
X010316Y014750D02*
X010665Y015099D01*
X010402Y015362D01*
X010370Y015381D01*
X010334Y015390D01*
X010298Y015390D01*
X010262Y015381D01*
X010230Y015362D01*
X009967Y015099D01*
X010316Y014750D01*
X010314Y014753D02*
X010201Y014753D01*
X010235Y014831D02*
X010122Y014831D01*
X010156Y014910D02*
X010044Y014910D01*
X010078Y014988D02*
X009965Y014988D01*
X009999Y015067D02*
X003171Y015067D01*
X003262Y015145D02*
X010013Y015145D01*
X010091Y015224D02*
X003368Y015224D01*
X003490Y015302D02*
X010170Y015302D01*
X010262Y015381D02*
X003612Y015381D01*
X003734Y015460D02*
X010972Y015460D01*
X010850Y015538D02*
X003856Y015538D01*
X003979Y015617D02*
X010728Y015617D01*
X010606Y015695D02*
X004101Y015695D01*
X004266Y015774D02*
X010441Y015774D01*
X010269Y015852D02*
X004438Y015852D01*
X004610Y015931D02*
X010097Y015931D01*
X009925Y016009D02*
X004782Y016009D01*
X004954Y016088D02*
X009753Y016088D01*
X009508Y016166D02*
X005198Y016166D01*
X005466Y016245D02*
X009241Y016245D01*
X008973Y016324D02*
X005733Y016324D01*
X006087Y016402D02*
X008620Y016402D01*
X008074Y016481D02*
X006633Y016481D01*
X006912Y014910D02*
X007558Y014910D01*
X007489Y014831D02*
X006982Y014831D01*
X006982Y014753D02*
X007489Y014753D01*
X007489Y014674D02*
X006982Y014674D01*
X006982Y014596D02*
X007489Y014596D01*
X007489Y014517D02*
X006982Y014517D01*
X006982Y014438D02*
X007489Y014438D01*
X007489Y014360D02*
X006982Y014360D01*
X006982Y014281D02*
X007489Y014281D01*
X007489Y014203D02*
X006982Y014203D01*
X006982Y014124D02*
X007489Y014124D01*
X007489Y014046D02*
X006982Y014046D01*
X006982Y013967D02*
X007489Y013967D01*
X007489Y013889D02*
X006982Y013889D01*
X006982Y013810D02*
X007489Y013810D01*
X007537Y013732D02*
X006934Y013732D01*
X006769Y013574D02*
X007663Y013574D01*
X007584Y013496D02*
X006847Y013496D01*
X006690Y013653D02*
X007741Y013653D01*
X007326Y013417D02*
X007101Y013417D01*
X007178Y013339D02*
X007253Y013339D01*
X007253Y013260D02*
X007178Y013260D01*
X007178Y013182D02*
X007253Y013182D01*
X007253Y013103D02*
X007178Y013103D01*
X007178Y013025D02*
X007253Y013025D01*
X007253Y012946D02*
X007178Y012946D01*
X007178Y012868D02*
X007253Y012868D01*
X007232Y012789D02*
X007178Y012789D01*
X007153Y012711D02*
X007137Y012711D01*
X006881Y012893D02*
X006881Y013046D01*
X006842Y013050D01*
X006842Y013247D01*
X006448Y013641D01*
X006448Y014310D01*
X005914Y014281D02*
X002343Y014281D01*
X002275Y014203D02*
X005914Y014203D01*
X005914Y014360D02*
X002411Y014360D01*
X002479Y014438D02*
X005914Y014438D01*
X005914Y014517D02*
X002547Y014517D01*
X002627Y014596D02*
X005914Y014596D01*
X005914Y014674D02*
X002718Y014674D01*
X002808Y014753D02*
X005914Y014753D01*
X005914Y014831D02*
X002899Y014831D01*
X002990Y014910D02*
X005984Y014910D01*
X005978Y013417D02*
X004067Y013417D01*
X004146Y013339D02*
X005886Y013339D01*
X005875Y013260D02*
X004130Y013260D01*
X004164Y013182D02*
X004051Y013182D01*
X004086Y013103D02*
X003973Y013103D01*
X004007Y013025D02*
X003894Y013025D01*
X003874Y012946D02*
X003929Y012946D01*
X003952Y012868D02*
X003851Y012868D01*
X003918Y012789D02*
X004031Y012789D01*
X003996Y012711D02*
X004109Y012711D01*
X004303Y013182D02*
X005875Y013182D01*
X006367Y013417D02*
X006417Y013417D01*
X006459Y013339D02*
X006495Y013339D01*
X006470Y013260D02*
X006574Y013260D01*
X006583Y013182D02*
X006470Y013182D01*
X006470Y013103D02*
X006583Y013103D01*
X006881Y012893D02*
X005700Y011711D01*
X005700Y011160D01*
X006251Y010609D01*
X006268Y010590D01*
X006407Y010729D02*
X006369Y010767D01*
X006369Y010806D01*
X005897Y011278D01*
X005897Y011593D01*
X006763Y012460D01*
X007157Y012460D01*
X007550Y012853D01*
X007550Y013050D01*
X007550Y013208D01*
X008023Y013680D01*
X008023Y014310D01*
X008556Y014281D02*
X009974Y014281D01*
X009926Y014360D02*
X010039Y014360D01*
X010004Y014438D02*
X010117Y014438D01*
X010083Y014517D02*
X010196Y014517D01*
X010161Y014596D02*
X010274Y014596D01*
X010279Y014674D02*
X010240Y014674D01*
X010397Y014831D02*
X010510Y014831D01*
X010476Y014910D02*
X010589Y014910D01*
X010554Y014988D02*
X010667Y014988D01*
X010633Y015067D02*
X011536Y015067D01*
X011626Y014988D02*
X010776Y014988D01*
X010855Y014910D02*
X011717Y014910D01*
X011808Y014831D02*
X010933Y014831D01*
X011000Y014753D02*
X011898Y014753D01*
X011989Y014674D02*
X011012Y014674D01*
X010973Y014596D02*
X012080Y014596D01*
X012159Y014517D02*
X010894Y014517D01*
X010816Y014438D02*
X012227Y014438D01*
X011445Y015145D02*
X010619Y015145D01*
X010541Y015224D02*
X011339Y015224D01*
X011217Y015302D02*
X010462Y015302D01*
X010370Y015381D02*
X011095Y015381D01*
X009856Y014988D02*
X003080Y014988D01*
X007269Y012318D02*
X008945Y012318D01*
X008965Y012396D02*
X007348Y012396D01*
X007426Y012475D02*
X009043Y012475D01*
X009122Y012553D02*
X007505Y012553D01*
X007584Y012632D02*
X009200Y012632D01*
X009279Y012711D02*
X008511Y012711D01*
X008555Y012789D02*
X009358Y012789D01*
X009436Y012868D02*
X008556Y012868D01*
X008556Y012946D02*
X009515Y012946D01*
X009593Y013025D02*
X008298Y013025D01*
X008298Y012946D02*
X008220Y012946D01*
X008220Y012868D02*
X008298Y012868D01*
X008298Y012789D02*
X008220Y012789D01*
X008220Y012711D02*
X008298Y012711D01*
X008007Y012711D02*
X007802Y012711D01*
X007848Y012789D02*
X007963Y012789D01*
X007961Y012868D02*
X007848Y012868D01*
X007848Y012946D02*
X007961Y012946D01*
X008556Y013103D02*
X009672Y013103D01*
X009731Y013182D02*
X008556Y013182D01*
X008556Y014046D02*
X010209Y014046D01*
X010131Y014124D02*
X008556Y014124D01*
X008556Y014203D02*
X010052Y014203D01*
X009895Y014360D02*
X008556Y014360D01*
X008556Y014438D02*
X009816Y014438D01*
X009738Y014517D02*
X008556Y014517D01*
X008556Y014596D02*
X009659Y014596D01*
X009620Y014674D02*
X008556Y014674D01*
X008556Y014753D02*
X009632Y014753D01*
X009699Y014831D02*
X008556Y014831D01*
X008487Y014910D02*
X009777Y014910D01*
X009125Y011832D02*
X008161Y010868D01*
X008300Y010729D02*
X008574Y011003D01*
X008712Y011062D01*
X008887Y011297D02*
X008891Y011297D01*
X008922Y011375D02*
X008981Y011375D01*
X009001Y011454D02*
X009807Y011454D01*
X009795Y011532D02*
X009080Y011532D01*
X009158Y011611D02*
X009835Y011611D01*
X009914Y011689D02*
X009237Y011689D01*
X007743Y011286D02*
X007708Y011278D01*
X007393Y011003D02*
X006960Y011003D01*
X006842Y011121D01*
X006824Y011146D01*
X006684Y011042D02*
X006685Y011007D01*
X006684Y011042D02*
X006487Y011239D01*
X006487Y011357D01*
X006133Y011281D02*
X006133Y011515D01*
X006133Y011281D02*
X006546Y010868D01*
X005599Y010747D02*
X003848Y010747D01*
X003927Y010668D02*
X005470Y010668D01*
X005420Y010590D02*
X004005Y010590D01*
X004084Y010511D02*
X005400Y010511D01*
X005403Y010433D02*
X004162Y010433D01*
X004241Y010354D02*
X005348Y010354D01*
X005269Y010276D02*
X004319Y010276D01*
X003456Y010885D02*
X003456Y011751D01*
X002431Y011504D02*
X002393Y011475D01*
X001842Y010924D01*
X001842Y009900D01*
X001881Y009881D01*
X001842Y009861D01*
X001842Y009467D01*
X002078Y009231D01*
X001790Y009255D02*
X001539Y009255D01*
X001539Y009176D02*
X001790Y009176D01*
X001790Y009098D02*
X001539Y009098D01*
X001539Y009019D02*
X001790Y009019D01*
X001790Y008940D02*
X001539Y008940D01*
X001539Y008862D02*
X001790Y008862D01*
X001790Y008783D02*
X001539Y008783D01*
X001523Y008705D02*
X001806Y008705D01*
X002271Y008705D02*
X002347Y008705D01*
X002331Y008783D02*
X002287Y008783D01*
X002369Y008626D02*
X000718Y008626D01*
X000729Y008548D02*
X002331Y008548D01*
X002331Y008469D02*
X000740Y008469D01*
X000752Y008391D02*
X002331Y008391D01*
X002889Y008626D02*
X003078Y008626D01*
X003061Y008705D02*
X002911Y008705D01*
X002926Y008783D02*
X003040Y008783D01*
X003040Y008862D02*
X002926Y008862D01*
X002926Y008940D02*
X003040Y008940D01*
X003040Y008548D02*
X002926Y008548D01*
X002926Y008469D02*
X003040Y008469D01*
X003040Y008391D02*
X002926Y008391D01*
X003635Y008155D02*
X003808Y008155D01*
X003755Y008076D02*
X003635Y008076D01*
X003593Y007762D02*
X002287Y007762D01*
X002274Y007684D02*
X002746Y007684D01*
X002668Y007605D02*
X002379Y007605D01*
X002433Y007527D02*
X002589Y007527D01*
X002511Y007448D02*
X002456Y007448D01*
X002254Y007134D02*
X002146Y007134D01*
X002225Y007055D02*
X002274Y007055D01*
X002303Y006977D02*
X002353Y006977D01*
X002382Y006898D02*
X002431Y006898D01*
X002460Y006820D02*
X002510Y006820D01*
X002539Y006741D02*
X002588Y006741D01*
X002604Y006663D02*
X002667Y006663D01*
X003055Y006427D02*
X003067Y006427D01*
X003010Y006270D02*
X003199Y006270D01*
X003277Y006191D02*
X003089Y006191D01*
X003167Y006113D02*
X003356Y006113D01*
X003434Y006034D02*
X003246Y006034D01*
X003324Y005956D02*
X003513Y005956D01*
X003591Y005877D02*
X003397Y005877D01*
X003481Y005799D02*
X003670Y005799D01*
X003748Y005720D02*
X003560Y005720D01*
X003638Y005642D02*
X003827Y005642D01*
X003906Y005563D02*
X003717Y005563D01*
X003795Y005485D02*
X003999Y005485D01*
X003980Y005406D02*
X003874Y005406D01*
X003953Y005327D02*
X004002Y005327D01*
X004031Y005249D02*
X004080Y005249D01*
X004065Y005170D02*
X004159Y005170D01*
X005132Y005485D02*
X005996Y005485D01*
X005918Y005406D02*
X005210Y005406D01*
X005289Y005327D02*
X005895Y005327D01*
X005913Y005249D02*
X005290Y005249D01*
X005424Y006298D02*
X005469Y006343D01*
X004803Y006977D02*
X003612Y006977D01*
X003796Y006820D02*
X004136Y006820D01*
X004058Y006741D02*
X003875Y006741D01*
X003954Y006663D02*
X003979Y006663D01*
X004556Y007055D02*
X004882Y007055D01*
X004960Y007134D02*
X004584Y007134D01*
X004615Y007212D02*
X004505Y007212D01*
X004536Y007291D02*
X004427Y007291D01*
X004458Y007370D02*
X004393Y007370D01*
X004348Y007370D02*
X004283Y007370D01*
X004269Y007448D02*
X004362Y007448D01*
X004301Y007527D02*
X004195Y007527D01*
X004222Y007605D02*
X004116Y007605D01*
X004144Y007684D02*
X004038Y007684D01*
X004050Y007919D02*
X004159Y007919D01*
X004128Y007998D02*
X004289Y007998D01*
X004278Y007919D02*
X004289Y007919D01*
X004281Y008076D02*
X004121Y008076D01*
X004042Y008155D02*
X004203Y008155D01*
X003672Y007684D02*
X002932Y007684D01*
X004205Y007291D02*
X004315Y007291D01*
X001679Y008076D02*
X001650Y008076D01*
X001650Y008155D02*
X001679Y008155D01*
X001679Y008234D02*
X001650Y008234D01*
X001650Y008312D02*
X001679Y008312D01*
X001325Y007956D02*
X001325Y007400D01*
X001087Y007370D02*
X001054Y007370D01*
X001022Y007448D02*
X001087Y007448D01*
X001087Y007527D02*
X000999Y007527D01*
X000976Y007605D02*
X001115Y007605D01*
X001055Y007684D02*
X000953Y007684D01*
X000930Y007762D02*
X001042Y007762D01*
X001042Y007841D02*
X000907Y007841D01*
X000884Y007919D02*
X001042Y007919D01*
X001042Y007998D02*
X000861Y007998D01*
X000837Y008076D02*
X001042Y008076D01*
X001042Y008155D02*
X000814Y008155D01*
X000791Y008234D02*
X001042Y008234D01*
X001069Y008312D02*
X000768Y008312D01*
X001290Y007991D02*
X001325Y007956D01*
X001058Y008705D02*
X000706Y008705D01*
X000695Y008783D02*
X001042Y008783D01*
X001042Y008862D02*
X000684Y008862D01*
X000673Y008940D02*
X001042Y008940D01*
X001042Y009019D02*
X000661Y009019D01*
X000650Y009098D02*
X001042Y009098D01*
X001042Y009176D02*
X000639Y009176D01*
X000627Y009255D02*
X001012Y009255D01*
X000934Y009333D02*
X000621Y009333D01*
X000621Y009412D02*
X000794Y009412D01*
X000717Y009490D02*
X000621Y009490D01*
X000621Y009569D02*
X000717Y009569D01*
X000717Y009647D02*
X000621Y009647D01*
X000621Y009726D02*
X000717Y009726D01*
X000717Y009804D02*
X000621Y009804D01*
X000621Y009883D02*
X000717Y009883D01*
X000760Y009961D02*
X000621Y009961D01*
X001094Y009704D02*
X001094Y009428D01*
X001290Y009231D01*
X001290Y009015D01*
X001514Y009333D02*
X001721Y009333D01*
X001662Y009412D02*
X001393Y009412D01*
X001470Y009490D02*
X001483Y009490D01*
X002279Y009490D02*
X002590Y009490D01*
X002568Y009569D02*
X002296Y009569D01*
X002296Y009647D02*
X002568Y009647D01*
X002568Y009726D02*
X002296Y009726D01*
X002296Y009804D02*
X002568Y009804D01*
X002568Y009921D02*
X002943Y009921D01*
X002943Y010336D01*
X002689Y010336D01*
X002654Y010326D01*
X002622Y010308D01*
X002596Y010282D01*
X002577Y010250D01*
X002568Y010214D01*
X002568Y009921D01*
X002568Y009961D02*
X002296Y009961D01*
X002296Y009883D02*
X002943Y009883D01*
X002943Y009961D02*
X003023Y009961D01*
X003023Y010040D02*
X002943Y010040D01*
X002943Y010119D02*
X003023Y010119D01*
X003023Y010197D02*
X002943Y010197D01*
X002943Y010276D02*
X003023Y010276D01*
X002592Y010276D02*
X002275Y010276D01*
X002296Y010197D02*
X002568Y010197D01*
X002568Y010119D02*
X002296Y010119D01*
X002296Y010040D02*
X002568Y010040D01*
X003543Y004228D02*
X003598Y004228D01*
X003666Y004149D02*
X003677Y004149D01*
X010667Y007762D02*
X010809Y007762D01*
X010739Y008089D02*
X010897Y008089D01*
X010920Y008097D01*
X010996Y007291D02*
X011280Y007291D01*
X011360Y007212D02*
X010990Y007212D01*
X011213Y009019D02*
X011292Y009019D01*
D29*
X011448Y009625D03*
X008554Y009979D03*
X007747Y010491D03*
X007393Y011003D03*
X006409Y011711D03*
X006133Y011515D03*
X005660Y010491D03*
X005542Y009861D03*
X005975Y009782D03*
X003456Y011751D03*
X004716Y007578D03*
X004597Y006062D03*
X005227Y004861D03*
X002196Y007420D03*
X009991Y013168D03*
D30*
X006268Y008975D02*
X006251Y008956D01*
X005660Y008365D01*
X004558Y008365D01*
X004519Y008326D01*
X004482Y008297D01*
X004479Y008247D01*
X004479Y007814D01*
X004716Y007578D01*
X004597Y006062D02*
X004597Y006042D01*
X004440Y005885D01*
X004243Y005885D01*
X004169Y005874D01*
X004204Y005885D01*
X005227Y004861D02*
X005546Y004542D01*
X002196Y007420D02*
X001940Y007676D01*
X001684Y007420D01*
X001649Y007400D01*
X001940Y007676D02*
X002038Y007774D01*
X002038Y007991D01*
M02*
