G75*
G70*
%OFA0B0*%
%FSLAX24Y24*%
%IPPOS*%
%LPD*%
%AMOC8*
5,1,8,0,0,1.08239X$1,22.5*
%
%ADD10C,0.0000*%
%ADD11R,0.0355X0.0512*%
%ADD12R,0.0197X0.0571*%
%ADD13R,0.0867X0.0670*%
%ADD14R,0.0788X0.0788*%
%ADD15R,0.0257X0.0512*%
%ADD16R,0.0350X0.0390*%
%ADD17C,0.0156*%
%ADD18R,0.0631X0.0631*%
%ADD19R,0.0355X0.0158*%
%ADD20C,0.0340*%
%ADD21R,0.0512X0.0355*%
%ADD22R,0.0237X0.0276*%
%ADD23R,0.0827X0.0827*%
%ADD24R,0.0749X0.0827*%
%ADD25R,0.0434X0.0749*%
%ADD26R,0.0591X0.0670*%
%ADD27R,0.0827X0.0985*%
D10*
X007353Y002892D02*
X007686Y002900D01*
X008018Y002924D01*
X008349Y002964D01*
X008677Y003020D01*
X009002Y003092D01*
X009323Y003180D01*
X009640Y003283D01*
X009951Y003401D01*
X010256Y003534D01*
X010555Y003681D01*
X010846Y003843D01*
X011129Y004019D01*
X011403Y004208D01*
X011667Y004410D01*
X011922Y004625D01*
X012166Y004852D01*
X012398Y005090D01*
X012619Y005339D01*
X012828Y005599D01*
X013023Y005868D01*
X013206Y006147D01*
X013375Y006434D01*
X013529Y006728D01*
X013670Y007030D01*
X013795Y007339D01*
X013906Y007653D01*
X014001Y007972D01*
X014081Y008295D01*
X014145Y008622D01*
X014193Y008952D01*
X014225Y009283D01*
X014241Y009616D01*
X014241Y009948D01*
X014225Y010281D01*
X014193Y010612D01*
X014145Y010942D01*
X014081Y011269D01*
X014001Y011592D01*
X013906Y011911D01*
X013795Y012225D01*
X013670Y012534D01*
X013529Y012836D01*
X013375Y013130D01*
X013206Y013417D01*
X013023Y013696D01*
X012828Y013965D01*
X012619Y014225D01*
X012398Y014474D01*
X012166Y014712D01*
X011922Y014939D01*
X011667Y015154D01*
X011403Y015356D01*
X011129Y015545D01*
X010846Y015721D01*
X010555Y015883D01*
X010256Y016030D01*
X009951Y016163D01*
X009640Y016281D01*
X009323Y016384D01*
X009002Y016472D01*
X008677Y016544D01*
X008349Y016600D01*
X008018Y016640D01*
X007686Y016664D01*
X007353Y016672D01*
X007020Y016664D01*
X006688Y016640D01*
X006357Y016600D01*
X006029Y016544D01*
X005704Y016472D01*
X005383Y016384D01*
X005066Y016281D01*
X004755Y016163D01*
X004450Y016030D01*
X004151Y015883D01*
X003860Y015721D01*
X003577Y015545D01*
X003303Y015356D01*
X003039Y015154D01*
X002784Y014939D01*
X002540Y014712D01*
X002308Y014474D01*
X002087Y014225D01*
X001878Y013965D01*
X001683Y013696D01*
X001500Y013417D01*
X001331Y013130D01*
X001177Y012836D01*
X001036Y012534D01*
X000911Y012225D01*
X000800Y011911D01*
X000705Y011592D01*
X000625Y011269D01*
X000561Y010942D01*
X000513Y010612D01*
X000481Y010281D01*
X000465Y009948D01*
X000465Y009616D01*
X000481Y009283D01*
X000513Y008952D01*
X000561Y008622D01*
X000625Y008295D01*
X000705Y007972D01*
X000800Y007653D01*
X000911Y007339D01*
X001036Y007030D01*
X001177Y006728D01*
X001331Y006434D01*
X001500Y006147D01*
X001683Y005868D01*
X001878Y005599D01*
X002087Y005339D01*
X002308Y005090D01*
X002540Y004852D01*
X002784Y004625D01*
X003039Y004410D01*
X003303Y004208D01*
X003577Y004019D01*
X003860Y003843D01*
X004151Y003681D01*
X004450Y003534D01*
X004755Y003401D01*
X005066Y003283D01*
X005383Y003180D01*
X005704Y003092D01*
X006029Y003020D01*
X006357Y002964D01*
X006688Y002924D01*
X007020Y002900D01*
X007353Y002892D01*
D11*
X008849Y004093D03*
X009558Y004093D03*
G36*
X010234Y004901D02*
X010485Y004650D01*
X010124Y004289D01*
X009873Y004540D01*
X010234Y004901D01*
G37*
G36*
X009733Y005402D02*
X009984Y005151D01*
X009623Y004790D01*
X009372Y005041D01*
X009733Y005402D01*
G37*
G36*
X007525Y007058D02*
X007776Y007309D01*
X008137Y006948D01*
X007886Y006697D01*
X007525Y007058D01*
G37*
G36*
X008026Y007559D02*
X008277Y007810D01*
X008638Y007449D01*
X008387Y007198D01*
X008026Y007559D01*
G37*
G36*
X008931Y007520D02*
X009182Y007771D01*
X009543Y007410D01*
X009292Y007159D01*
X008931Y007520D01*
G37*
G36*
X009432Y008021D02*
X009683Y008272D01*
X010044Y007911D01*
X009793Y007660D01*
X009432Y008021D01*
G37*
G36*
X010305Y008320D02*
X010054Y008571D01*
X010415Y008932D01*
X010666Y008681D01*
X010305Y008320D01*
G37*
G36*
X010887Y009365D02*
X011138Y009114D01*
X010777Y008753D01*
X010526Y009004D01*
X010887Y009365D01*
G37*
G36*
X010386Y009866D02*
X010637Y009615D01*
X010276Y009254D01*
X010025Y009505D01*
X010386Y009866D01*
G37*
G36*
X009804Y008821D02*
X009553Y009072D01*
X009914Y009433D01*
X010165Y009182D01*
X009804Y008821D01*
G37*
G36*
X012197Y009630D02*
X012448Y009379D01*
X012087Y009018D01*
X011836Y009269D01*
X012197Y009630D01*
G37*
G36*
X012391Y009698D02*
X012140Y009949D01*
X012501Y010310D01*
X012752Y010059D01*
X012391Y009698D01*
G37*
G36*
X013393Y010185D02*
X013142Y009934D01*
X012781Y010295D01*
X013032Y010546D01*
X013393Y010185D01*
G37*
G36*
X013894Y010687D02*
X013643Y010436D01*
X013282Y010797D01*
X013533Y011048D01*
X013894Y010687D01*
G37*
G36*
X013249Y011570D02*
X013500Y011319D01*
X013139Y010958D01*
X012888Y011209D01*
X013249Y011570D01*
G37*
G36*
X012748Y012071D02*
X012999Y011820D01*
X012638Y011459D01*
X012387Y011710D01*
X012748Y012071D01*
G37*
G36*
X012127Y010908D02*
X011876Y011159D01*
X012237Y011520D01*
X012488Y011269D01*
X012127Y010908D01*
G37*
G36*
X011890Y010199D02*
X011639Y010450D01*
X012000Y010811D01*
X012251Y010560D01*
X011890Y010199D01*
G37*
G36*
X012628Y010407D02*
X012377Y010658D01*
X012738Y011019D01*
X012989Y010768D01*
X012628Y010407D01*
G37*
G36*
X011132Y011234D02*
X010881Y011485D01*
X011242Y011846D01*
X011493Y011595D01*
X011132Y011234D01*
G37*
G36*
X010659Y010761D02*
X010408Y011012D01*
X010769Y011373D01*
X011020Y011122D01*
X010659Y010761D01*
G37*
G36*
X010158Y011262D02*
X009907Y011513D01*
X010268Y011874D01*
X010519Y011623D01*
X010158Y011262D01*
G37*
G36*
X010631Y011735D02*
X010380Y011986D01*
X010741Y012347D01*
X010992Y012096D01*
X010631Y011735D01*
G37*
X008259Y013050D03*
X007550Y013050D03*
X006881Y013046D03*
X006172Y013046D03*
X003338Y009015D03*
X002629Y009015D03*
X002629Y008294D03*
X003338Y008294D03*
G36*
X003675Y007851D02*
X003926Y008102D01*
X004287Y007741D01*
X004036Y007490D01*
X003675Y007851D01*
G37*
G36*
X004065Y007457D02*
X004316Y007708D01*
X004677Y007347D01*
X004426Y007096D01*
X004065Y007457D01*
G37*
G36*
X004566Y007958D02*
X004817Y008209D01*
X005178Y007848D01*
X004927Y007597D01*
X004566Y007958D01*
G37*
G36*
X004176Y008352D02*
X004427Y008603D01*
X004788Y008242D01*
X004537Y007991D01*
X004176Y008352D01*
G37*
G36*
X005898Y007179D02*
X005647Y006928D01*
X005286Y007289D01*
X005537Y007540D01*
X005898Y007179D01*
G37*
G36*
X006276Y006789D02*
X006025Y006538D01*
X005664Y006899D01*
X005915Y007150D01*
X006276Y006789D01*
G37*
G36*
X005775Y006288D02*
X005524Y006037D01*
X005163Y006398D01*
X005414Y006649D01*
X005775Y006288D01*
G37*
G36*
X005397Y006678D02*
X005146Y006427D01*
X004785Y006788D01*
X005036Y007039D01*
X005397Y006678D01*
G37*
G36*
X012698Y009129D02*
X012949Y008878D01*
X012588Y008517D01*
X012337Y008768D01*
X012698Y009129D01*
G37*
D12*
G36*
X004301Y006144D02*
X004439Y006006D01*
X004037Y005604D01*
X003899Y005742D01*
X004301Y006144D01*
G37*
G36*
X004120Y006325D02*
X004258Y006187D01*
X003856Y005785D01*
X003718Y005923D01*
X004120Y006325D01*
G37*
G36*
X003939Y006506D02*
X004077Y006368D01*
X003675Y005966D01*
X003537Y006104D01*
X003939Y006506D01*
G37*
G36*
X003758Y006687D02*
X003896Y006549D01*
X003494Y006147D01*
X003356Y006285D01*
X003758Y006687D01*
G37*
G36*
X003577Y006868D02*
X003715Y006730D01*
X003313Y006328D01*
X003175Y006466D01*
X003577Y006868D01*
G37*
D13*
G36*
X002840Y007607D02*
X003452Y006995D01*
X002978Y006521D01*
X002366Y007133D01*
X002840Y007607D01*
G37*
G36*
X004566Y005881D02*
X005178Y005269D01*
X004704Y004795D01*
X004092Y005407D01*
X004566Y005881D01*
G37*
D14*
G36*
X004190Y004921D02*
X004747Y004364D01*
X004190Y003807D01*
X003633Y004364D01*
X004190Y004921D01*
G37*
G36*
X003396Y005714D02*
X003953Y005157D01*
X003396Y004600D01*
X002839Y005157D01*
X003396Y005714D01*
G37*
G36*
X002728Y006382D02*
X003285Y005825D01*
X002728Y005268D01*
X002171Y005825D01*
X002728Y006382D01*
G37*
G36*
X001935Y007175D02*
X002492Y006618D01*
X001935Y006061D01*
X001378Y006618D01*
X001935Y007175D01*
G37*
D15*
X002038Y007991D03*
X001664Y007991D03*
X001290Y007991D03*
X001290Y009015D03*
X002038Y009015D03*
G36*
X009078Y006710D02*
X009259Y006891D01*
X009620Y006530D01*
X009439Y006349D01*
X009078Y006710D01*
G37*
G36*
X009885Y006794D02*
X009704Y006613D01*
X009343Y006974D01*
X009524Y007155D01*
X009885Y006794D01*
G37*
G36*
X009607Y007239D02*
X009788Y007420D01*
X010149Y007059D01*
X009968Y006878D01*
X009607Y007239D01*
G37*
G36*
X010331Y006515D02*
X010512Y006696D01*
X010873Y006335D01*
X010692Y006154D01*
X010331Y006515D01*
G37*
G36*
X010066Y006251D02*
X010247Y006432D01*
X010608Y006071D01*
X010427Y005890D01*
X010066Y006251D01*
G37*
G36*
X009802Y005986D02*
X009983Y006167D01*
X010344Y005806D01*
X010163Y005625D01*
X009802Y005986D01*
G37*
G36*
X011580Y009263D02*
X011399Y009082D01*
X011038Y009443D01*
X011219Y009624D01*
X011580Y009263D01*
G37*
G36*
X012109Y009792D02*
X011928Y009611D01*
X011567Y009972D01*
X011748Y010153D01*
X012109Y009792D01*
G37*
G36*
X011385Y010516D02*
X011204Y010335D01*
X010843Y010696D01*
X011024Y010877D01*
X011385Y010516D01*
G37*
G36*
X011121Y010251D02*
X010940Y010070D01*
X010579Y010431D01*
X010760Y010612D01*
X011121Y010251D01*
G37*
G36*
X010856Y009987D02*
X010675Y009806D01*
X010314Y010167D01*
X010495Y010348D01*
X010856Y009987D01*
G37*
D16*
G36*
X010934Y008358D02*
X011181Y008111D01*
X010906Y007836D01*
X010659Y008083D01*
X010934Y008358D01*
G37*
G36*
X011471Y007820D02*
X011718Y007573D01*
X011443Y007298D01*
X011196Y007545D01*
X011471Y007820D01*
G37*
G36*
X010637Y007523D02*
X010884Y007276D01*
X010609Y007001D01*
X010362Y007248D01*
X010637Y007523D01*
G37*
G36*
X008815Y006267D02*
X009062Y006020D01*
X008787Y005745D01*
X008540Y005992D01*
X008815Y006267D01*
G37*
G36*
X009353Y005730D02*
X009600Y005483D01*
X009325Y005208D01*
X009078Y005455D01*
X009353Y005730D01*
G37*
G36*
X008518Y005433D02*
X008765Y005186D01*
X008490Y004911D01*
X008243Y005158D01*
X008518Y005433D01*
G37*
D17*
X002664Y011555D02*
X002742Y011633D01*
X002742Y011375D01*
X002560Y011193D01*
X002302Y011193D01*
X002120Y011375D01*
X002120Y011633D01*
X002302Y011815D01*
X002560Y011815D01*
X002742Y011633D01*
X002625Y011585D01*
X002625Y011423D01*
X002512Y011310D01*
X002350Y011310D01*
X002237Y011423D01*
X002237Y011585D01*
X002350Y011698D01*
X002512Y011698D01*
X002625Y011585D01*
X002508Y011536D01*
X002508Y011472D01*
X002463Y011427D01*
X002399Y011427D01*
X002354Y011472D01*
X002354Y011536D01*
X002399Y011581D01*
X002463Y011581D01*
X002508Y011536D01*
X003371Y012262D02*
X003449Y012340D01*
X003449Y012082D01*
X003267Y011900D01*
X003009Y011900D01*
X002827Y012082D01*
X002827Y012340D01*
X003009Y012522D01*
X003267Y012522D01*
X003449Y012340D01*
X003332Y012292D01*
X003332Y012130D01*
X003219Y012017D01*
X003057Y012017D01*
X002944Y012130D01*
X002944Y012292D01*
X003057Y012405D01*
X003219Y012405D01*
X003332Y012292D01*
X003215Y012243D01*
X003215Y012179D01*
X003170Y012134D01*
X003106Y012134D01*
X003061Y012179D01*
X003061Y012243D01*
X003106Y012288D01*
X003170Y012288D01*
X003215Y012243D01*
X004078Y012970D02*
X004156Y013048D01*
X004156Y012790D01*
X003974Y012608D01*
X003716Y012608D01*
X003534Y012790D01*
X003534Y013048D01*
X003716Y013230D01*
X003974Y013230D01*
X004156Y013048D01*
X004039Y013000D01*
X004039Y012838D01*
X003926Y012725D01*
X003764Y012725D01*
X003651Y012838D01*
X003651Y013000D01*
X003764Y013113D01*
X003926Y013113D01*
X004039Y013000D01*
X003922Y012951D01*
X003922Y012887D01*
X003877Y012842D01*
X003813Y012842D01*
X003768Y012887D01*
X003768Y012951D01*
X003813Y012996D01*
X003877Y012996D01*
X003922Y012951D01*
X003371Y013677D02*
X003449Y013755D01*
X003449Y013497D01*
X003267Y013315D01*
X003009Y013315D01*
X002827Y013497D01*
X002827Y013755D01*
X003009Y013937D01*
X003267Y013937D01*
X003449Y013755D01*
X003332Y013707D01*
X003332Y013545D01*
X003219Y013432D01*
X003057Y013432D01*
X002944Y013545D01*
X002944Y013707D01*
X003057Y013820D01*
X003219Y013820D01*
X003332Y013707D01*
X003215Y013658D01*
X003215Y013594D01*
X003170Y013549D01*
X003106Y013549D01*
X003061Y013594D01*
X003061Y013658D01*
X003106Y013703D01*
X003170Y013703D01*
X003215Y013658D01*
X002664Y012970D02*
X002742Y013048D01*
X002742Y012790D01*
X002560Y012608D01*
X002302Y012608D01*
X002120Y012790D01*
X002120Y013048D01*
X002302Y013230D01*
X002560Y013230D01*
X002742Y013048D01*
X002625Y013000D01*
X002625Y012838D01*
X002512Y012725D01*
X002350Y012725D01*
X002237Y012838D01*
X002237Y013000D01*
X002350Y013113D01*
X002512Y013113D01*
X002625Y013000D01*
X002508Y012951D01*
X002508Y012887D01*
X002463Y012842D01*
X002399Y012842D01*
X002354Y012887D01*
X002354Y012951D01*
X002399Y012996D01*
X002463Y012996D01*
X002508Y012951D01*
X001956Y012262D02*
X002034Y012340D01*
X002034Y012082D01*
X001852Y011900D01*
X001594Y011900D01*
X001412Y012082D01*
X001412Y012340D01*
X001594Y012522D01*
X001852Y012522D01*
X002034Y012340D01*
X001917Y012292D01*
X001917Y012130D01*
X001804Y012017D01*
X001642Y012017D01*
X001529Y012130D01*
X001529Y012292D01*
X001642Y012405D01*
X001804Y012405D01*
X001917Y012292D01*
X001800Y012243D01*
X001800Y012179D01*
X001755Y012134D01*
X001691Y012134D01*
X001646Y012179D01*
X001646Y012243D01*
X001691Y012288D01*
X001755Y012288D01*
X001800Y012243D01*
D18*
G36*
X007121Y006393D02*
X007566Y005948D01*
X007121Y005503D01*
X006676Y005948D01*
X007121Y006393D01*
G37*
G36*
X006452Y005770D02*
X006897Y005325D01*
X006452Y004880D01*
X006007Y005325D01*
X006452Y005770D01*
G37*
G36*
X007900Y004322D02*
X008345Y003877D01*
X007900Y003432D01*
X007455Y003877D01*
X007900Y004322D01*
G37*
D19*
G36*
X007535Y008321D02*
X007785Y008071D01*
X007673Y007959D01*
X007423Y008209D01*
X007535Y008321D01*
G37*
G36*
X007674Y008460D02*
X007924Y008210D01*
X007812Y008098D01*
X007562Y008348D01*
X007674Y008460D01*
G37*
G36*
X007813Y008599D02*
X008063Y008349D01*
X007951Y008237D01*
X007701Y008487D01*
X007813Y008599D01*
G37*
G36*
X007953Y008738D02*
X008203Y008488D01*
X008091Y008376D01*
X007841Y008626D01*
X007953Y008738D01*
G37*
G36*
X008092Y008878D02*
X008342Y008628D01*
X008230Y008516D01*
X007980Y008766D01*
X008092Y008878D01*
G37*
G36*
X008369Y008655D02*
X008119Y008905D01*
X008231Y009017D01*
X008481Y008767D01*
X008369Y008655D01*
G37*
G36*
X008508Y008794D02*
X008258Y009044D01*
X008370Y009156D01*
X008620Y008906D01*
X008508Y008794D01*
G37*
G36*
X008647Y008933D02*
X008397Y009183D01*
X008509Y009295D01*
X008759Y009045D01*
X008647Y008933D01*
G37*
G36*
X008787Y009072D02*
X008537Y009322D01*
X008649Y009434D01*
X008899Y009184D01*
X008787Y009072D01*
G37*
G36*
X008926Y009212D02*
X008676Y009462D01*
X008788Y009574D01*
X009038Y009324D01*
X008926Y009212D01*
G37*
G36*
X009065Y009351D02*
X008815Y009601D01*
X008927Y009713D01*
X009177Y009463D01*
X009065Y009351D01*
G37*
G36*
X008815Y009964D02*
X009065Y010214D01*
X009177Y010102D01*
X008927Y009852D01*
X008815Y009964D01*
G37*
G36*
X008676Y010103D02*
X008926Y010353D01*
X009038Y010241D01*
X008788Y009991D01*
X008676Y010103D01*
G37*
G36*
X008537Y010242D02*
X008787Y010492D01*
X008899Y010380D01*
X008649Y010130D01*
X008537Y010242D01*
G37*
G36*
X008397Y010381D02*
X008647Y010631D01*
X008759Y010519D01*
X008509Y010269D01*
X008397Y010381D01*
G37*
G36*
X008258Y010521D02*
X008508Y010771D01*
X008620Y010659D01*
X008370Y010409D01*
X008258Y010521D01*
G37*
G36*
X008481Y010798D02*
X008231Y010548D01*
X008119Y010660D01*
X008369Y010910D01*
X008481Y010798D01*
G37*
G36*
X008342Y010937D02*
X008092Y010687D01*
X007980Y010799D01*
X008230Y011049D01*
X008342Y010937D01*
G37*
G36*
X008203Y011076D02*
X007953Y010826D01*
X007841Y010938D01*
X008091Y011188D01*
X008203Y011076D01*
G37*
G36*
X008063Y011215D02*
X007813Y010965D01*
X007701Y011077D01*
X007951Y011327D01*
X008063Y011215D01*
G37*
G36*
X007924Y011355D02*
X007674Y011105D01*
X007562Y011217D01*
X007812Y011467D01*
X007924Y011355D01*
G37*
G36*
X007785Y011494D02*
X007535Y011244D01*
X007423Y011356D01*
X007673Y011606D01*
X007785Y011494D01*
G37*
G36*
X007172Y011244D02*
X006922Y011494D01*
X007034Y011606D01*
X007284Y011356D01*
X007172Y011244D01*
G37*
G36*
X007033Y011105D02*
X006783Y011355D01*
X006895Y011467D01*
X007145Y011217D01*
X007033Y011105D01*
G37*
G36*
X006893Y010965D02*
X006643Y011215D01*
X006755Y011327D01*
X007005Y011077D01*
X006893Y010965D01*
G37*
G36*
X006754Y010826D02*
X006504Y011076D01*
X006616Y011188D01*
X006866Y010938D01*
X006754Y010826D01*
G37*
G36*
X006615Y010687D02*
X006365Y010937D01*
X006477Y011049D01*
X006727Y010799D01*
X006615Y010687D01*
G37*
G36*
X006338Y010910D02*
X006588Y010660D01*
X006476Y010548D01*
X006226Y010798D01*
X006338Y010910D01*
G37*
G36*
X006199Y010771D02*
X006449Y010521D01*
X006337Y010409D01*
X006087Y010659D01*
X006199Y010771D01*
G37*
G36*
X006060Y010631D02*
X006310Y010381D01*
X006198Y010269D01*
X005948Y010519D01*
X006060Y010631D01*
G37*
G36*
X005920Y010492D02*
X006170Y010242D01*
X006058Y010130D01*
X005808Y010380D01*
X005920Y010492D01*
G37*
G36*
X005781Y010353D02*
X006031Y010103D01*
X005919Y009991D01*
X005669Y010241D01*
X005781Y010353D01*
G37*
G36*
X005642Y010214D02*
X005892Y009964D01*
X005780Y009852D01*
X005530Y010102D01*
X005642Y010214D01*
G37*
G36*
X005892Y009601D02*
X005642Y009351D01*
X005530Y009463D01*
X005780Y009713D01*
X005892Y009601D01*
G37*
G36*
X006031Y009462D02*
X005781Y009212D01*
X005669Y009324D01*
X005919Y009574D01*
X006031Y009462D01*
G37*
G36*
X006170Y009322D02*
X005920Y009072D01*
X005808Y009184D01*
X006058Y009434D01*
X006170Y009322D01*
G37*
G36*
X006310Y009183D02*
X006060Y008933D01*
X005948Y009045D01*
X006198Y009295D01*
X006310Y009183D01*
G37*
G36*
X006449Y009044D02*
X006199Y008794D01*
X006087Y008906D01*
X006337Y009156D01*
X006449Y009044D01*
G37*
G36*
X006226Y008767D02*
X006476Y009017D01*
X006588Y008905D01*
X006338Y008655D01*
X006226Y008767D01*
G37*
G36*
X006365Y008628D02*
X006615Y008878D01*
X006727Y008766D01*
X006477Y008516D01*
X006365Y008628D01*
G37*
G36*
X006504Y008488D02*
X006754Y008738D01*
X006866Y008626D01*
X006616Y008376D01*
X006504Y008488D01*
G37*
G36*
X006643Y008349D02*
X006893Y008599D01*
X007005Y008487D01*
X006755Y008237D01*
X006643Y008349D01*
G37*
G36*
X006783Y008210D02*
X007033Y008460D01*
X007145Y008348D01*
X006895Y008098D01*
X006783Y008210D01*
G37*
G36*
X006922Y008071D02*
X007172Y008321D01*
X007284Y008209D01*
X007034Y007959D01*
X006922Y008071D01*
G37*
D20*
X006664Y007617D03*
X005523Y008641D03*
X005188Y009979D03*
X006487Y011357D03*
X007078Y011948D03*
X008180Y011574D03*
X008712Y011810D03*
X008712Y011062D03*
X009125Y011121D03*
X009066Y010688D03*
X009440Y010530D03*
X009342Y008660D03*
X008928Y008582D03*
X008554Y008227D03*
X008968Y008168D03*
X008594Y007834D03*
D21*
X001094Y009704D03*
X001094Y010412D03*
D22*
X001325Y007400D03*
X001649Y007400D03*
G36*
X009341Y009957D02*
X009508Y010124D01*
X009703Y009929D01*
X009536Y009762D01*
X009341Y009957D01*
G37*
G36*
X009571Y010187D02*
X009738Y010354D01*
X009933Y010159D01*
X009766Y009992D01*
X009571Y010187D01*
G37*
D23*
G36*
X010316Y014110D02*
X009732Y014694D01*
X010316Y015278D01*
X010900Y014694D01*
X010316Y014110D01*
G37*
D24*
G36*
X011709Y012772D02*
X012238Y013301D01*
X012821Y012718D01*
X012292Y012189D01*
X011709Y012772D01*
G37*
D25*
G36*
X005657Y004959D02*
X005963Y004653D01*
X005435Y004125D01*
X005129Y004431D01*
X005657Y004959D01*
G37*
G36*
X006437Y004180D02*
X006743Y003874D01*
X006215Y003346D01*
X005909Y003652D01*
X006437Y004180D01*
G37*
D26*
X002983Y009881D03*
X001881Y009881D03*
D27*
X006448Y014310D03*
X008023Y014310D03*
M02*
