G75*
G70*
%OFA0B0*%
%FSLAX24Y24*%
%IPPOS*%
%LPD*%
%AMOC8*
5,1,8,0,0,1.08239X$1,22.5*
%
%ADD10C,0.0039*%
%ADD11R,0.0260X0.0540*%
%ADD12R,0.0540X0.0260*%
%ADD13R,0.0434X0.0473*%
%ADD14R,0.0473X0.0434*%
%ADD15R,0.0316X0.0709*%
%ADD16R,0.0670X0.0591*%
%ADD17R,0.0512X0.0257*%
%ADD18R,0.0197X0.0571*%
%ADD19R,0.0867X0.0670*%
%ADD20R,0.0788X0.0788*%
%ADD21C,0.0207*%
%ADD22R,0.0590X0.0177*%
%ADD23R,0.0631X0.0827*%
%ADD24R,0.0827X0.0631*%
%ADD25R,0.0355X0.0355*%
D10*
X000497Y008890D02*
X000505Y009228D01*
X000530Y009565D01*
X000572Y009901D01*
X000629Y010234D01*
X000703Y010564D01*
X000794Y010890D01*
X000900Y011211D01*
X001021Y011527D01*
X001159Y011836D01*
X001311Y012138D01*
X001477Y012432D01*
X001658Y012718D01*
X001853Y012994D01*
X002061Y013261D01*
X002282Y013517D01*
X002515Y013762D01*
X002760Y013995D01*
X003016Y014216D01*
X003283Y014424D01*
X003559Y014619D01*
X003845Y014800D01*
X004139Y014966D01*
X004441Y015118D01*
X004750Y015256D01*
X005066Y015377D01*
X005387Y015483D01*
X005713Y015574D01*
X006043Y015648D01*
X006376Y015705D01*
X006712Y015747D01*
X007049Y015772D01*
X007387Y015780D01*
X007725Y015772D01*
X008062Y015747D01*
X008398Y015705D01*
X008731Y015648D01*
X009061Y015574D01*
X009387Y015483D01*
X009708Y015377D01*
X010024Y015256D01*
X010333Y015118D01*
X010635Y014966D01*
X010929Y014800D01*
X011215Y014619D01*
X011491Y014424D01*
X011758Y014216D01*
X012014Y013995D01*
X012259Y013762D01*
X012492Y013517D01*
X012713Y013261D01*
X012921Y012994D01*
X013116Y012718D01*
X013297Y012432D01*
X013463Y012138D01*
X013615Y011836D01*
X013753Y011527D01*
X013874Y011211D01*
X013980Y010890D01*
X014071Y010564D01*
X014145Y010234D01*
X014202Y009901D01*
X014244Y009565D01*
X014269Y009228D01*
X014277Y008890D01*
X014269Y008552D01*
X014244Y008215D01*
X014202Y007879D01*
X014145Y007546D01*
X014071Y007216D01*
X013980Y006890D01*
X013874Y006569D01*
X013753Y006253D01*
X013615Y005944D01*
X013463Y005642D01*
X013297Y005348D01*
X013116Y005062D01*
X012921Y004786D01*
X012713Y004519D01*
X012492Y004263D01*
X012259Y004018D01*
X012014Y003785D01*
X011758Y003564D01*
X011491Y003356D01*
X011215Y003161D01*
X010929Y002980D01*
X010635Y002814D01*
X010333Y002662D01*
X010024Y002524D01*
X009708Y002403D01*
X009387Y002297D01*
X009061Y002206D01*
X008731Y002132D01*
X008398Y002075D01*
X008062Y002033D01*
X007725Y002008D01*
X007387Y002000D01*
X007049Y002008D01*
X006712Y002033D01*
X006376Y002075D01*
X006043Y002132D01*
X005713Y002206D01*
X005387Y002297D01*
X005066Y002403D01*
X004750Y002524D01*
X004441Y002662D01*
X004139Y002814D01*
X003845Y002980D01*
X003559Y003161D01*
X003283Y003356D01*
X003016Y003564D01*
X002760Y003785D01*
X002515Y004018D01*
X002282Y004263D01*
X002061Y004519D01*
X001853Y004786D01*
X001658Y005062D01*
X001477Y005348D01*
X001311Y005642D01*
X001159Y005944D01*
X001021Y006253D01*
X000900Y006569D01*
X000794Y006890D01*
X000703Y007216D01*
X000629Y007546D01*
X000572Y007879D01*
X000530Y008215D01*
X000505Y008552D01*
X000497Y008890D01*
D11*
X007346Y007257D03*
X007661Y007257D03*
X007976Y007257D03*
X008291Y007257D03*
X008606Y007257D03*
X008921Y007257D03*
X009236Y007257D03*
X009551Y007257D03*
X009551Y010637D03*
X009236Y010637D03*
X008921Y010637D03*
X008606Y010637D03*
X008291Y010637D03*
X007976Y010637D03*
X007661Y010637D03*
X007346Y010637D03*
D12*
X006758Y010049D03*
X006758Y009734D03*
X006758Y009419D03*
X006758Y009104D03*
X006758Y008789D03*
X006758Y008474D03*
X006758Y008159D03*
X006758Y007844D03*
X010138Y007844D03*
X010138Y008159D03*
X010138Y008474D03*
X010138Y008789D03*
X010138Y009104D03*
X010138Y009419D03*
X010138Y009734D03*
X010138Y010049D03*
D13*
X012442Y006516D03*
X012442Y005847D03*
X009695Y004671D03*
X009695Y004001D03*
X001804Y006721D03*
X001804Y007390D03*
D14*
X007941Y006381D03*
X008611Y006381D03*
X008560Y005556D03*
X009229Y005556D03*
X010906Y004324D03*
X011575Y004324D03*
D15*
X009757Y011627D03*
X009285Y011627D03*
X008812Y011627D03*
D16*
X001706Y009358D03*
X001706Y008256D03*
D17*
X010673Y005741D03*
X010673Y005367D03*
X010673Y004993D03*
X011696Y004993D03*
X011696Y005741D03*
D18*
X007846Y003946D03*
X007590Y003946D03*
X007334Y003946D03*
X007078Y003946D03*
X006822Y003946D03*
D19*
X006114Y003897D03*
X008554Y003897D03*
D20*
X005740Y002893D03*
X006862Y002893D03*
X007806Y002893D03*
X008929Y002893D03*
D21*
X013697Y007194D02*
X013697Y007814D01*
X013697Y007194D02*
X013077Y007194D01*
X013077Y007814D01*
X013697Y007814D01*
X013697Y007400D02*
X013077Y007400D01*
X013077Y007606D02*
X013697Y007606D01*
X013697Y007812D02*
X013077Y007812D01*
X012140Y009359D02*
X012140Y009979D01*
X012760Y009979D01*
X012760Y009359D01*
X012140Y009359D01*
X012140Y009565D02*
X012760Y009565D01*
X012760Y009771D02*
X012140Y009771D01*
X012140Y009977D02*
X012760Y009977D01*
D22*
X005566Y009392D03*
X005566Y009136D03*
X005566Y008881D03*
X005566Y008625D03*
X005566Y008369D03*
X005566Y008113D03*
X005566Y007857D03*
X005566Y007601D03*
X005566Y007345D03*
X005566Y007089D03*
X005566Y006833D03*
X005566Y006577D03*
X005566Y006321D03*
X005566Y006066D03*
X002688Y006066D03*
X002688Y006321D03*
X002688Y006577D03*
X002688Y006833D03*
X002688Y007089D03*
X002688Y007345D03*
X002688Y007601D03*
X002688Y007857D03*
X002688Y008113D03*
X002688Y008369D03*
X002688Y008625D03*
X002688Y008881D03*
X002688Y009136D03*
X002688Y009392D03*
D23*
X003166Y010855D03*
X004013Y010867D03*
X006450Y006556D03*
D24*
X010387Y007158D03*
X011328Y007839D03*
X011308Y008713D03*
D25*
X011182Y006339D03*
X010591Y006339D03*
M02*
