G75*
G70*
%OFA0B0*%
%FSLAX24Y24*%
%IPPOS*%
%LPD*%
%AMOC8*
5,1,8,0,0,1.08239X$1,22.5*
%
%ADD10C,0.0000*%
%ADD11R,0.0315X0.0472*%
%ADD12R,0.0413X0.0551*%
%ADD13R,0.0354X0.0315*%
%ADD14R,0.0453X0.0516*%
%ADD15R,0.1260X0.0276*%
%ADD16R,0.0472X0.0315*%
%ADD17C,0.0059*%
%ADD18R,0.0472X0.0217*%
%ADD19R,0.0551X0.0630*%
%ADD20R,0.0472X0.0591*%
%ADD21R,0.0236X0.0197*%
D10*
X007353Y002892D02*
X007686Y002900D01*
X008018Y002924D01*
X008349Y002964D01*
X008677Y003020D01*
X009002Y003092D01*
X009323Y003180D01*
X009640Y003283D01*
X009951Y003401D01*
X010256Y003534D01*
X010555Y003681D01*
X010846Y003843D01*
X011129Y004019D01*
X011403Y004208D01*
X011667Y004410D01*
X011922Y004625D01*
X012166Y004852D01*
X012398Y005090D01*
X012619Y005339D01*
X012828Y005599D01*
X013023Y005868D01*
X013206Y006147D01*
X013375Y006434D01*
X013529Y006728D01*
X013670Y007030D01*
X013795Y007339D01*
X013906Y007653D01*
X014001Y007972D01*
X014081Y008295D01*
X014145Y008622D01*
X014193Y008952D01*
X014225Y009283D01*
X014241Y009616D01*
X014241Y009948D01*
X014225Y010281D01*
X014193Y010612D01*
X014145Y010942D01*
X014081Y011269D01*
X014001Y011592D01*
X013906Y011911D01*
X013795Y012225D01*
X013670Y012534D01*
X013529Y012836D01*
X013375Y013130D01*
X013206Y013417D01*
X013023Y013696D01*
X012828Y013965D01*
X012619Y014225D01*
X012398Y014474D01*
X012166Y014712D01*
X011922Y014939D01*
X011667Y015154D01*
X011403Y015356D01*
X011129Y015545D01*
X010846Y015721D01*
X010555Y015883D01*
X010256Y016030D01*
X009951Y016163D01*
X009640Y016281D01*
X009323Y016384D01*
X009002Y016472D01*
X008677Y016544D01*
X008349Y016600D01*
X008018Y016640D01*
X007686Y016664D01*
X007353Y016672D01*
X007020Y016664D01*
X006688Y016640D01*
X006357Y016600D01*
X006029Y016544D01*
X005704Y016472D01*
X005383Y016384D01*
X005066Y016281D01*
X004755Y016163D01*
X004450Y016030D01*
X004151Y015883D01*
X003860Y015721D01*
X003577Y015545D01*
X003303Y015356D01*
X003039Y015154D01*
X002784Y014939D01*
X002540Y014712D01*
X002308Y014474D01*
X002087Y014225D01*
X001878Y013965D01*
X001683Y013696D01*
X001500Y013417D01*
X001331Y013130D01*
X001177Y012836D01*
X001036Y012534D01*
X000911Y012225D01*
X000800Y011911D01*
X000705Y011592D01*
X000625Y011269D01*
X000561Y010942D01*
X000513Y010612D01*
X000481Y010281D01*
X000465Y009948D01*
X000465Y009616D01*
X000481Y009283D01*
X000513Y008952D01*
X000561Y008622D01*
X000625Y008295D01*
X000705Y007972D01*
X000800Y007653D01*
X000911Y007339D01*
X001036Y007030D01*
X001177Y006728D01*
X001331Y006434D01*
X001500Y006147D01*
X001683Y005868D01*
X001878Y005599D01*
X002087Y005339D01*
X002308Y005090D01*
X002540Y004852D01*
X002784Y004625D01*
X003039Y004410D01*
X003303Y004208D01*
X003577Y004019D01*
X003860Y003843D01*
X004151Y003681D01*
X004450Y003534D01*
X004755Y003401D01*
X005066Y003283D01*
X005383Y003180D01*
X005704Y003092D01*
X006029Y003020D01*
X006357Y002964D01*
X006688Y002924D01*
X007020Y002900D01*
X007353Y002892D01*
D11*
X005168Y007184D03*
X004460Y007184D03*
X004420Y007991D03*
X005129Y007991D03*
G36*
X003290Y011355D02*
X003512Y011577D01*
X003844Y011245D01*
X003622Y011023D01*
X003290Y011355D01*
G37*
G36*
X003791Y011856D02*
X004013Y012078D01*
X004345Y011746D01*
X004123Y011524D01*
X003791Y011856D01*
G37*
D12*
G36*
X011400Y014443D02*
X011108Y014151D01*
X010720Y014539D01*
X011012Y014831D01*
X011400Y014443D01*
G37*
G36*
X011804Y014847D02*
X011512Y014555D01*
X011124Y014943D01*
X011416Y015235D01*
X011804Y014847D01*
G37*
G36*
X012806Y013845D02*
X012514Y013553D01*
X012126Y013941D01*
X012418Y014233D01*
X012806Y013845D01*
G37*
G36*
X012402Y013441D02*
X012110Y013149D01*
X011722Y013537D01*
X012014Y013829D01*
X012402Y013441D01*
G37*
D13*
X010042Y015023D03*
X009255Y015397D03*
X010042Y015771D03*
X004401Y010597D03*
X004401Y009849D03*
X003613Y010223D03*
X010149Y004782D03*
X009361Y004408D03*
X010149Y004034D03*
D14*
X006950Y003562D03*
X007757Y003562D03*
X007757Y005373D03*
X006950Y005373D03*
X002048Y008877D03*
X001241Y008877D03*
X001241Y010688D03*
X002048Y010688D03*
X006950Y014192D03*
X007757Y014192D03*
X007757Y016003D03*
X006950Y016003D03*
D15*
X007353Y015097D03*
X001645Y009782D03*
X007353Y004467D03*
D16*
X008653Y004271D03*
X008653Y004782D03*
X008653Y005491D03*
X008653Y003562D03*
X002912Y008834D03*
X002912Y009542D03*
X002905Y009979D03*
X002905Y010688D03*
X007944Y012893D03*
X007944Y013601D03*
X008495Y014121D03*
X008495Y014830D03*
X008515Y015271D03*
X008515Y015979D03*
D17*
X008249Y012272D02*
X008249Y011780D01*
X008249Y012272D02*
X008427Y012272D01*
X008427Y011780D01*
X008249Y011780D01*
X008249Y011838D02*
X008427Y011838D01*
X008427Y011896D02*
X008249Y011896D01*
X008249Y011954D02*
X008427Y011954D01*
X008427Y012012D02*
X008249Y012012D01*
X008249Y012070D02*
X008427Y012070D01*
X008427Y012128D02*
X008249Y012128D01*
X008249Y012186D02*
X008427Y012186D01*
X008427Y012244D02*
X008249Y012244D01*
X007855Y012272D02*
X007855Y011780D01*
X007855Y012272D02*
X008033Y012272D01*
X008033Y011780D01*
X007855Y011780D01*
X007855Y011838D02*
X008033Y011838D01*
X008033Y011896D02*
X007855Y011896D01*
X007855Y011954D02*
X008033Y011954D01*
X008033Y012012D02*
X007855Y012012D01*
X007855Y012070D02*
X008033Y012070D01*
X008033Y012128D02*
X007855Y012128D01*
X007855Y012186D02*
X008033Y012186D01*
X008033Y012244D02*
X007855Y012244D01*
X007461Y012272D02*
X007461Y011780D01*
X007461Y012272D02*
X007639Y012272D01*
X007639Y011780D01*
X007461Y011780D01*
X007461Y011838D02*
X007639Y011838D01*
X007639Y011896D02*
X007461Y011896D01*
X007461Y011954D02*
X007639Y011954D01*
X007639Y012012D02*
X007461Y012012D01*
X007461Y012070D02*
X007639Y012070D01*
X007639Y012128D02*
X007461Y012128D01*
X007461Y012186D02*
X007639Y012186D01*
X007639Y012244D02*
X007461Y012244D01*
X007166Y011622D02*
X006674Y011622D01*
X006674Y011800D01*
X007166Y011800D01*
X007166Y011622D01*
X007166Y011680D02*
X006674Y011680D01*
X006674Y011738D02*
X007166Y011738D01*
X007166Y011796D02*
X006674Y011796D01*
X006674Y011229D02*
X007166Y011229D01*
X006674Y011229D02*
X006674Y011407D01*
X007166Y011407D01*
X007166Y011229D01*
X007166Y011287D02*
X006674Y011287D01*
X006674Y011345D02*
X007166Y011345D01*
X007166Y011403D02*
X006674Y011403D01*
X006674Y010835D02*
X007166Y010835D01*
X006674Y010835D02*
X006674Y011013D01*
X007166Y011013D01*
X007166Y010835D01*
X007166Y010893D02*
X006674Y010893D01*
X006674Y010951D02*
X007166Y010951D01*
X007166Y011009D02*
X006674Y011009D01*
X006674Y010441D02*
X007166Y010441D01*
X006674Y010441D02*
X006674Y010619D01*
X007166Y010619D01*
X007166Y010441D01*
X007166Y010499D02*
X006674Y010499D01*
X006674Y010557D02*
X007166Y010557D01*
X007166Y010615D02*
X006674Y010615D01*
X006674Y010048D02*
X007166Y010048D01*
X006674Y010048D02*
X006674Y010226D01*
X007166Y010226D01*
X007166Y010048D01*
X007166Y010106D02*
X006674Y010106D01*
X006674Y010164D02*
X007166Y010164D01*
X007166Y010222D02*
X006674Y010222D01*
X006674Y009339D02*
X007166Y009339D01*
X006674Y009339D02*
X006674Y009517D01*
X007166Y009517D01*
X007166Y009339D01*
X007166Y009397D02*
X006674Y009397D01*
X006674Y009455D02*
X007166Y009455D01*
X007166Y009513D02*
X006674Y009513D01*
X006674Y008945D02*
X007166Y008945D01*
X006674Y008945D02*
X006674Y009123D01*
X007166Y009123D01*
X007166Y008945D01*
X007166Y009003D02*
X006674Y009003D01*
X006674Y009061D02*
X007166Y009061D01*
X007166Y009119D02*
X006674Y009119D01*
X006674Y008552D02*
X007166Y008552D01*
X006674Y008552D02*
X006674Y008730D01*
X007166Y008730D01*
X007166Y008552D01*
X007166Y008610D02*
X006674Y008610D01*
X006674Y008668D02*
X007166Y008668D01*
X007166Y008726D02*
X006674Y008726D01*
X006674Y008158D02*
X007166Y008158D01*
X006674Y008158D02*
X006674Y008336D01*
X007166Y008336D01*
X007166Y008158D01*
X007166Y008216D02*
X006674Y008216D01*
X006674Y008274D02*
X007166Y008274D01*
X007166Y008332D02*
X006674Y008332D01*
X006674Y007764D02*
X007166Y007764D01*
X006674Y007764D02*
X006674Y007942D01*
X007166Y007942D01*
X007166Y007764D01*
X007166Y007822D02*
X006674Y007822D01*
X006674Y007880D02*
X007166Y007880D01*
X007166Y007938D02*
X006674Y007938D01*
X007639Y007784D02*
X007639Y007292D01*
X007461Y007292D01*
X007461Y007784D01*
X007639Y007784D01*
X007639Y007350D02*
X007461Y007350D01*
X007461Y007408D02*
X007639Y007408D01*
X007639Y007466D02*
X007461Y007466D01*
X007461Y007524D02*
X007639Y007524D01*
X007639Y007582D02*
X007461Y007582D01*
X007461Y007640D02*
X007639Y007640D01*
X007639Y007698D02*
X007461Y007698D01*
X007461Y007756D02*
X007639Y007756D01*
X008033Y007784D02*
X008033Y007292D01*
X007855Y007292D01*
X007855Y007784D01*
X008033Y007784D01*
X008033Y007350D02*
X007855Y007350D01*
X007855Y007408D02*
X008033Y007408D01*
X008033Y007466D02*
X007855Y007466D01*
X007855Y007524D02*
X008033Y007524D01*
X008033Y007582D02*
X007855Y007582D01*
X007855Y007640D02*
X008033Y007640D01*
X008033Y007698D02*
X007855Y007698D01*
X007855Y007756D02*
X008033Y007756D01*
X008427Y007784D02*
X008427Y007292D01*
X008249Y007292D01*
X008249Y007784D01*
X008427Y007784D01*
X008427Y007350D02*
X008249Y007350D01*
X008249Y007408D02*
X008427Y007408D01*
X008427Y007466D02*
X008249Y007466D01*
X008249Y007524D02*
X008427Y007524D01*
X008427Y007582D02*
X008249Y007582D01*
X008249Y007640D02*
X008427Y007640D01*
X008427Y007698D02*
X008249Y007698D01*
X008249Y007756D02*
X008427Y007756D01*
X008820Y007784D02*
X008820Y007292D01*
X008642Y007292D01*
X008642Y007784D01*
X008820Y007784D01*
X008820Y007350D02*
X008642Y007350D01*
X008642Y007408D02*
X008820Y007408D01*
X008820Y007466D02*
X008642Y007466D01*
X008642Y007524D02*
X008820Y007524D01*
X008820Y007582D02*
X008642Y007582D01*
X008642Y007640D02*
X008820Y007640D01*
X008820Y007698D02*
X008642Y007698D01*
X008642Y007756D02*
X008820Y007756D01*
X009214Y007784D02*
X009214Y007292D01*
X009036Y007292D01*
X009036Y007784D01*
X009214Y007784D01*
X009214Y007350D02*
X009036Y007350D01*
X009036Y007408D02*
X009214Y007408D01*
X009214Y007466D02*
X009036Y007466D01*
X009036Y007524D02*
X009214Y007524D01*
X009214Y007582D02*
X009036Y007582D01*
X009036Y007640D02*
X009214Y007640D01*
X009214Y007698D02*
X009036Y007698D01*
X009036Y007756D02*
X009214Y007756D01*
X009608Y007784D02*
X009608Y007292D01*
X009430Y007292D01*
X009430Y007784D01*
X009608Y007784D01*
X009608Y007350D02*
X009430Y007350D01*
X009430Y007408D02*
X009608Y007408D01*
X009608Y007466D02*
X009430Y007466D01*
X009430Y007524D02*
X009608Y007524D01*
X009608Y007582D02*
X009430Y007582D01*
X009430Y007640D02*
X009608Y007640D01*
X009608Y007698D02*
X009430Y007698D01*
X009430Y007756D02*
X009608Y007756D01*
X010001Y007784D02*
X010001Y007292D01*
X009823Y007292D01*
X009823Y007784D01*
X010001Y007784D01*
X010001Y007350D02*
X009823Y007350D01*
X009823Y007408D02*
X010001Y007408D01*
X010001Y007466D02*
X009823Y007466D01*
X009823Y007524D02*
X010001Y007524D01*
X010001Y007582D02*
X009823Y007582D01*
X009823Y007640D02*
X010001Y007640D01*
X010001Y007698D02*
X009823Y007698D01*
X009823Y007756D02*
X010001Y007756D01*
X010395Y007784D02*
X010395Y007292D01*
X010217Y007292D01*
X010217Y007784D01*
X010395Y007784D01*
X010395Y007350D02*
X010217Y007350D01*
X010217Y007408D02*
X010395Y007408D01*
X010395Y007466D02*
X010217Y007466D01*
X010217Y007524D02*
X010395Y007524D01*
X010395Y007582D02*
X010217Y007582D01*
X010217Y007640D02*
X010395Y007640D01*
X010395Y007698D02*
X010217Y007698D01*
X010217Y007756D02*
X010395Y007756D01*
X010789Y007784D02*
X010789Y007292D01*
X010611Y007292D01*
X010611Y007784D01*
X010789Y007784D01*
X010789Y007350D02*
X010611Y007350D01*
X010611Y007408D02*
X010789Y007408D01*
X010789Y007466D02*
X010611Y007466D01*
X010611Y007524D02*
X010789Y007524D01*
X010789Y007582D02*
X010611Y007582D01*
X010611Y007640D02*
X010789Y007640D01*
X010789Y007698D02*
X010611Y007698D01*
X010611Y007756D02*
X010789Y007756D01*
X011183Y007784D02*
X011183Y007292D01*
X011005Y007292D01*
X011005Y007784D01*
X011183Y007784D01*
X011183Y007350D02*
X011005Y007350D01*
X011005Y007408D02*
X011183Y007408D01*
X011183Y007466D02*
X011005Y007466D01*
X011005Y007524D02*
X011183Y007524D01*
X011183Y007582D02*
X011005Y007582D01*
X011005Y007640D02*
X011183Y007640D01*
X011183Y007698D02*
X011005Y007698D01*
X011005Y007756D02*
X011183Y007756D01*
X011399Y008454D02*
X011891Y008454D01*
X011891Y008276D01*
X011399Y008276D01*
X011399Y008454D01*
X011399Y008334D02*
X011891Y008334D01*
X011891Y008392D02*
X011399Y008392D01*
X011399Y008450D02*
X011891Y008450D01*
X011891Y009084D02*
X011399Y009084D01*
X011891Y009084D02*
X011891Y008906D01*
X011399Y008906D01*
X011399Y009084D01*
X011399Y008964D02*
X011891Y008964D01*
X011891Y009022D02*
X011399Y009022D01*
X011399Y009080D02*
X011891Y009080D01*
X011005Y011780D02*
X011005Y012272D01*
X011183Y012272D01*
X011183Y011780D01*
X011005Y011780D01*
X011005Y011838D02*
X011183Y011838D01*
X011183Y011896D02*
X011005Y011896D01*
X011005Y011954D02*
X011183Y011954D01*
X011183Y012012D02*
X011005Y012012D01*
X011005Y012070D02*
X011183Y012070D01*
X011183Y012128D02*
X011005Y012128D01*
X011005Y012186D02*
X011183Y012186D01*
X011183Y012244D02*
X011005Y012244D01*
X010611Y012272D02*
X010611Y011780D01*
X010611Y012272D02*
X010789Y012272D01*
X010789Y011780D01*
X010611Y011780D01*
X010611Y011838D02*
X010789Y011838D01*
X010789Y011896D02*
X010611Y011896D01*
X010611Y011954D02*
X010789Y011954D01*
X010789Y012012D02*
X010611Y012012D01*
X010611Y012070D02*
X010789Y012070D01*
X010789Y012128D02*
X010611Y012128D01*
X010611Y012186D02*
X010789Y012186D01*
X010789Y012244D02*
X010611Y012244D01*
X010217Y012272D02*
X010217Y011780D01*
X010217Y012272D02*
X010395Y012272D01*
X010395Y011780D01*
X010217Y011780D01*
X010217Y011838D02*
X010395Y011838D01*
X010395Y011896D02*
X010217Y011896D01*
X010217Y011954D02*
X010395Y011954D01*
X010395Y012012D02*
X010217Y012012D01*
X010217Y012070D02*
X010395Y012070D01*
X010395Y012128D02*
X010217Y012128D01*
X010217Y012186D02*
X010395Y012186D01*
X010395Y012244D02*
X010217Y012244D01*
X009823Y012272D02*
X009823Y011780D01*
X009823Y012272D02*
X010001Y012272D01*
X010001Y011780D01*
X009823Y011780D01*
X009823Y011838D02*
X010001Y011838D01*
X010001Y011896D02*
X009823Y011896D01*
X009823Y011954D02*
X010001Y011954D01*
X010001Y012012D02*
X009823Y012012D01*
X009823Y012070D02*
X010001Y012070D01*
X010001Y012128D02*
X009823Y012128D01*
X009823Y012186D02*
X010001Y012186D01*
X010001Y012244D02*
X009823Y012244D01*
X009430Y012272D02*
X009430Y011780D01*
X009430Y012272D02*
X009608Y012272D01*
X009608Y011780D01*
X009430Y011780D01*
X009430Y011838D02*
X009608Y011838D01*
X009608Y011896D02*
X009430Y011896D01*
X009430Y011954D02*
X009608Y011954D01*
X009608Y012012D02*
X009430Y012012D01*
X009430Y012070D02*
X009608Y012070D01*
X009608Y012128D02*
X009430Y012128D01*
X009430Y012186D02*
X009608Y012186D01*
X009608Y012244D02*
X009430Y012244D01*
X009036Y012272D02*
X009036Y011780D01*
X009036Y012272D02*
X009214Y012272D01*
X009214Y011780D01*
X009036Y011780D01*
X009036Y011838D02*
X009214Y011838D01*
X009214Y011896D02*
X009036Y011896D01*
X009036Y011954D02*
X009214Y011954D01*
X009214Y012012D02*
X009036Y012012D01*
X009036Y012070D02*
X009214Y012070D01*
X009214Y012128D02*
X009036Y012128D01*
X009036Y012186D02*
X009214Y012186D01*
X009214Y012244D02*
X009036Y012244D01*
X008642Y012272D02*
X008642Y011780D01*
X008642Y012272D02*
X008820Y012272D01*
X008820Y011780D01*
X008642Y011780D01*
X008642Y011838D02*
X008820Y011838D01*
X008820Y011896D02*
X008642Y011896D01*
X008642Y011954D02*
X008820Y011954D01*
X008820Y012012D02*
X008642Y012012D01*
X008642Y012070D02*
X008820Y012070D01*
X008820Y012128D02*
X008642Y012128D01*
X008642Y012186D02*
X008820Y012186D01*
X008820Y012244D02*
X008642Y012244D01*
D18*
X003653Y008149D03*
X003653Y007400D03*
X002629Y007400D03*
X002629Y007774D03*
X002629Y008149D03*
D19*
X002767Y006731D03*
X003869Y006731D03*
D20*
X003613Y008995D03*
X009361Y005334D03*
X009243Y014310D03*
D21*
X009243Y014472D03*
X009243Y014148D03*
X003613Y009157D03*
X003613Y008833D03*
X009361Y005496D03*
X009361Y005171D03*
M02*
