G75*
G70*
%OFA0B0*%
%FSLAX24Y24*%
%IPPOS*%
%LPD*%
%AMOC8*
5,1,8,0,0,1.08239X$1,22.5*
%
%ADD10C,0.0000*%
%ADD11R,0.0512X0.0257*%
%ADD12R,0.0355X0.0512*%
%ADD13R,0.0453X0.0591*%
%ADD14R,0.0394X0.0355*%
%ADD15R,0.1300X0.0316*%
%ADD16R,0.0493X0.0556*%
%ADD17R,0.0512X0.0355*%
D10*
X007051Y003517D02*
X007384Y003525D01*
X007716Y003549D01*
X008047Y003589D01*
X008375Y003645D01*
X008700Y003717D01*
X009021Y003805D01*
X009338Y003908D01*
X009649Y004026D01*
X009954Y004159D01*
X010253Y004306D01*
X010544Y004468D01*
X010827Y004644D01*
X011101Y004833D01*
X011365Y005035D01*
X011620Y005250D01*
X011864Y005477D01*
X012096Y005715D01*
X012317Y005964D01*
X012526Y006224D01*
X012721Y006493D01*
X012904Y006772D01*
X013073Y007059D01*
X013227Y007353D01*
X013368Y007655D01*
X013493Y007964D01*
X013604Y008278D01*
X013699Y008597D01*
X013779Y008920D01*
X013843Y009247D01*
X013891Y009577D01*
X013923Y009908D01*
X013939Y010241D01*
X013939Y010573D01*
X013923Y010906D01*
X013891Y011237D01*
X013843Y011567D01*
X013779Y011894D01*
X013699Y012217D01*
X013604Y012536D01*
X013493Y012850D01*
X013368Y013159D01*
X013227Y013461D01*
X013073Y013755D01*
X012904Y014042D01*
X012721Y014321D01*
X012526Y014590D01*
X012317Y014850D01*
X012096Y015099D01*
X011864Y015337D01*
X011620Y015564D01*
X011365Y015779D01*
X011101Y015981D01*
X010827Y016170D01*
X010544Y016346D01*
X010253Y016508D01*
X009954Y016655D01*
X009649Y016788D01*
X009338Y016906D01*
X009021Y017009D01*
X008700Y017097D01*
X008375Y017169D01*
X008047Y017225D01*
X007716Y017265D01*
X007384Y017289D01*
X007051Y017297D01*
X006718Y017289D01*
X006386Y017265D01*
X006055Y017225D01*
X005727Y017169D01*
X005402Y017097D01*
X005081Y017009D01*
X004764Y016906D01*
X004453Y016788D01*
X004148Y016655D01*
X003849Y016508D01*
X003558Y016346D01*
X003275Y016170D01*
X003001Y015981D01*
X002737Y015779D01*
X002482Y015564D01*
X002238Y015337D01*
X002006Y015099D01*
X001785Y014850D01*
X001576Y014590D01*
X001381Y014321D01*
X001198Y014042D01*
X001029Y013755D01*
X000875Y013461D01*
X000734Y013159D01*
X000609Y012850D01*
X000498Y012536D01*
X000403Y012217D01*
X000323Y011894D01*
X000259Y011567D01*
X000211Y011237D01*
X000179Y010906D01*
X000163Y010573D01*
X000163Y010241D01*
X000179Y009908D01*
X000211Y009577D01*
X000259Y009247D01*
X000323Y008920D01*
X000403Y008597D01*
X000498Y008278D01*
X000609Y007964D01*
X000734Y007655D01*
X000875Y007353D01*
X001029Y007059D01*
X001198Y006772D01*
X001381Y006493D01*
X001576Y006224D01*
X001785Y005964D01*
X002006Y005715D01*
X002238Y005477D01*
X002482Y005250D01*
X002737Y005035D01*
X003001Y004833D01*
X003275Y004644D01*
X003558Y004468D01*
X003849Y004306D01*
X004148Y004159D01*
X004453Y004026D01*
X004764Y003908D01*
X005081Y003805D01*
X005402Y003717D01*
X005727Y003645D01*
X006055Y003589D01*
X006386Y003549D01*
X006718Y003525D01*
X007051Y003517D01*
D11*
X009494Y012226D03*
X009494Y012600D03*
X009494Y012974D03*
X010518Y012974D03*
X010518Y012226D03*
D12*
X011137Y012223D03*
X011846Y012223D03*
X011493Y013105D03*
X012201Y013105D03*
X008760Y012210D03*
X008051Y012210D03*
D13*
G36*
X011047Y014989D02*
X010727Y014669D01*
X010311Y015085D01*
X010631Y015405D01*
X011047Y014989D01*
G37*
G36*
X011450Y015393D02*
X011130Y015073D01*
X010714Y015489D01*
X011034Y015809D01*
X011450Y015393D01*
G37*
G36*
X012453Y014391D02*
X012133Y014071D01*
X011717Y014487D01*
X012037Y014807D01*
X012453Y014391D01*
G37*
G36*
X012049Y013987D02*
X011729Y013667D01*
X011313Y014083D01*
X011633Y014403D01*
X012049Y013987D01*
G37*
D14*
X008941Y015939D03*
X008941Y016687D03*
X008153Y016313D03*
X009177Y009915D03*
X009177Y009167D03*
X008390Y009541D03*
X010712Y009876D03*
X010712Y009128D03*
X011500Y009502D03*
X008980Y004876D03*
X008980Y004128D03*
X008193Y004502D03*
X003390Y009167D03*
X003390Y009915D03*
X002602Y009541D03*
D15*
X001342Y010407D03*
X007051Y010407D03*
X007051Y005092D03*
X012760Y010407D03*
X007051Y015722D03*
D16*
X006647Y004187D03*
X007455Y004187D03*
X007455Y005998D03*
X006647Y005998D03*
X006647Y009502D03*
X007455Y009502D03*
X007455Y011313D03*
X006647Y011313D03*
X006647Y014817D03*
X007455Y014817D03*
X007455Y016628D03*
X006647Y016628D03*
X001746Y011313D03*
X000939Y011313D03*
X000939Y009502D03*
X001746Y009502D03*
X012356Y009502D03*
X013163Y009502D03*
X013163Y011313D03*
X012356Y011313D03*
D17*
X011500Y011352D03*
X011500Y010643D03*
X008468Y010604D03*
X008468Y011313D03*
X008232Y014738D03*
X008232Y015447D03*
X002602Y011313D03*
X002602Y010604D03*
X008193Y006116D03*
X008193Y005407D03*
M02*
