G75*
G70*
%OFA0B0*%
%FSLAX24Y24*%
%IPPOS*%
%LPD*%
%AMOC8*
5,1,8,0,0,1.08239X$1,22.5*
%
%ADD10C,0.0000*%
%ADD11R,0.0355X0.0512*%
%ADD12R,0.0453X0.0591*%
%ADD13R,0.0394X0.0355*%
%ADD14C,0.0156*%
%ADD15R,0.0493X0.0556*%
%ADD16R,0.1300X0.0316*%
%ADD17R,0.0512X0.0355*%
%ADD18C,0.0069*%
%ADD19R,0.0512X0.0257*%
%ADD20R,0.0591X0.0670*%
%ADD21C,0.0340*%
%ADD22R,0.0276X0.0237*%
D10*
X007353Y002892D02*
X007686Y002900D01*
X008018Y002924D01*
X008349Y002964D01*
X008677Y003020D01*
X009002Y003092D01*
X009323Y003180D01*
X009640Y003283D01*
X009951Y003401D01*
X010256Y003534D01*
X010555Y003681D01*
X010846Y003843D01*
X011129Y004019D01*
X011403Y004208D01*
X011667Y004410D01*
X011922Y004625D01*
X012166Y004852D01*
X012398Y005090D01*
X012619Y005339D01*
X012828Y005599D01*
X013023Y005868D01*
X013206Y006147D01*
X013375Y006434D01*
X013529Y006728D01*
X013670Y007030D01*
X013795Y007339D01*
X013906Y007653D01*
X014001Y007972D01*
X014081Y008295D01*
X014145Y008622D01*
X014193Y008952D01*
X014225Y009283D01*
X014241Y009616D01*
X014241Y009948D01*
X014225Y010281D01*
X014193Y010612D01*
X014145Y010942D01*
X014081Y011269D01*
X014001Y011592D01*
X013906Y011911D01*
X013795Y012225D01*
X013670Y012534D01*
X013529Y012836D01*
X013375Y013130D01*
X013206Y013417D01*
X013023Y013696D01*
X012828Y013965D01*
X012619Y014225D01*
X012398Y014474D01*
X012166Y014712D01*
X011922Y014939D01*
X011667Y015154D01*
X011403Y015356D01*
X011129Y015545D01*
X010846Y015721D01*
X010555Y015883D01*
X010256Y016030D01*
X009951Y016163D01*
X009640Y016281D01*
X009323Y016384D01*
X009002Y016472D01*
X008677Y016544D01*
X008349Y016600D01*
X008018Y016640D01*
X007686Y016664D01*
X007353Y016672D01*
X007020Y016664D01*
X006688Y016640D01*
X006357Y016600D01*
X006029Y016544D01*
X005704Y016472D01*
X005383Y016384D01*
X005066Y016281D01*
X004755Y016163D01*
X004450Y016030D01*
X004151Y015883D01*
X003860Y015721D01*
X003577Y015545D01*
X003303Y015356D01*
X003039Y015154D01*
X002784Y014939D01*
X002540Y014712D01*
X002308Y014474D01*
X002087Y014225D01*
X001878Y013965D01*
X001683Y013696D01*
X001500Y013417D01*
X001331Y013130D01*
X001177Y012836D01*
X001036Y012534D01*
X000911Y012225D01*
X000800Y011911D01*
X000705Y011592D01*
X000625Y011269D01*
X000561Y010942D01*
X000513Y010612D01*
X000481Y010281D01*
X000465Y009948D01*
X000465Y009616D01*
X000481Y009283D01*
X000513Y008952D01*
X000561Y008622D01*
X000625Y008295D01*
X000705Y007972D01*
X000800Y007653D01*
X000911Y007339D01*
X001036Y007030D01*
X001177Y006728D01*
X001331Y006434D01*
X001500Y006147D01*
X001683Y005868D01*
X001878Y005599D01*
X002087Y005339D01*
X002308Y005090D01*
X002540Y004852D01*
X002784Y004625D01*
X003039Y004410D01*
X003303Y004208D01*
X003577Y004019D01*
X003860Y003843D01*
X004151Y003681D01*
X004450Y003534D01*
X004755Y003401D01*
X005066Y003283D01*
X005383Y003180D01*
X005704Y003092D01*
X006029Y003020D01*
X006357Y002964D01*
X006688Y002924D01*
X007020Y002900D01*
X007353Y002892D01*
D11*
X005168Y007184D03*
X004460Y007184D03*
X004420Y007991D03*
X005129Y007991D03*
G36*
X003261Y011355D02*
X003512Y011606D01*
X003873Y011245D01*
X003622Y010994D01*
X003261Y011355D01*
G37*
G36*
X003762Y011856D02*
X004013Y012107D01*
X004374Y011746D01*
X004123Y011495D01*
X003762Y011856D01*
G37*
D12*
G36*
X011428Y014443D02*
X011108Y014123D01*
X010692Y014539D01*
X011012Y014859D01*
X011428Y014443D01*
G37*
G36*
X011832Y014847D02*
X011512Y014527D01*
X011096Y014943D01*
X011416Y015263D01*
X011832Y014847D01*
G37*
G36*
X012834Y013845D02*
X012514Y013525D01*
X012098Y013941D01*
X012418Y014261D01*
X012834Y013845D01*
G37*
G36*
X012430Y013441D02*
X012110Y013121D01*
X011694Y013537D01*
X012014Y013857D01*
X012430Y013441D01*
G37*
D13*
X010042Y015023D03*
X009255Y015397D03*
X010042Y015771D03*
X004401Y010597D03*
X004401Y009849D03*
X003613Y010223D03*
X010149Y004782D03*
X009361Y004408D03*
X010149Y004034D03*
D14*
X002664Y011555D02*
X002742Y011633D01*
X002742Y011375D01*
X002560Y011193D01*
X002302Y011193D01*
X002120Y011375D01*
X002120Y011633D01*
X002302Y011815D01*
X002560Y011815D01*
X002742Y011633D01*
X002625Y011585D01*
X002625Y011423D01*
X002512Y011310D01*
X002350Y011310D01*
X002237Y011423D01*
X002237Y011585D01*
X002350Y011698D01*
X002512Y011698D01*
X002625Y011585D01*
X002508Y011536D01*
X002508Y011472D01*
X002463Y011427D01*
X002399Y011427D01*
X002354Y011472D01*
X002354Y011536D01*
X002399Y011581D01*
X002463Y011581D01*
X002508Y011536D01*
X003371Y012262D02*
X003449Y012340D01*
X003449Y012082D01*
X003267Y011900D01*
X003009Y011900D01*
X002827Y012082D01*
X002827Y012340D01*
X003009Y012522D01*
X003267Y012522D01*
X003449Y012340D01*
X003332Y012292D01*
X003332Y012130D01*
X003219Y012017D01*
X003057Y012017D01*
X002944Y012130D01*
X002944Y012292D01*
X003057Y012405D01*
X003219Y012405D01*
X003332Y012292D01*
X003215Y012243D01*
X003215Y012179D01*
X003170Y012134D01*
X003106Y012134D01*
X003061Y012179D01*
X003061Y012243D01*
X003106Y012288D01*
X003170Y012288D01*
X003215Y012243D01*
X004078Y012970D02*
X004156Y013048D01*
X004156Y012790D01*
X003974Y012608D01*
X003716Y012608D01*
X003534Y012790D01*
X003534Y013048D01*
X003716Y013230D01*
X003974Y013230D01*
X004156Y013048D01*
X004039Y013000D01*
X004039Y012838D01*
X003926Y012725D01*
X003764Y012725D01*
X003651Y012838D01*
X003651Y013000D01*
X003764Y013113D01*
X003926Y013113D01*
X004039Y013000D01*
X003922Y012951D01*
X003922Y012887D01*
X003877Y012842D01*
X003813Y012842D01*
X003768Y012887D01*
X003768Y012951D01*
X003813Y012996D01*
X003877Y012996D01*
X003922Y012951D01*
X003371Y013677D02*
X003449Y013755D01*
X003449Y013497D01*
X003267Y013315D01*
X003009Y013315D01*
X002827Y013497D01*
X002827Y013755D01*
X003009Y013937D01*
X003267Y013937D01*
X003449Y013755D01*
X003332Y013707D01*
X003332Y013545D01*
X003219Y013432D01*
X003057Y013432D01*
X002944Y013545D01*
X002944Y013707D01*
X003057Y013820D01*
X003219Y013820D01*
X003332Y013707D01*
X003215Y013658D01*
X003215Y013594D01*
X003170Y013549D01*
X003106Y013549D01*
X003061Y013594D01*
X003061Y013658D01*
X003106Y013703D01*
X003170Y013703D01*
X003215Y013658D01*
X002664Y012970D02*
X002742Y013048D01*
X002742Y012790D01*
X002560Y012608D01*
X002302Y012608D01*
X002120Y012790D01*
X002120Y013048D01*
X002302Y013230D01*
X002560Y013230D01*
X002742Y013048D01*
X002625Y013000D01*
X002625Y012838D01*
X002512Y012725D01*
X002350Y012725D01*
X002237Y012838D01*
X002237Y013000D01*
X002350Y013113D01*
X002512Y013113D01*
X002625Y013000D01*
X002508Y012951D01*
X002508Y012887D01*
X002463Y012842D01*
X002399Y012842D01*
X002354Y012887D01*
X002354Y012951D01*
X002399Y012996D01*
X002463Y012996D01*
X002508Y012951D01*
X001956Y012262D02*
X002034Y012340D01*
X002034Y012082D01*
X001852Y011900D01*
X001594Y011900D01*
X001412Y012082D01*
X001412Y012340D01*
X001594Y012522D01*
X001852Y012522D01*
X002034Y012340D01*
X001917Y012292D01*
X001917Y012130D01*
X001804Y012017D01*
X001642Y012017D01*
X001529Y012130D01*
X001529Y012292D01*
X001642Y012405D01*
X001804Y012405D01*
X001917Y012292D01*
X001800Y012243D01*
X001800Y012179D01*
X001755Y012134D01*
X001691Y012134D01*
X001646Y012179D01*
X001646Y012243D01*
X001691Y012288D01*
X001755Y012288D01*
X001800Y012243D01*
D15*
X006950Y003562D03*
X007757Y003562D03*
X007757Y005373D03*
X006950Y005373D03*
X002048Y008877D03*
X001241Y008877D03*
X001241Y010688D03*
X002048Y010688D03*
X006950Y014192D03*
X007757Y014192D03*
X007757Y016003D03*
X006950Y016003D03*
D16*
X007353Y015097D03*
X001645Y009782D03*
X007353Y004467D03*
D17*
X008653Y004271D03*
X008653Y004782D03*
X008653Y005491D03*
X008653Y003562D03*
X002912Y008834D03*
X002912Y009542D03*
X002905Y009979D03*
X002905Y010688D03*
X007944Y012893D03*
X007944Y013601D03*
X008495Y014121D03*
X008495Y014830D03*
X008515Y015271D03*
X008515Y015979D03*
D18*
X008234Y012287D02*
X008234Y011765D01*
X008234Y012287D02*
X008442Y012287D01*
X008442Y011765D01*
X008234Y011765D01*
X008234Y011833D02*
X008442Y011833D01*
X008442Y011901D02*
X008234Y011901D01*
X008234Y011969D02*
X008442Y011969D01*
X008442Y012037D02*
X008234Y012037D01*
X008234Y012105D02*
X008442Y012105D01*
X008442Y012173D02*
X008234Y012173D01*
X008234Y012241D02*
X008442Y012241D01*
X008627Y012287D02*
X008627Y011765D01*
X008627Y012287D02*
X008835Y012287D01*
X008835Y011765D01*
X008627Y011765D01*
X008627Y011833D02*
X008835Y011833D01*
X008835Y011901D02*
X008627Y011901D01*
X008627Y011969D02*
X008835Y011969D01*
X008835Y012037D02*
X008627Y012037D01*
X008627Y012105D02*
X008835Y012105D01*
X008835Y012173D02*
X008627Y012173D01*
X008627Y012241D02*
X008835Y012241D01*
X009021Y012287D02*
X009021Y011765D01*
X009021Y012287D02*
X009229Y012287D01*
X009229Y011765D01*
X009021Y011765D01*
X009021Y011833D02*
X009229Y011833D01*
X009229Y011901D02*
X009021Y011901D01*
X009021Y011969D02*
X009229Y011969D01*
X009229Y012037D02*
X009021Y012037D01*
X009021Y012105D02*
X009229Y012105D01*
X009229Y012173D02*
X009021Y012173D01*
X009021Y012241D02*
X009229Y012241D01*
X009415Y012287D02*
X009415Y011765D01*
X009415Y012287D02*
X009623Y012287D01*
X009623Y011765D01*
X009415Y011765D01*
X009415Y011833D02*
X009623Y011833D01*
X009623Y011901D02*
X009415Y011901D01*
X009415Y011969D02*
X009623Y011969D01*
X009623Y012037D02*
X009415Y012037D01*
X009415Y012105D02*
X009623Y012105D01*
X009623Y012173D02*
X009415Y012173D01*
X009415Y012241D02*
X009623Y012241D01*
X009808Y012287D02*
X009808Y011765D01*
X009808Y012287D02*
X010016Y012287D01*
X010016Y011765D01*
X009808Y011765D01*
X009808Y011833D02*
X010016Y011833D01*
X010016Y011901D02*
X009808Y011901D01*
X009808Y011969D02*
X010016Y011969D01*
X010016Y012037D02*
X009808Y012037D01*
X009808Y012105D02*
X010016Y012105D01*
X010016Y012173D02*
X009808Y012173D01*
X009808Y012241D02*
X010016Y012241D01*
X010202Y012287D02*
X010202Y011765D01*
X010202Y012287D02*
X010410Y012287D01*
X010410Y011765D01*
X010202Y011765D01*
X010202Y011833D02*
X010410Y011833D01*
X010410Y011901D02*
X010202Y011901D01*
X010202Y011969D02*
X010410Y011969D01*
X010410Y012037D02*
X010202Y012037D01*
X010202Y012105D02*
X010410Y012105D01*
X010410Y012173D02*
X010202Y012173D01*
X010202Y012241D02*
X010410Y012241D01*
X010596Y012287D02*
X010596Y011765D01*
X010596Y012287D02*
X010804Y012287D01*
X010804Y011765D01*
X010596Y011765D01*
X010596Y011833D02*
X010804Y011833D01*
X010804Y011901D02*
X010596Y011901D01*
X010596Y011969D02*
X010804Y011969D01*
X010804Y012037D02*
X010596Y012037D01*
X010596Y012105D02*
X010804Y012105D01*
X010804Y012173D02*
X010596Y012173D01*
X010596Y012241D02*
X010804Y012241D01*
X010990Y012287D02*
X010990Y011765D01*
X010990Y012287D02*
X011198Y012287D01*
X011198Y011765D01*
X010990Y011765D01*
X010990Y011833D02*
X011198Y011833D01*
X011198Y011901D02*
X010990Y011901D01*
X010990Y011969D02*
X011198Y011969D01*
X011198Y012037D02*
X010990Y012037D01*
X010990Y012105D02*
X011198Y012105D01*
X011198Y012173D02*
X010990Y012173D01*
X010990Y012241D02*
X011198Y012241D01*
X007840Y012287D02*
X007840Y011765D01*
X007840Y012287D02*
X008048Y012287D01*
X008048Y011765D01*
X007840Y011765D01*
X007840Y011833D02*
X008048Y011833D01*
X008048Y011901D02*
X007840Y011901D01*
X007840Y011969D02*
X008048Y011969D01*
X008048Y012037D02*
X007840Y012037D01*
X007840Y012105D02*
X008048Y012105D01*
X008048Y012173D02*
X007840Y012173D01*
X007840Y012241D02*
X008048Y012241D01*
X007446Y012287D02*
X007446Y011765D01*
X007446Y012287D02*
X007654Y012287D01*
X007654Y011765D01*
X007446Y011765D01*
X007446Y011833D02*
X007654Y011833D01*
X007654Y011901D02*
X007446Y011901D01*
X007446Y011969D02*
X007654Y011969D01*
X007654Y012037D02*
X007446Y012037D01*
X007446Y012105D02*
X007654Y012105D01*
X007654Y012173D02*
X007446Y012173D01*
X007446Y012241D02*
X007654Y012241D01*
X007181Y011607D02*
X006659Y011607D01*
X006659Y011815D01*
X007181Y011815D01*
X007181Y011607D01*
X007181Y011675D02*
X006659Y011675D01*
X006659Y011743D02*
X007181Y011743D01*
X007181Y011811D02*
X006659Y011811D01*
X006659Y011214D02*
X007181Y011214D01*
X006659Y011214D02*
X006659Y011422D01*
X007181Y011422D01*
X007181Y011214D01*
X007181Y011282D02*
X006659Y011282D01*
X006659Y011350D02*
X007181Y011350D01*
X007181Y011418D02*
X006659Y011418D01*
X006659Y010820D02*
X007181Y010820D01*
X006659Y010820D02*
X006659Y011028D01*
X007181Y011028D01*
X007181Y010820D01*
X007181Y010888D02*
X006659Y010888D01*
X006659Y010956D02*
X007181Y010956D01*
X007181Y011024D02*
X006659Y011024D01*
X006659Y010426D02*
X007181Y010426D01*
X006659Y010426D02*
X006659Y010634D01*
X007181Y010634D01*
X007181Y010426D01*
X007181Y010494D02*
X006659Y010494D01*
X006659Y010562D02*
X007181Y010562D01*
X007181Y010630D02*
X006659Y010630D01*
X006659Y010033D02*
X007181Y010033D01*
X006659Y010033D02*
X006659Y010241D01*
X007181Y010241D01*
X007181Y010033D01*
X007181Y010101D02*
X006659Y010101D01*
X006659Y010169D02*
X007181Y010169D01*
X007181Y010237D02*
X006659Y010237D01*
X006659Y009324D02*
X007181Y009324D01*
X006659Y009324D02*
X006659Y009532D01*
X007181Y009532D01*
X007181Y009324D01*
X007181Y009392D02*
X006659Y009392D01*
X006659Y009460D02*
X007181Y009460D01*
X007181Y009528D02*
X006659Y009528D01*
X006659Y008930D02*
X007181Y008930D01*
X006659Y008930D02*
X006659Y009138D01*
X007181Y009138D01*
X007181Y008930D01*
X007181Y008998D02*
X006659Y008998D01*
X006659Y009066D02*
X007181Y009066D01*
X007181Y009134D02*
X006659Y009134D01*
X006659Y008537D02*
X007181Y008537D01*
X006659Y008537D02*
X006659Y008745D01*
X007181Y008745D01*
X007181Y008537D01*
X007181Y008605D02*
X006659Y008605D01*
X006659Y008673D02*
X007181Y008673D01*
X007181Y008741D02*
X006659Y008741D01*
X006659Y008143D02*
X007181Y008143D01*
X006659Y008143D02*
X006659Y008351D01*
X007181Y008351D01*
X007181Y008143D01*
X007181Y008211D02*
X006659Y008211D01*
X006659Y008279D02*
X007181Y008279D01*
X007181Y008347D02*
X006659Y008347D01*
X006659Y007749D02*
X007181Y007749D01*
X006659Y007749D02*
X006659Y007957D01*
X007181Y007957D01*
X007181Y007749D01*
X007181Y007817D02*
X006659Y007817D01*
X006659Y007885D02*
X007181Y007885D01*
X007181Y007953D02*
X006659Y007953D01*
X007654Y007799D02*
X007654Y007277D01*
X007446Y007277D01*
X007446Y007799D01*
X007654Y007799D01*
X007654Y007345D02*
X007446Y007345D01*
X007446Y007413D02*
X007654Y007413D01*
X007654Y007481D02*
X007446Y007481D01*
X007446Y007549D02*
X007654Y007549D01*
X007654Y007617D02*
X007446Y007617D01*
X007446Y007685D02*
X007654Y007685D01*
X007654Y007753D02*
X007446Y007753D01*
X008048Y007799D02*
X008048Y007277D01*
X007840Y007277D01*
X007840Y007799D01*
X008048Y007799D01*
X008048Y007345D02*
X007840Y007345D01*
X007840Y007413D02*
X008048Y007413D01*
X008048Y007481D02*
X007840Y007481D01*
X007840Y007549D02*
X008048Y007549D01*
X008048Y007617D02*
X007840Y007617D01*
X007840Y007685D02*
X008048Y007685D01*
X008048Y007753D02*
X007840Y007753D01*
X008442Y007799D02*
X008442Y007277D01*
X008234Y007277D01*
X008234Y007799D01*
X008442Y007799D01*
X008442Y007345D02*
X008234Y007345D01*
X008234Y007413D02*
X008442Y007413D01*
X008442Y007481D02*
X008234Y007481D01*
X008234Y007549D02*
X008442Y007549D01*
X008442Y007617D02*
X008234Y007617D01*
X008234Y007685D02*
X008442Y007685D01*
X008442Y007753D02*
X008234Y007753D01*
X008835Y007799D02*
X008835Y007277D01*
X008627Y007277D01*
X008627Y007799D01*
X008835Y007799D01*
X008835Y007345D02*
X008627Y007345D01*
X008627Y007413D02*
X008835Y007413D01*
X008835Y007481D02*
X008627Y007481D01*
X008627Y007549D02*
X008835Y007549D01*
X008835Y007617D02*
X008627Y007617D01*
X008627Y007685D02*
X008835Y007685D01*
X008835Y007753D02*
X008627Y007753D01*
X009229Y007799D02*
X009229Y007277D01*
X009021Y007277D01*
X009021Y007799D01*
X009229Y007799D01*
X009229Y007345D02*
X009021Y007345D01*
X009021Y007413D02*
X009229Y007413D01*
X009229Y007481D02*
X009021Y007481D01*
X009021Y007549D02*
X009229Y007549D01*
X009229Y007617D02*
X009021Y007617D01*
X009021Y007685D02*
X009229Y007685D01*
X009229Y007753D02*
X009021Y007753D01*
X009623Y007799D02*
X009623Y007277D01*
X009415Y007277D01*
X009415Y007799D01*
X009623Y007799D01*
X009623Y007345D02*
X009415Y007345D01*
X009415Y007413D02*
X009623Y007413D01*
X009623Y007481D02*
X009415Y007481D01*
X009415Y007549D02*
X009623Y007549D01*
X009623Y007617D02*
X009415Y007617D01*
X009415Y007685D02*
X009623Y007685D01*
X009623Y007753D02*
X009415Y007753D01*
X010016Y007799D02*
X010016Y007277D01*
X009808Y007277D01*
X009808Y007799D01*
X010016Y007799D01*
X010016Y007345D02*
X009808Y007345D01*
X009808Y007413D02*
X010016Y007413D01*
X010016Y007481D02*
X009808Y007481D01*
X009808Y007549D02*
X010016Y007549D01*
X010016Y007617D02*
X009808Y007617D01*
X009808Y007685D02*
X010016Y007685D01*
X010016Y007753D02*
X009808Y007753D01*
X010410Y007799D02*
X010410Y007277D01*
X010202Y007277D01*
X010202Y007799D01*
X010410Y007799D01*
X010410Y007345D02*
X010202Y007345D01*
X010202Y007413D02*
X010410Y007413D01*
X010410Y007481D02*
X010202Y007481D01*
X010202Y007549D02*
X010410Y007549D01*
X010410Y007617D02*
X010202Y007617D01*
X010202Y007685D02*
X010410Y007685D01*
X010410Y007753D02*
X010202Y007753D01*
X010804Y007799D02*
X010804Y007277D01*
X010596Y007277D01*
X010596Y007799D01*
X010804Y007799D01*
X010804Y007345D02*
X010596Y007345D01*
X010596Y007413D02*
X010804Y007413D01*
X010804Y007481D02*
X010596Y007481D01*
X010596Y007549D02*
X010804Y007549D01*
X010804Y007617D02*
X010596Y007617D01*
X010596Y007685D02*
X010804Y007685D01*
X010804Y007753D02*
X010596Y007753D01*
X011198Y007799D02*
X011198Y007277D01*
X010990Y007277D01*
X010990Y007799D01*
X011198Y007799D01*
X011198Y007345D02*
X010990Y007345D01*
X010990Y007413D02*
X011198Y007413D01*
X011198Y007481D02*
X010990Y007481D01*
X010990Y007549D02*
X011198Y007549D01*
X011198Y007617D02*
X010990Y007617D01*
X010990Y007685D02*
X011198Y007685D01*
X011198Y007753D02*
X010990Y007753D01*
X011384Y008469D02*
X011906Y008469D01*
X011906Y008261D01*
X011384Y008261D01*
X011384Y008469D01*
X011384Y008329D02*
X011906Y008329D01*
X011906Y008397D02*
X011384Y008397D01*
X011384Y008465D02*
X011906Y008465D01*
X011906Y009099D02*
X011384Y009099D01*
X011906Y009099D02*
X011906Y008891D01*
X011384Y008891D01*
X011384Y009099D01*
X011384Y008959D02*
X011906Y008959D01*
X011906Y009027D02*
X011384Y009027D01*
X011384Y009095D02*
X011906Y009095D01*
D19*
X003653Y008149D03*
X003653Y007400D03*
X002629Y007400D03*
X002629Y007774D03*
X002629Y008149D03*
D20*
X002767Y006731D03*
X003869Y006731D03*
D21*
X002097Y008129D03*
X006409Y008247D03*
X006409Y008641D03*
X006409Y009034D03*
X006409Y009428D03*
X006409Y010137D03*
X006409Y010924D03*
X006920Y012184D03*
X008338Y012538D03*
X008731Y012538D03*
X009125Y012538D03*
X009519Y012538D03*
X009912Y012538D03*
X010306Y012538D03*
X010306Y006908D03*
X009912Y006593D03*
X009519Y006908D03*
X009125Y006593D03*
X008731Y006869D03*
X008338Y006593D03*
X007944Y006869D03*
X007550Y006593D03*
X010700Y006593D03*
D22*
X009361Y005496D03*
X009361Y005171D03*
X003613Y008833D03*
X003613Y009157D03*
X009243Y014148D03*
X009243Y014472D03*
M02*
