G75*
G70*
%OFA0B0*%
%FSLAX24Y24*%
%IPPOS*%
%LPD*%
%AMOC8*
5,1,8,0,0,1.08239X$1,22.5*
%
%ADD10C,0.0000*%
%ADD11R,0.1102X0.0669*%
%ADD12R,0.0433X0.0315*%
%ADD13R,0.0669X0.0335*%
%ADD14R,0.0669X0.0276*%
%ADD15C,0.0159*%
%ADD16C,0.0043*%
%ADD17C,0.0040*%
%ADD18C,0.0044*%
%ADD19C,0.1142*%
%ADD20OC8,0.0555*%
D10*
X000101Y000101D02*
X000101Y015101D01*
X015101Y015101D01*
X015101Y000101D01*
X000101Y000101D01*
X001125Y001676D02*
X001127Y001723D01*
X001133Y001769D01*
X001143Y001815D01*
X001156Y001860D01*
X001174Y001903D01*
X001195Y001945D01*
X001219Y001985D01*
X001247Y002022D01*
X001278Y002057D01*
X001312Y002090D01*
X001348Y002119D01*
X001387Y002145D01*
X001428Y002168D01*
X001471Y002187D01*
X001515Y002203D01*
X001560Y002215D01*
X001606Y002223D01*
X001653Y002227D01*
X001699Y002227D01*
X001746Y002223D01*
X001792Y002215D01*
X001837Y002203D01*
X001881Y002187D01*
X001924Y002168D01*
X001965Y002145D01*
X002004Y002119D01*
X002040Y002090D01*
X002074Y002057D01*
X002105Y002022D01*
X002133Y001985D01*
X002157Y001945D01*
X002178Y001903D01*
X002196Y001860D01*
X002209Y001815D01*
X002219Y001769D01*
X002225Y001723D01*
X002227Y001676D01*
X002225Y001629D01*
X002219Y001583D01*
X002209Y001537D01*
X002196Y001492D01*
X002178Y001449D01*
X002157Y001407D01*
X002133Y001367D01*
X002105Y001330D01*
X002074Y001295D01*
X002040Y001262D01*
X002004Y001233D01*
X001965Y001207D01*
X001924Y001184D01*
X001881Y001165D01*
X001837Y001149D01*
X001792Y001137D01*
X001746Y001129D01*
X001699Y001125D01*
X001653Y001125D01*
X001606Y001129D01*
X001560Y001137D01*
X001515Y001149D01*
X001471Y001165D01*
X001428Y001184D01*
X001387Y001207D01*
X001348Y001233D01*
X001312Y001262D01*
X001278Y001295D01*
X001247Y001330D01*
X001219Y001367D01*
X001195Y001407D01*
X001174Y001449D01*
X001156Y001492D01*
X001143Y001537D01*
X001133Y001583D01*
X001127Y001629D01*
X001125Y001676D01*
X000888Y004431D02*
X000888Y009943D01*
X002069Y009943D01*
X002069Y004431D01*
X000888Y004431D01*
X013132Y004431D02*
X013132Y009943D01*
X014274Y009943D01*
X014274Y004431D01*
X013132Y004431D01*
X012975Y001676D02*
X012977Y001723D01*
X012983Y001769D01*
X012993Y001815D01*
X013006Y001860D01*
X013024Y001903D01*
X013045Y001945D01*
X013069Y001985D01*
X013097Y002022D01*
X013128Y002057D01*
X013162Y002090D01*
X013198Y002119D01*
X013237Y002145D01*
X013278Y002168D01*
X013321Y002187D01*
X013365Y002203D01*
X013410Y002215D01*
X013456Y002223D01*
X013503Y002227D01*
X013549Y002227D01*
X013596Y002223D01*
X013642Y002215D01*
X013687Y002203D01*
X013731Y002187D01*
X013774Y002168D01*
X013815Y002145D01*
X013854Y002119D01*
X013890Y002090D01*
X013924Y002057D01*
X013955Y002022D01*
X013983Y001985D01*
X014007Y001945D01*
X014028Y001903D01*
X014046Y001860D01*
X014059Y001815D01*
X014069Y001769D01*
X014075Y001723D01*
X014077Y001676D01*
X014075Y001629D01*
X014069Y001583D01*
X014059Y001537D01*
X014046Y001492D01*
X014028Y001449D01*
X014007Y001407D01*
X013983Y001367D01*
X013955Y001330D01*
X013924Y001295D01*
X013890Y001262D01*
X013854Y001233D01*
X013815Y001207D01*
X013774Y001184D01*
X013731Y001165D01*
X013687Y001149D01*
X013642Y001137D01*
X013596Y001129D01*
X013549Y001125D01*
X013503Y001125D01*
X013456Y001129D01*
X013410Y001137D01*
X013365Y001149D01*
X013321Y001165D01*
X013278Y001184D01*
X013237Y001207D01*
X013198Y001233D01*
X013162Y001262D01*
X013128Y001295D01*
X013097Y001330D01*
X013069Y001367D01*
X013045Y001407D01*
X013024Y001449D01*
X013006Y001492D01*
X012993Y001537D01*
X012983Y001583D01*
X012977Y001629D01*
X012975Y001676D01*
X012975Y013526D02*
X012977Y013573D01*
X012983Y013619D01*
X012993Y013665D01*
X013006Y013710D01*
X013024Y013753D01*
X013045Y013795D01*
X013069Y013835D01*
X013097Y013872D01*
X013128Y013907D01*
X013162Y013940D01*
X013198Y013969D01*
X013237Y013995D01*
X013278Y014018D01*
X013321Y014037D01*
X013365Y014053D01*
X013410Y014065D01*
X013456Y014073D01*
X013503Y014077D01*
X013549Y014077D01*
X013596Y014073D01*
X013642Y014065D01*
X013687Y014053D01*
X013731Y014037D01*
X013774Y014018D01*
X013815Y013995D01*
X013854Y013969D01*
X013890Y013940D01*
X013924Y013907D01*
X013955Y013872D01*
X013983Y013835D01*
X014007Y013795D01*
X014028Y013753D01*
X014046Y013710D01*
X014059Y013665D01*
X014069Y013619D01*
X014075Y013573D01*
X014077Y013526D01*
X014075Y013479D01*
X014069Y013433D01*
X014059Y013387D01*
X014046Y013342D01*
X014028Y013299D01*
X014007Y013257D01*
X013983Y013217D01*
X013955Y013180D01*
X013924Y013145D01*
X013890Y013112D01*
X013854Y013083D01*
X013815Y013057D01*
X013774Y013034D01*
X013731Y013015D01*
X013687Y012999D01*
X013642Y012987D01*
X013596Y012979D01*
X013549Y012975D01*
X013503Y012975D01*
X013456Y012979D01*
X013410Y012987D01*
X013365Y012999D01*
X013321Y013015D01*
X013278Y013034D01*
X013237Y013057D01*
X013198Y013083D01*
X013162Y013112D01*
X013128Y013145D01*
X013097Y013180D01*
X013069Y013217D01*
X013045Y013257D01*
X013024Y013299D01*
X013006Y013342D01*
X012993Y013387D01*
X012983Y013433D01*
X012977Y013479D01*
X012975Y013526D01*
D11*
X006353Y005408D03*
X006353Y004227D03*
D12*
X009306Y004195D03*
X009306Y003605D03*
X010329Y003605D03*
X010329Y004195D03*
D13*
X009884Y007422D03*
X009894Y008229D03*
X008703Y008229D03*
X008703Y007422D03*
D14*
X008703Y007825D03*
X009884Y007825D03*
D15*
X007719Y006250D03*
D16*
X011602Y008036D02*
X011914Y008036D01*
X011914Y007724D01*
X011602Y007724D01*
X011602Y008036D01*
X011602Y007766D02*
X011914Y007766D01*
X011914Y007808D02*
X011602Y007808D01*
X011602Y007850D02*
X011914Y007850D01*
X011914Y007892D02*
X011602Y007892D01*
X011602Y007934D02*
X011914Y007934D01*
X011914Y007976D02*
X011602Y007976D01*
X011602Y008018D02*
X011914Y008018D01*
X011914Y008627D02*
X011602Y008627D01*
X011914Y008627D02*
X011914Y008315D01*
X011602Y008315D01*
X011602Y008627D01*
X011602Y008357D02*
X011914Y008357D01*
X011914Y008399D02*
X011602Y008399D01*
X011602Y008441D02*
X011914Y008441D01*
X011914Y008483D02*
X011602Y008483D01*
X011602Y008525D02*
X011914Y008525D01*
X011914Y008567D02*
X011602Y008567D01*
X011602Y008609D02*
X011914Y008609D01*
D17*
X008963Y010042D02*
X008255Y010042D01*
X008255Y010336D01*
X008963Y010336D01*
X008963Y010042D01*
X008963Y010081D02*
X008255Y010081D01*
X008255Y010120D02*
X008963Y010120D01*
X008963Y010159D02*
X008255Y010159D01*
X008255Y010198D02*
X008963Y010198D01*
X008963Y010237D02*
X008255Y010237D01*
X008255Y010276D02*
X008963Y010276D01*
X008963Y010315D02*
X008255Y010315D01*
X008255Y010613D02*
X008963Y010613D01*
X008255Y010613D02*
X008255Y010907D01*
X008963Y010907D01*
X008963Y010613D01*
X008963Y010652D02*
X008255Y010652D01*
X008255Y010691D02*
X008963Y010691D01*
X008963Y010730D02*
X008255Y010730D01*
X008255Y010769D02*
X008963Y010769D01*
X008963Y010808D02*
X008255Y010808D01*
X008255Y010847D02*
X008963Y010847D01*
X008963Y010886D02*
X008255Y010886D01*
X007624Y010613D02*
X006916Y010613D01*
X006916Y010907D01*
X007624Y010907D01*
X007624Y010613D01*
X007624Y010652D02*
X006916Y010652D01*
X006916Y010691D02*
X007624Y010691D01*
X007624Y010730D02*
X006916Y010730D01*
X006916Y010769D02*
X007624Y010769D01*
X007624Y010808D02*
X006916Y010808D01*
X006916Y010847D02*
X007624Y010847D01*
X007624Y010886D02*
X006916Y010886D01*
X006916Y010042D02*
X007624Y010042D01*
X006916Y010042D02*
X006916Y010336D01*
X007624Y010336D01*
X007624Y010042D01*
X007624Y010081D02*
X006916Y010081D01*
X006916Y010120D02*
X007624Y010120D01*
X007624Y010159D02*
X006916Y010159D01*
X006916Y010198D02*
X007624Y010198D01*
X007624Y010237D02*
X006916Y010237D01*
X006916Y010276D02*
X007624Y010276D01*
X007624Y010315D02*
X006916Y010315D01*
D18*
X006536Y011284D02*
X006536Y011792D01*
X006536Y011284D02*
X005950Y011284D01*
X005950Y011792D01*
X006536Y011792D01*
X006536Y011327D02*
X005950Y011327D01*
X005950Y011370D02*
X006536Y011370D01*
X006536Y011413D02*
X005950Y011413D01*
X005950Y011456D02*
X006536Y011456D01*
X006536Y011499D02*
X005950Y011499D01*
X005950Y011542D02*
X006536Y011542D01*
X006536Y011585D02*
X005950Y011585D01*
X005950Y011628D02*
X006536Y011628D01*
X006536Y011671D02*
X005950Y011671D01*
X005950Y011714D02*
X006536Y011714D01*
X006536Y011757D02*
X005950Y011757D01*
X006536Y012032D02*
X006536Y012540D01*
X006536Y012032D02*
X005950Y012032D01*
X005950Y012540D01*
X006536Y012540D01*
X006536Y012075D02*
X005950Y012075D01*
X005950Y012118D02*
X006536Y012118D01*
X006536Y012161D02*
X005950Y012161D01*
X005950Y012204D02*
X006536Y012204D01*
X006536Y012247D02*
X005950Y012247D01*
X005950Y012290D02*
X006536Y012290D01*
X006536Y012333D02*
X005950Y012333D01*
X005950Y012376D02*
X006536Y012376D01*
X006536Y012419D02*
X005950Y012419D01*
X005950Y012462D02*
X006536Y012462D01*
X006536Y012505D02*
X005950Y012505D01*
X010236Y012146D02*
X010236Y011638D01*
X009650Y011638D01*
X009650Y012146D01*
X010236Y012146D01*
X010236Y011681D02*
X009650Y011681D01*
X009650Y011724D02*
X010236Y011724D01*
X010236Y011767D02*
X009650Y011767D01*
X009650Y011810D02*
X010236Y011810D01*
X010236Y011853D02*
X009650Y011853D01*
X009650Y011896D02*
X010236Y011896D01*
X010236Y011939D02*
X009650Y011939D01*
X009650Y011982D02*
X010236Y011982D01*
X010236Y012025D02*
X009650Y012025D01*
X009650Y012068D02*
X010236Y012068D01*
X010236Y012111D02*
X009650Y012111D01*
X010236Y011398D02*
X010236Y010890D01*
X009650Y010890D01*
X009650Y011398D01*
X010236Y011398D01*
X010236Y010933D02*
X009650Y010933D01*
X009650Y010976D02*
X010236Y010976D01*
X010236Y011019D02*
X009650Y011019D01*
X009650Y011062D02*
X010236Y011062D01*
X010236Y011105D02*
X009650Y011105D01*
X009650Y011148D02*
X010236Y011148D01*
X010236Y011191D02*
X009650Y011191D01*
X009650Y011234D02*
X010236Y011234D01*
X010236Y011277D02*
X009650Y011277D01*
X009650Y011320D02*
X010236Y011320D01*
X010236Y011363D02*
X009650Y011363D01*
X012599Y010178D02*
X012599Y009670D01*
X012013Y009670D01*
X012013Y010178D01*
X012599Y010178D01*
X012599Y009713D02*
X012013Y009713D01*
X012013Y009756D02*
X012599Y009756D01*
X012599Y009799D02*
X012013Y009799D01*
X012013Y009842D02*
X012599Y009842D01*
X012599Y009885D02*
X012013Y009885D01*
X012013Y009928D02*
X012599Y009928D01*
X012599Y009971D02*
X012013Y009971D01*
X012013Y010014D02*
X012599Y010014D01*
X012599Y010057D02*
X012013Y010057D01*
X012013Y010100D02*
X012599Y010100D01*
X012599Y010143D02*
X012013Y010143D01*
X012599Y009430D02*
X012599Y008922D01*
X012013Y008922D01*
X012013Y009430D01*
X012599Y009430D01*
X012599Y008965D02*
X012013Y008965D01*
X012013Y009008D02*
X012599Y009008D01*
X012599Y009051D02*
X012013Y009051D01*
X012013Y009094D02*
X012599Y009094D01*
X012599Y009137D02*
X012013Y009137D01*
X012013Y009180D02*
X012599Y009180D01*
X012599Y009223D02*
X012013Y009223D01*
X012013Y009266D02*
X012599Y009266D01*
X012599Y009309D02*
X012013Y009309D01*
X012013Y009352D02*
X012599Y009352D01*
X012599Y009395D02*
X012013Y009395D01*
X006654Y008524D02*
X006654Y008016D01*
X006068Y008016D01*
X006068Y008524D01*
X006654Y008524D01*
X006654Y008059D02*
X006068Y008059D01*
X006068Y008102D02*
X006654Y008102D01*
X006654Y008145D02*
X006068Y008145D01*
X006068Y008188D02*
X006654Y008188D01*
X006654Y008231D02*
X006068Y008231D01*
X006068Y008274D02*
X006654Y008274D01*
X006654Y008317D02*
X006068Y008317D01*
X006068Y008360D02*
X006654Y008360D01*
X006654Y008403D02*
X006068Y008403D01*
X006068Y008446D02*
X006654Y008446D01*
X006654Y008489D02*
X006068Y008489D01*
X006654Y007776D02*
X006654Y007268D01*
X006068Y007268D01*
X006068Y007776D01*
X006654Y007776D01*
X006654Y007311D02*
X006068Y007311D01*
X006068Y007354D02*
X006654Y007354D01*
X006654Y007397D02*
X006068Y007397D01*
X006068Y007440D02*
X006654Y007440D01*
X006654Y007483D02*
X006068Y007483D01*
X006068Y007526D02*
X006654Y007526D01*
X006654Y007569D02*
X006068Y007569D01*
X006068Y007612D02*
X006654Y007612D01*
X006654Y007655D02*
X006068Y007655D01*
X006068Y007698D02*
X006654Y007698D01*
X006654Y007741D02*
X006068Y007741D01*
D19*
X001676Y001676D03*
X013526Y001676D03*
X013526Y013526D03*
D20*
X002463Y013487D03*
X001676Y013487D03*
X001676Y014274D03*
X000888Y013487D03*
X001676Y012699D03*
M02*
