%
M48
M72
T01C0.0100
%
T01
X5476Y4423
X8547Y6651
X10122Y7415
X11697Y6391
X11110Y9541
X10161Y9502
X10728Y10517
X10831Y11352
X8894Y12675
X7642Y13793
X7445Y12573
X7138Y12258
X7138Y11935
X6193Y11053
X5590Y11329
X5539Y10266
X7838Y10801
X9138Y14817
X5673Y15250
X3146Y11415
X1067Y12415
X3035Y8517
X12720Y12297
M30
