G75*
G70*
%OFA0B0*%
%FSLAX24Y24*%
%IPPOS*%
%LPD*%
%AMOC8*
5,1,8,0,0,1.08239X$1,22.5*
%
%ADD10C,0.0000*%
%ADD11R,0.0315X0.0472*%
%ADD12R,0.0413X0.0551*%
%ADD13R,0.0354X0.0315*%
%ADD14C,0.0148*%
%ADD15R,0.0453X0.0516*%
%ADD16R,0.1260X0.0276*%
%ADD17R,0.0472X0.0315*%
%ADD18C,0.0059*%
%ADD19R,0.0472X0.0217*%
%ADD20R,0.0551X0.0630*%
%ADD21C,0.0300*%
%ADD22R,0.0236X0.0197*%
%ADD23C,0.0080*%
%ADD24C,0.0240*%
%ADD25C,0.0100*%
D10*
X007353Y002892D02*
X007686Y002900D01*
X008018Y002924D01*
X008349Y002964D01*
X008677Y003020D01*
X009002Y003092D01*
X009323Y003180D01*
X009640Y003283D01*
X009951Y003401D01*
X010256Y003534D01*
X010555Y003681D01*
X010846Y003843D01*
X011129Y004019D01*
X011403Y004208D01*
X011667Y004410D01*
X011922Y004625D01*
X012166Y004852D01*
X012398Y005090D01*
X012619Y005339D01*
X012828Y005599D01*
X013023Y005868D01*
X013206Y006147D01*
X013375Y006434D01*
X013529Y006728D01*
X013670Y007030D01*
X013795Y007339D01*
X013906Y007653D01*
X014001Y007972D01*
X014081Y008295D01*
X014145Y008622D01*
X014193Y008952D01*
X014225Y009283D01*
X014241Y009616D01*
X014241Y009948D01*
X014225Y010281D01*
X014193Y010612D01*
X014145Y010942D01*
X014081Y011269D01*
X014001Y011592D01*
X013906Y011911D01*
X013795Y012225D01*
X013670Y012534D01*
X013529Y012836D01*
X013375Y013130D01*
X013206Y013417D01*
X013023Y013696D01*
X012828Y013965D01*
X012619Y014225D01*
X012398Y014474D01*
X012166Y014712D01*
X011922Y014939D01*
X011667Y015154D01*
X011403Y015356D01*
X011129Y015545D01*
X010846Y015721D01*
X010555Y015883D01*
X010256Y016030D01*
X009951Y016163D01*
X009640Y016281D01*
X009323Y016384D01*
X009002Y016472D01*
X008677Y016544D01*
X008349Y016600D01*
X008018Y016640D01*
X007686Y016664D01*
X007353Y016672D01*
X007020Y016664D01*
X006688Y016640D01*
X006357Y016600D01*
X006029Y016544D01*
X005704Y016472D01*
X005383Y016384D01*
X005066Y016281D01*
X004755Y016163D01*
X004450Y016030D01*
X004151Y015883D01*
X003860Y015721D01*
X003577Y015545D01*
X003303Y015356D01*
X003039Y015154D01*
X002784Y014939D01*
X002540Y014712D01*
X002308Y014474D01*
X002087Y014225D01*
X001878Y013965D01*
X001683Y013696D01*
X001500Y013417D01*
X001331Y013130D01*
X001177Y012836D01*
X001036Y012534D01*
X000911Y012225D01*
X000800Y011911D01*
X000705Y011592D01*
X000625Y011269D01*
X000561Y010942D01*
X000513Y010612D01*
X000481Y010281D01*
X000465Y009948D01*
X000465Y009616D01*
X000481Y009283D01*
X000513Y008952D01*
X000561Y008622D01*
X000625Y008295D01*
X000705Y007972D01*
X000800Y007653D01*
X000911Y007339D01*
X001036Y007030D01*
X001177Y006728D01*
X001331Y006434D01*
X001500Y006147D01*
X001683Y005868D01*
X001878Y005599D01*
X002087Y005339D01*
X002308Y005090D01*
X002540Y004852D01*
X002784Y004625D01*
X003039Y004410D01*
X003303Y004208D01*
X003577Y004019D01*
X003860Y003843D01*
X004151Y003681D01*
X004450Y003534D01*
X004755Y003401D01*
X005066Y003283D01*
X005383Y003180D01*
X005704Y003092D01*
X006029Y003020D01*
X006357Y002964D01*
X006688Y002924D01*
X007020Y002900D01*
X007353Y002892D01*
D11*
X005168Y007184D03*
X004460Y007184D03*
X004420Y007991D03*
X005129Y007991D03*
G36*
X003290Y011355D02*
X003512Y011577D01*
X003844Y011245D01*
X003622Y011023D01*
X003290Y011355D01*
G37*
G36*
X003791Y011856D02*
X004013Y012078D01*
X004345Y011746D01*
X004123Y011524D01*
X003791Y011856D01*
G37*
D12*
G36*
X011400Y014443D02*
X011108Y014151D01*
X010720Y014539D01*
X011012Y014831D01*
X011400Y014443D01*
G37*
G36*
X011804Y014847D02*
X011512Y014555D01*
X011124Y014943D01*
X011416Y015235D01*
X011804Y014847D01*
G37*
G36*
X012806Y013845D02*
X012514Y013553D01*
X012126Y013941D01*
X012418Y014233D01*
X012806Y013845D01*
G37*
G36*
X012402Y013441D02*
X012110Y013149D01*
X011722Y013537D01*
X012014Y013829D01*
X012402Y013441D01*
G37*
D13*
X010042Y015023D03*
X009255Y015397D03*
X010042Y015771D03*
X004401Y010597D03*
X004401Y009849D03*
X003613Y010223D03*
X010149Y004782D03*
X009361Y004408D03*
X010149Y004034D03*
D14*
X002652Y011553D02*
X002726Y011627D01*
X002726Y011381D01*
X002554Y011209D01*
X002308Y011209D01*
X002136Y011381D01*
X002136Y011627D01*
X002308Y011799D01*
X002554Y011799D01*
X002726Y011627D01*
X002615Y011581D01*
X002615Y011427D01*
X002508Y011320D01*
X002354Y011320D01*
X002247Y011427D01*
X002247Y011581D01*
X002354Y011688D01*
X002508Y011688D01*
X002615Y011581D01*
X002504Y011535D01*
X002504Y011473D01*
X002462Y011431D01*
X002400Y011431D01*
X002358Y011473D01*
X002358Y011535D01*
X002400Y011577D01*
X002462Y011577D01*
X002504Y011535D01*
X003359Y012260D02*
X003433Y012334D01*
X003433Y012088D01*
X003261Y011916D01*
X003015Y011916D01*
X002843Y012088D01*
X002843Y012334D01*
X003015Y012506D01*
X003261Y012506D01*
X003433Y012334D01*
X003322Y012288D01*
X003322Y012134D01*
X003215Y012027D01*
X003061Y012027D01*
X002954Y012134D01*
X002954Y012288D01*
X003061Y012395D01*
X003215Y012395D01*
X003322Y012288D01*
X003211Y012242D01*
X003211Y012180D01*
X003169Y012138D01*
X003107Y012138D01*
X003065Y012180D01*
X003065Y012242D01*
X003107Y012284D01*
X003169Y012284D01*
X003211Y012242D01*
X004066Y012968D02*
X004140Y013042D01*
X004140Y012796D01*
X003968Y012624D01*
X003722Y012624D01*
X003550Y012796D01*
X003550Y013042D01*
X003722Y013214D01*
X003968Y013214D01*
X004140Y013042D01*
X004029Y012996D01*
X004029Y012842D01*
X003922Y012735D01*
X003768Y012735D01*
X003661Y012842D01*
X003661Y012996D01*
X003768Y013103D01*
X003922Y013103D01*
X004029Y012996D01*
X003918Y012950D01*
X003918Y012888D01*
X003876Y012846D01*
X003814Y012846D01*
X003772Y012888D01*
X003772Y012950D01*
X003814Y012992D01*
X003876Y012992D01*
X003918Y012950D01*
X003359Y013675D02*
X003433Y013749D01*
X003433Y013503D01*
X003261Y013331D01*
X003015Y013331D01*
X002843Y013503D01*
X002843Y013749D01*
X003015Y013921D01*
X003261Y013921D01*
X003433Y013749D01*
X003322Y013703D01*
X003322Y013549D01*
X003215Y013442D01*
X003061Y013442D01*
X002954Y013549D01*
X002954Y013703D01*
X003061Y013810D01*
X003215Y013810D01*
X003322Y013703D01*
X003211Y013657D01*
X003211Y013595D01*
X003169Y013553D01*
X003107Y013553D01*
X003065Y013595D01*
X003065Y013657D01*
X003107Y013699D01*
X003169Y013699D01*
X003211Y013657D01*
X002652Y012968D02*
X002726Y013042D01*
X002726Y012796D01*
X002554Y012624D01*
X002308Y012624D01*
X002136Y012796D01*
X002136Y013042D01*
X002308Y013214D01*
X002554Y013214D01*
X002726Y013042D01*
X002615Y012996D01*
X002615Y012842D01*
X002508Y012735D01*
X002354Y012735D01*
X002247Y012842D01*
X002247Y012996D01*
X002354Y013103D01*
X002508Y013103D01*
X002615Y012996D01*
X002504Y012950D01*
X002504Y012888D01*
X002462Y012846D01*
X002400Y012846D01*
X002358Y012888D01*
X002358Y012950D01*
X002400Y012992D01*
X002462Y012992D01*
X002504Y012950D01*
X001944Y012260D02*
X002018Y012334D01*
X002018Y012088D01*
X001846Y011916D01*
X001600Y011916D01*
X001428Y012088D01*
X001428Y012334D01*
X001600Y012506D01*
X001846Y012506D01*
X002018Y012334D01*
X001907Y012288D01*
X001907Y012134D01*
X001800Y012027D01*
X001646Y012027D01*
X001539Y012134D01*
X001539Y012288D01*
X001646Y012395D01*
X001800Y012395D01*
X001907Y012288D01*
X001796Y012242D01*
X001796Y012180D01*
X001754Y012138D01*
X001692Y012138D01*
X001650Y012180D01*
X001650Y012242D01*
X001692Y012284D01*
X001754Y012284D01*
X001796Y012242D01*
D15*
X002048Y010688D03*
X001241Y010688D03*
X001241Y008877D03*
X002048Y008877D03*
X006950Y005373D03*
X007757Y005373D03*
X007757Y003562D03*
X006950Y003562D03*
X006950Y014192D03*
X007757Y014192D03*
X007757Y016003D03*
X006950Y016003D03*
D16*
X007353Y015097D03*
X001645Y009782D03*
X007353Y004467D03*
D17*
X008653Y004271D03*
X008653Y004782D03*
X008653Y005491D03*
X008653Y003562D03*
X002912Y008834D03*
X002912Y009542D03*
X002905Y009979D03*
X002905Y010688D03*
X007944Y012893D03*
X007944Y013601D03*
X008495Y014121D03*
X008495Y014830D03*
X008515Y015271D03*
X008515Y015979D03*
D18*
X008249Y012272D02*
X008249Y011780D01*
X008249Y012272D02*
X008427Y012272D01*
X008427Y011780D01*
X008249Y011780D01*
X008249Y011838D02*
X008427Y011838D01*
X008427Y011896D02*
X008249Y011896D01*
X008249Y011954D02*
X008427Y011954D01*
X008427Y012012D02*
X008249Y012012D01*
X008249Y012070D02*
X008427Y012070D01*
X008427Y012128D02*
X008249Y012128D01*
X008249Y012186D02*
X008427Y012186D01*
X008427Y012244D02*
X008249Y012244D01*
X007855Y012272D02*
X007855Y011780D01*
X007855Y012272D02*
X008033Y012272D01*
X008033Y011780D01*
X007855Y011780D01*
X007855Y011838D02*
X008033Y011838D01*
X008033Y011896D02*
X007855Y011896D01*
X007855Y011954D02*
X008033Y011954D01*
X008033Y012012D02*
X007855Y012012D01*
X007855Y012070D02*
X008033Y012070D01*
X008033Y012128D02*
X007855Y012128D01*
X007855Y012186D02*
X008033Y012186D01*
X008033Y012244D02*
X007855Y012244D01*
X007461Y012272D02*
X007461Y011780D01*
X007461Y012272D02*
X007639Y012272D01*
X007639Y011780D01*
X007461Y011780D01*
X007461Y011838D02*
X007639Y011838D01*
X007639Y011896D02*
X007461Y011896D01*
X007461Y011954D02*
X007639Y011954D01*
X007639Y012012D02*
X007461Y012012D01*
X007461Y012070D02*
X007639Y012070D01*
X007639Y012128D02*
X007461Y012128D01*
X007461Y012186D02*
X007639Y012186D01*
X007639Y012244D02*
X007461Y012244D01*
X007166Y011622D02*
X006674Y011622D01*
X006674Y011800D01*
X007166Y011800D01*
X007166Y011622D01*
X007166Y011680D02*
X006674Y011680D01*
X006674Y011738D02*
X007166Y011738D01*
X007166Y011796D02*
X006674Y011796D01*
X006674Y011229D02*
X007166Y011229D01*
X006674Y011229D02*
X006674Y011407D01*
X007166Y011407D01*
X007166Y011229D01*
X007166Y011287D02*
X006674Y011287D01*
X006674Y011345D02*
X007166Y011345D01*
X007166Y011403D02*
X006674Y011403D01*
X006674Y010835D02*
X007166Y010835D01*
X006674Y010835D02*
X006674Y011013D01*
X007166Y011013D01*
X007166Y010835D01*
X007166Y010893D02*
X006674Y010893D01*
X006674Y010951D02*
X007166Y010951D01*
X007166Y011009D02*
X006674Y011009D01*
X006674Y010441D02*
X007166Y010441D01*
X006674Y010441D02*
X006674Y010619D01*
X007166Y010619D01*
X007166Y010441D01*
X007166Y010499D02*
X006674Y010499D01*
X006674Y010557D02*
X007166Y010557D01*
X007166Y010615D02*
X006674Y010615D01*
X006674Y010048D02*
X007166Y010048D01*
X006674Y010048D02*
X006674Y010226D01*
X007166Y010226D01*
X007166Y010048D01*
X007166Y010106D02*
X006674Y010106D01*
X006674Y010164D02*
X007166Y010164D01*
X007166Y010222D02*
X006674Y010222D01*
X006674Y009339D02*
X007166Y009339D01*
X006674Y009339D02*
X006674Y009517D01*
X007166Y009517D01*
X007166Y009339D01*
X007166Y009397D02*
X006674Y009397D01*
X006674Y009455D02*
X007166Y009455D01*
X007166Y009513D02*
X006674Y009513D01*
X006674Y008945D02*
X007166Y008945D01*
X006674Y008945D02*
X006674Y009123D01*
X007166Y009123D01*
X007166Y008945D01*
X007166Y009003D02*
X006674Y009003D01*
X006674Y009061D02*
X007166Y009061D01*
X007166Y009119D02*
X006674Y009119D01*
X006674Y008552D02*
X007166Y008552D01*
X006674Y008552D02*
X006674Y008730D01*
X007166Y008730D01*
X007166Y008552D01*
X007166Y008610D02*
X006674Y008610D01*
X006674Y008668D02*
X007166Y008668D01*
X007166Y008726D02*
X006674Y008726D01*
X006674Y008158D02*
X007166Y008158D01*
X006674Y008158D02*
X006674Y008336D01*
X007166Y008336D01*
X007166Y008158D01*
X007166Y008216D02*
X006674Y008216D01*
X006674Y008274D02*
X007166Y008274D01*
X007166Y008332D02*
X006674Y008332D01*
X006674Y007764D02*
X007166Y007764D01*
X006674Y007764D02*
X006674Y007942D01*
X007166Y007942D01*
X007166Y007764D01*
X007166Y007822D02*
X006674Y007822D01*
X006674Y007880D02*
X007166Y007880D01*
X007166Y007938D02*
X006674Y007938D01*
X007639Y007784D02*
X007639Y007292D01*
X007461Y007292D01*
X007461Y007784D01*
X007639Y007784D01*
X007639Y007350D02*
X007461Y007350D01*
X007461Y007408D02*
X007639Y007408D01*
X007639Y007466D02*
X007461Y007466D01*
X007461Y007524D02*
X007639Y007524D01*
X007639Y007582D02*
X007461Y007582D01*
X007461Y007640D02*
X007639Y007640D01*
X007639Y007698D02*
X007461Y007698D01*
X007461Y007756D02*
X007639Y007756D01*
X008033Y007784D02*
X008033Y007292D01*
X007855Y007292D01*
X007855Y007784D01*
X008033Y007784D01*
X008033Y007350D02*
X007855Y007350D01*
X007855Y007408D02*
X008033Y007408D01*
X008033Y007466D02*
X007855Y007466D01*
X007855Y007524D02*
X008033Y007524D01*
X008033Y007582D02*
X007855Y007582D01*
X007855Y007640D02*
X008033Y007640D01*
X008033Y007698D02*
X007855Y007698D01*
X007855Y007756D02*
X008033Y007756D01*
X008427Y007784D02*
X008427Y007292D01*
X008249Y007292D01*
X008249Y007784D01*
X008427Y007784D01*
X008427Y007350D02*
X008249Y007350D01*
X008249Y007408D02*
X008427Y007408D01*
X008427Y007466D02*
X008249Y007466D01*
X008249Y007524D02*
X008427Y007524D01*
X008427Y007582D02*
X008249Y007582D01*
X008249Y007640D02*
X008427Y007640D01*
X008427Y007698D02*
X008249Y007698D01*
X008249Y007756D02*
X008427Y007756D01*
X008820Y007784D02*
X008820Y007292D01*
X008642Y007292D01*
X008642Y007784D01*
X008820Y007784D01*
X008820Y007350D02*
X008642Y007350D01*
X008642Y007408D02*
X008820Y007408D01*
X008820Y007466D02*
X008642Y007466D01*
X008642Y007524D02*
X008820Y007524D01*
X008820Y007582D02*
X008642Y007582D01*
X008642Y007640D02*
X008820Y007640D01*
X008820Y007698D02*
X008642Y007698D01*
X008642Y007756D02*
X008820Y007756D01*
X009214Y007784D02*
X009214Y007292D01*
X009036Y007292D01*
X009036Y007784D01*
X009214Y007784D01*
X009214Y007350D02*
X009036Y007350D01*
X009036Y007408D02*
X009214Y007408D01*
X009214Y007466D02*
X009036Y007466D01*
X009036Y007524D02*
X009214Y007524D01*
X009214Y007582D02*
X009036Y007582D01*
X009036Y007640D02*
X009214Y007640D01*
X009214Y007698D02*
X009036Y007698D01*
X009036Y007756D02*
X009214Y007756D01*
X009608Y007784D02*
X009608Y007292D01*
X009430Y007292D01*
X009430Y007784D01*
X009608Y007784D01*
X009608Y007350D02*
X009430Y007350D01*
X009430Y007408D02*
X009608Y007408D01*
X009608Y007466D02*
X009430Y007466D01*
X009430Y007524D02*
X009608Y007524D01*
X009608Y007582D02*
X009430Y007582D01*
X009430Y007640D02*
X009608Y007640D01*
X009608Y007698D02*
X009430Y007698D01*
X009430Y007756D02*
X009608Y007756D01*
X010001Y007784D02*
X010001Y007292D01*
X009823Y007292D01*
X009823Y007784D01*
X010001Y007784D01*
X010001Y007350D02*
X009823Y007350D01*
X009823Y007408D02*
X010001Y007408D01*
X010001Y007466D02*
X009823Y007466D01*
X009823Y007524D02*
X010001Y007524D01*
X010001Y007582D02*
X009823Y007582D01*
X009823Y007640D02*
X010001Y007640D01*
X010001Y007698D02*
X009823Y007698D01*
X009823Y007756D02*
X010001Y007756D01*
X010395Y007784D02*
X010395Y007292D01*
X010217Y007292D01*
X010217Y007784D01*
X010395Y007784D01*
X010395Y007350D02*
X010217Y007350D01*
X010217Y007408D02*
X010395Y007408D01*
X010395Y007466D02*
X010217Y007466D01*
X010217Y007524D02*
X010395Y007524D01*
X010395Y007582D02*
X010217Y007582D01*
X010217Y007640D02*
X010395Y007640D01*
X010395Y007698D02*
X010217Y007698D01*
X010217Y007756D02*
X010395Y007756D01*
X010789Y007784D02*
X010789Y007292D01*
X010611Y007292D01*
X010611Y007784D01*
X010789Y007784D01*
X010789Y007350D02*
X010611Y007350D01*
X010611Y007408D02*
X010789Y007408D01*
X010789Y007466D02*
X010611Y007466D01*
X010611Y007524D02*
X010789Y007524D01*
X010789Y007582D02*
X010611Y007582D01*
X010611Y007640D02*
X010789Y007640D01*
X010789Y007698D02*
X010611Y007698D01*
X010611Y007756D02*
X010789Y007756D01*
X011183Y007784D02*
X011183Y007292D01*
X011005Y007292D01*
X011005Y007784D01*
X011183Y007784D01*
X011183Y007350D02*
X011005Y007350D01*
X011005Y007408D02*
X011183Y007408D01*
X011183Y007466D02*
X011005Y007466D01*
X011005Y007524D02*
X011183Y007524D01*
X011183Y007582D02*
X011005Y007582D01*
X011005Y007640D02*
X011183Y007640D01*
X011183Y007698D02*
X011005Y007698D01*
X011005Y007756D02*
X011183Y007756D01*
X011399Y008454D02*
X011891Y008454D01*
X011891Y008276D01*
X011399Y008276D01*
X011399Y008454D01*
X011399Y008334D02*
X011891Y008334D01*
X011891Y008392D02*
X011399Y008392D01*
X011399Y008450D02*
X011891Y008450D01*
X011891Y009084D02*
X011399Y009084D01*
X011891Y009084D02*
X011891Y008906D01*
X011399Y008906D01*
X011399Y009084D01*
X011399Y008964D02*
X011891Y008964D01*
X011891Y009022D02*
X011399Y009022D01*
X011399Y009080D02*
X011891Y009080D01*
X011005Y011780D02*
X011005Y012272D01*
X011183Y012272D01*
X011183Y011780D01*
X011005Y011780D01*
X011005Y011838D02*
X011183Y011838D01*
X011183Y011896D02*
X011005Y011896D01*
X011005Y011954D02*
X011183Y011954D01*
X011183Y012012D02*
X011005Y012012D01*
X011005Y012070D02*
X011183Y012070D01*
X011183Y012128D02*
X011005Y012128D01*
X011005Y012186D02*
X011183Y012186D01*
X011183Y012244D02*
X011005Y012244D01*
X010611Y012272D02*
X010611Y011780D01*
X010611Y012272D02*
X010789Y012272D01*
X010789Y011780D01*
X010611Y011780D01*
X010611Y011838D02*
X010789Y011838D01*
X010789Y011896D02*
X010611Y011896D01*
X010611Y011954D02*
X010789Y011954D01*
X010789Y012012D02*
X010611Y012012D01*
X010611Y012070D02*
X010789Y012070D01*
X010789Y012128D02*
X010611Y012128D01*
X010611Y012186D02*
X010789Y012186D01*
X010789Y012244D02*
X010611Y012244D01*
X010217Y012272D02*
X010217Y011780D01*
X010217Y012272D02*
X010395Y012272D01*
X010395Y011780D01*
X010217Y011780D01*
X010217Y011838D02*
X010395Y011838D01*
X010395Y011896D02*
X010217Y011896D01*
X010217Y011954D02*
X010395Y011954D01*
X010395Y012012D02*
X010217Y012012D01*
X010217Y012070D02*
X010395Y012070D01*
X010395Y012128D02*
X010217Y012128D01*
X010217Y012186D02*
X010395Y012186D01*
X010395Y012244D02*
X010217Y012244D01*
X009823Y012272D02*
X009823Y011780D01*
X009823Y012272D02*
X010001Y012272D01*
X010001Y011780D01*
X009823Y011780D01*
X009823Y011838D02*
X010001Y011838D01*
X010001Y011896D02*
X009823Y011896D01*
X009823Y011954D02*
X010001Y011954D01*
X010001Y012012D02*
X009823Y012012D01*
X009823Y012070D02*
X010001Y012070D01*
X010001Y012128D02*
X009823Y012128D01*
X009823Y012186D02*
X010001Y012186D01*
X010001Y012244D02*
X009823Y012244D01*
X009430Y012272D02*
X009430Y011780D01*
X009430Y012272D02*
X009608Y012272D01*
X009608Y011780D01*
X009430Y011780D01*
X009430Y011838D02*
X009608Y011838D01*
X009608Y011896D02*
X009430Y011896D01*
X009430Y011954D02*
X009608Y011954D01*
X009608Y012012D02*
X009430Y012012D01*
X009430Y012070D02*
X009608Y012070D01*
X009608Y012128D02*
X009430Y012128D01*
X009430Y012186D02*
X009608Y012186D01*
X009608Y012244D02*
X009430Y012244D01*
X009036Y012272D02*
X009036Y011780D01*
X009036Y012272D02*
X009214Y012272D01*
X009214Y011780D01*
X009036Y011780D01*
X009036Y011838D02*
X009214Y011838D01*
X009214Y011896D02*
X009036Y011896D01*
X009036Y011954D02*
X009214Y011954D01*
X009214Y012012D02*
X009036Y012012D01*
X009036Y012070D02*
X009214Y012070D01*
X009214Y012128D02*
X009036Y012128D01*
X009036Y012186D02*
X009214Y012186D01*
X009214Y012244D02*
X009036Y012244D01*
X008642Y012272D02*
X008642Y011780D01*
X008642Y012272D02*
X008820Y012272D01*
X008820Y011780D01*
X008642Y011780D01*
X008642Y011838D02*
X008820Y011838D01*
X008820Y011896D02*
X008642Y011896D01*
X008642Y011954D02*
X008820Y011954D01*
X008820Y012012D02*
X008642Y012012D01*
X008642Y012070D02*
X008820Y012070D01*
X008820Y012128D02*
X008642Y012128D01*
X008642Y012186D02*
X008820Y012186D01*
X008820Y012244D02*
X008642Y012244D01*
D19*
X003653Y008149D03*
X003653Y007400D03*
X002629Y007400D03*
X002629Y007774D03*
X002629Y008149D03*
D20*
X002767Y006731D03*
X003869Y006731D03*
D21*
X002097Y008129D03*
X006409Y008247D03*
X006409Y008641D03*
X006409Y009034D03*
X006409Y009428D03*
X006409Y010137D03*
X006409Y010924D03*
X006920Y012184D03*
X008338Y012538D03*
X008731Y012538D03*
X009125Y012538D03*
X009519Y012538D03*
X009912Y012538D03*
X010306Y012538D03*
X010306Y006908D03*
X009912Y006593D03*
X009519Y006908D03*
X009125Y006593D03*
X008731Y006869D03*
X008338Y006593D03*
X007944Y006869D03*
X007550Y006593D03*
X010700Y006593D03*
D22*
X009361Y005496D03*
X009361Y005171D03*
X003613Y008833D03*
X003613Y009157D03*
X009243Y014148D03*
X009243Y014472D03*
D23*
X004469Y003919D02*
X005153Y003630D01*
X005866Y003420D01*
X006597Y003292D01*
X006605Y003291D01*
X006605Y003869D01*
X006674Y003938D01*
X007225Y003938D01*
X007295Y003869D01*
X007295Y003721D01*
X007412Y003721D01*
X007412Y003869D01*
X007481Y003938D01*
X008032Y003938D01*
X008102Y003869D01*
X008102Y003721D01*
X008298Y003721D01*
X008298Y003769D01*
X008367Y003838D01*
X008938Y003838D01*
X009008Y003769D01*
X009008Y003355D01*
X008938Y003286D01*
X008367Y003286D01*
X008298Y003355D01*
X008298Y003403D01*
X008102Y003403D01*
X008102Y003255D01*
X008032Y003185D01*
X007481Y003185D01*
X007412Y003255D01*
X007412Y003403D01*
X007295Y003403D01*
X007295Y003255D01*
X007225Y003185D01*
X007122Y003185D01*
X007122Y003185D01*
X007119Y003127D01*
X007118Y003124D01*
X007118Y003063D01*
X007115Y003059D01*
X007113Y003041D01*
X007353Y003033D01*
X007835Y003050D01*
X008788Y003187D01*
X009712Y003458D01*
X010369Y003758D01*
X009922Y003758D01*
X009853Y003828D01*
X009853Y004241D01*
X009922Y004311D01*
X010082Y004311D01*
X010083Y004311D01*
X010214Y004311D01*
X010293Y004311D01*
X010294Y004311D01*
X010318Y004311D01*
X011368Y005360D01*
X011368Y007866D01*
X009414Y009820D01*
X008733Y009820D01*
X008653Y009740D01*
X008455Y009740D01*
X008315Y009880D01*
X008315Y010078D01*
X008455Y010218D01*
X008653Y010218D01*
X008733Y010138D01*
X009414Y010138D01*
X009545Y010138D01*
X011250Y008433D01*
X011250Y008515D01*
X011337Y008602D01*
X011952Y008602D01*
X012039Y008515D01*
X012039Y008215D01*
X011952Y008128D01*
X011555Y008128D01*
X011592Y008091D01*
X011685Y007998D01*
X013846Y007998D01*
X013823Y007919D02*
X011685Y007919D01*
X011685Y007841D02*
X013800Y007841D01*
X013777Y007762D02*
X011685Y007762D01*
X011685Y007684D02*
X013754Y007684D01*
X013731Y007605D02*
X011685Y007605D01*
X011685Y007527D02*
X013708Y007527D01*
X013685Y007448D02*
X011685Y007448D01*
X011685Y007370D02*
X013653Y007370D01*
X013678Y007424D02*
X013278Y006548D01*
X012757Y005737D01*
X012126Y005010D01*
X011398Y004379D01*
X010588Y003858D01*
X010380Y003763D01*
X010445Y003828D01*
X010445Y003988D01*
X010465Y004008D01*
X011685Y005228D01*
X011685Y005360D01*
X011685Y007998D01*
X011607Y008076D02*
X013869Y008076D01*
X013892Y008155D02*
X011979Y008155D01*
X012039Y008234D02*
X013915Y008234D01*
X013939Y008312D02*
X012039Y008312D01*
X012039Y008391D02*
X013955Y008391D01*
X013949Y008348D02*
X013678Y007424D01*
X013617Y007291D02*
X011685Y007291D01*
X011685Y007212D02*
X013581Y007212D01*
X013545Y007134D02*
X011685Y007134D01*
X011685Y007055D02*
X013509Y007055D01*
X013474Y006977D02*
X011685Y006977D01*
X011685Y006898D02*
X013438Y006898D01*
X013402Y006820D02*
X011685Y006820D01*
X011685Y006741D02*
X013366Y006741D01*
X013330Y006663D02*
X011685Y006663D01*
X011685Y006584D02*
X013294Y006584D01*
X013251Y006506D02*
X011685Y006506D01*
X011685Y006427D02*
X013200Y006427D01*
X013150Y006349D02*
X011685Y006349D01*
X011685Y006270D02*
X013099Y006270D01*
X013049Y006191D02*
X011685Y006191D01*
X011685Y006113D02*
X012998Y006113D01*
X012948Y006034D02*
X011685Y006034D01*
X011685Y005956D02*
X012897Y005956D01*
X012847Y005877D02*
X011685Y005877D01*
X011685Y005799D02*
X012796Y005799D01*
X012742Y005720D02*
X011685Y005720D01*
X011685Y005642D02*
X012674Y005642D01*
X012606Y005563D02*
X011685Y005563D01*
X011685Y005485D02*
X012538Y005485D01*
X012470Y005406D02*
X011685Y005406D01*
X011685Y005327D02*
X012402Y005327D01*
X012334Y005249D02*
X011685Y005249D01*
X011627Y005170D02*
X012266Y005170D01*
X012197Y005092D02*
X011549Y005092D01*
X011470Y005013D02*
X012129Y005013D01*
X012040Y004935D02*
X011392Y004935D01*
X011313Y004856D02*
X011949Y004856D01*
X011859Y004778D02*
X011235Y004778D01*
X011156Y004699D02*
X011768Y004699D01*
X011677Y004621D02*
X011077Y004621D01*
X010999Y004542D02*
X011587Y004542D01*
X011496Y004463D02*
X010920Y004463D01*
X010842Y004385D02*
X011405Y004385D01*
X011286Y004306D02*
X010763Y004306D01*
X010685Y004228D02*
X011163Y004228D01*
X011041Y004149D02*
X010606Y004149D01*
X010528Y004071D02*
X010919Y004071D01*
X010797Y003992D02*
X010449Y003992D01*
X010445Y003914D02*
X010675Y003914D01*
X010538Y003835D02*
X010445Y003835D01*
X010366Y003757D02*
X009008Y003757D01*
X009008Y003678D02*
X010194Y003678D01*
X010022Y003599D02*
X009008Y003599D01*
X009008Y003521D02*
X009850Y003521D01*
X009659Y003442D02*
X009008Y003442D01*
X009008Y003364D02*
X009391Y003364D01*
X009124Y003285D02*
X008102Y003285D01*
X008102Y003364D02*
X008298Y003364D01*
X008054Y003207D02*
X008856Y003207D01*
X008653Y003562D02*
X007757Y003562D01*
X006950Y003562D01*
X006960Y003562D01*
X006960Y003129D01*
X006958Y003101D01*
X007119Y003128D02*
X008381Y003128D01*
X007833Y003050D02*
X007114Y003050D01*
X007247Y003207D02*
X007460Y003207D01*
X007412Y003285D02*
X007295Y003285D01*
X007295Y003364D02*
X007412Y003364D01*
X007412Y003757D02*
X007295Y003757D01*
X007295Y003835D02*
X007412Y003835D01*
X007457Y003914D02*
X007250Y003914D01*
X006649Y003914D02*
X004482Y003914D01*
X004469Y003919D02*
X004141Y004092D01*
X003779Y004312D01*
X003433Y004555D01*
X003433Y004555D01*
X003187Y004749D01*
X002951Y004954D01*
X002950Y004954D01*
X002930Y004973D01*
X002910Y004991D01*
X002910Y004992D01*
X002629Y005268D01*
X002365Y005562D01*
X002362Y005566D01*
X002329Y005605D01*
X002295Y005646D01*
X002293Y005649D01*
X002131Y005855D01*
X001833Y006287D01*
X001734Y006450D01*
X001736Y006458D01*
X001671Y006572D01*
X001664Y006574D01*
X001469Y006941D01*
X001113Y007846D01*
X000986Y008316D01*
X000945Y008521D01*
X000966Y008500D01*
X001517Y008500D01*
X001586Y008570D01*
X001586Y008734D01*
X001703Y008734D01*
X001703Y008570D01*
X001773Y008500D01*
X002324Y008500D01*
X002393Y008570D01*
X002393Y008968D01*
X002691Y009266D01*
X003198Y009266D01*
X003267Y009336D01*
X003267Y009749D01*
X003252Y009765D01*
X003259Y009773D01*
X003259Y010186D01*
X003190Y010255D01*
X002619Y010255D01*
X002550Y010186D01*
X002550Y009773D01*
X002565Y009757D01*
X002557Y009749D01*
X002557Y009581D01*
X002230Y009253D01*
X001773Y009253D01*
X001703Y009184D01*
X001703Y009051D01*
X001586Y009051D01*
X001586Y009184D01*
X001517Y009253D01*
X000966Y009253D01*
X000896Y009184D01*
X000896Y008828D01*
X000830Y009413D01*
X000819Y009782D01*
X000819Y009782D01*
X000834Y010227D01*
X000865Y010529D01*
X000896Y010529D01*
X000896Y010381D01*
X000966Y010311D01*
X001517Y010311D01*
X001586Y010381D01*
X001586Y010529D01*
X001703Y010529D01*
X001703Y010381D01*
X001773Y010311D01*
X002324Y010311D01*
X002393Y010381D01*
X002393Y010534D01*
X002550Y010534D01*
X002550Y010481D01*
X002619Y010412D01*
X003190Y010412D01*
X003259Y010481D01*
X003259Y010818D01*
X003459Y011018D01*
X003574Y010902D01*
X003672Y010902D01*
X003811Y011041D01*
X004492Y011041D01*
X005439Y010095D01*
X005363Y010020D01*
X004696Y010020D01*
X004696Y010056D01*
X004627Y010125D01*
X004174Y010125D01*
X004105Y010056D01*
X004105Y009643D01*
X004174Y009573D01*
X004627Y009573D01*
X004696Y009643D01*
X004696Y009702D01*
X005363Y009702D01*
X005443Y009622D01*
X005641Y009622D01*
X005737Y009718D01*
X005737Y009683D01*
X005877Y009544D01*
X006074Y009544D01*
X006214Y009683D01*
X006214Y009881D01*
X006074Y010021D01*
X005961Y010021D01*
X005730Y010252D01*
X005759Y010252D01*
X005899Y010392D01*
X005899Y010590D01*
X006164Y010590D01*
X006085Y010668D02*
X005821Y010668D01*
X005759Y010730D02*
X005899Y010590D01*
X005899Y010511D02*
X006242Y010511D01*
X006321Y010433D02*
X005899Y010433D01*
X005861Y010354D02*
X006246Y010354D01*
X006256Y010364D02*
X006181Y010289D01*
X006140Y010190D01*
X006140Y010083D01*
X006181Y009984D01*
X006256Y009909D01*
X006355Y009868D01*
X006462Y009868D01*
X006561Y009909D01*
X006582Y009930D01*
X006613Y009900D01*
X007228Y009900D01*
X007315Y009987D01*
X007315Y010287D01*
X007268Y010334D01*
X007315Y010380D01*
X007315Y010680D01*
X007268Y010727D01*
X007305Y010764D01*
X007492Y010764D01*
X007631Y010904D01*
X007785Y010904D01*
X007785Y010872D02*
X007785Y010754D01*
X007761Y010730D01*
X007648Y010730D01*
X007508Y010590D01*
X007315Y010590D01*
X007315Y010668D02*
X007587Y010668D01*
X007508Y010590D02*
X007508Y010392D01*
X007648Y010252D01*
X007846Y010252D01*
X007986Y010392D01*
X007986Y010505D01*
X008010Y010529D01*
X008103Y010622D01*
X008103Y010647D01*
X009059Y010647D01*
X010240Y009466D01*
X010372Y009466D01*
X011269Y009466D01*
X011349Y009386D01*
X011547Y009386D01*
X011687Y009526D01*
X011687Y009724D01*
X011547Y009864D01*
X011349Y009864D01*
X011269Y009784D01*
X010372Y009784D01*
X009284Y010872D01*
X009191Y010965D01*
X008103Y010965D01*
X008103Y011641D01*
X008141Y011679D01*
X008188Y011632D01*
X008488Y011632D01*
X008534Y011679D01*
X008581Y011632D01*
X008881Y011632D01*
X008928Y011679D01*
X008975Y011632D01*
X009275Y011632D01*
X009322Y011679D01*
X009369Y011632D01*
X009669Y011632D01*
X009716Y011679D01*
X009762Y011632D01*
X010062Y011632D01*
X010109Y011679D01*
X010156Y011632D01*
X010456Y011632D01*
X010503Y011679D01*
X010550Y011632D01*
X010850Y011632D01*
X010882Y011664D01*
X010901Y011645D01*
X010939Y011622D01*
X010983Y011611D01*
X011074Y011611D01*
X011113Y011611D01*
X011204Y011611D01*
X011248Y011622D01*
X011286Y011645D01*
X011318Y011676D01*
X011340Y011715D01*
X011352Y011758D01*
X011352Y012007D01*
X011113Y012007D01*
X011113Y012046D01*
X011074Y012046D01*
X011074Y012442D01*
X010983Y012442D01*
X010939Y012430D01*
X010901Y012408D01*
X010882Y012389D01*
X010850Y012421D01*
X010550Y012421D01*
X010547Y012418D01*
X010575Y012485D01*
X010575Y012592D01*
X010534Y012690D01*
X010458Y012766D01*
X010441Y012773D01*
X010451Y012773D01*
X011507Y013830D01*
X011676Y013660D01*
X011602Y013587D01*
X011602Y013488D01*
X012062Y013029D01*
X012160Y013029D01*
X012522Y013391D01*
X012522Y013411D01*
X012533Y013411D01*
X012568Y013421D01*
X012600Y013439D01*
X012731Y013570D01*
X012466Y013836D01*
X012522Y013892D01*
X012788Y013627D01*
X012847Y013686D01*
X013278Y013017D01*
X013678Y012141D01*
X013949Y011217D01*
X014086Y010264D01*
X014086Y009301D01*
X013949Y008348D01*
X013966Y008469D02*
X012039Y008469D01*
X012006Y008548D02*
X013978Y008548D01*
X013989Y008626D02*
X011057Y008626D01*
X011135Y008548D02*
X011283Y008548D01*
X011250Y008469D02*
X011214Y008469D01*
X011001Y008234D02*
X007315Y008234D01*
X007315Y008312D02*
X010922Y008312D01*
X010843Y008391D02*
X007315Y008391D01*
X007315Y008397D02*
X007268Y008444D01*
X007315Y008491D01*
X007315Y008791D01*
X007268Y008837D01*
X007315Y008884D01*
X007315Y009184D01*
X007268Y009231D01*
X007315Y009278D01*
X007315Y009578D01*
X007228Y009665D01*
X006613Y009665D01*
X006582Y009634D01*
X006561Y009656D01*
X006462Y009697D01*
X006355Y009697D01*
X006256Y009656D01*
X006181Y009580D01*
X006140Y009481D01*
X006140Y009375D01*
X006181Y009276D01*
X006225Y009231D01*
X006181Y009187D01*
X006140Y009088D01*
X006140Y008981D01*
X006181Y008882D01*
X006225Y008837D01*
X006181Y008793D01*
X006140Y008694D01*
X006140Y008587D01*
X006181Y008488D01*
X006225Y008444D01*
X006181Y008399D01*
X006140Y008300D01*
X006140Y008193D01*
X006181Y008095D01*
X006256Y008019D01*
X006355Y007978D01*
X006462Y007978D01*
X006514Y008000D01*
X006505Y007964D01*
X006505Y007872D01*
X006901Y007872D01*
X006901Y007834D01*
X006505Y007834D01*
X006505Y007742D01*
X006516Y007699D01*
X006539Y007661D01*
X006570Y007629D01*
X006609Y007607D01*
X006652Y007595D01*
X006901Y007595D01*
X006901Y007834D01*
X006939Y007834D01*
X006939Y007595D01*
X007189Y007595D01*
X007232Y007607D01*
X007270Y007629D01*
X007302Y007661D01*
X007313Y007680D01*
X007313Y007231D01*
X007391Y007153D01*
X007391Y006815D01*
X007322Y006746D01*
X007281Y006647D01*
X007281Y006540D01*
X007322Y006441D01*
X007398Y006366D01*
X007497Y006325D01*
X007604Y006325D01*
X007702Y006366D01*
X007778Y006441D01*
X007819Y006540D01*
X007819Y006630D01*
X007890Y006600D01*
X007997Y006600D01*
X008069Y006630D01*
X008069Y006540D01*
X008110Y006441D01*
X008185Y006366D01*
X008284Y006325D01*
X008391Y006325D01*
X008490Y006366D01*
X008565Y006441D01*
X008606Y006540D01*
X008606Y006630D01*
X008678Y006600D01*
X008785Y006600D01*
X008856Y006630D01*
X008856Y006540D01*
X008897Y006441D01*
X008973Y006366D01*
X009072Y006325D01*
X009179Y006325D01*
X009277Y006366D01*
X009353Y006441D01*
X009394Y006540D01*
X009394Y006647D01*
X009383Y006674D01*
X009465Y006640D01*
X009572Y006640D01*
X009655Y006674D01*
X009644Y006647D01*
X009644Y006540D01*
X009685Y006441D01*
X009760Y006366D01*
X009859Y006325D01*
X009966Y006325D01*
X010065Y006366D01*
X010140Y006441D01*
X010181Y006540D01*
X010181Y006647D01*
X010170Y006674D01*
X010253Y006640D01*
X010360Y006640D01*
X010442Y006674D01*
X010431Y006647D01*
X010431Y006540D01*
X010472Y006441D01*
X010548Y006366D01*
X010646Y006325D01*
X010753Y006325D01*
X010852Y006366D01*
X010928Y006441D01*
X010969Y006540D01*
X010969Y006647D01*
X010928Y006746D01*
X010859Y006815D01*
X010859Y007153D01*
X010882Y007176D01*
X010901Y007157D01*
X010939Y007134D01*
X010983Y007123D01*
X011074Y007123D01*
X011074Y007519D01*
X011113Y007519D01*
X011113Y007557D01*
X011352Y007557D01*
X011352Y007807D01*
X011340Y007850D01*
X011318Y007888D01*
X011286Y007920D01*
X011248Y007942D01*
X011204Y007954D01*
X011113Y007954D01*
X011113Y007558D01*
X011074Y007558D01*
X011074Y007954D01*
X010983Y007954D01*
X010939Y007942D01*
X010901Y007920D01*
X010882Y007901D01*
X010850Y007933D01*
X010550Y007933D01*
X010503Y007886D01*
X010456Y007933D01*
X010156Y007933D01*
X010109Y007886D01*
X010062Y007933D01*
X009762Y007933D01*
X009716Y007886D01*
X009669Y007933D01*
X009369Y007933D01*
X009322Y007886D01*
X009275Y007933D01*
X008975Y007933D01*
X008928Y007886D01*
X008881Y007933D01*
X008581Y007933D01*
X008534Y007886D01*
X008488Y007933D01*
X008188Y007933D01*
X008141Y007886D01*
X008094Y007933D01*
X007794Y007933D01*
X007747Y007886D01*
X007700Y007933D01*
X007400Y007933D01*
X007313Y007846D01*
X007313Y007834D01*
X006940Y007834D01*
X006940Y007872D01*
X007336Y007872D01*
X007336Y007964D01*
X007324Y008007D01*
X007302Y008046D01*
X007283Y008065D01*
X007315Y008097D01*
X007315Y008397D01*
X007293Y008469D02*
X010765Y008469D01*
X010686Y008548D02*
X007315Y008548D01*
X007315Y008626D02*
X010608Y008626D01*
X010529Y008705D02*
X007315Y008705D01*
X007315Y008783D02*
X010451Y008783D01*
X010372Y008862D02*
X007292Y008862D01*
X007315Y008940D02*
X010294Y008940D01*
X010215Y009019D02*
X007315Y009019D01*
X007315Y009098D02*
X010137Y009098D01*
X010058Y009176D02*
X007315Y009176D01*
X007291Y009255D02*
X009979Y009255D01*
X009901Y009333D02*
X007315Y009333D01*
X007315Y009412D02*
X009822Y009412D01*
X009744Y009490D02*
X007315Y009490D01*
X007315Y009569D02*
X009665Y009569D01*
X009587Y009647D02*
X007245Y009647D01*
X002170Y005549D02*
X002244Y005460D01*
X002364Y005563D02*
X003736Y005563D01*
X003814Y005485D02*
X002435Y005485D01*
X002505Y005406D02*
X003893Y005406D01*
X003971Y005327D02*
X002576Y005327D01*
X002649Y005249D02*
X004050Y005249D01*
X004128Y005170D02*
X002729Y005170D01*
X002808Y005092D02*
X004207Y005092D01*
X004285Y005013D02*
X002888Y005013D01*
X002950Y004954D02*
X002950Y004954D01*
X002973Y004935D02*
X004364Y004935D01*
X004442Y004856D02*
X003063Y004856D01*
X003154Y004778D02*
X004521Y004778D01*
X004600Y004699D02*
X003250Y004699D01*
X003350Y004621D02*
X006605Y004621D01*
X006605Y004654D02*
X006605Y004280D01*
X006674Y004211D01*
X008032Y004211D01*
X008102Y004280D01*
X008102Y004654D01*
X008032Y004724D01*
X006674Y004724D01*
X006605Y004654D01*
X006649Y004699D02*
X005403Y004699D01*
X005466Y004762D02*
X005466Y004960D01*
X005326Y005100D01*
X005129Y005100D01*
X005059Y005030D01*
X004746Y005030D01*
X003161Y006615D01*
X003161Y007095D01*
X003092Y007165D01*
X002798Y007165D01*
X002798Y007173D01*
X002914Y007173D01*
X002984Y007243D01*
X002984Y007558D01*
X002969Y007572D01*
X002977Y007580D01*
X002996Y007612D01*
X003005Y007648D01*
X003005Y007760D01*
X002643Y007760D01*
X002643Y007789D01*
X003005Y007789D01*
X003005Y007901D01*
X002996Y007937D01*
X002977Y007969D01*
X002969Y007977D01*
X002984Y007991D01*
X002984Y008306D01*
X002914Y008375D01*
X002344Y008375D01*
X002287Y008319D01*
X002250Y008357D01*
X002151Y008398D01*
X002044Y008398D01*
X001945Y008357D01*
X001870Y008281D01*
X001829Y008182D01*
X001829Y008075D01*
X001870Y007977D01*
X001945Y007901D01*
X002044Y007860D01*
X002151Y007860D01*
X002250Y007901D01*
X002254Y007905D01*
X002253Y007901D01*
X002253Y007789D01*
X002615Y007789D01*
X002615Y007760D01*
X002253Y007760D01*
X002253Y007659D01*
X002097Y007659D01*
X001957Y007519D01*
X001957Y007321D01*
X002097Y007181D01*
X002295Y007181D01*
X002315Y007202D01*
X002344Y007173D01*
X002460Y007173D01*
X002460Y007165D01*
X002442Y007165D01*
X002372Y007095D01*
X002372Y006367D01*
X002442Y006297D01*
X003001Y006297D01*
X004606Y004692D01*
X004746Y004692D01*
X005059Y004692D01*
X005129Y004622D01*
X005326Y004622D01*
X005466Y004762D01*
X005466Y004778D02*
X008078Y004778D01*
X008057Y004699D02*
X008157Y004699D01*
X008140Y004717D02*
X008232Y004624D01*
X008298Y004624D01*
X008298Y004576D01*
X008347Y004526D01*
X008298Y004477D01*
X008298Y004064D01*
X008367Y003994D01*
X008938Y003994D01*
X009008Y004064D01*
X009008Y004477D01*
X008958Y004526D01*
X009008Y004576D01*
X009008Y004989D01*
X008938Y005059D01*
X008367Y005059D01*
X008307Y004998D01*
X008102Y005203D01*
X008102Y005680D01*
X008032Y005749D01*
X007481Y005749D01*
X007412Y005680D01*
X007412Y005532D01*
X007295Y005532D01*
X007295Y005680D01*
X007225Y005749D01*
X006674Y005749D01*
X006605Y005680D01*
X006605Y005066D01*
X006674Y004996D01*
X007225Y004996D01*
X007295Y005066D01*
X007295Y005214D01*
X007412Y005214D01*
X007412Y005066D01*
X007481Y004996D01*
X007860Y004996D01*
X008140Y004717D01*
X008102Y004621D02*
X008298Y004621D01*
X008331Y004542D02*
X008102Y004542D01*
X008102Y004463D02*
X008298Y004463D01*
X008298Y004385D02*
X008102Y004385D01*
X008102Y004306D02*
X008298Y004306D01*
X008298Y004228D02*
X008049Y004228D01*
X008298Y004149D02*
X004047Y004149D01*
X004141Y004092D02*
X004141Y004092D01*
X004182Y004071D02*
X008298Y004071D01*
X008364Y003835D02*
X008102Y003835D01*
X008102Y003757D02*
X008298Y003757D01*
X008057Y003914D02*
X009853Y003914D01*
X009853Y003992D02*
X004331Y003992D01*
X004668Y003835D02*
X006605Y003835D01*
X006605Y003757D02*
X004853Y003757D01*
X005039Y003678D02*
X006605Y003678D01*
X006605Y003599D02*
X005256Y003599D01*
X005522Y003521D02*
X006605Y003521D01*
X006605Y003442D02*
X005789Y003442D01*
X006186Y003364D02*
X006605Y003364D01*
X006657Y004228D02*
X003918Y004228D01*
X003789Y004306D02*
X006605Y004306D01*
X006605Y004385D02*
X003676Y004385D01*
X003564Y004463D02*
X006605Y004463D01*
X006605Y004542D02*
X003451Y004542D01*
X004448Y005327D02*
X006605Y005327D01*
X006605Y005249D02*
X004527Y005249D01*
X004606Y005170D02*
X006605Y005170D01*
X006605Y005092D02*
X005334Y005092D01*
X005413Y005013D02*
X006657Y005013D01*
X006950Y005373D02*
X007757Y005373D01*
X007747Y005334D01*
X008298Y004782D01*
X008653Y004782D01*
X008653Y004271D01*
X009008Y004306D02*
X009065Y004306D01*
X009065Y004228D02*
X009008Y004228D01*
X009065Y004202D02*
X009135Y004132D01*
X009588Y004132D01*
X009657Y004202D01*
X009657Y004615D01*
X009588Y004685D01*
X009520Y004685D01*
X009520Y004954D01*
X009529Y004954D01*
X009598Y005024D01*
X009598Y005319D01*
X009584Y005334D01*
X009598Y005348D01*
X009598Y005643D01*
X009529Y005713D01*
X009194Y005713D01*
X009131Y005650D01*
X009008Y005650D01*
X009008Y005698D01*
X008938Y005767D01*
X008367Y005767D01*
X008298Y005698D01*
X008298Y005284D01*
X008367Y005215D01*
X008938Y005215D01*
X009008Y005284D01*
X009008Y005332D01*
X009138Y005332D01*
X009124Y005319D01*
X009124Y005024D01*
X009194Y004954D01*
X009203Y004954D01*
X009203Y004685D01*
X009135Y004685D01*
X009065Y004615D01*
X009065Y004202D01*
X009118Y004149D02*
X009008Y004149D01*
X009008Y004071D02*
X009853Y004071D01*
X009853Y004149D02*
X009605Y004149D01*
X009657Y004228D02*
X009853Y004228D01*
X009918Y004306D02*
X009657Y004306D01*
X009657Y004385D02*
X010393Y004385D01*
X010380Y004494D02*
X010412Y004513D01*
X010438Y004539D01*
X010456Y004571D01*
X010466Y004606D01*
X010466Y004744D01*
X010188Y004744D01*
X010188Y004821D01*
X010466Y004821D01*
X010466Y004958D01*
X010456Y004994D01*
X010438Y005026D01*
X010412Y005052D01*
X010380Y005070D01*
X010344Y005080D01*
X010187Y005080D01*
X010187Y004821D01*
X010110Y004821D01*
X010110Y004744D01*
X009831Y004744D01*
X009831Y004606D01*
X009841Y004571D01*
X009859Y004539D01*
X009886Y004513D01*
X009917Y004494D01*
X009953Y004485D01*
X010110Y004485D01*
X010110Y004743D01*
X010187Y004743D01*
X010187Y004485D01*
X010344Y004485D01*
X010380Y004494D01*
X010440Y004542D02*
X010550Y004542D01*
X010629Y004621D02*
X010466Y004621D01*
X010466Y004699D02*
X010707Y004699D01*
X010786Y004778D02*
X010188Y004778D01*
X010187Y004856D02*
X010110Y004856D01*
X010110Y004821D02*
X010110Y005080D01*
X009953Y005080D01*
X009917Y005070D01*
X009886Y005052D01*
X009859Y005026D01*
X009841Y004994D01*
X009831Y004958D01*
X009831Y004821D01*
X010110Y004821D01*
X010110Y004778D02*
X009520Y004778D01*
X009520Y004856D02*
X009831Y004856D01*
X009831Y004935D02*
X009520Y004935D01*
X009588Y005013D02*
X009852Y005013D01*
X010110Y005013D02*
X010187Y005013D01*
X010187Y004935D02*
X010110Y004935D01*
X010110Y004699D02*
X010187Y004699D01*
X010187Y004621D02*
X010110Y004621D01*
X010110Y004542D02*
X010187Y004542D01*
X010471Y004463D02*
X009657Y004463D01*
X009657Y004542D02*
X009858Y004542D01*
X009831Y004621D02*
X009652Y004621D01*
X009520Y004699D02*
X009831Y004699D01*
X009361Y004408D02*
X009361Y005171D01*
X009124Y005170D02*
X008135Y005170D01*
X008102Y005249D02*
X008333Y005249D01*
X008298Y005327D02*
X008102Y005327D01*
X008102Y005406D02*
X008298Y005406D01*
X008298Y005485D02*
X008102Y005485D01*
X008102Y005563D02*
X008298Y005563D01*
X008298Y005642D02*
X008102Y005642D01*
X008062Y005720D02*
X008320Y005720D01*
X008653Y005491D02*
X009357Y005491D01*
X009361Y005496D01*
X009598Y005485D02*
X011368Y005485D01*
X011368Y005563D02*
X009598Y005563D01*
X009598Y005642D02*
X011368Y005642D01*
X011368Y005720D02*
X008985Y005720D01*
X009008Y005327D02*
X009133Y005327D01*
X009124Y005249D02*
X008972Y005249D01*
X009124Y005092D02*
X008213Y005092D01*
X008292Y005013D02*
X008322Y005013D01*
X008000Y004856D02*
X005466Y004856D01*
X005466Y004935D02*
X007921Y004935D01*
X007464Y005013D02*
X007242Y005013D01*
X007295Y005092D02*
X007412Y005092D01*
X007412Y005170D02*
X007295Y005170D01*
X007295Y005563D02*
X007412Y005563D01*
X007412Y005642D02*
X007295Y005642D01*
X007255Y005720D02*
X007452Y005720D01*
X006645Y005720D02*
X004056Y005720D01*
X004134Y005642D02*
X006605Y005642D01*
X006605Y005563D02*
X004213Y005563D01*
X004291Y005485D02*
X006605Y005485D01*
X006605Y005406D02*
X004370Y005406D01*
X004499Y005823D02*
X004696Y005823D01*
X004836Y005963D01*
X004836Y006161D01*
X004766Y006231D01*
X004766Y006917D01*
X004766Y007057D01*
X004736Y007087D01*
X004736Y007339D01*
X004814Y007339D01*
X004871Y007395D01*
X004871Y007223D01*
X005129Y007223D01*
X005129Y007145D01*
X004871Y007145D01*
X004871Y006929D01*
X004880Y006894D01*
X004899Y006862D01*
X004925Y006836D01*
X004957Y006817D01*
X004992Y006808D01*
X005130Y006808D01*
X005130Y007145D01*
X005207Y007145D01*
X005207Y006808D01*
X005344Y006808D01*
X005380Y006817D01*
X005412Y006836D01*
X005438Y006862D01*
X005456Y006894D01*
X005466Y006929D01*
X005466Y007145D01*
X005207Y007145D01*
X005207Y007223D01*
X005130Y007223D01*
X005130Y007560D01*
X004992Y007560D01*
X004957Y007551D01*
X004954Y007549D01*
X004954Y007615D01*
X005090Y007615D01*
X005090Y007952D01*
X005168Y007952D01*
X005168Y008030D01*
X005426Y008030D01*
X005426Y008246D01*
X005417Y008281D01*
X005398Y008313D01*
X005372Y008339D01*
X005340Y008358D01*
X005305Y008367D01*
X005168Y008367D01*
X005168Y008030D01*
X005090Y008030D01*
X005090Y008367D01*
X004953Y008367D01*
X004917Y008358D01*
X004886Y008339D01*
X004859Y008313D01*
X004841Y008281D01*
X004831Y008246D01*
X004831Y008030D01*
X005090Y008030D01*
X005090Y007952D01*
X004831Y007952D01*
X004831Y007799D01*
X004814Y007816D01*
X004696Y007816D01*
X004696Y008276D01*
X004627Y008346D01*
X004214Y008346D01*
X004144Y008276D01*
X004144Y008169D01*
X004008Y008169D01*
X004008Y008306D01*
X003938Y008375D01*
X003367Y008375D01*
X003298Y008306D01*
X003298Y007991D01*
X003367Y007921D01*
X003714Y007921D01*
X003784Y007852D01*
X003915Y007852D01*
X004144Y007852D01*
X004144Y007706D01*
X004214Y007636D01*
X004477Y007636D01*
X004477Y007578D01*
X004438Y007539D01*
X004324Y007539D01*
X004313Y007549D01*
X004173Y007549D01*
X004008Y007549D01*
X004008Y007558D01*
X003938Y007627D01*
X003367Y007627D01*
X003298Y007558D01*
X003298Y007243D01*
X003367Y007173D01*
X003534Y007173D01*
X003508Y007158D01*
X003481Y007132D01*
X003463Y007100D01*
X003454Y007065D01*
X003454Y006771D01*
X003829Y006771D01*
X003829Y006691D01*
X003909Y006691D01*
X003909Y006276D01*
X004163Y006276D01*
X004199Y006286D01*
X004231Y006304D01*
X004257Y006330D01*
X004275Y006362D01*
X004285Y006398D01*
X004285Y006691D01*
X003909Y006691D01*
X003909Y006771D01*
X004285Y006771D01*
X004285Y006829D01*
X004429Y006829D01*
X004429Y006231D01*
X004359Y006161D01*
X004359Y005963D01*
X004499Y005823D01*
X004444Y005877D02*
X003899Y005877D01*
X003977Y005799D02*
X011368Y005799D01*
X011368Y005877D02*
X004750Y005877D01*
X004829Y005956D02*
X011368Y005956D01*
X011368Y006034D02*
X004836Y006034D01*
X004836Y006113D02*
X011368Y006113D01*
X011368Y006191D02*
X004806Y006191D01*
X004766Y006270D02*
X011368Y006270D01*
X011368Y006349D02*
X010811Y006349D01*
X010914Y006427D02*
X011368Y006427D01*
X011368Y006506D02*
X010954Y006506D01*
X010969Y006584D02*
X011368Y006584D01*
X011368Y006663D02*
X010962Y006663D01*
X010929Y006741D02*
X011368Y006741D01*
X011368Y006820D02*
X010859Y006820D01*
X010859Y006898D02*
X011368Y006898D01*
X011368Y006977D02*
X010859Y006977D01*
X010859Y007055D02*
X011368Y007055D01*
X011368Y007134D02*
X011246Y007134D01*
X011248Y007134D02*
X011286Y007157D01*
X011318Y007188D01*
X011340Y007227D01*
X011352Y007270D01*
X011352Y007519D01*
X011113Y007519D01*
X011113Y007123D01*
X011204Y007123D01*
X011248Y007134D01*
X011332Y007212D02*
X011368Y007212D01*
X011368Y007291D02*
X011352Y007291D01*
X011352Y007370D02*
X011368Y007370D01*
X011368Y007448D02*
X011352Y007448D01*
X011368Y007527D02*
X011113Y007527D01*
X011113Y007605D02*
X011074Y007605D01*
X011074Y007684D02*
X011113Y007684D01*
X011113Y007762D02*
X011074Y007762D01*
X011074Y007841D02*
X011113Y007841D01*
X011113Y007919D02*
X011074Y007919D01*
X010900Y007919D02*
X010863Y007919D01*
X011079Y008155D02*
X007315Y008155D01*
X007294Y008076D02*
X011158Y008076D01*
X011236Y007998D02*
X007327Y007998D01*
X007336Y007919D02*
X007387Y007919D01*
X007313Y007841D02*
X006940Y007841D01*
X006901Y007841D02*
X005426Y007841D01*
X005426Y007919D02*
X006505Y007919D01*
X006510Y007998D02*
X006514Y007998D01*
X006307Y007998D02*
X005168Y007998D01*
X005168Y007952D02*
X005426Y007952D01*
X005426Y007736D01*
X005417Y007701D01*
X005398Y007669D01*
X005372Y007643D01*
X005340Y007624D01*
X005305Y007615D01*
X005168Y007615D01*
X005168Y007952D01*
X005168Y007919D02*
X005090Y007919D01*
X005090Y007841D02*
X005168Y007841D01*
X005168Y007762D02*
X005090Y007762D01*
X005090Y007684D02*
X005168Y007684D01*
X005207Y007560D02*
X005207Y007223D01*
X005466Y007223D01*
X005466Y007439D01*
X005456Y007474D01*
X005438Y007506D01*
X005412Y007532D01*
X005380Y007551D01*
X005344Y007560D01*
X005207Y007560D01*
X005207Y007527D02*
X005130Y007527D01*
X005130Y007448D02*
X005207Y007448D01*
X005207Y007370D02*
X005130Y007370D01*
X005130Y007291D02*
X005207Y007291D01*
X005207Y007212D02*
X007332Y007212D01*
X007313Y007291D02*
X005466Y007291D01*
X005466Y007370D02*
X007313Y007370D01*
X007313Y007448D02*
X005463Y007448D01*
X005417Y007527D02*
X007313Y007527D01*
X007313Y007605D02*
X007226Y007605D01*
X006939Y007605D02*
X006901Y007605D01*
X006901Y007684D02*
X006939Y007684D01*
X006939Y007762D02*
X006901Y007762D01*
X006614Y007605D02*
X004954Y007605D01*
X004871Y007370D02*
X004845Y007370D01*
X004871Y007291D02*
X004736Y007291D01*
X004736Y007212D02*
X005129Y007212D01*
X005130Y007134D02*
X005207Y007134D01*
X005207Y007055D02*
X005130Y007055D01*
X005130Y006977D02*
X005207Y006977D01*
X005207Y006898D02*
X005130Y006898D01*
X005130Y006820D02*
X005207Y006820D01*
X005384Y006820D02*
X007391Y006820D01*
X007391Y006898D02*
X005457Y006898D01*
X005466Y006977D02*
X007391Y006977D01*
X007391Y007055D02*
X005466Y007055D01*
X005466Y007134D02*
X007391Y007134D01*
X007321Y006741D02*
X004766Y006741D01*
X004766Y006663D02*
X007288Y006663D01*
X007281Y006584D02*
X004766Y006584D01*
X004766Y006506D02*
X007296Y006506D01*
X007336Y006427D02*
X004766Y006427D01*
X004766Y006349D02*
X007439Y006349D01*
X007661Y006349D02*
X008227Y006349D01*
X008124Y006427D02*
X007764Y006427D01*
X007805Y006506D02*
X008083Y006506D01*
X008069Y006584D02*
X007819Y006584D01*
X007550Y006593D02*
X007550Y007538D01*
X007944Y007538D02*
X007944Y006869D01*
X008338Y006593D02*
X008338Y007538D01*
X008731Y007538D02*
X008731Y006869D01*
X008606Y006584D02*
X008856Y006584D01*
X008870Y006506D02*
X008592Y006506D01*
X008551Y006427D02*
X008911Y006427D01*
X009014Y006349D02*
X008449Y006349D01*
X009125Y006593D02*
X009125Y007538D01*
X009519Y007538D02*
X009519Y006908D01*
X009628Y006663D02*
X009650Y006663D01*
X009644Y006584D02*
X009394Y006584D01*
X009387Y006663D02*
X009410Y006663D01*
X009380Y006506D02*
X009658Y006506D01*
X009699Y006427D02*
X009339Y006427D01*
X009236Y006349D02*
X009801Y006349D01*
X010023Y006349D02*
X010589Y006349D01*
X010486Y006427D02*
X010126Y006427D01*
X010167Y006506D02*
X010445Y006506D01*
X010431Y006584D02*
X010181Y006584D01*
X010175Y006663D02*
X010197Y006663D01*
X010415Y006663D02*
X010438Y006663D01*
X010700Y006593D02*
X010700Y007538D01*
X011074Y007448D02*
X011113Y007448D01*
X011113Y007370D02*
X011074Y007370D01*
X011074Y007291D02*
X011113Y007291D01*
X011113Y007212D02*
X011074Y007212D01*
X011074Y007134D02*
X011113Y007134D01*
X010941Y007134D02*
X010859Y007134D01*
X010306Y006908D02*
X010306Y007538D01*
X009912Y007538D02*
X009912Y006593D01*
X009598Y005406D02*
X011368Y005406D01*
X011335Y005327D02*
X009590Y005327D01*
X009598Y005249D02*
X011257Y005249D01*
X011178Y005170D02*
X009598Y005170D01*
X009598Y005092D02*
X011100Y005092D01*
X011021Y005013D02*
X010445Y005013D01*
X010466Y004935D02*
X010943Y004935D01*
X010864Y004856D02*
X010466Y004856D01*
X010227Y004152D02*
X010149Y004152D01*
X010149Y004034D01*
X010188Y004074D01*
X010306Y004074D01*
X011527Y005294D01*
X011527Y007932D01*
X009479Y009979D01*
X008554Y009979D01*
X008391Y009804D02*
X006214Y009804D01*
X006214Y009726D02*
X009508Y009726D01*
X009430Y009804D02*
X008717Y009804D01*
X008315Y009883D02*
X006498Y009883D01*
X006319Y009883D02*
X006212Y009883D01*
X006204Y009961D02*
X006134Y009961D01*
X006158Y010040D02*
X005942Y010040D01*
X005864Y010119D02*
X006140Y010119D01*
X006143Y010197D02*
X005785Y010197D01*
X005783Y010276D02*
X006175Y010276D01*
X006256Y010364D02*
X006355Y010405D01*
X006462Y010405D01*
X006529Y010378D01*
X006526Y010380D01*
X006526Y010411D01*
X006474Y010411D01*
X006343Y010411D01*
X006067Y010687D01*
X005974Y010780D01*
X005974Y011134D01*
X005974Y011265D01*
X006009Y011301D01*
X005894Y011416D01*
X005894Y011614D01*
X005974Y011694D01*
X005974Y012000D01*
X005974Y012132D01*
X007169Y013327D01*
X007301Y013327D01*
X007630Y013327D01*
X007622Y013332D01*
X007596Y013358D01*
X007577Y013390D01*
X007568Y013425D01*
X007568Y013562D01*
X007905Y013562D01*
X007905Y013640D01*
X007568Y013640D01*
X007568Y013777D01*
X007577Y013813D01*
X007579Y013815D01*
X007481Y013815D01*
X007412Y013885D01*
X007412Y014033D01*
X007295Y014033D01*
X007295Y013885D01*
X007225Y013815D01*
X006674Y013815D01*
X006605Y013885D01*
X006605Y014499D01*
X006674Y014568D01*
X007225Y014568D01*
X007295Y014499D01*
X007295Y014351D01*
X007412Y014351D01*
X007412Y014499D01*
X007481Y014568D01*
X007860Y014568D01*
X008140Y014849D01*
X008140Y015036D01*
X008164Y015060D01*
X008160Y015064D01*
X008160Y015477D01*
X008229Y015547D01*
X008800Y015547D01*
X008870Y015477D01*
X008870Y015064D01*
X008846Y015040D01*
X008850Y015036D01*
X008850Y014623D01*
X008781Y014553D01*
X008294Y014553D01*
X008102Y014362D01*
X008102Y013899D01*
X008156Y013899D01*
X008140Y013914D01*
X008140Y014328D01*
X008210Y014397D01*
X008781Y014397D01*
X008850Y014328D01*
X008850Y014272D01*
X009006Y014272D01*
X009006Y014295D01*
X009021Y014310D01*
X009006Y014324D01*
X009006Y014620D01*
X009076Y014689D01*
X009084Y014689D01*
X009084Y015120D01*
X009029Y015120D01*
X008959Y015190D01*
X008959Y015603D01*
X009029Y015673D01*
X009481Y015673D01*
X009551Y015603D01*
X009551Y015190D01*
X009481Y015120D01*
X009402Y015120D01*
X009402Y014689D01*
X009410Y014689D01*
X009480Y014620D01*
X009480Y014324D01*
X009465Y014310D01*
X009480Y014295D01*
X009480Y014000D01*
X009410Y013931D01*
X009076Y013931D01*
X009052Y013954D01*
X008850Y013954D01*
X008850Y013914D01*
X008781Y013845D01*
X008292Y013845D01*
X008292Y013845D01*
X008311Y013813D01*
X008320Y013777D01*
X008320Y013640D01*
X007983Y013640D01*
X007983Y013562D01*
X008320Y013562D01*
X008320Y013425D01*
X008311Y013390D01*
X008292Y013358D01*
X008266Y013332D01*
X008258Y013327D01*
X009742Y013327D01*
X009777Y013292D01*
X009892Y013407D01*
X009911Y013407D01*
X009911Y014746D01*
X009816Y014746D01*
X009746Y014816D01*
X009746Y015229D01*
X009816Y015299D01*
X010269Y015299D01*
X010338Y015229D01*
X010338Y014816D01*
X010269Y014746D01*
X010229Y014746D01*
X010229Y013313D01*
X010229Y013268D01*
X010230Y013267D01*
X010230Y013091D01*
X010319Y013091D01*
X011282Y014054D01*
X011231Y014105D01*
X011158Y014031D01*
X011059Y014031D01*
X010600Y014491D01*
X010600Y014589D01*
X010962Y014951D01*
X010983Y014951D01*
X010983Y014962D01*
X010992Y014997D01*
X011010Y015029D01*
X011141Y015160D01*
X011407Y014895D01*
X011463Y014951D01*
X011198Y015217D01*
X011258Y015276D01*
X010588Y015706D01*
X010359Y015811D01*
X010359Y015809D01*
X010081Y015809D01*
X010081Y015732D01*
X010359Y015732D01*
X010359Y015595D01*
X010350Y015559D01*
X010332Y015527D01*
X010305Y015501D01*
X010274Y015483D01*
X010238Y015473D01*
X010081Y015473D01*
X010081Y015732D01*
X010004Y015732D01*
X010004Y015473D01*
X009847Y015473D01*
X009811Y015483D01*
X009779Y015501D01*
X009753Y015527D01*
X009735Y015559D01*
X009725Y015595D01*
X009725Y015732D01*
X010003Y015732D01*
X010003Y015809D01*
X009725Y015809D01*
X009725Y015946D01*
X009735Y015982D01*
X009753Y016014D01*
X009779Y016040D01*
X009811Y016058D01*
X009815Y016060D01*
X009712Y016107D01*
X008788Y016378D01*
X007835Y016515D01*
X007353Y016532D01*
X007353Y016532D01*
X007113Y016524D01*
X007115Y016506D01*
X007118Y016502D01*
X007118Y016440D01*
X007122Y016380D01*
X007122Y016379D01*
X007225Y016379D01*
X007295Y016310D01*
X007295Y016162D01*
X007412Y016162D01*
X007412Y016310D01*
X007481Y016379D01*
X008032Y016379D01*
X008102Y016310D01*
X008102Y016162D01*
X008160Y016162D01*
X008160Y016186D01*
X008229Y016255D01*
X008800Y016255D01*
X008870Y016186D01*
X008870Y015773D01*
X008800Y015703D01*
X008229Y015703D01*
X008160Y015773D01*
X008160Y015844D01*
X008102Y015844D01*
X008102Y015696D01*
X008032Y015626D01*
X007481Y015626D01*
X007412Y015696D01*
X007412Y015844D01*
X007295Y015844D01*
X007295Y015696D01*
X007225Y015626D01*
X006674Y015626D01*
X006605Y015696D01*
X006605Y016271D01*
X006520Y016263D01*
X005640Y016088D01*
X004792Y015794D01*
X004385Y015604D01*
X004385Y015603D01*
X004300Y015559D01*
X004216Y015514D01*
X004216Y015514D01*
X003886Y015320D01*
X003261Y014876D01*
X003020Y014671D01*
X003020Y014669D01*
X002923Y014581D01*
X002920Y014581D01*
X002762Y014431D01*
X002564Y014227D01*
X002562Y014226D01*
X002562Y014226D01*
X002291Y013914D01*
X001811Y013243D01*
X001514Y012693D01*
X001521Y012700D01*
X001926Y012700D01*
X002212Y012414D01*
X002212Y012343D01*
X002498Y012343D01*
X002591Y012250D01*
X002649Y012191D01*
X002649Y012414D01*
X002935Y012700D01*
X003109Y012700D01*
X002982Y012827D01*
X002982Y012958D01*
X002982Y013137D01*
X002935Y013137D01*
X002649Y013423D01*
X002649Y013828D01*
X002935Y014114D01*
X003340Y014114D01*
X003626Y013828D01*
X003626Y013423D01*
X003340Y013137D01*
X003299Y013137D01*
X003299Y012958D01*
X003335Y012923D01*
X003335Y013130D01*
X003456Y013251D01*
X003788Y012919D01*
X003845Y012975D01*
X004177Y013307D01*
X004056Y013429D01*
X003634Y013429D01*
X003512Y013307D01*
X003845Y012975D01*
X003901Y012919D01*
X004234Y013251D01*
X004355Y013130D01*
X004355Y012707D01*
X004234Y012586D01*
X003901Y012918D01*
X003845Y012862D01*
X004177Y012530D01*
X004056Y012409D01*
X003849Y012409D01*
X004060Y012198D01*
X004062Y012198D01*
X004161Y012099D01*
X004169Y012098D01*
X004198Y012062D01*
X004220Y012039D01*
X005636Y010730D01*
X005759Y010730D01*
X005618Y010747D02*
X006007Y010747D01*
X005974Y010825D02*
X005533Y010825D01*
X005448Y010904D02*
X005974Y010904D01*
X005974Y010983D02*
X005363Y010983D01*
X005278Y011061D02*
X005974Y011061D01*
X005974Y011140D02*
X005193Y011140D01*
X005108Y011218D02*
X005974Y011218D01*
X006006Y011297D02*
X005023Y011297D01*
X004938Y011375D02*
X005935Y011375D01*
X005894Y011454D02*
X004853Y011454D01*
X004768Y011532D02*
X005894Y011532D01*
X005894Y011611D02*
X004683Y011611D01*
X004599Y011689D02*
X005970Y011689D01*
X005974Y011768D02*
X004514Y011768D01*
X004429Y011847D02*
X005974Y011847D01*
X005974Y011925D02*
X004344Y011925D01*
X004259Y012004D02*
X005974Y012004D01*
X005974Y012082D02*
X004182Y012082D01*
X004099Y012161D02*
X006003Y012161D01*
X006082Y012239D02*
X004019Y012239D01*
X003940Y012318D02*
X006160Y012318D01*
X006239Y012396D02*
X003861Y012396D01*
X004075Y012632D02*
X004188Y012632D01*
X004153Y012553D02*
X006396Y012553D01*
X006317Y012475D02*
X004122Y012475D01*
X004279Y012632D02*
X006475Y012632D01*
X006553Y012711D02*
X004355Y012711D01*
X004355Y012789D02*
X006632Y012789D01*
X006710Y012868D02*
X004355Y012868D01*
X004355Y012946D02*
X006789Y012946D01*
X006867Y013025D02*
X004355Y013025D01*
X004355Y013103D02*
X006946Y013103D01*
X007024Y013182D02*
X004303Y013182D01*
X004164Y013182D02*
X004051Y013182D01*
X004086Y013103D02*
X003973Y013103D01*
X004007Y013025D02*
X003894Y013025D01*
X003874Y012946D02*
X003929Y012946D01*
X003952Y012868D02*
X003851Y012868D01*
X003816Y012946D02*
X003761Y012946D01*
X003795Y013025D02*
X003682Y013025D01*
X003717Y013103D02*
X003604Y013103D01*
X003638Y013182D02*
X003525Y013182D01*
X003559Y013260D02*
X003463Y013260D01*
X003387Y013182D02*
X003385Y013182D01*
X003335Y013103D02*
X003299Y013103D01*
X003299Y013025D02*
X003335Y013025D01*
X003335Y012946D02*
X003312Y012946D01*
X003141Y012893D02*
X004046Y011987D01*
X004046Y011830D01*
X004068Y011801D01*
X004086Y011948D01*
X005660Y010491D01*
X005336Y010197D02*
X003909Y010197D01*
X003909Y010119D02*
X004167Y010119D01*
X004105Y010040D02*
X003909Y010040D01*
X003909Y010017D02*
X003840Y009947D01*
X003772Y009947D01*
X003772Y009374D01*
X003781Y009374D01*
X003850Y009305D01*
X003850Y009009D01*
X003835Y008995D01*
X003850Y008980D01*
X003850Y008685D01*
X003781Y008616D01*
X003446Y008616D01*
X003422Y008639D01*
X003267Y008639D01*
X003267Y008627D01*
X003198Y008557D01*
X002627Y008557D01*
X002557Y008627D01*
X002557Y009040D01*
X002627Y009110D01*
X003198Y009110D01*
X003267Y009040D01*
X003267Y008957D01*
X003376Y008957D01*
X003376Y008980D01*
X003391Y008995D01*
X003376Y009009D01*
X003376Y009305D01*
X003446Y009374D01*
X003454Y009374D01*
X003454Y009947D01*
X003387Y009947D01*
X003317Y010017D01*
X003317Y010430D01*
X003387Y010499D01*
X003840Y010499D01*
X003909Y010430D01*
X003909Y010017D01*
X003854Y009961D02*
X004105Y009961D01*
X004105Y009883D02*
X003772Y009883D01*
X003772Y009804D02*
X004105Y009804D01*
X004105Y009726D02*
X003772Y009726D01*
X003772Y009647D02*
X004105Y009647D01*
X003772Y009569D02*
X005851Y009569D01*
X005773Y009647D02*
X005666Y009647D01*
X005542Y009861D02*
X004440Y009861D01*
X004401Y009849D01*
X004401Y009822D01*
X004696Y009647D02*
X005419Y009647D01*
X005384Y010040D02*
X004696Y010040D01*
X004634Y010119D02*
X005415Y010119D01*
X005258Y010276D02*
X003909Y010276D01*
X003909Y010354D02*
X004111Y010354D01*
X004137Y010328D01*
X004169Y010309D01*
X004205Y010300D01*
X004362Y010300D01*
X004362Y010558D01*
X004439Y010558D01*
X004439Y010300D01*
X004596Y010300D01*
X004632Y010309D01*
X004664Y010328D01*
X004690Y010354D01*
X005179Y010354D01*
X005101Y010433D02*
X004718Y010433D01*
X004718Y010421D02*
X004718Y010559D01*
X004440Y010559D01*
X004440Y010636D01*
X004718Y010636D01*
X004718Y010773D01*
X004708Y010809D01*
X004690Y010841D01*
X004664Y010867D01*
X004632Y010885D01*
X004596Y010895D01*
X004439Y010895D01*
X004439Y010636D01*
X004362Y010636D01*
X004362Y010895D01*
X004205Y010895D01*
X004169Y010885D01*
X004137Y010867D01*
X004111Y010841D01*
X004093Y010809D01*
X004083Y010773D01*
X004083Y010636D01*
X004362Y010636D01*
X004362Y010559D01*
X004083Y010559D01*
X004083Y010421D01*
X004093Y010386D01*
X004111Y010354D01*
X004083Y010433D02*
X003906Y010433D01*
X004083Y010511D02*
X003259Y010511D01*
X003259Y010590D02*
X004362Y010590D01*
X004440Y010590D02*
X004943Y010590D01*
X004865Y010668D02*
X004718Y010668D01*
X004718Y010747D02*
X004786Y010747D01*
X004708Y010825D02*
X004699Y010825D01*
X004629Y010904D02*
X003674Y010904D01*
X003572Y010904D02*
X003345Y010904D01*
X003267Y010825D02*
X004103Y010825D01*
X004083Y010747D02*
X003259Y010747D01*
X003259Y010668D02*
X004083Y010668D01*
X004362Y010668D02*
X004439Y010668D01*
X004439Y010747D02*
X004362Y010747D01*
X004362Y010825D02*
X004439Y010825D01*
X004551Y010983D02*
X003752Y010983D01*
X003494Y010983D02*
X003424Y010983D01*
X003456Y011200D02*
X003567Y011300D01*
X003495Y011200D01*
X004558Y011200D01*
X005975Y009782D01*
X006178Y009647D02*
X006248Y009647D01*
X006176Y009569D02*
X006099Y009569D01*
X006143Y009490D02*
X003772Y009490D01*
X003772Y009412D02*
X006140Y009412D01*
X006157Y009333D02*
X003822Y009333D01*
X003850Y009255D02*
X006202Y009255D01*
X006176Y009176D02*
X003850Y009176D01*
X003850Y009098D02*
X006144Y009098D01*
X006140Y009019D02*
X003850Y009019D01*
X003850Y008940D02*
X006156Y008940D01*
X006201Y008862D02*
X003850Y008862D01*
X003850Y008783D02*
X006177Y008783D01*
X006144Y008705D02*
X003850Y008705D01*
X003791Y008626D02*
X006140Y008626D01*
X006156Y008548D02*
X002371Y008548D01*
X002393Y008626D02*
X002558Y008626D01*
X002557Y008705D02*
X002393Y008705D01*
X002393Y008783D02*
X002557Y008783D01*
X002557Y008862D02*
X002393Y008862D01*
X002393Y008940D02*
X002557Y008940D01*
X002557Y009019D02*
X002444Y009019D01*
X002523Y009098D02*
X002615Y009098D01*
X002601Y009176D02*
X003376Y009176D01*
X003376Y009098D02*
X003210Y009098D01*
X003267Y009019D02*
X003376Y009019D01*
X003613Y009157D02*
X003613Y010223D01*
X003317Y010197D02*
X003248Y010197D01*
X003259Y010119D02*
X003317Y010119D01*
X003317Y010040D02*
X003259Y010040D01*
X003259Y009961D02*
X003372Y009961D01*
X003454Y009883D02*
X003259Y009883D01*
X003259Y009804D02*
X003454Y009804D01*
X003454Y009726D02*
X003267Y009726D01*
X003267Y009647D02*
X003454Y009647D01*
X003454Y009569D02*
X003267Y009569D01*
X003267Y009490D02*
X003454Y009490D01*
X003454Y009412D02*
X003267Y009412D01*
X003265Y009333D02*
X003405Y009333D01*
X003376Y009255D02*
X002680Y009255D01*
X002747Y009546D02*
X002078Y008877D01*
X002048Y008877D01*
X001964Y008893D01*
X001264Y008893D01*
X001241Y008877D01*
X001586Y008705D02*
X001703Y008705D01*
X001703Y008626D02*
X001586Y008626D01*
X001564Y008548D02*
X001725Y008548D01*
X002027Y008391D02*
X000971Y008391D01*
X000986Y008316D02*
X000986Y008316D01*
X000987Y008312D02*
X001901Y008312D01*
X001850Y008234D02*
X001008Y008234D01*
X001029Y008155D02*
X001829Y008155D01*
X001829Y008076D02*
X001051Y008076D01*
X001072Y007998D02*
X001861Y007998D01*
X001927Y007919D02*
X001093Y007919D01*
X001115Y007841D02*
X002253Y007841D01*
X002253Y007684D02*
X001177Y007684D01*
X001146Y007762D02*
X002615Y007762D01*
X002643Y007762D02*
X004144Y007762D01*
X004144Y007841D02*
X003005Y007841D01*
X003000Y007919D02*
X003716Y007919D01*
X003849Y008011D02*
X003692Y008168D01*
X003653Y008149D01*
X003849Y008011D02*
X004401Y008011D01*
X004420Y007991D01*
X004696Y007998D02*
X005090Y007998D01*
X005090Y008076D02*
X005168Y008076D01*
X005168Y008155D02*
X005090Y008155D01*
X005090Y008234D02*
X005168Y008234D01*
X005168Y008312D02*
X005090Y008312D01*
X004859Y008312D02*
X004661Y008312D01*
X004696Y008234D02*
X004831Y008234D01*
X004831Y008155D02*
X004696Y008155D01*
X004696Y008076D02*
X004831Y008076D01*
X004831Y007919D02*
X004696Y007919D01*
X004696Y007841D02*
X004831Y007841D01*
X004477Y007605D02*
X003960Y007605D01*
X004166Y007684D02*
X003005Y007684D01*
X002992Y007605D02*
X003345Y007605D01*
X003298Y007527D02*
X002984Y007527D01*
X002984Y007448D02*
X003298Y007448D01*
X003298Y007370D02*
X002984Y007370D01*
X002984Y007291D02*
X003298Y007291D01*
X003328Y007212D02*
X002953Y007212D01*
X003122Y007134D02*
X003483Y007134D01*
X003454Y007055D02*
X003161Y007055D01*
X003161Y006977D02*
X003454Y006977D01*
X003454Y006898D02*
X003161Y006898D01*
X003161Y006820D02*
X003454Y006820D01*
X003454Y006691D02*
X003454Y006398D01*
X003463Y006362D01*
X003481Y006330D01*
X003508Y006304D01*
X003539Y006286D01*
X003575Y006276D01*
X003829Y006276D01*
X003829Y006691D01*
X003454Y006691D01*
X003454Y006663D02*
X003161Y006663D01*
X003161Y006741D02*
X003829Y006741D01*
X003829Y006663D02*
X003909Y006663D01*
X003909Y006741D02*
X004429Y006741D01*
X004429Y006663D02*
X004285Y006663D01*
X004285Y006584D02*
X004429Y006584D01*
X004429Y006506D02*
X004285Y006506D01*
X004285Y006427D02*
X004429Y006427D01*
X004429Y006349D02*
X004267Y006349D01*
X004429Y006270D02*
X003506Y006270D01*
X003471Y006349D02*
X003427Y006349D01*
X003454Y006427D02*
X003349Y006427D01*
X003270Y006506D02*
X003454Y006506D01*
X003454Y006584D02*
X003192Y006584D01*
X003029Y006270D02*
X001844Y006270D01*
X001795Y006349D02*
X002391Y006349D01*
X002372Y006427D02*
X001748Y006427D01*
X001709Y006506D02*
X002372Y006506D01*
X002372Y006584D02*
X001658Y006584D01*
X001617Y006663D02*
X002372Y006663D01*
X002372Y006741D02*
X001575Y006741D01*
X001534Y006820D02*
X002372Y006820D01*
X002372Y006898D02*
X001492Y006898D01*
X001455Y006977D02*
X002372Y006977D01*
X002372Y007055D02*
X001424Y007055D01*
X001393Y007134D02*
X002411Y007134D01*
X002066Y007212D02*
X001362Y007212D01*
X001331Y007291D02*
X001987Y007291D01*
X001957Y007370D02*
X001300Y007370D01*
X001269Y007448D02*
X001957Y007448D01*
X001965Y007527D02*
X001239Y007527D01*
X001208Y007605D02*
X002043Y007605D01*
X002097Y008129D02*
X002590Y008129D01*
X002629Y008149D01*
X002984Y008155D02*
X003298Y008155D01*
X003298Y008076D02*
X002984Y008076D01*
X002984Y007998D02*
X003298Y007998D01*
X003298Y008234D02*
X002984Y008234D01*
X002978Y008312D02*
X003304Y008312D01*
X003267Y008626D02*
X003435Y008626D01*
X003613Y008798D02*
X003613Y008833D01*
X003613Y008798D02*
X002944Y008798D01*
X002912Y008834D01*
X002310Y009333D02*
X000839Y009333D01*
X000848Y009255D02*
X002231Y009255D01*
X002388Y009412D02*
X000830Y009412D01*
X000827Y009490D02*
X002467Y009490D01*
X002545Y009569D02*
X002367Y009569D01*
X002393Y009595D02*
X002324Y009526D01*
X000966Y009526D01*
X000896Y009595D01*
X000896Y009969D01*
X000966Y010039D01*
X002324Y010039D01*
X002393Y009969D01*
X002393Y009595D01*
X002393Y009647D02*
X002557Y009647D01*
X002557Y009726D02*
X002393Y009726D01*
X002393Y009804D02*
X002550Y009804D01*
X002550Y009883D02*
X002393Y009883D01*
X002393Y009961D02*
X002550Y009961D01*
X002550Y010040D02*
X000828Y010040D01*
X000825Y009961D02*
X000896Y009961D01*
X000896Y009883D02*
X000823Y009883D01*
X000820Y009804D02*
X000896Y009804D01*
X000896Y009726D02*
X000821Y009726D01*
X000823Y009647D02*
X000896Y009647D01*
X000923Y009569D02*
X000825Y009569D01*
X000857Y009176D02*
X000896Y009176D01*
X000896Y009098D02*
X000865Y009098D01*
X000874Y009019D02*
X000896Y009019D01*
X000896Y008940D02*
X000883Y008940D01*
X000892Y008862D02*
X000896Y008862D01*
X000955Y008469D02*
X006200Y008469D01*
X006177Y008391D02*
X002168Y008391D01*
X001703Y009098D02*
X001586Y009098D01*
X001586Y009176D02*
X001703Y009176D01*
X002747Y009546D02*
X002865Y009546D01*
X002912Y009542D01*
X002905Y009546D01*
X002905Y009979D01*
X002550Y010119D02*
X000831Y010119D01*
X000833Y010197D02*
X002561Y010197D01*
X002598Y010433D02*
X002393Y010433D01*
X002393Y010511D02*
X002550Y010511D01*
X002367Y010354D02*
X003317Y010354D01*
X003317Y010276D02*
X000839Y010276D01*
X000847Y010354D02*
X000923Y010354D01*
X000896Y010433D02*
X000855Y010433D01*
X000863Y010511D02*
X000896Y010511D01*
X000739Y010688D02*
X000722Y010690D01*
X000739Y010688D02*
X001241Y010688D01*
X001645Y010688D01*
X001645Y010727D01*
X002393Y011475D01*
X002431Y011504D01*
X002905Y011711D02*
X002432Y012184D01*
X001723Y012184D01*
X001723Y012211D01*
X002151Y012475D02*
X002183Y012475D01*
X002228Y012430D02*
X002633Y012430D01*
X002919Y012716D01*
X002919Y013121D01*
X002633Y013407D01*
X002228Y013407D01*
X001942Y013121D01*
X001942Y012716D01*
X002228Y012430D01*
X002212Y012396D02*
X002649Y012396D01*
X002649Y012318D02*
X002523Y012318D01*
X002601Y012239D02*
X002649Y012239D01*
X002678Y012475D02*
X002710Y012475D01*
X002757Y012553D02*
X002789Y012553D01*
X002835Y012632D02*
X002867Y012632D01*
X002914Y012711D02*
X003098Y012711D01*
X003020Y012789D02*
X002919Y012789D01*
X002919Y012868D02*
X002982Y012868D01*
X002982Y012946D02*
X002919Y012946D01*
X002919Y013025D02*
X002982Y013025D01*
X002982Y013103D02*
X002919Y013103D01*
X002890Y013182D02*
X002859Y013182D01*
X002812Y013260D02*
X002780Y013260D01*
X002733Y013339D02*
X002701Y013339D01*
X002655Y013417D02*
X001936Y013417D01*
X001879Y013339D02*
X002160Y013339D01*
X002081Y013260D02*
X001823Y013260D01*
X001778Y013182D02*
X002003Y013182D01*
X001942Y013103D02*
X001735Y013103D01*
X001693Y013025D02*
X001942Y013025D01*
X001942Y012946D02*
X001651Y012946D01*
X001608Y012868D02*
X001942Y012868D01*
X001942Y012789D02*
X001566Y012789D01*
X001523Y012711D02*
X001947Y012711D01*
X001994Y012632D02*
X002026Y012632D01*
X002073Y012553D02*
X002105Y012553D01*
X003141Y012893D02*
X003141Y013601D01*
X003138Y013626D01*
X002710Y013889D02*
X002273Y013889D01*
X002217Y013810D02*
X002649Y013810D01*
X002649Y013732D02*
X002161Y013732D01*
X002104Y013653D02*
X002649Y013653D01*
X002649Y013574D02*
X002048Y013574D01*
X001992Y013496D02*
X002649Y013496D01*
X002788Y013967D02*
X002337Y013967D01*
X002406Y014046D02*
X002867Y014046D01*
X002543Y014203D02*
X006605Y014203D01*
X006605Y014281D02*
X002616Y014281D01*
X002693Y014360D02*
X006605Y014360D01*
X006605Y014438D02*
X002769Y014438D01*
X002852Y014517D02*
X006623Y014517D01*
X006674Y014841D02*
X006605Y014910D01*
X003308Y014910D01*
X003208Y014831D02*
X008123Y014831D01*
X008140Y014910D02*
X008101Y014910D01*
X008102Y014910D02*
X008102Y015284D01*
X008032Y015354D01*
X006674Y015354D01*
X006605Y015284D01*
X006605Y014910D01*
X006605Y014988D02*
X003419Y014988D01*
X003529Y015067D02*
X006605Y015067D01*
X006605Y015145D02*
X003639Y015145D01*
X003750Y015224D02*
X006605Y015224D01*
X006623Y015302D02*
X003860Y015302D01*
X003989Y015381D02*
X008160Y015381D01*
X008160Y015460D02*
X004123Y015460D01*
X004261Y015538D02*
X008221Y015538D01*
X008101Y015695D02*
X009725Y015695D01*
X009725Y015617D02*
X009537Y015617D01*
X009551Y015538D02*
X009747Y015538D01*
X009551Y015460D02*
X010973Y015460D01*
X011095Y015381D02*
X009551Y015381D01*
X009551Y015302D02*
X011217Y015302D01*
X011205Y015224D02*
X010338Y015224D01*
X010338Y015145D02*
X011126Y015145D01*
X011156Y015145D02*
X011269Y015145D01*
X011235Y015067D02*
X011348Y015067D01*
X011314Y014988D02*
X011426Y014988D01*
X011422Y014910D02*
X011392Y014910D01*
X011464Y014838D02*
X011520Y014895D01*
X011786Y014629D01*
X011904Y014748D01*
X012126Y014555D01*
X012319Y014333D01*
X012200Y014215D01*
X012466Y013949D01*
X012409Y013893D01*
X012144Y014158D01*
X012013Y014027D01*
X011994Y013995D01*
X011985Y013960D01*
X011985Y013949D01*
X011964Y013949D01*
X011900Y013885D01*
X011666Y014120D01*
X011573Y014213D01*
X011573Y014213D01*
X011456Y014329D01*
X011520Y014393D01*
X011520Y014414D01*
X011531Y014414D01*
X011566Y014423D01*
X011598Y014442D01*
X011729Y014573D01*
X011464Y014838D01*
X011471Y014831D02*
X011583Y014831D01*
X011549Y014753D02*
X011662Y014753D01*
X011628Y014674D02*
X011741Y014674D01*
X011706Y014596D02*
X012080Y014596D01*
X012159Y014517D02*
X011674Y014517D01*
X011593Y014438D02*
X012227Y014438D01*
X012295Y014360D02*
X011486Y014360D01*
X011504Y014281D02*
X012267Y014281D01*
X012212Y014203D02*
X011583Y014203D01*
X011661Y014124D02*
X012110Y014124D01*
X012177Y014124D02*
X012290Y014124D01*
X012256Y014046D02*
X012369Y014046D01*
X012335Y013967D02*
X012447Y013967D01*
X012519Y013889D02*
X012526Y013889D01*
X012492Y013810D02*
X012605Y013810D01*
X012570Y013732D02*
X012683Y013732D01*
X012649Y013653D02*
X012762Y013653D01*
X012814Y013653D02*
X012869Y013653D01*
X012919Y013574D02*
X012727Y013574D01*
X012657Y013496D02*
X012970Y013496D01*
X013020Y013417D02*
X012555Y013417D01*
X012470Y013339D02*
X013071Y013339D01*
X013121Y013260D02*
X012391Y013260D01*
X012313Y013182D02*
X013172Y013182D01*
X013222Y013103D02*
X012234Y013103D01*
X011987Y013103D02*
X010781Y013103D01*
X010859Y013182D02*
X011909Y013182D01*
X011830Y013260D02*
X010938Y013260D01*
X011016Y013339D02*
X011752Y013339D01*
X011673Y013417D02*
X011095Y013417D01*
X011173Y013496D02*
X011602Y013496D01*
X011602Y013574D02*
X011252Y013574D01*
X011330Y013653D02*
X011669Y013653D01*
X011605Y013732D02*
X011409Y013732D01*
X011488Y013810D02*
X011526Y013810D01*
X011507Y014054D02*
X010385Y012932D01*
X009912Y012932D01*
X009676Y013168D01*
X007235Y013168D01*
X006133Y012066D01*
X006133Y011515D01*
X006369Y011436D02*
X006369Y011672D01*
X006409Y011711D01*
X006561Y011896D02*
X006507Y011950D01*
X006310Y011950D01*
X006292Y011932D01*
X006292Y012000D01*
X007301Y013009D01*
X007589Y013009D01*
X007589Y012686D01*
X007659Y012616D01*
X007785Y012616D01*
X007785Y012412D01*
X007762Y012389D01*
X007743Y012408D01*
X007704Y012430D01*
X007661Y012442D01*
X007569Y012442D01*
X007569Y012046D01*
X007531Y012046D01*
X007531Y012442D01*
X007439Y012442D01*
X007396Y012430D01*
X007358Y012408D01*
X007326Y012377D01*
X007304Y012338D01*
X007292Y012295D01*
X007292Y012046D01*
X007531Y012046D01*
X007531Y012007D01*
X007569Y012007D01*
X007569Y011611D01*
X007531Y011611D01*
X007531Y012007D01*
X007292Y012007D01*
X007292Y011884D01*
X007228Y011948D01*
X007079Y011948D01*
X007079Y011963D01*
X007148Y012032D01*
X007189Y012130D01*
X007189Y012237D01*
X007148Y012336D01*
X007073Y012412D01*
X006974Y012453D01*
X006867Y012453D01*
X006768Y012412D01*
X006692Y012336D01*
X006652Y012237D01*
X006652Y012130D01*
X006692Y012032D01*
X006762Y011963D01*
X006762Y011948D01*
X006613Y011948D01*
X006561Y011896D01*
X006532Y011925D02*
X006590Y011925D01*
X006721Y012004D02*
X006295Y012004D01*
X006374Y012082D02*
X006672Y012082D01*
X006652Y012161D02*
X006452Y012161D01*
X006531Y012239D02*
X006652Y012239D01*
X006685Y012318D02*
X006609Y012318D01*
X006688Y012396D02*
X006753Y012396D01*
X006766Y012475D02*
X007785Y012475D01*
X007785Y012553D02*
X006845Y012553D01*
X006924Y012632D02*
X007643Y012632D01*
X007589Y012711D02*
X007002Y012711D01*
X007081Y012789D02*
X007589Y012789D01*
X007589Y012868D02*
X007159Y012868D01*
X007238Y012946D02*
X007589Y012946D01*
X007944Y012893D02*
X007944Y012026D01*
X007944Y010806D01*
X009125Y010806D01*
X010306Y009625D01*
X011448Y009625D01*
X011606Y009804D02*
X014086Y009804D01*
X014086Y009726D02*
X011684Y009726D01*
X011687Y009647D02*
X014086Y009647D01*
X014086Y009569D02*
X011687Y009569D01*
X011651Y009490D02*
X014086Y009490D01*
X014086Y009412D02*
X011572Y009412D01*
X011323Y009412D02*
X010271Y009412D01*
X010216Y009490D02*
X010193Y009490D01*
X010138Y009569D02*
X010114Y009569D01*
X010059Y009647D02*
X010036Y009647D01*
X009981Y009726D02*
X009957Y009726D01*
X009902Y009804D02*
X009879Y009804D01*
X009824Y009883D02*
X009800Y009883D01*
X009745Y009961D02*
X009722Y009961D01*
X009666Y010040D02*
X009643Y010040D01*
X009588Y010119D02*
X009564Y010119D01*
X009509Y010197D02*
X008674Y010197D01*
X008434Y010197D02*
X007315Y010197D01*
X007315Y010119D02*
X008356Y010119D01*
X008315Y010040D02*
X007315Y010040D01*
X007289Y009961D02*
X008315Y009961D01*
X007948Y010354D02*
X009352Y010354D01*
X009274Y010433D02*
X007986Y010433D01*
X007992Y010511D02*
X009195Y010511D01*
X009117Y010590D02*
X008070Y010590D01*
X007944Y010688D02*
X007944Y010806D01*
X007944Y010688D02*
X007747Y010491D01*
X007508Y010511D02*
X007315Y010511D01*
X007315Y010433D02*
X007508Y010433D01*
X007546Y010354D02*
X007288Y010354D01*
X007315Y010276D02*
X007625Y010276D01*
X007869Y010276D02*
X009431Y010276D01*
X009644Y010511D02*
X014050Y010511D01*
X014062Y010433D02*
X009723Y010433D01*
X009801Y010354D02*
X014073Y010354D01*
X014084Y010276D02*
X009880Y010276D01*
X009958Y010197D02*
X014086Y010197D01*
X014086Y010119D02*
X010037Y010119D01*
X010115Y010040D02*
X014086Y010040D01*
X014086Y009961D02*
X010194Y009961D01*
X010273Y009883D02*
X014086Y009883D01*
X014086Y009333D02*
X010350Y009333D01*
X010428Y009255D02*
X014079Y009255D01*
X014068Y009176D02*
X012008Y009176D01*
X012039Y009145D02*
X011952Y009232D01*
X011337Y009232D01*
X011250Y009145D01*
X011250Y008845D01*
X011337Y008758D01*
X011952Y008758D01*
X012039Y008845D01*
X012039Y009145D01*
X012039Y009098D02*
X014057Y009098D01*
X014045Y009019D02*
X012039Y009019D01*
X012039Y008940D02*
X014034Y008940D01*
X014023Y008862D02*
X012039Y008862D01*
X011977Y008783D02*
X014012Y008783D01*
X014000Y008705D02*
X010978Y008705D01*
X010900Y008783D02*
X011312Y008783D01*
X011250Y008862D02*
X010821Y008862D01*
X010743Y008940D02*
X011250Y008940D01*
X011250Y009019D02*
X010664Y009019D01*
X010586Y009098D02*
X011250Y009098D01*
X011281Y009176D02*
X010507Y009176D01*
X010351Y009804D02*
X011290Y009804D01*
X009566Y010590D02*
X014039Y010590D01*
X014028Y010668D02*
X009487Y010668D01*
X009409Y010747D02*
X014016Y010747D01*
X014005Y010825D02*
X009330Y010825D01*
X009251Y010904D02*
X013994Y010904D01*
X013983Y010983D02*
X008103Y010983D01*
X008103Y011061D02*
X013971Y011061D01*
X013960Y011140D02*
X008103Y011140D01*
X008103Y011218D02*
X013949Y011218D01*
X013925Y011297D02*
X008103Y011297D01*
X008103Y011375D02*
X013902Y011375D01*
X013879Y011454D02*
X008103Y011454D01*
X008103Y011532D02*
X013856Y011532D01*
X013833Y011611D02*
X011205Y011611D01*
X011113Y011611D02*
X011113Y012007D01*
X011074Y012007D01*
X011074Y011611D01*
X011074Y011689D02*
X011113Y011689D01*
X011113Y011768D02*
X011074Y011768D01*
X011074Y011847D02*
X011113Y011847D01*
X011113Y011925D02*
X011074Y011925D01*
X011074Y012004D02*
X011113Y012004D01*
X011113Y012046D02*
X011352Y012046D01*
X011352Y012295D01*
X011340Y012338D01*
X011318Y012377D01*
X011286Y012408D01*
X011248Y012430D01*
X011204Y012442D01*
X011113Y012442D01*
X011113Y012046D01*
X011113Y012082D02*
X011074Y012082D01*
X011074Y012161D02*
X011113Y012161D01*
X011113Y012239D02*
X011074Y012239D01*
X011074Y012318D02*
X011113Y012318D01*
X011113Y012396D02*
X011074Y012396D01*
X010889Y012396D02*
X010874Y012396D01*
X010571Y012475D02*
X013525Y012475D01*
X013489Y012553D02*
X010575Y012553D01*
X010558Y012632D02*
X013453Y012632D01*
X013418Y012711D02*
X010514Y012711D01*
X010466Y012789D02*
X013382Y012789D01*
X013346Y012868D02*
X010545Y012868D01*
X010624Y012946D02*
X013310Y012946D01*
X013273Y013025D02*
X010702Y013025D01*
X010489Y013260D02*
X010230Y013260D01*
X010230Y013182D02*
X010410Y013182D01*
X010332Y013103D02*
X010230Y013103D01*
X010070Y013247D02*
X009991Y013168D01*
X010070Y013247D02*
X010070Y014979D01*
X010042Y015023D01*
X010070Y015019D01*
X010338Y014988D02*
X010990Y014988D01*
X011048Y015067D02*
X010338Y015067D01*
X010338Y014910D02*
X010921Y014910D01*
X010842Y014831D02*
X010338Y014831D01*
X010275Y014753D02*
X010764Y014753D01*
X010685Y014674D02*
X010229Y014674D01*
X010229Y014596D02*
X010607Y014596D01*
X010600Y014517D02*
X010229Y014517D01*
X010229Y014438D02*
X010652Y014438D01*
X010731Y014360D02*
X010229Y014360D01*
X010229Y014281D02*
X010809Y014281D01*
X010888Y014203D02*
X010229Y014203D01*
X010229Y014124D02*
X010966Y014124D01*
X011045Y014046D02*
X010229Y014046D01*
X010229Y013967D02*
X011196Y013967D01*
X011172Y014046D02*
X011274Y014046D01*
X011117Y013889D02*
X010229Y013889D01*
X010229Y013810D02*
X011039Y013810D01*
X010960Y013732D02*
X010229Y013732D01*
X010229Y013653D02*
X010881Y013653D01*
X010803Y013574D02*
X010229Y013574D01*
X010229Y013496D02*
X010724Y013496D01*
X010646Y013417D02*
X010229Y013417D01*
X010229Y013339D02*
X010567Y013339D01*
X009911Y013417D02*
X008318Y013417D01*
X008320Y013496D02*
X009911Y013496D01*
X009911Y013574D02*
X007983Y013574D01*
X007905Y013574D02*
X003626Y013574D01*
X003626Y013496D02*
X007568Y013496D01*
X007570Y013417D02*
X004067Y013417D01*
X004146Y013339D02*
X007615Y013339D01*
X007568Y013653D02*
X003626Y013653D01*
X003626Y013732D02*
X007568Y013732D01*
X007577Y013810D02*
X003626Y013810D01*
X003566Y013889D02*
X006605Y013889D01*
X006605Y013967D02*
X003487Y013967D01*
X003409Y014046D02*
X006605Y014046D01*
X006605Y014124D02*
X002474Y014124D01*
X002939Y014596D02*
X007887Y014596D01*
X007966Y014674D02*
X003024Y014674D01*
X003116Y014753D02*
X008044Y014753D01*
X008032Y014841D02*
X008102Y014910D01*
X008102Y014988D02*
X008140Y014988D01*
X008160Y015067D02*
X008102Y015067D01*
X008102Y015145D02*
X008160Y015145D01*
X008160Y015224D02*
X008102Y015224D01*
X008084Y015302D02*
X008160Y015302D01*
X008495Y015255D02*
X008495Y014830D01*
X008456Y014822D01*
X008338Y014822D01*
X007747Y014231D01*
X007757Y014192D01*
X006950Y014192D01*
X007295Y014360D02*
X007412Y014360D01*
X007412Y014438D02*
X007295Y014438D01*
X007277Y014517D02*
X007430Y014517D01*
X007412Y013967D02*
X007295Y013967D01*
X007295Y013889D02*
X007412Y013889D01*
X008102Y013967D02*
X008140Y013967D01*
X008140Y014046D02*
X008102Y014046D01*
X008102Y014124D02*
X008140Y014124D01*
X008140Y014203D02*
X008102Y014203D01*
X008102Y014281D02*
X008140Y014281D01*
X008172Y014360D02*
X008102Y014360D01*
X008179Y014438D02*
X009006Y014438D01*
X009006Y014360D02*
X008818Y014360D01*
X008850Y014281D02*
X009006Y014281D01*
X009006Y014517D02*
X008257Y014517D01*
X008032Y014841D02*
X006674Y014841D01*
X006605Y015695D02*
X004581Y015695D01*
X004413Y015617D02*
X008972Y015617D01*
X008959Y015538D02*
X008809Y015538D01*
X008870Y015460D02*
X008959Y015460D01*
X008959Y015381D02*
X008870Y015381D01*
X008870Y015302D02*
X008959Y015302D01*
X008959Y015224D02*
X008870Y015224D01*
X008870Y015145D02*
X009004Y015145D01*
X009084Y015067D02*
X008870Y015067D01*
X008850Y014988D02*
X009084Y014988D01*
X009084Y014910D02*
X008850Y014910D01*
X008850Y014831D02*
X009084Y014831D01*
X009084Y014753D02*
X008850Y014753D01*
X008850Y014674D02*
X009061Y014674D01*
X009006Y014596D02*
X008823Y014596D01*
X009243Y014472D02*
X009243Y015373D01*
X009255Y015397D01*
X009551Y015224D02*
X009746Y015224D01*
X009746Y015145D02*
X009506Y015145D01*
X009402Y015067D02*
X009746Y015067D01*
X009746Y014988D02*
X009402Y014988D01*
X009402Y014910D02*
X009746Y014910D01*
X009746Y014831D02*
X009402Y014831D01*
X009402Y014753D02*
X009810Y014753D01*
X009911Y014674D02*
X009426Y014674D01*
X009480Y014596D02*
X009911Y014596D01*
X009911Y014517D02*
X009480Y014517D01*
X009480Y014438D02*
X009911Y014438D01*
X009911Y014360D02*
X009480Y014360D01*
X009480Y014281D02*
X009911Y014281D01*
X009911Y014203D02*
X009480Y014203D01*
X009480Y014124D02*
X009911Y014124D01*
X009911Y014046D02*
X009480Y014046D01*
X009447Y013967D02*
X009911Y013967D01*
X009911Y013889D02*
X008824Y013889D01*
X008495Y014113D02*
X008495Y014121D01*
X008495Y014113D02*
X009243Y014113D01*
X009243Y014148D01*
X009911Y013810D02*
X008311Y013810D01*
X008320Y013732D02*
X009911Y013732D01*
X009911Y013653D02*
X008320Y013653D01*
X008273Y013339D02*
X009824Y013339D01*
X009912Y012538D02*
X009912Y012026D01*
X009519Y012026D02*
X009519Y012538D01*
X009125Y012538D02*
X009125Y012026D01*
X008731Y012026D02*
X008731Y012538D01*
X008338Y012538D02*
X008338Y012026D01*
X007785Y011641D02*
X007762Y011664D01*
X007743Y011645D01*
X007704Y011622D01*
X007661Y011611D01*
X007569Y011611D01*
X007531Y011611D02*
X007439Y011611D01*
X007315Y011611D01*
X007315Y011561D02*
X007315Y011696D01*
X007326Y011676D01*
X007358Y011645D01*
X007396Y011622D01*
X007439Y011611D01*
X007531Y011689D02*
X007569Y011689D01*
X007569Y011768D02*
X007531Y011768D01*
X007531Y011847D02*
X007569Y011847D01*
X007569Y011925D02*
X007531Y011925D01*
X007531Y012004D02*
X007569Y012004D01*
X007569Y012082D02*
X007531Y012082D01*
X007531Y012161D02*
X007569Y012161D01*
X007569Y012239D02*
X007531Y012239D01*
X007531Y012318D02*
X007569Y012318D01*
X007569Y012396D02*
X007531Y012396D01*
X007346Y012396D02*
X007088Y012396D01*
X007156Y012318D02*
X007298Y012318D01*
X007292Y012239D02*
X007188Y012239D01*
X007189Y012161D02*
X007292Y012161D01*
X007292Y012082D02*
X007169Y012082D01*
X007120Y012004D02*
X007292Y012004D01*
X007292Y011925D02*
X007251Y011925D01*
X007315Y011689D02*
X007318Y011689D01*
X007315Y011561D02*
X007268Y011515D01*
X007315Y011468D01*
X007315Y011242D01*
X007492Y011242D01*
X007631Y011102D01*
X007631Y010904D01*
X007631Y010983D02*
X007785Y010983D01*
X007785Y011061D02*
X007631Y011061D01*
X007594Y011140D02*
X007785Y011140D01*
X007785Y011218D02*
X007515Y011218D01*
X007315Y011297D02*
X007785Y011297D01*
X007785Y011375D02*
X007315Y011375D01*
X007315Y011454D02*
X007785Y011454D01*
X007785Y011532D02*
X007285Y011532D01*
X007661Y011611D02*
X007785Y011611D01*
X007785Y011641D02*
X007785Y010872D01*
X007785Y010825D02*
X007553Y010825D01*
X007779Y010747D02*
X007287Y010747D01*
X007314Y010924D02*
X006920Y010924D01*
X006920Y010530D02*
X006684Y010570D01*
X006409Y010570D01*
X006133Y010845D01*
X006133Y011200D01*
X006369Y011436D01*
X006527Y011082D02*
X006763Y011318D01*
X006920Y011318D01*
X006920Y011711D02*
X006920Y012184D01*
X007755Y012396D02*
X007770Y012396D01*
X008103Y011611D02*
X010982Y011611D01*
X011325Y011689D02*
X013810Y011689D01*
X013787Y011768D02*
X011352Y011768D01*
X011352Y011847D02*
X013764Y011847D01*
X013741Y011925D02*
X011352Y011925D01*
X011352Y012004D02*
X013718Y012004D01*
X013695Y012082D02*
X011352Y012082D01*
X011352Y012161D02*
X013669Y012161D01*
X013633Y012239D02*
X011352Y012239D01*
X011346Y012318D02*
X013597Y012318D01*
X013561Y012396D02*
X011298Y012396D01*
X010306Y012538D02*
X010306Y012026D01*
X012062Y013489D02*
X012038Y013523D01*
X011507Y014054D01*
X011094Y014467D01*
X011060Y014491D01*
X011666Y014120D02*
X011666Y014120D01*
X011740Y014046D02*
X012031Y014046D01*
X011987Y013967D02*
X011818Y013967D01*
X011897Y013889D02*
X011904Y013889D01*
X011831Y014674D02*
X011989Y014674D01*
X010850Y015538D02*
X010338Y015538D01*
X010359Y015617D02*
X010728Y015617D01*
X010606Y015695D02*
X010359Y015695D01*
X010441Y015774D02*
X010081Y015774D01*
X010003Y015774D02*
X008870Y015774D01*
X008870Y015852D02*
X009725Y015852D01*
X009725Y015931D02*
X008870Y015931D01*
X008870Y016009D02*
X009750Y016009D01*
X009753Y016088D02*
X008870Y016088D01*
X008870Y016166D02*
X009508Y016166D01*
X009241Y016245D02*
X008811Y016245D01*
X008973Y016324D02*
X008088Y016324D01*
X008102Y016245D02*
X008219Y016245D01*
X008160Y016166D02*
X008102Y016166D01*
X008456Y016042D02*
X008515Y015979D01*
X008495Y016003D01*
X007757Y016003D01*
X006950Y016003D01*
X006960Y016003D01*
X006960Y016436D01*
X006958Y016464D01*
X007118Y016481D02*
X008074Y016481D01*
X008620Y016402D02*
X007121Y016402D01*
X007281Y016324D02*
X007425Y016324D01*
X007412Y016245D02*
X007295Y016245D01*
X007295Y016166D02*
X007412Y016166D01*
X007412Y015774D02*
X007295Y015774D01*
X007294Y015695D02*
X007412Y015695D01*
X008102Y015774D02*
X008160Y015774D01*
X008515Y015271D02*
X008495Y015255D01*
X010004Y015538D02*
X010081Y015538D01*
X010081Y015617D02*
X010004Y015617D01*
X010004Y015695D02*
X010081Y015695D01*
X006605Y015774D02*
X004749Y015774D01*
X004961Y015852D02*
X006605Y015852D01*
X006605Y015931D02*
X005187Y015931D01*
X005413Y016009D02*
X006605Y016009D01*
X006605Y016088D02*
X005640Y016088D01*
X006034Y016166D02*
X006605Y016166D01*
X006605Y016245D02*
X006429Y016245D01*
X002865Y014743D02*
X002863Y014745D01*
X003621Y013417D02*
X003622Y013417D01*
X003544Y013339D02*
X003542Y013339D01*
X004130Y013260D02*
X007103Y013260D01*
X006527Y011082D02*
X006527Y011042D01*
X006409Y010924D01*
X006723Y010570D02*
X006723Y010530D01*
X006920Y010530D01*
X006763Y010530D01*
X006920Y010137D02*
X006409Y010137D01*
X006569Y009647D02*
X006595Y009647D01*
X006409Y009428D02*
X006920Y009428D01*
X004313Y015745D02*
X004589Y015878D01*
X004871Y015998D01*
X005158Y016105D01*
X005450Y016199D01*
X005746Y016279D01*
X006046Y016346D01*
X006348Y016399D01*
X006652Y016438D01*
X006958Y016463D01*
X004031Y012789D02*
X003918Y012789D01*
X003996Y012711D02*
X004109Y012711D01*
X004068Y011801D02*
X004086Y011790D01*
X003456Y011751D02*
X003416Y011711D01*
X002905Y011711D01*
X003516Y011300D02*
X002905Y010688D01*
X002864Y010693D01*
X002064Y010693D01*
X002048Y010688D01*
X001645Y010688D01*
X001586Y010511D02*
X001703Y010511D01*
X001703Y010433D02*
X001586Y010433D01*
X001560Y010354D02*
X001730Y010354D01*
X003211Y010433D02*
X003320Y010433D01*
X004362Y010433D02*
X004439Y010433D01*
X004439Y010511D02*
X004362Y010511D01*
X004362Y010354D02*
X004439Y010354D01*
X004690Y010354D02*
X004708Y010386D01*
X004718Y010421D01*
X004718Y010511D02*
X005022Y010511D01*
X003567Y011300D02*
X003516Y011300D01*
X006409Y009034D02*
X006920Y009034D01*
X006920Y008641D02*
X006409Y008641D01*
X006409Y008247D02*
X006920Y008247D01*
X006505Y007762D02*
X005426Y007762D01*
X005407Y007684D02*
X006525Y007684D01*
X006199Y008076D02*
X005426Y008076D01*
X005426Y008155D02*
X006156Y008155D01*
X006140Y008234D02*
X005426Y008234D01*
X005399Y008312D02*
X006145Y008312D01*
X007713Y007919D02*
X007781Y007919D01*
X008107Y007919D02*
X008174Y007919D01*
X008501Y007919D02*
X008568Y007919D01*
X008895Y007919D02*
X008962Y007919D01*
X009288Y007919D02*
X009356Y007919D01*
X009682Y007919D02*
X009749Y007919D01*
X010076Y007919D02*
X010143Y007919D01*
X010469Y007919D02*
X010537Y007919D01*
X011287Y007919D02*
X011315Y007919D01*
X011342Y007841D02*
X011368Y007841D01*
X011368Y007762D02*
X011352Y007762D01*
X011352Y007684D02*
X011368Y007684D01*
X011368Y007605D02*
X011352Y007605D01*
X009135Y005013D02*
X008983Y005013D01*
X009008Y004935D02*
X009203Y004935D01*
X009203Y004856D02*
X009008Y004856D01*
X009008Y004778D02*
X009203Y004778D01*
X009203Y004699D02*
X009008Y004699D01*
X009008Y004621D02*
X009071Y004621D01*
X009065Y004542D02*
X008974Y004542D01*
X009008Y004463D02*
X009065Y004463D01*
X009065Y004385D02*
X009008Y004385D01*
X008941Y003835D02*
X009853Y003835D01*
X005121Y005092D02*
X004684Y005092D01*
X003657Y005642D02*
X002299Y005642D01*
X002237Y005720D02*
X003579Y005720D01*
X003500Y005799D02*
X002175Y005799D01*
X002116Y005877D02*
X003421Y005877D01*
X003343Y005956D02*
X002062Y005956D01*
X002007Y006034D02*
X003264Y006034D01*
X003186Y006113D02*
X001953Y006113D01*
X001899Y006191D02*
X003107Y006191D01*
X003584Y006191D02*
X004389Y006191D01*
X004359Y006113D02*
X003663Y006113D01*
X003742Y006034D02*
X004359Y006034D01*
X004366Y005956D02*
X003820Y005956D01*
X003829Y006349D02*
X003909Y006349D01*
X003909Y006427D02*
X003829Y006427D01*
X003829Y006506D02*
X003909Y006506D01*
X003909Y006584D02*
X003829Y006584D01*
X004285Y006820D02*
X004429Y006820D01*
X004766Y006820D02*
X004952Y006820D01*
X004879Y006898D02*
X004766Y006898D01*
X004766Y006977D02*
X004871Y006977D01*
X004871Y007055D02*
X004766Y007055D01*
X004736Y007134D02*
X004871Y007134D01*
X004144Y008234D02*
X004008Y008234D01*
X004001Y008312D02*
X004180Y008312D01*
X001566Y006436D02*
X001559Y006432D01*
X002446Y014333D02*
X002650Y014544D01*
X002863Y014745D01*
X007314Y010924D02*
X007393Y011003D01*
X002244Y005459D02*
X002422Y005257D01*
X002608Y005063D01*
X002802Y004875D01*
X003337Y004428D02*
X003572Y004259D01*
X003814Y004101D01*
X004062Y003954D01*
X000722Y010690D02*
X000771Y010997D01*
X000835Y011301D01*
X000912Y011603D01*
X001004Y011900D01*
X001109Y012193D01*
X000660Y009782D02*
X000667Y009479D01*
X000687Y009177D01*
X000722Y008876D01*
X000769Y008577D01*
X000831Y008280D01*
X001559Y006432D02*
X001698Y006202D01*
X001846Y005978D01*
X002004Y005760D01*
X002169Y005548D01*
X001109Y012193D02*
X001230Y012486D01*
X001365Y012773D01*
X001514Y013053D01*
X001676Y013326D01*
X001850Y013592D01*
X002037Y013848D01*
X002235Y014096D01*
X002446Y014333D01*
X000722Y010690D02*
X000688Y010388D01*
X000667Y010085D01*
X000660Y009782D01*
X004062Y003954D02*
X004331Y003810D01*
X004605Y003679D01*
X004886Y003560D01*
X005171Y003455D01*
X005461Y003362D01*
X005755Y003283D01*
X006052Y003217D01*
X006352Y003164D01*
X006654Y003126D01*
X006958Y003101D01*
X003337Y004428D02*
X003085Y004626D01*
X002843Y004837D01*
X001559Y006432D02*
X001422Y006681D01*
X001295Y006936D01*
X001179Y007197D01*
X001075Y007462D01*
X000982Y007731D01*
X000901Y008004D01*
X000831Y008280D01*
X002863Y014745D02*
X003101Y014950D01*
X003348Y015144D01*
X003604Y015326D01*
X003869Y015496D01*
X004141Y015653D01*
X004140Y015653D02*
X004313Y015744D01*
X002802Y004875D02*
X002844Y004837D01*
D24*
X004597Y006062D03*
X005227Y004861D03*
X002196Y007420D03*
X004716Y007578D03*
X005542Y009861D03*
X005975Y009782D03*
X005660Y010491D03*
X006133Y011515D03*
X006409Y011711D03*
X007393Y011003D03*
X007747Y010491D03*
X008554Y009979D03*
X011448Y009625D03*
X009991Y013168D03*
X003456Y011751D03*
D25*
X004716Y007578D02*
X004401Y007263D01*
X004460Y007184D01*
X004440Y007145D01*
X004597Y006987D01*
X004597Y006062D01*
X004460Y007184D02*
X004440Y007184D01*
X004243Y007381D01*
X003692Y007381D01*
X003653Y007400D01*
X002786Y006751D02*
X002767Y006731D01*
X002629Y006869D01*
X002629Y007381D01*
X002629Y007400D01*
X002590Y007420D01*
X002196Y007420D01*
X002786Y006751D02*
X004676Y004861D01*
X005227Y004861D01*
M02*
