G75*
G70*
%OFA0B0*%
%FSLAX24Y24*%
%IPPOS*%
%LPD*%
%AMOC8*
5,1,8,0,0,1.08239X$1,22.5*
%
%ADD10C,0.0039*%
%ADD11R,0.0220X0.0500*%
%ADD12R,0.0500X0.0220*%
%ADD13R,0.0394X0.0433*%
%ADD14R,0.0433X0.0394*%
%ADD15R,0.0276X0.0669*%
%ADD16R,0.0630X0.0551*%
%ADD17R,0.0472X0.0217*%
%ADD18R,0.0157X0.0531*%
%ADD19R,0.0827X0.0630*%
%ADD20R,0.0748X0.0748*%
%ADD21C,0.0197*%
%ADD22R,0.0550X0.0137*%
%ADD23R,0.0591X0.0787*%
%ADD24R,0.0787X0.0591*%
%ADD25R,0.0315X0.0315*%
%ADD26C,0.0080*%
%ADD27C,0.0240*%
%ADD28C,0.0276*%
D10*
X000497Y008890D02*
X000505Y009228D01*
X000530Y009565D01*
X000572Y009901D01*
X000629Y010234D01*
X000703Y010564D01*
X000794Y010890D01*
X000900Y011211D01*
X001021Y011527D01*
X001159Y011836D01*
X001311Y012138D01*
X001477Y012432D01*
X001658Y012718D01*
X001853Y012994D01*
X002061Y013261D01*
X002282Y013517D01*
X002515Y013762D01*
X002760Y013995D01*
X003016Y014216D01*
X003283Y014424D01*
X003559Y014619D01*
X003845Y014800D01*
X004139Y014966D01*
X004441Y015118D01*
X004750Y015256D01*
X005066Y015377D01*
X005387Y015483D01*
X005713Y015574D01*
X006043Y015648D01*
X006376Y015705D01*
X006712Y015747D01*
X007049Y015772D01*
X007387Y015780D01*
X007725Y015772D01*
X008062Y015747D01*
X008398Y015705D01*
X008731Y015648D01*
X009061Y015574D01*
X009387Y015483D01*
X009708Y015377D01*
X010024Y015256D01*
X010333Y015118D01*
X010635Y014966D01*
X010929Y014800D01*
X011215Y014619D01*
X011491Y014424D01*
X011758Y014216D01*
X012014Y013995D01*
X012259Y013762D01*
X012492Y013517D01*
X012713Y013261D01*
X012921Y012994D01*
X013116Y012718D01*
X013297Y012432D01*
X013463Y012138D01*
X013615Y011836D01*
X013753Y011527D01*
X013874Y011211D01*
X013980Y010890D01*
X014071Y010564D01*
X014145Y010234D01*
X014202Y009901D01*
X014244Y009565D01*
X014269Y009228D01*
X014277Y008890D01*
X014269Y008552D01*
X014244Y008215D01*
X014202Y007879D01*
X014145Y007546D01*
X014071Y007216D01*
X013980Y006890D01*
X013874Y006569D01*
X013753Y006253D01*
X013615Y005944D01*
X013463Y005642D01*
X013297Y005348D01*
X013116Y005062D01*
X012921Y004786D01*
X012713Y004519D01*
X012492Y004263D01*
X012259Y004018D01*
X012014Y003785D01*
X011758Y003564D01*
X011491Y003356D01*
X011215Y003161D01*
X010929Y002980D01*
X010635Y002814D01*
X010333Y002662D01*
X010024Y002524D01*
X009708Y002403D01*
X009387Y002297D01*
X009061Y002206D01*
X008731Y002132D01*
X008398Y002075D01*
X008062Y002033D01*
X007725Y002008D01*
X007387Y002000D01*
X007049Y002008D01*
X006712Y002033D01*
X006376Y002075D01*
X006043Y002132D01*
X005713Y002206D01*
X005387Y002297D01*
X005066Y002403D01*
X004750Y002524D01*
X004441Y002662D01*
X004139Y002814D01*
X003845Y002980D01*
X003559Y003161D01*
X003283Y003356D01*
X003016Y003564D01*
X002760Y003785D01*
X002515Y004018D01*
X002282Y004263D01*
X002061Y004519D01*
X001853Y004786D01*
X001658Y005062D01*
X001477Y005348D01*
X001311Y005642D01*
X001159Y005944D01*
X001021Y006253D01*
X000900Y006569D01*
X000794Y006890D01*
X000703Y007216D01*
X000629Y007546D01*
X000572Y007879D01*
X000530Y008215D01*
X000505Y008552D01*
X000497Y008890D01*
D11*
X007346Y007257D03*
X007661Y007257D03*
X007976Y007257D03*
X008291Y007257D03*
X008606Y007257D03*
X008921Y007257D03*
X009236Y007257D03*
X009551Y007257D03*
X009551Y010637D03*
X009236Y010637D03*
X008921Y010637D03*
X008606Y010637D03*
X008291Y010637D03*
X007976Y010637D03*
X007661Y010637D03*
X007346Y010637D03*
D12*
X006758Y010049D03*
X006758Y009734D03*
X006758Y009419D03*
X006758Y009104D03*
X006758Y008789D03*
X006758Y008474D03*
X006758Y008159D03*
X006758Y007844D03*
X010138Y007844D03*
X010138Y008159D03*
X010138Y008474D03*
X010138Y008789D03*
X010138Y009104D03*
X010138Y009419D03*
X010138Y009734D03*
X010138Y010049D03*
D13*
X012442Y006516D03*
X012442Y005847D03*
X009695Y004671D03*
X009695Y004001D03*
X001804Y006721D03*
X001804Y007390D03*
D14*
X007941Y006381D03*
X008611Y006381D03*
X008560Y005556D03*
X009229Y005556D03*
X010906Y004324D03*
X011575Y004324D03*
D15*
X009757Y011627D03*
X009285Y011627D03*
X008812Y011627D03*
D16*
X001706Y009358D03*
X001706Y008256D03*
D17*
X010673Y005741D03*
X010673Y005367D03*
X010673Y004993D03*
X011696Y004993D03*
X011696Y005741D03*
D18*
X007846Y003946D03*
X007590Y003946D03*
X007334Y003946D03*
X007078Y003946D03*
X006822Y003946D03*
D19*
X006114Y003897D03*
X008554Y003897D03*
D20*
X008929Y002893D03*
X007806Y002893D03*
X006862Y002893D03*
X005740Y002893D03*
D21*
X012155Y009374D02*
X012155Y009964D01*
X012745Y009964D01*
X012745Y009374D01*
X012155Y009374D01*
X012155Y009570D02*
X012745Y009570D01*
X012745Y009766D02*
X012155Y009766D01*
X012155Y009962D02*
X012745Y009962D01*
X013682Y007799D02*
X013682Y007209D01*
X013092Y007209D01*
X013092Y007799D01*
X013682Y007799D01*
X013682Y007405D02*
X013092Y007405D01*
X013092Y007601D02*
X013682Y007601D01*
X013682Y007797D02*
X013092Y007797D01*
D22*
X005566Y007857D03*
X005566Y008113D03*
X005566Y008369D03*
X005566Y008625D03*
X005566Y008881D03*
X005566Y009136D03*
X005566Y009392D03*
X005566Y007601D03*
X005566Y007345D03*
X005566Y007089D03*
X005566Y006833D03*
X005566Y006577D03*
X005566Y006321D03*
X005566Y006066D03*
X002688Y006066D03*
X002688Y006321D03*
X002688Y006577D03*
X002688Y006833D03*
X002688Y007089D03*
X002688Y007345D03*
X002688Y007601D03*
X002688Y007857D03*
X002688Y008113D03*
X002688Y008369D03*
X002688Y008625D03*
X002688Y008881D03*
X002688Y009136D03*
X002688Y009392D03*
D23*
X003166Y010855D03*
X004013Y010867D03*
X006450Y006556D03*
D24*
X010387Y007158D03*
X011328Y007839D03*
X011308Y008713D03*
D25*
X011182Y006339D03*
X010591Y006339D03*
D26*
X005625Y003515D02*
X003353Y003515D01*
X003447Y003437D02*
X011300Y003437D01*
X011409Y003515D02*
X009043Y003515D01*
X009068Y003540D02*
X009009Y003482D01*
X008100Y003482D01*
X008041Y003540D01*
X008041Y004253D01*
X008100Y004312D01*
X009009Y004312D01*
X009068Y004253D01*
X009068Y003540D01*
X009068Y003594D02*
X011519Y003594D01*
X011629Y003672D02*
X009976Y003672D01*
X009977Y003673D02*
X010004Y003699D01*
X010022Y003731D01*
X010031Y003766D01*
X010031Y003961D01*
X009735Y003961D01*
X009735Y004041D01*
X010031Y004041D01*
X010031Y004236D01*
X010022Y004272D01*
X010004Y004304D01*
X009977Y004330D01*
X009946Y004348D01*
X009924Y004354D01*
X009933Y004354D01*
X009991Y004413D01*
X009991Y004761D01*
X010088Y004858D01*
X010336Y004858D01*
X010336Y004843D01*
X010395Y004784D01*
X010950Y004784D01*
X011009Y004843D01*
X011009Y005142D01*
X011000Y005151D01*
X011021Y005173D01*
X011039Y005204D01*
X011049Y005240D01*
X011049Y005353D01*
X010687Y005353D01*
X010687Y005381D01*
X011049Y005381D01*
X011049Y005493D01*
X011039Y005529D01*
X011021Y005561D01*
X011000Y005582D01*
X011009Y005591D01*
X011009Y005890D01*
X010950Y005949D01*
X010770Y005949D01*
X010770Y006082D01*
X010790Y006082D01*
X010849Y006140D01*
X010849Y006538D01*
X010790Y006597D01*
X010393Y006597D01*
X010334Y006538D01*
X010334Y006140D01*
X010393Y006082D01*
X010490Y006082D01*
X010490Y005949D01*
X010395Y005949D01*
X010336Y005890D01*
X010336Y005591D01*
X010345Y005582D01*
X010324Y005561D01*
X010306Y005529D01*
X010296Y005493D01*
X010296Y005381D01*
X010658Y005381D01*
X010658Y005353D01*
X010296Y005353D01*
X010296Y005240D01*
X010306Y005204D01*
X010324Y005173D01*
X010345Y005151D01*
X010336Y005142D01*
X010336Y005138D01*
X009972Y005138D01*
X009890Y005056D01*
X009822Y004987D01*
X009456Y004987D01*
X009398Y004929D01*
X004794Y004929D01*
X004866Y004857D02*
X003389Y006334D01*
X003389Y006334D01*
X003307Y006416D01*
X003063Y006416D01*
X003063Y006431D01*
X003044Y006449D01*
X003063Y006467D01*
X003063Y006667D01*
X003075Y006679D01*
X003093Y006711D01*
X003103Y006746D01*
X003103Y006833D01*
X002688Y006833D01*
X002688Y006833D01*
X003103Y006833D01*
X003103Y006920D01*
X003093Y006956D01*
X003075Y006988D01*
X003063Y007000D01*
X003063Y007199D01*
X003044Y007217D01*
X003063Y007235D01*
X003063Y007434D01*
X003075Y007447D01*
X003093Y007478D01*
X003103Y007514D01*
X003103Y007601D01*
X003103Y007688D01*
X003093Y007724D01*
X003075Y007755D01*
X003063Y007768D01*
X003063Y007782D01*
X003888Y008608D01*
X003970Y008690D01*
X003970Y010373D01*
X004349Y010373D01*
X004408Y010432D01*
X004408Y011302D01*
X004349Y011360D01*
X003676Y011360D01*
X003617Y011302D01*
X003617Y010432D01*
X003676Y010373D01*
X003690Y010373D01*
X003690Y008806D01*
X003420Y008536D01*
X003420Y010361D01*
X003503Y010361D01*
X003562Y010420D01*
X003562Y011290D01*
X003503Y011349D01*
X002830Y011349D01*
X002771Y011290D01*
X002771Y010420D01*
X002830Y010361D01*
X003140Y010361D01*
X003140Y008506D01*
X003063Y008428D01*
X003063Y008458D01*
X003075Y008470D01*
X003093Y008502D01*
X003103Y008538D01*
X003103Y008624D01*
X002688Y008624D01*
X002688Y008625D01*
X003103Y008625D01*
X003103Y008712D01*
X003093Y008747D01*
X003090Y008753D01*
X003093Y008758D01*
X003103Y008794D01*
X003103Y008880D01*
X002688Y008880D01*
X002688Y008833D01*
X002688Y008625D01*
X002687Y008625D01*
X002687Y008624D01*
X002273Y008624D01*
X002273Y008538D01*
X002282Y008502D01*
X002301Y008470D01*
X002313Y008458D01*
X002313Y008259D01*
X002331Y008241D01*
X002313Y008223D01*
X002313Y008003D01*
X002331Y007985D01*
X002313Y007967D01*
X002313Y007768D01*
X002301Y007755D01*
X002282Y007724D01*
X002273Y007688D01*
X002273Y007601D01*
X002273Y007514D01*
X002282Y007478D01*
X002301Y007447D01*
X002309Y007438D01*
X002101Y007438D01*
X002101Y007648D01*
X002042Y007707D01*
X002000Y007707D01*
X002000Y007880D01*
X002063Y007880D01*
X002121Y007939D01*
X002121Y008573D01*
X002063Y008631D01*
X001350Y008631D01*
X001291Y008573D01*
X001291Y007939D01*
X001350Y007880D01*
X001560Y007880D01*
X001560Y007707D01*
X001563Y007704D01*
X001507Y007648D01*
X001507Y007132D01*
X001566Y007074D01*
X001575Y007074D01*
X001553Y007068D01*
X001521Y007050D01*
X000931Y007050D01*
X000908Y007128D02*
X001511Y007128D01*
X001507Y007207D02*
X000884Y007207D01*
X000860Y007285D02*
X001507Y007285D01*
X001507Y007364D02*
X000837Y007364D01*
X000818Y007427D02*
X000675Y008399D01*
X000675Y009382D01*
X000818Y010354D01*
X001101Y011295D01*
X001518Y012184D01*
X002060Y013004D01*
X002716Y013735D01*
X003471Y014364D01*
X004309Y014876D01*
X005214Y015260D01*
X006164Y015509D01*
X007141Y015616D01*
X008123Y015580D01*
X009089Y015402D01*
X010019Y015084D01*
X010893Y014635D01*
X011692Y014063D01*
X012399Y013382D01*
X013000Y012604D01*
X013481Y011747D01*
X013831Y010829D01*
X014045Y009870D01*
X014117Y008890D01*
X014045Y007910D01*
X013880Y007171D01*
X013880Y007881D01*
X013764Y007997D01*
X013518Y007997D01*
X013518Y011196D01*
X013379Y011336D01*
X013029Y011686D01*
X012832Y011686D01*
X012692Y011546D01*
X012692Y011349D01*
X013042Y010999D01*
X013042Y007997D01*
X013009Y007997D01*
X012893Y007881D01*
X012893Y007126D01*
X013009Y007010D01*
X013042Y007010D01*
X013042Y006646D01*
X012739Y006343D01*
X012739Y006343D01*
X012739Y006774D01*
X012680Y006833D01*
X012204Y006833D01*
X012145Y006774D01*
X012145Y006638D01*
X011322Y006638D01*
X011281Y006597D01*
X010983Y006597D01*
X010925Y006538D01*
X010925Y006140D01*
X010983Y006082D01*
X011381Y006082D01*
X011439Y006140D01*
X011439Y006358D01*
X012145Y006358D01*
X012145Y006258D01*
X012204Y006200D01*
X012596Y006200D01*
X012560Y006164D01*
X012204Y006164D01*
X012145Y006105D01*
X012145Y005849D01*
X012032Y005736D01*
X012032Y005890D01*
X011974Y005949D01*
X011419Y005949D01*
X011360Y005890D01*
X011360Y005591D01*
X011419Y005533D01*
X011829Y005533D01*
X011589Y005293D01*
X011535Y005265D01*
X011522Y005226D01*
X011497Y005201D01*
X011419Y005201D01*
X011360Y005142D01*
X011360Y005064D01*
X011342Y005046D01*
X011342Y004849D01*
X011342Y004621D01*
X011317Y004621D01*
X011258Y004563D01*
X011258Y004553D01*
X011253Y004575D01*
X011234Y004607D01*
X011208Y004633D01*
X011176Y004652D01*
X011141Y004661D01*
X010946Y004661D01*
X010946Y004364D01*
X010866Y004364D01*
X010866Y004661D01*
X010671Y004661D01*
X010635Y004652D01*
X010603Y004633D01*
X010577Y004607D01*
X010559Y004575D01*
X010549Y004540D01*
X010549Y004364D01*
X010866Y004364D01*
X010866Y004284D01*
X010946Y004284D01*
X010946Y003987D01*
X011141Y003987D01*
X011176Y003997D01*
X011208Y004015D01*
X011234Y004041D01*
X011253Y004073D01*
X011258Y004095D01*
X011258Y004086D01*
X011317Y004027D01*
X011833Y004027D01*
X011891Y004086D01*
X011891Y004563D01*
X011833Y004621D01*
X011818Y004621D01*
X011818Y004749D01*
X011820Y004751D01*
X011872Y004776D01*
X011875Y004784D01*
X011974Y004784D01*
X012032Y004843D01*
X012032Y005063D01*
X012500Y005531D01*
X012680Y005531D01*
X012739Y005589D01*
X012739Y005669D01*
X012748Y005679D01*
X013379Y006310D01*
X013518Y006449D01*
X013518Y007010D01*
X013764Y007010D01*
X013868Y007114D01*
X013831Y006951D01*
X013481Y006034D01*
X013000Y005177D01*
X012399Y004399D01*
X011692Y003717D01*
X010893Y003146D01*
X010019Y002696D01*
X009402Y002486D01*
X009402Y003308D01*
X009344Y003367D01*
X008513Y003367D01*
X008454Y003308D01*
X008454Y002477D01*
X008513Y002419D01*
X009205Y002419D01*
X009089Y002379D01*
X008123Y002201D01*
X007141Y002165D01*
X006164Y002272D01*
X005604Y002419D01*
X006155Y002419D01*
X006214Y002477D01*
X006214Y003308D01*
X006155Y003367D01*
X005324Y003367D01*
X005266Y003308D01*
X005266Y002507D01*
X005214Y002521D01*
X004309Y002905D01*
X003471Y003417D01*
X002716Y004045D01*
X002060Y004777D01*
X001518Y005597D01*
X001101Y006486D01*
X000818Y007427D01*
X000815Y007442D02*
X001507Y007442D01*
X001507Y007521D02*
X000804Y007521D01*
X000792Y007599D02*
X001507Y007599D01*
X001537Y007678D02*
X000781Y007678D01*
X000769Y007757D02*
X001560Y007757D01*
X001560Y007835D02*
X000758Y007835D01*
X000746Y007914D02*
X001317Y007914D01*
X001291Y007992D02*
X000735Y007992D01*
X000723Y008071D02*
X001291Y008071D01*
X001291Y008149D02*
X000711Y008149D01*
X000700Y008228D02*
X001291Y008228D01*
X001291Y008306D02*
X000688Y008306D01*
X000677Y008385D02*
X001291Y008385D01*
X001291Y008463D02*
X000675Y008463D01*
X000675Y008542D02*
X001291Y008542D01*
X001339Y008621D02*
X000675Y008621D01*
X000675Y008699D02*
X002273Y008699D01*
X002273Y008712D02*
X002273Y008625D01*
X002687Y008625D01*
X002687Y008833D01*
X002687Y008880D01*
X002273Y008880D01*
X002273Y008794D01*
X002282Y008758D01*
X002285Y008753D01*
X002282Y008747D01*
X002273Y008712D01*
X002277Y008778D02*
X000675Y008778D01*
X000675Y008856D02*
X002273Y008856D01*
X002273Y008881D02*
X002687Y008881D01*
X002687Y008880D01*
X002688Y008880D01*
X002688Y008881D01*
X003103Y008881D01*
X003103Y008967D01*
X003093Y009003D01*
X003075Y009035D01*
X003063Y009047D01*
X003063Y009246D01*
X003044Y009264D01*
X003063Y009282D01*
X003063Y009502D01*
X003004Y009561D01*
X002371Y009561D01*
X002313Y009502D01*
X002313Y009282D01*
X002331Y009264D01*
X002313Y009246D01*
X002313Y009047D01*
X002301Y009035D01*
X002282Y009003D01*
X002273Y008967D01*
X002273Y008881D01*
X002273Y008935D02*
X000675Y008935D01*
X000675Y009013D02*
X001270Y009013D01*
X001261Y009028D02*
X001279Y008997D01*
X001306Y008970D01*
X001337Y008952D01*
X001373Y008943D01*
X001666Y008943D01*
X001666Y009318D01*
X001251Y009318D01*
X001251Y009064D01*
X001261Y009028D01*
X001251Y009092D02*
X000675Y009092D01*
X000675Y009170D02*
X001251Y009170D01*
X001251Y009249D02*
X000675Y009249D01*
X000675Y009327D02*
X001666Y009327D01*
X001666Y009318D02*
X001666Y009398D01*
X001251Y009398D01*
X001251Y009652D01*
X001261Y009688D01*
X001279Y009720D01*
X001306Y009746D01*
X001337Y009764D01*
X001373Y009774D01*
X001666Y009774D01*
X001666Y009398D01*
X001746Y009398D01*
X001746Y009774D01*
X002040Y009774D01*
X002075Y009764D01*
X002107Y009746D01*
X002133Y009720D01*
X003140Y009720D01*
X003140Y009642D02*
X002161Y009642D01*
X002161Y009652D02*
X002152Y009688D01*
X002133Y009720D01*
X002161Y009652D02*
X002161Y009398D01*
X001747Y009398D01*
X001747Y009318D01*
X002161Y009318D01*
X002161Y009064D01*
X002152Y009028D01*
X002133Y008997D01*
X002107Y008970D01*
X002075Y008952D01*
X002040Y008943D01*
X001746Y008943D01*
X001746Y009318D01*
X001666Y009318D01*
X001666Y009249D02*
X001746Y009249D01*
X001747Y009327D02*
X002313Y009327D01*
X002315Y009249D02*
X002161Y009249D01*
X002161Y009170D02*
X002313Y009170D01*
X002313Y009092D02*
X002161Y009092D01*
X002143Y009013D02*
X002288Y009013D01*
X002313Y009406D02*
X002161Y009406D01*
X002161Y009484D02*
X002313Y009484D01*
X002161Y009563D02*
X003140Y009563D01*
X003140Y009484D02*
X003063Y009484D01*
X003063Y009406D02*
X003140Y009406D01*
X003140Y009327D02*
X003063Y009327D01*
X003060Y009249D02*
X003140Y009249D01*
X003140Y009170D02*
X003063Y009170D01*
X003063Y009092D02*
X003140Y009092D01*
X003140Y009013D02*
X003087Y009013D01*
X003103Y008935D02*
X003140Y008935D01*
X003140Y008856D02*
X003103Y008856D01*
X003098Y008778D02*
X003140Y008778D01*
X003140Y008699D02*
X003103Y008699D01*
X003103Y008621D02*
X003140Y008621D01*
X003140Y008542D02*
X003103Y008542D01*
X003098Y008463D02*
X003068Y008463D01*
X003280Y008448D02*
X003030Y008198D01*
X002780Y008198D01*
X002730Y008148D01*
X002688Y008113D01*
X002730Y007898D02*
X002688Y007857D01*
X002730Y007898D02*
X002980Y007898D01*
X003830Y008748D01*
X003830Y010848D01*
X003980Y010848D01*
X004013Y010867D01*
X004408Y010898D02*
X006890Y010898D01*
X006890Y010820D02*
X004408Y010820D01*
X004408Y010741D02*
X006890Y010741D01*
X006890Y010663D02*
X004408Y010663D01*
X004408Y010584D02*
X006890Y010584D01*
X006822Y010568D02*
X006890Y010499D01*
X006890Y010506D01*
X006890Y012577D01*
X006810Y012657D01*
X006810Y012839D01*
X006939Y012968D01*
X007122Y012968D01*
X007250Y012839D01*
X007250Y012657D01*
X007170Y012577D01*
X007170Y010963D01*
X007189Y010982D01*
X007180Y011015D01*
X007190Y011034D01*
X007190Y011056D01*
X007218Y011083D01*
X008440Y013284D01*
X008440Y013306D01*
X008468Y013333D01*
X002355Y013333D01*
X002285Y013255D02*
X008424Y013255D01*
X008468Y013333D02*
X008486Y013367D01*
X008507Y013372D01*
X008522Y013388D01*
X008561Y013388D01*
X008598Y013398D01*
X008617Y013388D01*
X009941Y013388D01*
X009957Y013398D01*
X009997Y013388D01*
X010038Y013388D01*
X010052Y013375D01*
X010070Y013370D01*
X010091Y013335D01*
X010120Y013306D01*
X010120Y013287D01*
X011561Y010918D01*
X011622Y010918D01*
X011750Y010789D01*
X011750Y010607D01*
X011622Y010478D01*
X011439Y010478D01*
X011310Y010607D01*
X011310Y010789D01*
X011311Y010789D01*
X009902Y013108D01*
X008663Y013108D01*
X007484Y010987D01*
X007497Y010987D01*
X007503Y010981D01*
X007509Y010987D01*
X007768Y010987D01*
X007780Y010999D01*
X007812Y011017D01*
X007847Y011027D01*
X007961Y011027D01*
X007961Y010652D01*
X007991Y010652D01*
X007991Y011027D01*
X008104Y011027D01*
X008140Y011017D01*
X008172Y010999D01*
X008184Y010987D01*
X008398Y010987D01*
X008410Y010999D01*
X008442Y011017D01*
X008477Y011027D01*
X008591Y011027D01*
X008591Y010652D01*
X008621Y010652D01*
X008621Y011027D01*
X008672Y011027D01*
X008672Y011074D01*
X008672Y011192D01*
X008633Y011192D01*
X008575Y011251D01*
X008575Y012003D01*
X008633Y012061D01*
X008992Y012061D01*
X009024Y012029D01*
X009035Y012047D01*
X009061Y012073D01*
X009093Y012092D01*
X009129Y012101D01*
X009256Y012101D01*
X009256Y011656D01*
X009314Y011656D01*
X009314Y012101D01*
X009441Y012101D01*
X009477Y012092D01*
X009509Y012073D01*
X009535Y012047D01*
X009545Y012029D01*
X009578Y012061D01*
X009936Y012061D01*
X009995Y012003D01*
X009995Y011251D01*
X009936Y011192D01*
X009758Y011192D01*
X009689Y010987D01*
X009702Y010987D01*
X009760Y010928D01*
X009760Y011039D01*
X009889Y011168D01*
X010072Y011168D01*
X010200Y011039D01*
X010200Y010857D01*
X010120Y010777D01*
X010120Y010456D01*
X010120Y010340D01*
X010040Y010259D01*
X010430Y010259D01*
X010488Y010200D01*
X010488Y009898D01*
X010482Y009892D01*
X010488Y009886D01*
X010488Y009583D01*
X010482Y009577D01*
X010488Y009571D01*
X010488Y009268D01*
X010482Y009262D01*
X010488Y009256D01*
X010488Y009067D01*
X010489Y009068D01*
X010672Y009068D01*
X010800Y008939D01*
X010800Y008757D01*
X010672Y008628D01*
X010489Y008628D01*
X010484Y008633D01*
X010482Y008632D01*
X010488Y008626D01*
X010488Y008323D01*
X010482Y008317D01*
X010488Y008311D01*
X010488Y008288D01*
X010672Y008288D01*
X010814Y008430D01*
X010814Y009050D01*
X010873Y009108D01*
X011743Y009108D01*
X011802Y009050D01*
X011802Y008376D01*
X011743Y008318D01*
X011099Y008318D01*
X011015Y008234D01*
X011763Y008234D01*
X011821Y008176D01*
X011821Y007502D01*
X011763Y007444D01*
X011195Y007444D01*
X011200Y007439D01*
X011200Y007257D01*
X011072Y007128D01*
X012893Y007128D01*
X012893Y007207D02*
X011150Y007207D01*
X011200Y007285D02*
X012893Y007285D01*
X012893Y007364D02*
X011200Y007364D01*
X011197Y007442D02*
X012893Y007442D01*
X012893Y007521D02*
X011821Y007521D01*
X011821Y007599D02*
X012893Y007599D01*
X012893Y007678D02*
X011821Y007678D01*
X011821Y007757D02*
X012893Y007757D01*
X012893Y007835D02*
X011821Y007835D01*
X011821Y007914D02*
X012925Y007914D01*
X013004Y007992D02*
X011821Y007992D01*
X011821Y008071D02*
X013042Y008071D01*
X013042Y008149D02*
X011821Y008149D01*
X011769Y008228D02*
X013042Y008228D01*
X013042Y008306D02*
X011087Y008306D01*
X010814Y008463D02*
X010488Y008463D01*
X010488Y008385D02*
X010770Y008385D01*
X010691Y008306D02*
X010488Y008306D01*
X010488Y008542D02*
X010814Y008542D01*
X010814Y008621D02*
X010488Y008621D01*
X010743Y008699D02*
X010814Y008699D01*
X010814Y008778D02*
X010800Y008778D01*
X010800Y008856D02*
X010814Y008856D01*
X010814Y008935D02*
X010800Y008935D01*
X010814Y009013D02*
X010726Y009013D01*
X010856Y009092D02*
X010488Y009092D01*
X010488Y009170D02*
X012030Y009170D01*
X012042Y009163D02*
X012085Y009145D01*
X012131Y009135D01*
X012410Y009135D01*
X012410Y009629D01*
X012490Y009629D01*
X012490Y009709D01*
X012983Y009709D01*
X012983Y009988D01*
X012974Y010034D01*
X012956Y010077D01*
X012930Y010116D01*
X012897Y010150D01*
X012858Y010176D01*
X012815Y010194D01*
X012769Y010203D01*
X012490Y010203D01*
X012490Y009709D01*
X012410Y009709D01*
X012410Y010203D01*
X012131Y010203D01*
X012085Y010194D01*
X012042Y010176D01*
X012002Y010150D01*
X011969Y010116D01*
X011943Y010077D01*
X011925Y010034D01*
X011916Y009988D01*
X011916Y009709D01*
X012410Y009709D01*
X012410Y009629D01*
X011916Y009629D01*
X011916Y009350D01*
X011925Y009304D01*
X011943Y009261D01*
X011969Y009222D01*
X012002Y009189D01*
X012042Y009163D01*
X011951Y009249D02*
X010488Y009249D01*
X010488Y009327D02*
X011921Y009327D01*
X011916Y009406D02*
X010488Y009406D01*
X010488Y009484D02*
X011916Y009484D01*
X011916Y009563D02*
X010488Y009563D01*
X010488Y009642D02*
X012410Y009642D01*
X012410Y009720D02*
X012490Y009720D01*
X012490Y009642D02*
X013042Y009642D01*
X012983Y009629D02*
X012983Y009350D01*
X012974Y009304D01*
X012956Y009261D01*
X012930Y009222D01*
X012897Y009189D01*
X012858Y009163D01*
X012815Y009145D01*
X012769Y009135D01*
X012490Y009135D01*
X012490Y009629D01*
X012983Y009629D01*
X012983Y009563D02*
X013042Y009563D01*
X013042Y009484D02*
X012983Y009484D01*
X012983Y009406D02*
X013042Y009406D01*
X013042Y009327D02*
X012979Y009327D01*
X012948Y009249D02*
X013042Y009249D01*
X013042Y009170D02*
X012870Y009170D01*
X013042Y009092D02*
X011760Y009092D01*
X011802Y009013D02*
X013042Y009013D01*
X013042Y008935D02*
X011802Y008935D01*
X011802Y008856D02*
X013042Y008856D01*
X013042Y008778D02*
X011802Y008778D01*
X011802Y008699D02*
X013042Y008699D01*
X013042Y008621D02*
X011802Y008621D01*
X011802Y008542D02*
X013042Y008542D01*
X013042Y008463D02*
X011802Y008463D01*
X011802Y008385D02*
X013042Y008385D01*
X013518Y008385D02*
X014080Y008385D01*
X014086Y008463D02*
X013518Y008463D01*
X013518Y008542D02*
X014091Y008542D01*
X014097Y008621D02*
X013518Y008621D01*
X013518Y008699D02*
X014103Y008699D01*
X014109Y008778D02*
X013518Y008778D01*
X013518Y008856D02*
X014114Y008856D01*
X014114Y008935D02*
X013518Y008935D01*
X013518Y009013D02*
X014108Y009013D01*
X014102Y009092D02*
X013518Y009092D01*
X013518Y009170D02*
X014096Y009170D01*
X014091Y009249D02*
X013518Y009249D01*
X013518Y009327D02*
X014085Y009327D01*
X014079Y009406D02*
X013518Y009406D01*
X013518Y009484D02*
X014073Y009484D01*
X014068Y009563D02*
X013518Y009563D01*
X013518Y009642D02*
X014062Y009642D01*
X014056Y009720D02*
X013518Y009720D01*
X013518Y009799D02*
X014050Y009799D01*
X014044Y009877D02*
X013518Y009877D01*
X013518Y009956D02*
X014026Y009956D01*
X014009Y010034D02*
X013518Y010034D01*
X013518Y010113D02*
X013991Y010113D01*
X013974Y010191D02*
X013518Y010191D01*
X013518Y010270D02*
X013956Y010270D01*
X013939Y010348D02*
X013518Y010348D01*
X013518Y010427D02*
X013921Y010427D01*
X013904Y010506D02*
X013518Y010506D01*
X013518Y010584D02*
X013886Y010584D01*
X013869Y010663D02*
X013518Y010663D01*
X013518Y010741D02*
X013851Y010741D01*
X013834Y010820D02*
X013518Y010820D01*
X013518Y010898D02*
X013805Y010898D01*
X013775Y010977D02*
X013518Y010977D01*
X013518Y011055D02*
X013745Y011055D01*
X013715Y011134D02*
X013518Y011134D01*
X013502Y011212D02*
X013685Y011212D01*
X013655Y011291D02*
X013424Y011291D01*
X013345Y011370D02*
X013625Y011370D01*
X013595Y011448D02*
X013267Y011448D01*
X013188Y011527D02*
X013565Y011527D01*
X013535Y011605D02*
X013110Y011605D01*
X013031Y011684D02*
X013505Y011684D01*
X013472Y011762D02*
X011047Y011762D01*
X011095Y011684D02*
X012830Y011684D01*
X012751Y011605D02*
X011143Y011605D01*
X011191Y011527D02*
X012692Y011527D01*
X012692Y011448D02*
X011238Y011448D01*
X011286Y011370D02*
X012692Y011370D01*
X012751Y011291D02*
X011334Y011291D01*
X011381Y011212D02*
X012829Y011212D01*
X012908Y011134D02*
X011429Y011134D01*
X011477Y011055D02*
X012986Y011055D01*
X013042Y010977D02*
X011525Y010977D01*
X011641Y010898D02*
X013042Y010898D01*
X013042Y010820D02*
X011720Y010820D01*
X011750Y010741D02*
X013042Y010741D01*
X013042Y010663D02*
X011750Y010663D01*
X011728Y010584D02*
X013042Y010584D01*
X013042Y010506D02*
X011649Y010506D01*
X011530Y010698D02*
X009980Y013248D01*
X008580Y013248D01*
X007330Y010998D01*
X007330Y010648D01*
X007346Y010637D01*
X007030Y010448D02*
X007380Y010098D01*
X008330Y010098D01*
X008355Y010123D01*
X008330Y010148D01*
X008330Y010598D01*
X008291Y010637D01*
X008591Y010621D02*
X008591Y010247D01*
X008477Y010247D01*
X008470Y010249D01*
X008470Y010238D01*
X008572Y010238D01*
X008622Y010238D01*
X008631Y010247D01*
X008621Y010247D01*
X008621Y010621D01*
X008591Y010621D01*
X008591Y010584D02*
X008621Y010584D01*
X008621Y010506D02*
X008591Y010506D01*
X008591Y010427D02*
X008621Y010427D01*
X008621Y010348D02*
X008591Y010348D01*
X008591Y010270D02*
X008621Y010270D01*
X008630Y010098D02*
X008380Y010098D01*
X008355Y010123D01*
X008388Y009958D02*
X008272Y009958D01*
X007322Y009958D01*
X007240Y010040D01*
X007108Y010172D01*
X007108Y009898D01*
X007102Y009892D01*
X007108Y009886D01*
X007108Y009583D01*
X007102Y009577D01*
X007108Y009571D01*
X007108Y009268D01*
X007102Y009262D01*
X007108Y009256D01*
X007108Y008953D01*
X007102Y008947D01*
X007108Y008941D01*
X007108Y008638D01*
X007102Y008632D01*
X007108Y008626D01*
X007108Y008323D01*
X007102Y008317D01*
X007108Y008311D01*
X007108Y008008D01*
X007102Y008002D01*
X007108Y007996D01*
X007108Y007693D01*
X007050Y007634D01*
X006467Y007634D01*
X006408Y007693D01*
X006408Y007996D01*
X006414Y008002D01*
X006408Y008008D01*
X006408Y008311D01*
X006414Y008317D01*
X006408Y008323D01*
X006408Y008626D01*
X006414Y008632D01*
X006408Y008638D01*
X006408Y008941D01*
X006414Y008947D01*
X006408Y008953D01*
X006408Y008996D01*
X006370Y008996D01*
X006370Y007049D01*
X006786Y007049D01*
X006845Y006991D01*
X006845Y006121D01*
X006786Y006062D01*
X006590Y006062D01*
X006590Y005696D01*
X008243Y005696D01*
X008243Y005794D01*
X008302Y005853D01*
X008818Y005853D01*
X008876Y005794D01*
X008876Y005317D01*
X008818Y005259D01*
X008302Y005259D01*
X008243Y005317D01*
X008243Y005416D01*
X006508Y005416D01*
X006392Y005416D01*
X006310Y005498D01*
X006310Y006062D01*
X006113Y006062D01*
X006054Y006121D01*
X006054Y006991D01*
X006090Y007027D01*
X006090Y008996D01*
X005935Y008996D01*
X005941Y008990D01*
X005941Y008771D01*
X005923Y008753D01*
X005941Y008735D01*
X005941Y008515D01*
X005923Y008497D01*
X005941Y008479D01*
X005941Y008259D01*
X005923Y008241D01*
X005941Y008223D01*
X005941Y008023D01*
X005953Y008011D01*
X005972Y007979D01*
X005981Y007944D01*
X005981Y007857D01*
X005567Y007857D01*
X005567Y007857D01*
X005981Y007857D01*
X005981Y007770D01*
X005972Y007734D01*
X005953Y007702D01*
X005941Y007690D01*
X005941Y007491D01*
X005923Y007473D01*
X005941Y007455D01*
X005941Y007235D01*
X005923Y007217D01*
X005941Y007199D01*
X005941Y006979D01*
X005923Y006961D01*
X005941Y006943D01*
X005941Y006723D01*
X005923Y006705D01*
X005941Y006687D01*
X005941Y006467D01*
X005923Y006449D01*
X005941Y006431D01*
X005941Y006212D01*
X005923Y006194D01*
X005941Y006176D01*
X005941Y005956D01*
X005883Y005897D01*
X005250Y005897D01*
X005191Y005956D01*
X005191Y006176D01*
X005209Y006194D01*
X005191Y006212D01*
X005191Y006431D01*
X005209Y006449D01*
X005191Y006467D01*
X005191Y006687D01*
X005209Y006705D01*
X005191Y006723D01*
X005191Y006943D01*
X005209Y006961D01*
X005191Y006979D01*
X005191Y007199D01*
X005209Y007217D01*
X005191Y007235D01*
X005191Y007455D01*
X005209Y007473D01*
X005191Y007491D01*
X005191Y007690D01*
X005179Y007702D01*
X005161Y007734D01*
X005151Y007770D01*
X005151Y007857D01*
X005566Y007857D01*
X005566Y007857D01*
X005151Y007857D01*
X005151Y007944D01*
X005161Y007979D01*
X005179Y008011D01*
X005191Y008023D01*
X005191Y008223D01*
X005197Y008229D01*
X005091Y008229D01*
X004880Y008439D01*
X004798Y008521D01*
X004798Y009533D01*
X004798Y009649D01*
X004885Y009736D01*
X004967Y009818D01*
X006408Y009818D01*
X006408Y009886D01*
X006414Y009892D01*
X006408Y009898D01*
X006408Y010200D01*
X006467Y010259D01*
X006510Y010259D01*
X006510Y010439D01*
X006639Y010568D01*
X006822Y010568D01*
X006884Y010506D02*
X006890Y010506D01*
X007030Y010448D02*
X007030Y012748D01*
X007250Y012783D02*
X008162Y012783D01*
X008119Y012705D02*
X007250Y012705D01*
X007220Y012626D02*
X008075Y012626D01*
X008031Y012548D02*
X007170Y012548D01*
X007170Y012469D02*
X007988Y012469D01*
X007944Y012391D02*
X007170Y012391D01*
X007170Y012312D02*
X007900Y012312D01*
X007857Y012234D02*
X007170Y012234D01*
X007170Y012155D02*
X007813Y012155D01*
X007770Y012076D02*
X007170Y012076D01*
X007170Y011998D02*
X007726Y011998D01*
X007682Y011919D02*
X007170Y011919D01*
X007170Y011841D02*
X007639Y011841D01*
X007595Y011762D02*
X007170Y011762D01*
X007170Y011684D02*
X007551Y011684D01*
X007508Y011605D02*
X007170Y011605D01*
X007170Y011527D02*
X007464Y011527D01*
X007420Y011448D02*
X007170Y011448D01*
X007170Y011370D02*
X007377Y011370D01*
X007333Y011291D02*
X007170Y011291D01*
X007170Y011212D02*
X007290Y011212D01*
X007246Y011134D02*
X007170Y011134D01*
X007170Y011055D02*
X007190Y011055D01*
X007185Y010977D02*
X007170Y010977D01*
X006890Y010977D02*
X004408Y010977D01*
X004408Y011055D02*
X006890Y011055D01*
X006890Y011134D02*
X004408Y011134D01*
X004408Y011212D02*
X006890Y011212D01*
X006890Y011291D02*
X004408Y011291D01*
X004408Y010506D02*
X006577Y010506D01*
X006510Y010427D02*
X004403Y010427D01*
X003970Y010348D02*
X006510Y010348D01*
X006510Y010270D02*
X003970Y010270D01*
X003970Y010191D02*
X006408Y010191D01*
X006408Y010113D02*
X003970Y010113D01*
X003970Y010034D02*
X006408Y010034D01*
X006408Y009956D02*
X003970Y009956D01*
X003970Y009877D02*
X006408Y009877D01*
X006702Y009678D02*
X006758Y009734D01*
X006702Y009678D02*
X005025Y009678D01*
X004938Y009591D01*
X004938Y008579D01*
X005149Y008369D01*
X005566Y008369D01*
X005941Y008385D02*
X006090Y008385D01*
X006090Y008463D02*
X005941Y008463D01*
X005941Y008542D02*
X006090Y008542D01*
X006090Y008621D02*
X005941Y008621D01*
X005941Y008699D02*
X006090Y008699D01*
X006090Y008778D02*
X005941Y008778D01*
X005941Y008856D02*
X006090Y008856D01*
X006090Y008935D02*
X005941Y008935D01*
X006230Y009136D02*
X005566Y009136D01*
X005566Y009392D02*
X006731Y009392D01*
X006758Y009419D01*
X006726Y009136D02*
X006758Y009104D01*
X006726Y009136D02*
X006230Y009136D01*
X006230Y006598D01*
X006430Y006598D01*
X006450Y006556D01*
X006450Y005556D01*
X008560Y005556D01*
X008876Y005557D02*
X008913Y005557D01*
X008913Y005479D02*
X008876Y005479D01*
X008876Y005400D02*
X008913Y005400D01*
X008913Y005322D02*
X008876Y005322D01*
X008913Y005317D02*
X008971Y005259D01*
X009487Y005259D01*
X009546Y005317D01*
X009546Y005794D01*
X009487Y005853D01*
X009370Y005853D01*
X009370Y006907D01*
X009387Y006907D01*
X009393Y006913D01*
X009399Y006907D01*
X009702Y006907D01*
X009761Y006965D01*
X009761Y007058D01*
X009893Y007058D01*
X009893Y006821D01*
X009952Y006763D01*
X010822Y006763D01*
X010880Y006821D01*
X010880Y007058D01*
X010888Y007058D01*
X010958Y007128D01*
X011072Y007128D01*
X010880Y007050D02*
X012970Y007050D01*
X013042Y006971D02*
X010880Y006971D01*
X010880Y006893D02*
X013042Y006893D01*
X013042Y006814D02*
X012699Y006814D01*
X012739Y006735D02*
X013042Y006735D01*
X013042Y006657D02*
X012739Y006657D01*
X012739Y006578D02*
X012974Y006578D01*
X012896Y006500D02*
X012739Y006500D01*
X012739Y006421D02*
X012817Y006421D01*
X012582Y006186D02*
X011439Y006186D01*
X011439Y006264D02*
X012145Y006264D01*
X012145Y006343D02*
X011439Y006343D01*
X011380Y006498D02*
X012430Y006498D01*
X012442Y006516D01*
X012145Y006657D02*
X009370Y006657D01*
X009370Y006735D02*
X012145Y006735D01*
X012185Y006814D02*
X010873Y006814D01*
X010809Y006578D02*
X010965Y006578D01*
X010925Y006500D02*
X010849Y006500D01*
X010849Y006421D02*
X010925Y006421D01*
X010925Y006343D02*
X010849Y006343D01*
X010849Y006264D02*
X010925Y006264D01*
X010925Y006186D02*
X010849Y006186D01*
X010816Y006107D02*
X010958Y006107D01*
X011182Y006339D02*
X011230Y006348D01*
X011380Y006498D01*
X011406Y006107D02*
X012147Y006107D01*
X012145Y006029D02*
X010770Y006029D01*
X010770Y005950D02*
X012145Y005950D01*
X012145Y005871D02*
X012032Y005871D01*
X012032Y005793D02*
X012089Y005793D01*
X011775Y005479D02*
X011049Y005479D01*
X011049Y005400D02*
X011696Y005400D01*
X011618Y005322D02*
X011049Y005322D01*
X011049Y005243D02*
X011528Y005243D01*
X011382Y005165D02*
X011013Y005165D01*
X011009Y005086D02*
X011360Y005086D01*
X011342Y005008D02*
X011009Y005008D01*
X011009Y004929D02*
X011342Y004929D01*
X011342Y004850D02*
X011009Y004850D01*
X010946Y004615D02*
X010866Y004615D01*
X010866Y004536D02*
X010946Y004536D01*
X010946Y004458D02*
X010866Y004458D01*
X010866Y004379D02*
X010946Y004379D01*
X010866Y004301D02*
X010005Y004301D01*
X010031Y004222D02*
X010549Y004222D01*
X010549Y004284D02*
X010549Y004109D01*
X010559Y004073D01*
X010577Y004041D01*
X010603Y004015D01*
X010635Y003997D01*
X010671Y003987D01*
X010866Y003987D01*
X010866Y004284D01*
X010549Y004284D01*
X010549Y004379D02*
X009958Y004379D01*
X009991Y004458D02*
X010549Y004458D01*
X010549Y004536D02*
X009991Y004536D01*
X009991Y004615D02*
X010585Y004615D01*
X010336Y004850D02*
X010081Y004850D01*
X010002Y004772D02*
X011342Y004772D01*
X011342Y004693D02*
X009991Y004693D01*
X009730Y004698D02*
X010030Y004998D01*
X010630Y004998D01*
X010673Y004993D01*
X010332Y005165D02*
X004559Y005165D01*
X004637Y005086D02*
X009921Y005086D01*
X009842Y005008D02*
X004716Y005008D01*
X004866Y004857D02*
X007537Y004857D01*
X007653Y004857D01*
X007735Y004775D01*
X007735Y004659D01*
X007730Y004654D01*
X007730Y004312D01*
X007740Y004312D01*
X007740Y004590D01*
X007740Y004706D01*
X007822Y004788D01*
X009398Y004788D01*
X009398Y004929D01*
X009398Y004850D02*
X007660Y004850D01*
X007735Y004772D02*
X007806Y004772D01*
X007740Y004693D02*
X007735Y004693D01*
X007730Y004615D02*
X007740Y004615D01*
X007730Y004536D02*
X007740Y004536D01*
X007730Y004458D02*
X007740Y004458D01*
X007730Y004379D02*
X007740Y004379D01*
X008020Y004379D02*
X009431Y004379D01*
X009444Y004348D02*
X009412Y004330D01*
X009386Y004304D01*
X009367Y004272D01*
X009358Y004236D01*
X009358Y004041D01*
X009654Y004041D01*
X009654Y003961D01*
X009358Y003961D01*
X009358Y003766D01*
X009367Y003731D01*
X009386Y003699D01*
X009412Y003673D01*
X009444Y003654D01*
X009479Y003645D01*
X009655Y003645D01*
X009655Y003961D01*
X009735Y003961D01*
X009735Y003645D01*
X009910Y003645D01*
X009946Y003654D01*
X009977Y003673D01*
X010027Y003751D02*
X011727Y003751D01*
X011808Y003829D02*
X010031Y003829D01*
X010031Y003908D02*
X011890Y003908D01*
X011971Y003986D02*
X009735Y003986D01*
X009735Y003908D02*
X009655Y003908D01*
X009654Y003986D02*
X009068Y003986D01*
X009068Y003908D02*
X009358Y003908D01*
X009358Y003829D02*
X009068Y003829D01*
X009068Y003751D02*
X009362Y003751D01*
X009413Y003672D02*
X009068Y003672D01*
X009353Y003358D02*
X011190Y003358D01*
X011080Y003280D02*
X009402Y003280D01*
X009402Y003201D02*
X010970Y003201D01*
X010848Y003122D02*
X009402Y003122D01*
X009402Y003044D02*
X010695Y003044D01*
X010542Y002965D02*
X009402Y002965D01*
X009402Y002887D02*
X010389Y002887D01*
X010237Y002808D02*
X009402Y002808D01*
X009402Y002730D02*
X010084Y002730D01*
X009887Y002651D02*
X009402Y002651D01*
X009402Y002573D02*
X009656Y002573D01*
X009426Y002494D02*
X009402Y002494D01*
X009196Y002416D02*
X005616Y002416D01*
X005916Y002337D02*
X008861Y002337D01*
X008436Y002259D02*
X006289Y002259D01*
X006446Y002419D02*
X007277Y002419D01*
X007334Y002476D01*
X007391Y002419D01*
X008222Y002419D01*
X008280Y002477D01*
X008280Y003308D01*
X008222Y003367D01*
X007391Y003367D01*
X007334Y003310D01*
X007277Y003367D01*
X006446Y003367D01*
X006388Y003308D01*
X006388Y002477D01*
X006446Y002419D01*
X006388Y002494D02*
X006214Y002494D01*
X006214Y002573D02*
X006388Y002573D01*
X006388Y002651D02*
X006214Y002651D01*
X006214Y002730D02*
X006388Y002730D01*
X006388Y002808D02*
X006214Y002808D01*
X006214Y002887D02*
X006388Y002887D01*
X006388Y002965D02*
X006214Y002965D01*
X006214Y003044D02*
X006388Y003044D01*
X006388Y003122D02*
X006214Y003122D01*
X006214Y003201D02*
X006388Y003201D01*
X006388Y003280D02*
X006214Y003280D01*
X006164Y003358D02*
X006437Y003358D01*
X006568Y003482D02*
X006627Y003540D01*
X006627Y003602D01*
X006631Y003594D01*
X006657Y003568D01*
X006689Y003550D01*
X006725Y003540D01*
X006822Y003540D01*
X006822Y003945D01*
X006822Y003945D01*
X006822Y003540D01*
X006919Y003540D01*
X006955Y003550D01*
X006987Y003568D01*
X006999Y003580D01*
X007198Y003580D01*
X007206Y003588D01*
X007214Y003580D01*
X007454Y003580D01*
X007462Y003588D01*
X007470Y003580D01*
X007710Y003580D01*
X007718Y003588D01*
X007726Y003580D01*
X007966Y003580D01*
X008025Y003639D01*
X008025Y004253D01*
X008020Y004257D01*
X008020Y004508D01*
X009398Y004508D01*
X009398Y004413D01*
X009456Y004354D01*
X009465Y004354D01*
X009444Y004348D01*
X009384Y004301D02*
X009020Y004301D01*
X009068Y004222D02*
X009358Y004222D01*
X009358Y004144D02*
X009068Y004144D01*
X009068Y004065D02*
X009358Y004065D01*
X009655Y003829D02*
X009735Y003829D01*
X009735Y003751D02*
X009655Y003751D01*
X009655Y003672D02*
X009735Y003672D01*
X010031Y004065D02*
X010563Y004065D01*
X010549Y004144D02*
X010031Y004144D01*
X009680Y004648D02*
X009695Y004671D01*
X009730Y004698D01*
X009680Y004648D02*
X007880Y004648D01*
X007880Y003948D01*
X007846Y003946D01*
X008025Y003908D02*
X008041Y003908D01*
X008041Y003986D02*
X008025Y003986D01*
X008025Y004065D02*
X008041Y004065D01*
X008041Y004144D02*
X008025Y004144D01*
X008025Y004222D02*
X008041Y004222D01*
X008020Y004301D02*
X008089Y004301D01*
X008020Y004458D02*
X009398Y004458D01*
X009546Y005322D02*
X010296Y005322D01*
X010296Y005400D02*
X009546Y005400D01*
X009546Y005479D02*
X010296Y005479D01*
X010322Y005557D02*
X009546Y005557D01*
X009546Y005636D02*
X010336Y005636D01*
X010336Y005714D02*
X009546Y005714D01*
X009546Y005793D02*
X010336Y005793D01*
X010336Y005871D02*
X009370Y005871D01*
X009370Y005950D02*
X010490Y005950D01*
X010490Y006029D02*
X009370Y006029D01*
X009370Y006107D02*
X010367Y006107D01*
X010334Y006186D02*
X009370Y006186D01*
X009370Y006264D02*
X010334Y006264D01*
X010334Y006343D02*
X009370Y006343D01*
X009370Y006421D02*
X010334Y006421D01*
X010334Y006500D02*
X009370Y006500D01*
X009370Y006578D02*
X010374Y006578D01*
X010591Y006339D02*
X010630Y006298D01*
X010630Y005748D01*
X010673Y005741D01*
X011009Y005714D02*
X011360Y005714D01*
X011360Y005636D02*
X011009Y005636D01*
X011023Y005557D02*
X011394Y005557D01*
X011360Y005793D02*
X011009Y005793D01*
X011009Y005871D02*
X011360Y005871D01*
X012134Y005165D02*
X012990Y005165D01*
X013037Y005243D02*
X012212Y005243D01*
X012291Y005322D02*
X013081Y005322D01*
X013125Y005400D02*
X012369Y005400D01*
X012448Y005479D02*
X013169Y005479D01*
X013213Y005557D02*
X012707Y005557D01*
X012739Y005636D02*
X013257Y005636D01*
X013301Y005714D02*
X012784Y005714D01*
X012862Y005793D02*
X013345Y005793D01*
X013389Y005871D02*
X012941Y005871D01*
X013019Y005950D02*
X013434Y005950D01*
X013478Y006029D02*
X013098Y006029D01*
X013176Y006107D02*
X013509Y006107D01*
X013539Y006186D02*
X013255Y006186D01*
X013333Y006264D02*
X013569Y006264D01*
X013599Y006343D02*
X013412Y006343D01*
X013379Y006310D02*
X013379Y006310D01*
X013490Y006421D02*
X013629Y006421D01*
X013659Y006500D02*
X013518Y006500D01*
X013518Y006578D02*
X013689Y006578D01*
X013719Y006657D02*
X013518Y006657D01*
X013518Y006735D02*
X013749Y006735D01*
X013779Y006814D02*
X013518Y006814D01*
X013518Y006893D02*
X013809Y006893D01*
X013836Y006971D02*
X013518Y006971D01*
X013804Y007050D02*
X013853Y007050D01*
X013880Y007207D02*
X013888Y007207D01*
X013880Y007285D02*
X013906Y007285D01*
X013923Y007364D02*
X013880Y007364D01*
X013880Y007442D02*
X013941Y007442D01*
X013958Y007521D02*
X013880Y007521D01*
X013880Y007599D02*
X013976Y007599D01*
X013993Y007678D02*
X013880Y007678D01*
X013880Y007757D02*
X014011Y007757D01*
X014028Y007835D02*
X013880Y007835D01*
X013848Y007914D02*
X014045Y007914D01*
X014045Y007910D02*
X014045Y007910D01*
X014051Y007992D02*
X013769Y007992D01*
X013518Y008071D02*
X014057Y008071D01*
X014063Y008149D02*
X013518Y008149D01*
X013518Y008228D02*
X014068Y008228D01*
X014074Y008306D02*
X013518Y008306D01*
X012490Y009170D02*
X012410Y009170D01*
X012410Y009249D02*
X012490Y009249D01*
X012490Y009327D02*
X012410Y009327D01*
X012410Y009406D02*
X012490Y009406D01*
X012490Y009484D02*
X012410Y009484D01*
X012410Y009563D02*
X012490Y009563D01*
X012490Y009799D02*
X012410Y009799D01*
X012410Y009877D02*
X012490Y009877D01*
X012490Y009956D02*
X012410Y009956D01*
X012410Y010034D02*
X012490Y010034D01*
X012490Y010113D02*
X012410Y010113D01*
X012410Y010191D02*
X012490Y010191D01*
X012820Y010191D02*
X013042Y010191D01*
X013042Y010113D02*
X012933Y010113D01*
X012974Y010034D02*
X013042Y010034D01*
X013042Y009956D02*
X012983Y009956D01*
X012983Y009877D02*
X013042Y009877D01*
X013042Y009799D02*
X012983Y009799D01*
X012983Y009720D02*
X013042Y009720D01*
X013042Y010270D02*
X010050Y010270D01*
X010120Y010348D02*
X013042Y010348D01*
X013042Y010427D02*
X010120Y010427D01*
X010120Y010506D02*
X011412Y010506D01*
X011333Y010584D02*
X010120Y010584D01*
X010120Y010663D02*
X011310Y010663D01*
X011310Y010741D02*
X010120Y010741D01*
X010163Y010820D02*
X011293Y010820D01*
X011245Y010898D02*
X010200Y010898D01*
X010200Y010977D02*
X011197Y010977D01*
X011149Y011055D02*
X010184Y011055D01*
X010106Y011134D02*
X011102Y011134D01*
X011054Y011212D02*
X009957Y011212D01*
X009995Y011291D02*
X011006Y011291D01*
X010958Y011370D02*
X009995Y011370D01*
X009995Y011448D02*
X010911Y011448D01*
X010863Y011527D02*
X009995Y011527D01*
X009995Y011605D02*
X010815Y011605D01*
X010767Y011684D02*
X009995Y011684D01*
X009995Y011762D02*
X010720Y011762D01*
X010672Y011841D02*
X009995Y011841D01*
X009995Y011919D02*
X010624Y011919D01*
X010576Y011998D02*
X009995Y011998D01*
X009757Y011627D02*
X009549Y011009D01*
X009551Y010637D01*
X009236Y010637D02*
X009233Y010637D01*
X009233Y011016D01*
X008812Y011016D01*
X008812Y011627D01*
X008575Y011605D02*
X007828Y011605D01*
X007784Y011527D02*
X008575Y011527D01*
X008575Y011448D02*
X007741Y011448D01*
X007697Y011370D02*
X008575Y011370D01*
X008575Y011291D02*
X007653Y011291D01*
X007610Y011212D02*
X008613Y011212D01*
X008672Y011134D02*
X007566Y011134D01*
X007523Y011055D02*
X008672Y011055D01*
X008621Y010977D02*
X008591Y010977D01*
X008591Y010898D02*
X008621Y010898D01*
X008621Y010820D02*
X008591Y010820D01*
X008591Y010741D02*
X008621Y010741D01*
X008621Y010663D02*
X008591Y010663D01*
X008921Y010637D02*
X008930Y010598D01*
X008930Y010348D01*
X008680Y010098D01*
X008630Y010098D01*
X008630Y008248D01*
X009230Y007648D01*
X009230Y007298D01*
X009236Y007257D01*
X009230Y007248D01*
X009230Y005598D01*
X009229Y005556D01*
X008913Y005636D02*
X008876Y005636D01*
X008876Y005714D02*
X008913Y005714D01*
X008913Y005793D02*
X008876Y005793D01*
X008913Y005794D02*
X008913Y005317D01*
X008913Y005794D02*
X008971Y005853D01*
X009090Y005853D01*
X009090Y006907D01*
X009084Y006907D01*
X009078Y006913D01*
X009072Y006907D01*
X008769Y006907D01*
X008763Y006913D01*
X008757Y006907D01*
X008720Y006907D01*
X008720Y006678D01*
X008869Y006678D01*
X008927Y006620D01*
X008927Y006143D01*
X008869Y006084D01*
X008353Y006084D01*
X008294Y006143D01*
X008294Y006152D01*
X008288Y006130D01*
X008270Y006099D01*
X008244Y006072D01*
X008212Y006054D01*
X008176Y006044D01*
X007981Y006044D01*
X007981Y006341D01*
X007902Y006341D01*
X007902Y006044D01*
X007706Y006044D01*
X007671Y006054D01*
X007639Y006072D01*
X007613Y006099D01*
X007594Y006130D01*
X007585Y006166D01*
X007585Y006341D01*
X007901Y006341D01*
X007901Y006421D01*
X007585Y006421D01*
X007585Y006597D01*
X007594Y006632D01*
X007613Y006664D01*
X007639Y006690D01*
X007671Y006709D01*
X007706Y006718D01*
X007902Y006718D01*
X007902Y006421D01*
X007981Y006421D01*
X007981Y006718D01*
X008176Y006718D01*
X008212Y006709D01*
X008244Y006690D01*
X008270Y006664D01*
X008288Y006632D01*
X008294Y006611D01*
X008294Y006620D01*
X008353Y006678D01*
X008440Y006678D01*
X008440Y006872D01*
X008419Y006867D01*
X008306Y006867D01*
X008306Y007241D01*
X008276Y007241D01*
X008276Y006867D01*
X008162Y006867D01*
X008127Y006876D01*
X008095Y006895D01*
X008083Y006907D01*
X007824Y006907D01*
X007818Y006913D01*
X007812Y006907D01*
X007509Y006907D01*
X007503Y006913D01*
X007497Y006907D01*
X007194Y006907D01*
X007136Y006965D01*
X007136Y007548D01*
X007194Y007607D01*
X007497Y007607D01*
X007503Y007601D01*
X007509Y007607D01*
X007812Y007607D01*
X007818Y007601D01*
X007824Y007607D01*
X008083Y007607D01*
X008095Y007619D01*
X008127Y007637D01*
X008162Y007647D01*
X008276Y007647D01*
X008276Y007272D01*
X008306Y007272D01*
X008306Y007647D01*
X008419Y007647D01*
X008455Y007637D01*
X008487Y007619D01*
X008499Y007607D01*
X008757Y007607D01*
X008763Y007601D01*
X008769Y007607D01*
X009072Y007607D01*
X009078Y007601D01*
X009079Y007601D01*
X008490Y008190D01*
X008490Y008306D01*
X008490Y009958D01*
X008388Y009958D01*
X008490Y009956D02*
X007108Y009956D01*
X007108Y010034D02*
X007246Y010034D01*
X007167Y010113D02*
X007108Y010113D01*
X007108Y009877D02*
X008490Y009877D01*
X008490Y009799D02*
X007108Y009799D01*
X007108Y009720D02*
X008490Y009720D01*
X008490Y009642D02*
X007108Y009642D01*
X007108Y009563D02*
X008490Y009563D01*
X008490Y009484D02*
X007108Y009484D01*
X007108Y009406D02*
X008490Y009406D01*
X008490Y009327D02*
X007108Y009327D01*
X007108Y009249D02*
X008490Y009249D01*
X008490Y009170D02*
X007108Y009170D01*
X007108Y009092D02*
X008490Y009092D01*
X008490Y009013D02*
X007108Y009013D01*
X007108Y008935D02*
X008490Y008935D01*
X008490Y008856D02*
X007108Y008856D01*
X007108Y008778D02*
X008490Y008778D01*
X008490Y008699D02*
X007108Y008699D01*
X007108Y008621D02*
X008490Y008621D01*
X008490Y008542D02*
X007108Y008542D01*
X007108Y008463D02*
X008490Y008463D01*
X008490Y008385D02*
X007108Y008385D01*
X007108Y008306D02*
X008490Y008306D01*
X008490Y008228D02*
X007108Y008228D01*
X007108Y008149D02*
X008531Y008149D01*
X008610Y008071D02*
X007108Y008071D01*
X007108Y007992D02*
X008688Y007992D01*
X008767Y007914D02*
X007108Y007914D01*
X007108Y007835D02*
X008845Y007835D01*
X008924Y007757D02*
X007108Y007757D01*
X007093Y007678D02*
X009002Y007678D01*
X008606Y007257D02*
X008580Y007248D01*
X008580Y006398D01*
X008611Y006381D01*
X008891Y006107D02*
X009090Y006107D01*
X009090Y006029D02*
X006590Y006029D01*
X006590Y005950D02*
X009090Y005950D01*
X009090Y005871D02*
X006590Y005871D01*
X006590Y005793D02*
X008243Y005793D01*
X008243Y005714D02*
X006590Y005714D01*
X006329Y005479D02*
X004244Y005479D01*
X004166Y005557D02*
X006310Y005557D01*
X006310Y005636D02*
X004087Y005636D01*
X004009Y005714D02*
X006310Y005714D01*
X006310Y005793D02*
X003930Y005793D01*
X003852Y005871D02*
X006310Y005871D01*
X006310Y005950D02*
X005936Y005950D01*
X005941Y006029D02*
X006310Y006029D01*
X006068Y006107D02*
X005941Y006107D01*
X005931Y006186D02*
X006054Y006186D01*
X006054Y006264D02*
X005941Y006264D01*
X005941Y006343D02*
X006054Y006343D01*
X006054Y006421D02*
X005941Y006421D01*
X005941Y006500D02*
X006054Y006500D01*
X006054Y006578D02*
X005941Y006578D01*
X005941Y006657D02*
X006054Y006657D01*
X006054Y006735D02*
X005941Y006735D01*
X005941Y006814D02*
X006054Y006814D01*
X006054Y006893D02*
X005941Y006893D01*
X005933Y006971D02*
X006054Y006971D01*
X006090Y007050D02*
X005941Y007050D01*
X005941Y007128D02*
X006090Y007128D01*
X006090Y007207D02*
X005934Y007207D01*
X005941Y007285D02*
X006090Y007285D01*
X006090Y007364D02*
X005941Y007364D01*
X005941Y007442D02*
X006090Y007442D01*
X006090Y007521D02*
X005941Y007521D01*
X005941Y007599D02*
X006090Y007599D01*
X006090Y007678D02*
X005941Y007678D01*
X005978Y007757D02*
X006090Y007757D01*
X006090Y007835D02*
X005981Y007835D01*
X005981Y007914D02*
X006090Y007914D01*
X006090Y007992D02*
X005964Y007992D01*
X005941Y008071D02*
X006090Y008071D01*
X006090Y008149D02*
X005941Y008149D01*
X005936Y008228D02*
X006090Y008228D01*
X006090Y008306D02*
X005941Y008306D01*
X006370Y008306D02*
X006408Y008306D01*
X006408Y008228D02*
X006370Y008228D01*
X006370Y008149D02*
X006408Y008149D01*
X006408Y008071D02*
X006370Y008071D01*
X006370Y007992D02*
X006408Y007992D01*
X006408Y007914D02*
X006370Y007914D01*
X006370Y007835D02*
X006408Y007835D01*
X006408Y007757D02*
X006370Y007757D01*
X006370Y007678D02*
X006423Y007678D01*
X006370Y007599D02*
X007187Y007599D01*
X007136Y007521D02*
X006370Y007521D01*
X006370Y007442D02*
X007136Y007442D01*
X007136Y007364D02*
X006370Y007364D01*
X006370Y007285D02*
X007136Y007285D01*
X007136Y007207D02*
X006370Y007207D01*
X006370Y007128D02*
X007136Y007128D01*
X007136Y007050D02*
X006370Y007050D01*
X006845Y006971D02*
X007136Y006971D01*
X006845Y006893D02*
X008098Y006893D01*
X008276Y006893D02*
X008306Y006893D01*
X008306Y006971D02*
X008276Y006971D01*
X008276Y007050D02*
X008306Y007050D01*
X008306Y007128D02*
X008276Y007128D01*
X008276Y007207D02*
X008306Y007207D01*
X008306Y007285D02*
X008276Y007285D01*
X008276Y007364D02*
X008306Y007364D01*
X008306Y007442D02*
X008276Y007442D01*
X008276Y007521D02*
X008306Y007521D01*
X008306Y007599D02*
X008276Y007599D01*
X008440Y006814D02*
X006845Y006814D01*
X006845Y006735D02*
X008440Y006735D01*
X008332Y006657D02*
X008274Y006657D01*
X007981Y006657D02*
X007902Y006657D01*
X007902Y006578D02*
X007981Y006578D01*
X007981Y006500D02*
X007902Y006500D01*
X007901Y006343D02*
X006845Y006343D01*
X006845Y006421D02*
X007585Y006421D01*
X007585Y006500D02*
X006845Y006500D01*
X006845Y006578D02*
X007585Y006578D01*
X007609Y006657D02*
X006845Y006657D01*
X006845Y006264D02*
X007585Y006264D01*
X007585Y006186D02*
X006845Y006186D01*
X006832Y006107D02*
X007608Y006107D01*
X007902Y006107D02*
X007981Y006107D01*
X007981Y006186D02*
X007902Y006186D01*
X007902Y006264D02*
X007981Y006264D01*
X008275Y006107D02*
X008330Y006107D01*
X008720Y006735D02*
X009090Y006735D01*
X009090Y006657D02*
X008890Y006657D01*
X008927Y006578D02*
X009090Y006578D01*
X009090Y006500D02*
X008927Y006500D01*
X008927Y006421D02*
X009090Y006421D01*
X009090Y006343D02*
X008927Y006343D01*
X008927Y006264D02*
X009090Y006264D01*
X009090Y006186D02*
X008927Y006186D01*
X009090Y006814D02*
X008720Y006814D01*
X008720Y006893D02*
X009090Y006893D01*
X009370Y006893D02*
X009893Y006893D01*
X009893Y006971D02*
X009761Y006971D01*
X009761Y007050D02*
X009893Y007050D01*
X009900Y006814D02*
X009370Y006814D01*
X009630Y007198D02*
X010380Y007198D01*
X010387Y007158D01*
X010430Y007198D01*
X010830Y007198D01*
X010980Y007348D01*
X011280Y007848D02*
X011328Y007839D01*
X011280Y007848D02*
X010180Y007848D01*
X010138Y007844D01*
X010180Y008148D02*
X010138Y008159D01*
X010130Y008198D01*
X009880Y008198D01*
X009280Y008798D01*
X009280Y010198D01*
X009630Y010048D02*
X009630Y008748D01*
X009880Y008498D01*
X010130Y008498D01*
X010138Y008474D01*
X010138Y008789D02*
X010180Y008798D01*
X010530Y008798D01*
X010580Y008848D01*
X010730Y008148D02*
X010180Y008148D01*
X010730Y008148D02*
X011280Y008698D01*
X011308Y008713D01*
X011916Y009720D02*
X010488Y009720D01*
X010488Y009799D02*
X011916Y009799D01*
X011916Y009877D02*
X010488Y009877D01*
X010488Y009956D02*
X011916Y009956D01*
X011925Y010034D02*
X010488Y010034D01*
X010488Y010113D02*
X011967Y010113D01*
X012080Y010191D02*
X010488Y010191D01*
X009980Y010398D02*
X009630Y010048D01*
X009980Y010398D02*
X009980Y010948D01*
X009760Y010977D02*
X009712Y010977D01*
X009712Y011055D02*
X009777Y011055D01*
X009739Y011134D02*
X009855Y011134D01*
X009450Y011154D02*
X009426Y011084D01*
X009408Y011066D01*
X009408Y011031D01*
X009397Y010999D01*
X009403Y010987D01*
X009399Y010987D01*
X009393Y010981D01*
X009387Y010987D01*
X009373Y010987D01*
X009373Y011074D01*
X009291Y011156D01*
X009256Y011156D01*
X009256Y011597D01*
X009314Y011597D01*
X009314Y011152D01*
X009441Y011152D01*
X009450Y011154D01*
X009443Y011134D02*
X009314Y011134D01*
X009314Y011212D02*
X009256Y011212D01*
X009256Y011291D02*
X009314Y011291D01*
X009314Y011370D02*
X009256Y011370D01*
X009256Y011448D02*
X009314Y011448D01*
X009314Y011527D02*
X009256Y011527D01*
X009256Y011684D02*
X009314Y011684D01*
X009314Y011762D02*
X009256Y011762D01*
X009256Y011841D02*
X009314Y011841D01*
X009314Y011919D02*
X009256Y011919D01*
X009256Y011998D02*
X009314Y011998D01*
X009314Y012076D02*
X009256Y012076D01*
X009066Y012076D02*
X008090Y012076D01*
X008046Y011998D02*
X008575Y011998D01*
X008575Y011919D02*
X008003Y011919D01*
X007959Y011841D02*
X008575Y011841D01*
X008575Y011762D02*
X007915Y011762D01*
X007872Y011684D02*
X008575Y011684D01*
X008133Y012155D02*
X010481Y012155D01*
X010433Y012234D02*
X008177Y012234D01*
X008221Y012312D02*
X010385Y012312D01*
X010338Y012391D02*
X008264Y012391D01*
X008308Y012469D02*
X010290Y012469D01*
X010242Y012548D02*
X008352Y012548D01*
X008395Y012626D02*
X010194Y012626D01*
X010147Y012705D02*
X008439Y012705D01*
X008482Y012783D02*
X010099Y012783D01*
X010051Y012862D02*
X008526Y012862D01*
X008570Y012940D02*
X010004Y012940D01*
X009956Y013019D02*
X008613Y013019D01*
X008657Y013097D02*
X009908Y013097D01*
X010140Y013255D02*
X012497Y013255D01*
X012436Y013333D02*
X010093Y013333D01*
X010188Y013176D02*
X012558Y013176D01*
X012618Y013097D02*
X010236Y013097D01*
X010283Y013019D02*
X012679Y013019D01*
X012740Y012940D02*
X010331Y012940D01*
X010379Y012862D02*
X012800Y012862D01*
X012861Y012783D02*
X010427Y012783D01*
X010474Y012705D02*
X012922Y012705D01*
X012982Y012626D02*
X010522Y012626D01*
X010570Y012548D02*
X013031Y012548D01*
X013075Y012469D02*
X010618Y012469D01*
X010665Y012391D02*
X013119Y012391D01*
X013163Y012312D02*
X010713Y012312D01*
X010761Y012234D02*
X013207Y012234D01*
X013252Y012155D02*
X010809Y012155D01*
X010856Y012076D02*
X013296Y012076D01*
X013340Y011998D02*
X010904Y011998D01*
X010952Y011919D02*
X013384Y011919D01*
X013428Y011841D02*
X011000Y011841D01*
X010529Y012076D02*
X009503Y012076D01*
X009408Y011055D02*
X009373Y011055D01*
X008190Y010287D02*
X008190Y010238D01*
X007438Y010238D01*
X007390Y010287D01*
X007497Y010287D01*
X007503Y010293D01*
X007509Y010287D01*
X007768Y010287D01*
X007780Y010275D01*
X007812Y010256D01*
X007847Y010247D01*
X007961Y010247D01*
X007961Y010621D01*
X007991Y010621D01*
X007991Y010247D01*
X008104Y010247D01*
X008140Y010256D01*
X008172Y010275D01*
X008184Y010287D01*
X008190Y010287D01*
X008190Y010270D02*
X008164Y010270D01*
X007991Y010270D02*
X007961Y010270D01*
X007961Y010348D02*
X007991Y010348D01*
X007991Y010427D02*
X007961Y010427D01*
X007961Y010506D02*
X007991Y010506D01*
X007991Y010584D02*
X007961Y010584D01*
X007961Y010663D02*
X007991Y010663D01*
X007991Y010741D02*
X007961Y010741D01*
X007961Y010820D02*
X007991Y010820D01*
X007991Y010898D02*
X007961Y010898D01*
X007961Y010977D02*
X007991Y010977D01*
X007788Y010270D02*
X007406Y010270D01*
X006730Y010348D02*
X006730Y010098D01*
X006758Y010049D01*
X006408Y008935D02*
X006370Y008935D01*
X006370Y008856D02*
X006408Y008856D01*
X006408Y008778D02*
X006370Y008778D01*
X006370Y008699D02*
X006408Y008699D01*
X006408Y008621D02*
X006370Y008621D01*
X006370Y008542D02*
X006408Y008542D01*
X006408Y008463D02*
X006370Y008463D01*
X006370Y008385D02*
X006408Y008385D01*
X005196Y008228D02*
X003508Y008228D01*
X003430Y008149D02*
X005191Y008149D01*
X005191Y008071D02*
X003351Y008071D01*
X003273Y007992D02*
X005168Y007992D01*
X005151Y007914D02*
X003194Y007914D01*
X003116Y007835D02*
X005151Y007835D01*
X005155Y007757D02*
X003074Y007757D01*
X003103Y007678D02*
X005191Y007678D01*
X005191Y007599D02*
X003103Y007599D01*
X003103Y007601D02*
X002688Y007601D01*
X003103Y007601D01*
X003103Y007521D02*
X005191Y007521D01*
X005191Y007442D02*
X003070Y007442D01*
X003063Y007364D02*
X005191Y007364D01*
X005191Y007285D02*
X003063Y007285D01*
X003055Y007207D02*
X005199Y007207D01*
X005191Y007128D02*
X003063Y007128D01*
X003063Y007050D02*
X005191Y007050D01*
X005199Y006971D02*
X003084Y006971D01*
X003103Y006893D02*
X005191Y006893D01*
X005191Y006814D02*
X003103Y006814D01*
X003100Y006735D02*
X005191Y006735D01*
X005191Y006657D02*
X003063Y006657D01*
X003063Y006578D02*
X005191Y006578D01*
X005191Y006500D02*
X003063Y006500D01*
X003063Y006421D02*
X005191Y006421D01*
X005191Y006343D02*
X003380Y006343D01*
X003459Y006264D02*
X005191Y006264D01*
X005201Y006186D02*
X003537Y006186D01*
X003616Y006107D02*
X005191Y006107D01*
X005191Y006029D02*
X003695Y006029D01*
X003773Y005950D02*
X005197Y005950D01*
X004480Y005243D02*
X010296Y005243D01*
X011226Y004615D02*
X011311Y004615D01*
X011818Y004693D02*
X012626Y004693D01*
X012566Y004615D02*
X011839Y004615D01*
X011891Y004536D02*
X012505Y004536D01*
X012444Y004458D02*
X011891Y004458D01*
X011891Y004379D02*
X012378Y004379D01*
X012399Y004399D02*
X012399Y004399D01*
X012297Y004301D02*
X011891Y004301D01*
X011891Y004222D02*
X012215Y004222D01*
X012134Y004144D02*
X011891Y004144D01*
X011871Y004065D02*
X012052Y004065D01*
X011864Y004772D02*
X012687Y004772D01*
X012748Y004850D02*
X012032Y004850D01*
X012032Y004929D02*
X012808Y004929D01*
X012869Y005008D02*
X012032Y005008D01*
X012055Y005086D02*
X012929Y005086D01*
X011279Y004065D02*
X011248Y004065D01*
X010946Y004065D02*
X010866Y004065D01*
X010866Y004144D02*
X010946Y004144D01*
X010946Y004222D02*
X010866Y004222D01*
X008504Y003358D02*
X008231Y003358D01*
X008280Y003280D02*
X008454Y003280D01*
X008454Y003201D02*
X008280Y003201D01*
X008280Y003122D02*
X008454Y003122D01*
X008454Y003044D02*
X008280Y003044D01*
X008280Y002965D02*
X008454Y002965D01*
X008454Y002887D02*
X008280Y002887D01*
X008280Y002808D02*
X008454Y002808D01*
X008454Y002730D02*
X008280Y002730D01*
X008280Y002651D02*
X008454Y002651D01*
X008454Y002573D02*
X008280Y002573D01*
X008280Y002494D02*
X008454Y002494D01*
X007557Y002180D02*
X007003Y002180D01*
X007286Y003358D02*
X007382Y003358D01*
X007980Y003594D02*
X008041Y003594D01*
X008041Y003672D02*
X008025Y003672D01*
X008025Y003751D02*
X008041Y003751D01*
X008041Y003829D02*
X008025Y003829D01*
X008066Y003515D02*
X006602Y003515D01*
X006568Y003482D02*
X005659Y003482D01*
X005600Y003540D01*
X005600Y004253D01*
X005659Y004312D01*
X006568Y004312D01*
X006613Y004266D01*
X006631Y004298D01*
X006657Y004324D01*
X006689Y004342D01*
X006725Y004352D01*
X006822Y004352D01*
X006822Y003946D01*
X006822Y003946D01*
X006822Y004352D01*
X006919Y004352D01*
X006955Y004342D01*
X006987Y004324D01*
X006999Y004312D01*
X007194Y004312D01*
X007194Y004369D01*
X007193Y004416D01*
X004002Y004416D01*
X003950Y004412D01*
X003945Y004416D01*
X003939Y004416D01*
X003901Y004453D01*
X002636Y005536D01*
X002630Y005536D01*
X002592Y005573D01*
X002552Y005608D01*
X002552Y005614D01*
X002548Y005618D01*
X002548Y005671D01*
X002544Y005723D01*
X002548Y005728D01*
X002548Y005897D01*
X002371Y005897D01*
X002313Y005956D01*
X002313Y006176D01*
X002331Y006194D01*
X002313Y006212D01*
X002313Y006431D01*
X002331Y006449D01*
X002313Y006467D01*
X002313Y006667D01*
X002301Y006679D01*
X002282Y006711D01*
X002273Y006746D01*
X002273Y006833D01*
X002687Y006833D01*
X002687Y006833D01*
X002273Y006833D01*
X002273Y006920D01*
X002282Y006956D01*
X002301Y006988D01*
X002313Y007000D01*
X002313Y007158D01*
X002101Y007158D01*
X002101Y007132D01*
X002042Y007074D01*
X002033Y007074D01*
X002055Y007068D01*
X002087Y007050D01*
X002313Y007050D01*
X002313Y007128D02*
X002097Y007128D01*
X002087Y007050D02*
X002113Y007024D01*
X002131Y006992D01*
X002141Y006956D01*
X002141Y006761D01*
X001844Y006761D01*
X001844Y006681D01*
X001844Y006365D01*
X002019Y006365D01*
X002055Y006374D01*
X002087Y006393D01*
X002113Y006419D01*
X002131Y006451D01*
X002141Y006486D01*
X002141Y006681D01*
X001844Y006681D01*
X001764Y006681D01*
X001764Y006365D01*
X001589Y006365D01*
X001553Y006374D01*
X001521Y006393D01*
X001495Y006419D01*
X001477Y006451D01*
X001467Y006486D01*
X001467Y006681D01*
X001764Y006681D01*
X001764Y006761D01*
X001467Y006761D01*
X001467Y006956D01*
X001477Y006992D01*
X001495Y007024D01*
X001521Y007050D01*
X001471Y006971D02*
X000955Y006971D01*
X000979Y006893D02*
X001467Y006893D01*
X001467Y006814D02*
X001002Y006814D01*
X001026Y006735D02*
X001764Y006735D01*
X001764Y006657D02*
X001844Y006657D01*
X001844Y006735D02*
X002275Y006735D01*
X002273Y006814D02*
X002141Y006814D01*
X002141Y006893D02*
X002273Y006893D01*
X002291Y006971D02*
X002137Y006971D01*
X002141Y006657D02*
X002313Y006657D01*
X002313Y006578D02*
X002141Y006578D01*
X002141Y006500D02*
X002313Y006500D01*
X002313Y006421D02*
X002114Y006421D01*
X002313Y006343D02*
X001168Y006343D01*
X001131Y006421D02*
X001494Y006421D01*
X001467Y006500D02*
X001097Y006500D01*
X001073Y006578D02*
X001467Y006578D01*
X001467Y006657D02*
X001049Y006657D01*
X001205Y006264D02*
X002313Y006264D01*
X002323Y006186D02*
X001242Y006186D01*
X001278Y006107D02*
X002313Y006107D01*
X002313Y006029D02*
X001315Y006029D01*
X001352Y005950D02*
X002318Y005950D01*
X002548Y005871D02*
X001389Y005871D01*
X001426Y005793D02*
X002548Y005793D01*
X002544Y005714D02*
X001463Y005714D01*
X001499Y005636D02*
X002548Y005636D01*
X002608Y005557D02*
X001544Y005557D01*
X001596Y005479D02*
X002703Y005479D01*
X002795Y005400D02*
X001648Y005400D01*
X001700Y005322D02*
X002887Y005322D01*
X002978Y005243D02*
X001752Y005243D01*
X001804Y005165D02*
X003070Y005165D01*
X003162Y005086D02*
X001856Y005086D01*
X001908Y005008D02*
X003254Y005008D01*
X003345Y004929D02*
X001959Y004929D01*
X002011Y004850D02*
X003437Y004850D01*
X003529Y004772D02*
X002065Y004772D01*
X002135Y004693D02*
X003621Y004693D01*
X003713Y004615D02*
X002205Y004615D01*
X002276Y004536D02*
X003804Y004536D01*
X003896Y004458D02*
X002346Y004458D01*
X002416Y004379D02*
X007194Y004379D01*
X007334Y004369D02*
X007332Y004556D01*
X003997Y004556D01*
X002688Y005676D01*
X002688Y006066D01*
X002733Y006276D02*
X002688Y006321D01*
X002733Y006276D02*
X003249Y006276D01*
X004808Y004717D01*
X007595Y004717D01*
X007590Y004712D01*
X007590Y003946D01*
X007334Y003946D02*
X007334Y004369D01*
X007343Y004379D01*
X006822Y004301D02*
X006822Y004301D01*
X006822Y004222D02*
X006822Y004222D01*
X006822Y004144D02*
X006822Y004144D01*
X006822Y004065D02*
X006822Y004065D01*
X006822Y003986D02*
X006822Y003986D01*
X006822Y003908D02*
X006822Y003908D01*
X006822Y003829D02*
X006822Y003829D01*
X006822Y003751D02*
X006822Y003751D01*
X006822Y003672D02*
X006822Y003672D01*
X006822Y003594D02*
X006822Y003594D01*
X006632Y003594D02*
X006627Y003594D01*
X006634Y004301D02*
X006579Y004301D01*
X005648Y004301D02*
X002487Y004301D01*
X002557Y004222D02*
X005600Y004222D01*
X005600Y004144D02*
X002628Y004144D01*
X002698Y004065D02*
X005600Y004065D01*
X005600Y003986D02*
X002786Y003986D01*
X002881Y003908D02*
X005600Y003908D01*
X005600Y003829D02*
X002975Y003829D01*
X003069Y003751D02*
X005600Y003751D01*
X005600Y003672D02*
X003164Y003672D01*
X003258Y003594D02*
X005600Y003594D01*
X005315Y003358D02*
X003567Y003358D01*
X003696Y003280D02*
X005266Y003280D01*
X005266Y003201D02*
X003824Y003201D01*
X003953Y003122D02*
X005266Y003122D01*
X005266Y003044D02*
X004082Y003044D01*
X004211Y002965D02*
X005266Y002965D01*
X005266Y002887D02*
X004352Y002887D01*
X004537Y002808D02*
X005266Y002808D01*
X005266Y002730D02*
X004722Y002730D01*
X004907Y002651D02*
X005266Y002651D01*
X005266Y002573D02*
X005092Y002573D01*
X004401Y005322D02*
X008243Y005322D01*
X008243Y005400D02*
X004323Y005400D01*
X002680Y007298D02*
X002688Y007345D01*
X002680Y007298D02*
X001880Y007298D01*
X001830Y007348D01*
X001804Y007390D01*
X001780Y007398D01*
X001780Y007798D01*
X001780Y008198D01*
X001730Y008248D01*
X001706Y008256D01*
X002000Y007835D02*
X002313Y007835D01*
X002313Y007914D02*
X002096Y007914D01*
X002121Y007992D02*
X002323Y007992D01*
X002313Y008071D02*
X002121Y008071D01*
X002121Y008149D02*
X002313Y008149D01*
X002318Y008228D02*
X002121Y008228D01*
X002121Y008306D02*
X002313Y008306D01*
X002313Y008385D02*
X002121Y008385D01*
X002121Y008463D02*
X002307Y008463D01*
X002273Y008542D02*
X002121Y008542D01*
X002074Y008621D02*
X002273Y008621D01*
X002687Y008699D02*
X002688Y008699D01*
X002687Y008778D02*
X002688Y008778D01*
X002687Y008856D02*
X002688Y008856D01*
X003280Y008448D02*
X003280Y010848D01*
X003180Y010848D01*
X003166Y010855D01*
X002771Y010820D02*
X000958Y010820D01*
X000981Y010898D02*
X002771Y010898D01*
X002771Y010977D02*
X001005Y010977D01*
X001029Y011055D02*
X002771Y011055D01*
X002771Y011134D02*
X001052Y011134D01*
X001076Y011212D02*
X002771Y011212D01*
X002772Y011291D02*
X001100Y011291D01*
X001136Y011370D02*
X006890Y011370D01*
X006890Y011448D02*
X001173Y011448D01*
X001209Y011527D02*
X006890Y011527D01*
X006890Y011605D02*
X001246Y011605D01*
X001283Y011684D02*
X006890Y011684D01*
X006890Y011762D02*
X001320Y011762D01*
X001357Y011841D02*
X006890Y011841D01*
X006890Y011919D02*
X001394Y011919D01*
X001430Y011998D02*
X006890Y011998D01*
X006890Y012076D02*
X001467Y012076D01*
X001504Y012155D02*
X006890Y012155D01*
X006890Y012234D02*
X001550Y012234D01*
X001602Y012312D02*
X006890Y012312D01*
X006890Y012391D02*
X001654Y012391D01*
X001706Y012469D02*
X006890Y012469D01*
X006890Y012548D02*
X001758Y012548D01*
X001810Y012626D02*
X006841Y012626D01*
X006810Y012705D02*
X001862Y012705D01*
X001914Y012783D02*
X006810Y012783D01*
X006833Y012862D02*
X001966Y012862D01*
X002018Y012940D02*
X006912Y012940D01*
X007149Y012940D02*
X008250Y012940D01*
X008206Y012862D02*
X007228Y012862D01*
X008293Y013019D02*
X002074Y013019D01*
X002144Y013097D02*
X008337Y013097D01*
X008380Y013176D02*
X002214Y013176D01*
X002425Y013412D02*
X012368Y013412D01*
X012286Y013490D02*
X002496Y013490D01*
X002566Y013569D02*
X012205Y013569D01*
X012123Y013647D02*
X002637Y013647D01*
X002707Y013726D02*
X012042Y013726D01*
X011961Y013804D02*
X002798Y013804D01*
X002893Y013883D02*
X011879Y013883D01*
X011798Y013961D02*
X002987Y013961D01*
X003082Y014040D02*
X011716Y014040D01*
X011615Y014119D02*
X003176Y014119D01*
X003270Y014197D02*
X011505Y014197D01*
X011395Y014276D02*
X003365Y014276D01*
X003459Y014354D02*
X011285Y014354D01*
X011176Y014433D02*
X003584Y014433D01*
X003712Y014511D02*
X011066Y014511D01*
X010956Y014590D02*
X003841Y014590D01*
X003970Y014668D02*
X010828Y014668D01*
X010675Y014747D02*
X004098Y014747D01*
X004227Y014825D02*
X010523Y014825D01*
X010370Y014904D02*
X004376Y014904D01*
X004561Y014983D02*
X010217Y014983D01*
X010064Y015061D02*
X004746Y015061D01*
X004930Y015140D02*
X009857Y015140D01*
X009627Y015218D02*
X005115Y015218D01*
X005354Y015297D02*
X009397Y015297D01*
X009166Y015375D02*
X005655Y015375D01*
X005955Y015454D02*
X008807Y015454D01*
X008381Y015532D02*
X006381Y015532D01*
X007094Y015611D02*
X007281Y015611D01*
X003617Y011291D02*
X003561Y011291D01*
X003562Y011212D02*
X003617Y011212D01*
X003617Y011134D02*
X003562Y011134D01*
X003562Y011055D02*
X003617Y011055D01*
X003617Y010977D02*
X003562Y010977D01*
X003562Y010898D02*
X003617Y010898D01*
X003617Y010820D02*
X003562Y010820D01*
X003562Y010741D02*
X003617Y010741D01*
X003617Y010663D02*
X003562Y010663D01*
X003562Y010584D02*
X003617Y010584D01*
X003617Y010506D02*
X003562Y010506D01*
X003562Y010427D02*
X003622Y010427D01*
X003690Y010348D02*
X003420Y010348D01*
X003420Y010270D02*
X003690Y010270D01*
X003690Y010191D02*
X003420Y010191D01*
X003420Y010113D02*
X003690Y010113D01*
X003690Y010034D02*
X003420Y010034D01*
X003420Y009956D02*
X003690Y009956D01*
X003690Y009877D02*
X003420Y009877D01*
X003420Y009799D02*
X003690Y009799D01*
X003690Y009720D02*
X003420Y009720D01*
X003420Y009642D02*
X003690Y009642D01*
X003690Y009563D02*
X003420Y009563D01*
X003420Y009484D02*
X003690Y009484D01*
X003690Y009406D02*
X003420Y009406D01*
X003420Y009327D02*
X003690Y009327D01*
X003690Y009249D02*
X003420Y009249D01*
X003420Y009170D02*
X003690Y009170D01*
X003690Y009092D02*
X003420Y009092D01*
X003420Y009013D02*
X003690Y009013D01*
X003690Y008935D02*
X003420Y008935D01*
X003420Y008856D02*
X003690Y008856D01*
X003662Y008778D02*
X003420Y008778D01*
X003420Y008699D02*
X003584Y008699D01*
X003505Y008621D02*
X003420Y008621D01*
X003420Y008542D02*
X003427Y008542D01*
X003587Y008306D02*
X005013Y008306D01*
X004934Y008385D02*
X003665Y008385D01*
X003744Y008463D02*
X004856Y008463D01*
X004798Y008542D02*
X003823Y008542D01*
X003901Y008621D02*
X004798Y008621D01*
X004798Y008699D02*
X003970Y008699D01*
X003970Y008778D02*
X004798Y008778D01*
X004798Y008856D02*
X003970Y008856D01*
X003970Y008935D02*
X004798Y008935D01*
X004798Y009013D02*
X003970Y009013D01*
X003970Y009092D02*
X004798Y009092D01*
X004798Y009170D02*
X003970Y009170D01*
X003970Y009249D02*
X004798Y009249D01*
X004798Y009327D02*
X003970Y009327D01*
X003970Y009406D02*
X004798Y009406D01*
X004798Y009484D02*
X003970Y009484D01*
X003970Y009563D02*
X004798Y009563D01*
X004798Y009642D02*
X003970Y009642D01*
X003970Y009720D02*
X004869Y009720D01*
X004947Y009799D02*
X003970Y009799D01*
X003140Y009799D02*
X000736Y009799D01*
X000748Y009877D02*
X003140Y009877D01*
X003140Y009956D02*
X000759Y009956D01*
X000771Y010034D02*
X003140Y010034D01*
X003140Y010113D02*
X000782Y010113D01*
X000794Y010191D02*
X003140Y010191D01*
X003140Y010270D02*
X000805Y010270D01*
X000817Y010348D02*
X003140Y010348D01*
X002771Y010427D02*
X000840Y010427D01*
X000863Y010506D02*
X002771Y010506D01*
X002771Y010584D02*
X000887Y010584D01*
X000911Y010663D02*
X002771Y010663D01*
X002771Y010741D02*
X000934Y010741D01*
X000724Y009720D02*
X001280Y009720D01*
X001251Y009642D02*
X000713Y009642D01*
X000701Y009563D02*
X001251Y009563D01*
X001251Y009484D02*
X000690Y009484D01*
X000678Y009406D02*
X001251Y009406D01*
X001666Y009406D02*
X001746Y009406D01*
X001746Y009484D02*
X001666Y009484D01*
X001666Y009563D02*
X001746Y009563D01*
X001746Y009642D02*
X001666Y009642D01*
X001666Y009720D02*
X001746Y009720D01*
X001746Y009170D02*
X001666Y009170D01*
X001666Y009092D02*
X001746Y009092D01*
X001746Y009013D02*
X001666Y009013D01*
X002000Y007757D02*
X002302Y007757D01*
X002273Y007678D02*
X002071Y007678D01*
X002101Y007599D02*
X002273Y007599D01*
X002273Y007601D02*
X002687Y007601D01*
X002687Y007601D01*
X002273Y007601D01*
X002273Y007521D02*
X002101Y007521D01*
X002101Y007442D02*
X002305Y007442D01*
X002688Y007601D02*
X002688Y007601D01*
X001844Y006578D02*
X001764Y006578D01*
X001764Y006500D02*
X001844Y006500D01*
X001844Y006421D02*
X001764Y006421D01*
X009551Y007257D02*
X009580Y007248D01*
X009630Y007198D01*
D27*
X010980Y007348D03*
X010580Y008848D03*
X009280Y010198D03*
X009980Y010948D03*
X010080Y011598D03*
X011530Y010698D03*
X012930Y011448D03*
X013430Y011398D03*
X007030Y012748D03*
X006730Y010348D03*
X002230Y010648D03*
X001780Y007798D03*
D28*
X011580Y004948D02*
X011580Y004348D01*
X011575Y004324D01*
X011580Y004948D02*
X011680Y004948D01*
X011696Y004993D01*
X011730Y005098D01*
X012430Y005798D01*
X012442Y005847D01*
X012580Y005848D01*
X013280Y006548D01*
X013280Y007448D01*
X013387Y007504D01*
X013280Y007598D01*
X013280Y011098D01*
X012930Y011448D01*
M02*
