G75*
G70*
%OFA0B0*%
%FSLAX24Y24*%
%IPPOS*%
%LPD*%
%AMOC8*
5,1,8,0,0,1.08239X$1,22.5*
%
%ADD10C,0.0040*%
%ADD11C,0.0020*%
%ADD12C,0.0000*%
%ADD13C,0.0080*%
%ADD14C,0.0060*%
%ADD15C,0.0050*%
%ADD16C,0.0059*%
D10*
X005591Y006999D02*
X005684Y006999D01*
X005731Y007046D01*
X005839Y007046D02*
X005839Y007232D01*
X005885Y007279D01*
X005979Y007279D01*
X006026Y007232D01*
X006133Y007186D02*
X006133Y007139D01*
X006180Y007139D01*
X006180Y007186D01*
X006133Y007186D01*
X006133Y007046D02*
X006133Y006999D01*
X006180Y006999D01*
X006180Y007046D01*
X006133Y007046D01*
X006026Y007046D02*
X005979Y006999D01*
X005885Y006999D01*
X005839Y007046D01*
X005731Y007232D02*
X005684Y007279D01*
X005591Y007279D01*
X005544Y007232D01*
X005544Y007046D01*
X005591Y006999D01*
X005663Y007499D02*
X005590Y007572D01*
X005590Y007866D01*
X005517Y007792D02*
X005663Y007792D01*
X005811Y007719D02*
X005885Y007646D01*
X006031Y007646D01*
X006105Y007572D01*
X006031Y007499D01*
X005811Y007499D01*
X005811Y007719D02*
X005885Y007792D01*
X006105Y007792D01*
X006253Y007792D02*
X006253Y007572D01*
X006327Y007499D01*
X006547Y007499D01*
X006547Y007426D02*
X006473Y007352D01*
X006400Y007352D01*
X006547Y007426D02*
X006547Y007792D01*
X006695Y007792D02*
X006915Y007792D01*
X006989Y007719D01*
X006989Y007499D01*
X007137Y007572D02*
X007211Y007499D01*
X007431Y007499D01*
X007579Y007499D02*
X007726Y007499D01*
X007653Y007499D02*
X007653Y007939D01*
X007579Y007939D01*
X007529Y008034D02*
X007666Y008034D01*
X007712Y008079D01*
X007666Y008125D01*
X007574Y008125D01*
X007529Y008171D01*
X007574Y008217D01*
X007712Y008217D01*
X007819Y008171D02*
X007864Y008217D01*
X007956Y008217D01*
X008002Y008171D01*
X008002Y008125D01*
X007819Y008125D01*
X007819Y008079D02*
X007819Y008171D01*
X007819Y008079D02*
X007864Y008034D01*
X007956Y008034D01*
X008109Y008034D02*
X008109Y008217D01*
X008246Y008217D01*
X008292Y008171D01*
X008292Y008034D01*
X008316Y007939D02*
X008316Y007499D01*
X008536Y007499D01*
X008609Y007572D01*
X008609Y007719D01*
X008536Y007792D01*
X008316Y007792D01*
X008167Y007719D02*
X008167Y007499D01*
X007947Y007499D01*
X007874Y007572D01*
X007947Y007646D01*
X008167Y007646D01*
X008167Y007719D02*
X008094Y007792D01*
X007947Y007792D01*
X007847Y007279D02*
X007941Y007186D01*
X007941Y006999D01*
X007941Y007139D02*
X007754Y007139D01*
X007754Y007186D02*
X007754Y006999D01*
X007646Y007046D02*
X007599Y006999D01*
X007506Y006999D01*
X007459Y007046D01*
X007506Y007139D02*
X007459Y007186D01*
X007459Y007232D01*
X007506Y007279D01*
X007599Y007279D01*
X007646Y007232D01*
X007599Y007139D02*
X007646Y007092D01*
X007646Y007046D01*
X007599Y007139D02*
X007506Y007139D01*
X007351Y007139D02*
X007165Y007139D01*
X007057Y007232D02*
X007057Y007279D01*
X007057Y007232D02*
X006963Y007139D01*
X006963Y006999D01*
X006963Y007139D02*
X006870Y007232D01*
X006870Y007279D01*
X006762Y007232D02*
X006762Y007186D01*
X006715Y007139D01*
X006575Y007139D01*
X006575Y006999D02*
X006715Y006999D01*
X006762Y007046D01*
X006762Y007092D01*
X006715Y007139D01*
X006762Y007232D02*
X006715Y007279D01*
X006575Y007279D01*
X006575Y006999D01*
X006695Y007499D02*
X006695Y007792D01*
X006506Y008034D02*
X006369Y008034D01*
X006369Y008309D01*
X006369Y008217D02*
X006506Y008217D01*
X006552Y008171D01*
X006552Y008079D01*
X006506Y008034D01*
X006262Y008079D02*
X006262Y008171D01*
X006216Y008217D01*
X006124Y008217D01*
X006079Y008171D01*
X006079Y008079D01*
X006124Y008034D01*
X006216Y008034D01*
X006262Y008079D01*
X005972Y008034D02*
X005834Y008034D01*
X005789Y008079D01*
X005789Y008171D01*
X005834Y008217D01*
X005972Y008217D01*
X005682Y008171D02*
X005682Y008034D01*
X005544Y008034D01*
X005499Y008079D01*
X005544Y008125D01*
X005682Y008125D01*
X005682Y008171D02*
X005636Y008217D01*
X005544Y008217D01*
X005392Y008309D02*
X005300Y008309D01*
X005346Y008309D02*
X005346Y008079D01*
X005300Y008034D01*
X005254Y008034D01*
X005209Y008079D01*
X005148Y007792D02*
X005295Y007792D01*
X005368Y007719D01*
X005368Y007499D01*
X005148Y007499D01*
X005075Y007572D01*
X005148Y007646D01*
X005368Y007646D01*
X004926Y007646D02*
X004633Y007646D01*
X004633Y007719D02*
X004633Y007572D01*
X004706Y007499D01*
X004853Y007499D01*
X004926Y007646D02*
X004926Y007719D01*
X004853Y007792D01*
X004706Y007792D01*
X004633Y007719D01*
X004484Y007719D02*
X004484Y007499D01*
X004484Y007719D02*
X004411Y007792D01*
X004264Y007792D01*
X004191Y007719D01*
X004191Y007939D02*
X004191Y007499D01*
X006488Y008482D02*
X006628Y008482D01*
X006675Y008529D01*
X006675Y008716D01*
X006628Y008762D01*
X006488Y008762D01*
X006488Y008482D01*
X006783Y008529D02*
X006783Y008622D01*
X006830Y008669D01*
X006923Y008669D01*
X006970Y008622D01*
X006970Y008576D01*
X006783Y008576D01*
X006783Y008529D02*
X006830Y008482D01*
X006923Y008482D01*
X007078Y008482D02*
X007218Y008482D01*
X007264Y008529D01*
X007218Y008576D01*
X007124Y008576D01*
X007078Y008622D01*
X007124Y008669D01*
X007264Y008669D01*
X007372Y008669D02*
X007419Y008669D01*
X007419Y008482D01*
X007372Y008482D02*
X007466Y008482D01*
X007569Y008529D02*
X007615Y008482D01*
X007756Y008482D01*
X007756Y008435D02*
X007756Y008669D01*
X007615Y008669D01*
X007569Y008622D01*
X007569Y008529D01*
X007662Y008389D02*
X007709Y008389D01*
X007756Y008435D01*
X007863Y008482D02*
X007863Y008669D01*
X008003Y008669D01*
X008050Y008622D01*
X008050Y008482D01*
X008158Y008482D02*
X008158Y008529D01*
X008205Y008529D01*
X008205Y008482D01*
X008158Y008482D01*
X008158Y008622D02*
X008158Y008669D01*
X008205Y008669D01*
X008205Y008622D01*
X008158Y008622D01*
X008444Y008263D02*
X008444Y008079D01*
X008490Y008034D01*
X008592Y008034D02*
X008592Y008309D01*
X008638Y008217D02*
X008592Y008171D01*
X008638Y008217D02*
X008729Y008217D01*
X008775Y008171D01*
X008775Y008034D01*
X008882Y008079D02*
X008928Y008125D01*
X009065Y008125D01*
X009065Y008171D02*
X009065Y008034D01*
X008928Y008034D01*
X008882Y008079D01*
X008928Y008217D02*
X009019Y008217D01*
X009065Y008171D01*
X009172Y008034D02*
X009264Y008034D01*
X009218Y008034D02*
X009218Y008309D01*
X009172Y008309D01*
X009051Y007792D02*
X008831Y007792D01*
X008758Y007719D01*
X008831Y007646D01*
X008978Y007646D01*
X009051Y007572D01*
X008978Y007499D01*
X008758Y007499D01*
X008832Y007279D02*
X008925Y007279D01*
X008972Y007232D01*
X008785Y007046D01*
X008832Y006999D01*
X008925Y006999D01*
X008972Y007046D01*
X008972Y007232D01*
X008832Y007279D02*
X008785Y007232D01*
X008785Y007046D01*
X008685Y007046D02*
X008685Y006999D01*
X008638Y006999D01*
X008638Y007046D01*
X008685Y007046D01*
X008530Y007046D02*
X008483Y006999D01*
X008390Y006999D01*
X008343Y007046D01*
X008437Y007139D02*
X008483Y007139D01*
X008530Y007092D01*
X008530Y007046D01*
X008483Y007139D02*
X008530Y007186D01*
X008530Y007232D01*
X008483Y007279D01*
X008390Y007279D01*
X008343Y007232D01*
X007847Y007279D02*
X007754Y007186D01*
X007431Y007792D02*
X007211Y007792D01*
X007137Y007719D01*
X007137Y007572D01*
X007132Y008034D02*
X007040Y008125D01*
X007086Y008125D02*
X006949Y008125D01*
X006949Y008034D02*
X006949Y008309D01*
X007086Y008309D01*
X007132Y008263D01*
X007132Y008171D01*
X007086Y008125D01*
X007239Y008079D02*
X007284Y008034D01*
X007376Y008034D01*
X007422Y008079D01*
X007422Y008171D01*
X007376Y008217D01*
X007284Y008217D01*
X007239Y008171D01*
X007239Y008079D01*
X007419Y008762D02*
X007419Y008809D01*
X008399Y008217D02*
X008490Y008217D01*
X009200Y007572D02*
X009200Y007499D01*
X009273Y007499D01*
X009273Y007572D01*
X009200Y007572D01*
X009421Y007572D02*
X009421Y007719D01*
X009494Y007792D01*
X009641Y007792D01*
X009714Y007719D01*
X009714Y007572D01*
X009641Y007499D01*
X009494Y007499D01*
X009421Y007572D01*
X009863Y007499D02*
X009863Y007792D01*
X009863Y007646D02*
X010009Y007792D01*
X010083Y007792D01*
X010231Y007719D02*
X010231Y007572D01*
X010304Y007499D01*
X010525Y007499D01*
X010525Y007426D02*
X010525Y007792D01*
X010304Y007792D01*
X010231Y007719D01*
X010378Y007352D02*
X010451Y007352D01*
X010525Y007426D01*
D11*
X007958Y006783D02*
X007928Y006813D01*
X007868Y006813D01*
X007838Y006783D01*
X007774Y006783D02*
X007654Y006663D01*
X007684Y006633D01*
X007744Y006633D01*
X007774Y006663D01*
X007774Y006783D01*
X007744Y006813D01*
X007684Y006813D01*
X007654Y006783D01*
X007654Y006663D01*
X007592Y006663D02*
X007592Y006633D01*
X007562Y006633D01*
X007562Y006663D01*
X007592Y006663D01*
X007498Y006663D02*
X007468Y006633D01*
X007408Y006633D01*
X007378Y006663D01*
X007498Y006783D01*
X007498Y006663D01*
X007498Y006783D02*
X007468Y006813D01*
X007408Y006813D01*
X007378Y006783D01*
X007378Y006663D01*
X007130Y006753D02*
X007070Y006633D01*
X007010Y006753D01*
X006946Y006723D02*
X006946Y006693D01*
X006825Y006693D01*
X006825Y006663D02*
X006825Y006723D01*
X006855Y006753D01*
X006916Y006753D01*
X006946Y006723D01*
X006916Y006633D02*
X006855Y006633D01*
X006825Y006663D01*
X006762Y006753D02*
X006732Y006753D01*
X006672Y006693D01*
X006672Y006633D02*
X006672Y006753D01*
X007838Y006633D02*
X007958Y006753D01*
X007958Y006783D01*
X007958Y006633D02*
X007838Y006633D01*
D12*
X007051Y003517D02*
X007384Y003525D01*
X007716Y003549D01*
X008047Y003589D01*
X008375Y003645D01*
X008700Y003717D01*
X009021Y003805D01*
X009338Y003908D01*
X009649Y004026D01*
X009954Y004159D01*
X010253Y004306D01*
X010544Y004468D01*
X010827Y004644D01*
X011101Y004833D01*
X011365Y005035D01*
X011620Y005250D01*
X011864Y005477D01*
X012096Y005715D01*
X012317Y005964D01*
X012526Y006224D01*
X012721Y006493D01*
X012904Y006772D01*
X013073Y007059D01*
X013227Y007353D01*
X013368Y007655D01*
X013493Y007964D01*
X013604Y008278D01*
X013699Y008597D01*
X013779Y008920D01*
X013843Y009247D01*
X013891Y009577D01*
X013923Y009908D01*
X013939Y010241D01*
X013939Y010573D01*
X013923Y010906D01*
X013891Y011237D01*
X013843Y011567D01*
X013779Y011894D01*
X013699Y012217D01*
X013604Y012536D01*
X013493Y012850D01*
X013368Y013159D01*
X013227Y013461D01*
X013073Y013755D01*
X012904Y014042D01*
X012721Y014321D01*
X012526Y014590D01*
X012317Y014850D01*
X012096Y015099D01*
X011864Y015337D01*
X011620Y015564D01*
X011365Y015779D01*
X011101Y015981D01*
X010827Y016170D01*
X010544Y016346D01*
X010253Y016508D01*
X009954Y016655D01*
X009649Y016788D01*
X009338Y016906D01*
X009021Y017009D01*
X008700Y017097D01*
X008375Y017169D01*
X008047Y017225D01*
X007716Y017265D01*
X007384Y017289D01*
X007051Y017297D01*
X006718Y017289D01*
X006386Y017265D01*
X006055Y017225D01*
X005727Y017169D01*
X005402Y017097D01*
X005081Y017009D01*
X004764Y016906D01*
X004453Y016788D01*
X004148Y016655D01*
X003849Y016508D01*
X003558Y016346D01*
X003275Y016170D01*
X003001Y015981D01*
X002737Y015779D01*
X002482Y015564D01*
X002238Y015337D01*
X002006Y015099D01*
X001785Y014850D01*
X001576Y014590D01*
X001381Y014321D01*
X001198Y014042D01*
X001029Y013755D01*
X000875Y013461D01*
X000734Y013159D01*
X000609Y012850D01*
X000498Y012536D01*
X000403Y012217D01*
X000323Y011894D01*
X000259Y011567D01*
X000211Y011237D01*
X000179Y010906D01*
X000163Y010573D01*
X000163Y010241D01*
X000179Y009908D01*
X000211Y009577D01*
X000259Y009247D01*
X000323Y008920D01*
X000403Y008597D01*
X000498Y008278D01*
X000609Y007964D01*
X000734Y007655D01*
X000875Y007353D01*
X001029Y007059D01*
X001198Y006772D01*
X001381Y006493D01*
X001576Y006224D01*
X001785Y005964D01*
X002006Y005715D01*
X002238Y005477D01*
X002482Y005250D01*
X002737Y005035D01*
X003001Y004833D01*
X003275Y004644D01*
X003558Y004468D01*
X003849Y004306D01*
X004148Y004159D01*
X004453Y004026D01*
X004764Y003908D01*
X005081Y003805D01*
X005402Y003717D01*
X005727Y003645D01*
X006055Y003589D01*
X006386Y003549D01*
X006718Y003525D01*
X007051Y003517D01*
D13*
X007740Y004521D02*
X006362Y004521D01*
X006362Y005486D01*
X006539Y005663D01*
X006362Y005663D01*
X006362Y005486D01*
X006539Y005663D02*
X007740Y005663D01*
X007740Y004521D01*
X007740Y009836D02*
X006362Y009836D01*
X006362Y010801D01*
X006539Y010978D01*
X006362Y010978D01*
X006362Y010801D01*
X006539Y010978D02*
X007740Y010978D01*
X007740Y009836D01*
X009837Y012040D02*
X010175Y012040D01*
X010325Y012494D02*
X010325Y012706D01*
X010175Y013160D02*
X009837Y013160D01*
X011354Y014209D02*
X010853Y014710D01*
X011410Y015267D02*
X011911Y014766D01*
X012071Y010978D02*
X012248Y010978D01*
X012071Y010801D01*
X012071Y010978D01*
X012248Y010978D02*
X013449Y010978D01*
X013449Y009836D01*
X012071Y009836D01*
X012071Y010801D01*
X007740Y015151D02*
X007563Y015151D01*
X007740Y015329D01*
X007740Y015151D01*
X007563Y015151D02*
X006362Y015151D01*
X006362Y016293D01*
X007740Y016293D01*
X007740Y015329D01*
X002031Y010978D02*
X002031Y009836D01*
X000653Y009836D01*
X000653Y010801D01*
X000831Y010978D01*
X000653Y010978D01*
X000653Y010801D01*
X000831Y010978D02*
X002031Y010978D01*
D14*
X002366Y011077D02*
X002366Y010840D01*
X002838Y010840D02*
X002838Y011077D01*
X007996Y014974D02*
X007996Y015210D01*
X008468Y015210D02*
X008468Y014974D01*
X008523Y012447D02*
X008287Y012447D01*
X008287Y011974D02*
X008523Y011974D01*
X008705Y011077D02*
X008705Y010840D01*
X008232Y010840D02*
X008232Y011077D01*
X011264Y011116D02*
X011264Y010880D01*
X011736Y010880D02*
X011736Y011116D01*
X011609Y011987D02*
X011373Y011987D01*
X011373Y012459D02*
X011609Y012459D01*
X011729Y012869D02*
X011965Y012869D01*
X011965Y013341D02*
X011729Y013341D01*
X008429Y005880D02*
X008429Y005643D01*
X007957Y005643D02*
X007957Y005880D01*
D15*
X008331Y005073D02*
X008331Y004777D01*
X008331Y005073D02*
X008705Y005073D01*
X008331Y004246D02*
X008331Y003931D01*
X008705Y003931D01*
X008527Y008970D02*
X008901Y008970D01*
X008527Y008970D02*
X008527Y009285D01*
X008527Y009817D02*
X008527Y010112D01*
X008901Y010112D01*
X010988Y010073D02*
X011362Y010073D01*
X011362Y009758D01*
X011362Y009226D02*
X011362Y008931D01*
X010988Y008931D01*
X008665Y015742D02*
X008291Y015742D01*
X008291Y016057D01*
X008291Y016588D02*
X008291Y016884D01*
X008665Y016884D01*
X003114Y010112D02*
X002740Y010112D01*
X002740Y009817D01*
X002740Y009285D02*
X002740Y008970D01*
X003114Y008970D01*
D16*
X003922Y005260D02*
X003774Y005139D01*
X003672Y005241D01*
X003793Y005389D01*
X003763Y005449D01*
X003742Y005513D01*
X003551Y005532D01*
X003551Y005676D01*
X003742Y005695D01*
X003763Y005759D01*
X003793Y005819D01*
X003672Y005968D01*
X003774Y006069D01*
X003922Y005948D01*
X003982Y005979D01*
X004046Y006000D01*
X004066Y006190D01*
X004210Y006190D01*
X004229Y006000D01*
X004293Y005979D01*
X004353Y005948D01*
X004501Y006069D01*
X004603Y005968D01*
X004482Y005819D01*
X004513Y005759D01*
X004533Y005695D01*
X004724Y005676D01*
X004724Y005532D01*
X004533Y005513D01*
X004513Y005449D01*
X004482Y005389D01*
X004603Y005241D01*
X004501Y005139D01*
X004353Y005260D01*
X004293Y005229D01*
X004208Y005434D01*
X004247Y005455D01*
X004279Y005485D01*
X004303Y005522D01*
X004318Y005564D01*
X004322Y005608D01*
X004316Y005652D01*
X004299Y005693D01*
X004274Y005729D01*
X004240Y005757D01*
X004201Y005777D01*
X004158Y005787D01*
X004114Y005787D01*
X004071Y005776D01*
X004032Y005755D01*
X003999Y005726D01*
X003974Y005689D01*
X003958Y005648D01*
X003953Y005604D01*
X003958Y005561D01*
X003973Y005520D01*
X003997Y005484D01*
X004029Y005455D01*
X004067Y005434D01*
X003982Y005229D01*
X003922Y005260D01*
X003905Y005245D02*
X003676Y005245D01*
X003723Y005303D02*
X004013Y005303D01*
X004037Y005361D02*
X003770Y005361D01*
X003778Y005418D02*
X004061Y005418D01*
X004006Y005476D02*
X003754Y005476D01*
X003551Y005533D02*
X003968Y005533D01*
X003955Y005591D02*
X003551Y005591D01*
X003551Y005649D02*
X003959Y005649D01*
X003986Y005706D02*
X003745Y005706D01*
X003765Y005764D02*
X004048Y005764D01*
X004029Y005994D02*
X004246Y005994D01*
X004224Y006052D02*
X004052Y006052D01*
X004057Y006109D02*
X004218Y006109D01*
X004212Y006167D02*
X004063Y006167D01*
X003866Y005994D02*
X003699Y005994D01*
X003698Y005937D02*
X004578Y005937D01*
X004576Y005994D02*
X004409Y005994D01*
X004480Y006052D02*
X004519Y006052D01*
X004531Y005879D02*
X003745Y005879D01*
X003792Y005821D02*
X004484Y005821D01*
X004511Y005764D02*
X004228Y005764D01*
X004290Y005706D02*
X004530Y005706D01*
X004724Y005649D02*
X004316Y005649D01*
X004320Y005591D02*
X004724Y005591D01*
X004724Y005533D02*
X004307Y005533D01*
X004269Y005476D02*
X004521Y005476D01*
X004497Y005418D02*
X004215Y005418D01*
X004238Y005361D02*
X004505Y005361D01*
X004552Y005303D02*
X004262Y005303D01*
X004286Y005245D02*
X004325Y005245D01*
X004370Y005245D02*
X004599Y005245D01*
X004550Y005188D02*
X004441Y005188D01*
X003989Y005245D02*
X003950Y005245D01*
X003834Y005188D02*
X003725Y005188D01*
X003756Y006052D02*
X003796Y006052D01*
M02*
