G75*
G70*
%OFA0B0*%
%FSLAX24Y24*%
%IPPOS*%
%LPD*%
%AMOC8*
5,1,8,0,0,1.08239X$1,22.5*
%
%ADD10C,0.0000*%
%ADD11R,0.0472X0.0217*%
%ADD12R,0.0315X0.0472*%
%ADD13R,0.0413X0.0551*%
%ADD14R,0.0354X0.0315*%
%ADD15R,0.1260X0.0276*%
%ADD16R,0.0453X0.0516*%
%ADD17R,0.0472X0.0315*%
%ADD18C,0.0080*%
%ADD19C,0.0220*%
D10*
X007051Y003517D02*
X007384Y003525D01*
X007716Y003549D01*
X008047Y003589D01*
X008375Y003645D01*
X008700Y003717D01*
X009021Y003805D01*
X009338Y003908D01*
X009649Y004026D01*
X009954Y004159D01*
X010253Y004306D01*
X010544Y004468D01*
X010827Y004644D01*
X011101Y004833D01*
X011365Y005035D01*
X011620Y005250D01*
X011864Y005477D01*
X012096Y005715D01*
X012317Y005964D01*
X012526Y006224D01*
X012721Y006493D01*
X012904Y006772D01*
X013073Y007059D01*
X013227Y007353D01*
X013368Y007655D01*
X013493Y007964D01*
X013604Y008278D01*
X013699Y008597D01*
X013779Y008920D01*
X013843Y009247D01*
X013891Y009577D01*
X013923Y009908D01*
X013939Y010241D01*
X013939Y010573D01*
X013923Y010906D01*
X013891Y011237D01*
X013843Y011567D01*
X013779Y011894D01*
X013699Y012217D01*
X013604Y012536D01*
X013493Y012850D01*
X013368Y013159D01*
X013227Y013461D01*
X013073Y013755D01*
X012904Y014042D01*
X012721Y014321D01*
X012526Y014590D01*
X012317Y014850D01*
X012096Y015099D01*
X011864Y015337D01*
X011620Y015564D01*
X011365Y015779D01*
X011101Y015981D01*
X010827Y016170D01*
X010544Y016346D01*
X010253Y016508D01*
X009954Y016655D01*
X009649Y016788D01*
X009338Y016906D01*
X009021Y017009D01*
X008700Y017097D01*
X008375Y017169D01*
X008047Y017225D01*
X007716Y017265D01*
X007384Y017289D01*
X007051Y017297D01*
X006718Y017289D01*
X006386Y017265D01*
X006055Y017225D01*
X005727Y017169D01*
X005402Y017097D01*
X005081Y017009D01*
X004764Y016906D01*
X004453Y016788D01*
X004148Y016655D01*
X003849Y016508D01*
X003558Y016346D01*
X003275Y016170D01*
X003001Y015981D01*
X002737Y015779D01*
X002482Y015564D01*
X002238Y015337D01*
X002006Y015099D01*
X001785Y014850D01*
X001576Y014590D01*
X001381Y014321D01*
X001198Y014042D01*
X001029Y013755D01*
X000875Y013461D01*
X000734Y013159D01*
X000609Y012850D01*
X000498Y012536D01*
X000403Y012217D01*
X000323Y011894D01*
X000259Y011567D01*
X000211Y011237D01*
X000179Y010906D01*
X000163Y010573D01*
X000163Y010241D01*
X000179Y009908D01*
X000211Y009577D01*
X000259Y009247D01*
X000323Y008920D01*
X000403Y008597D01*
X000498Y008278D01*
X000609Y007964D01*
X000734Y007655D01*
X000875Y007353D01*
X001029Y007059D01*
X001198Y006772D01*
X001381Y006493D01*
X001576Y006224D01*
X001785Y005964D01*
X002006Y005715D01*
X002238Y005477D01*
X002482Y005250D01*
X002737Y005035D01*
X003001Y004833D01*
X003275Y004644D01*
X003558Y004468D01*
X003849Y004306D01*
X004148Y004159D01*
X004453Y004026D01*
X004764Y003908D01*
X005081Y003805D01*
X005402Y003717D01*
X005727Y003645D01*
X006055Y003589D01*
X006386Y003549D01*
X006718Y003525D01*
X007051Y003517D01*
D11*
X009494Y012226D03*
X009494Y012600D03*
X009494Y012974D03*
X010518Y012974D03*
X010518Y012226D03*
D12*
X011137Y012223D03*
X011846Y012223D03*
X011493Y013105D03*
X012201Y013105D03*
X008760Y012210D03*
X008051Y012210D03*
D13*
G36*
X011019Y014989D02*
X010727Y014697D01*
X010339Y015085D01*
X010631Y015377D01*
X011019Y014989D01*
G37*
G36*
X011422Y015393D02*
X011130Y015101D01*
X010742Y015489D01*
X011034Y015781D01*
X011422Y015393D01*
G37*
G36*
X012425Y014391D02*
X012133Y014099D01*
X011745Y014487D01*
X012037Y014779D01*
X012425Y014391D01*
G37*
G36*
X012021Y013987D02*
X011729Y013695D01*
X011341Y014083D01*
X011633Y014375D01*
X012021Y013987D01*
G37*
D14*
X008941Y015939D03*
X008941Y016687D03*
X008153Y016313D03*
X009177Y009915D03*
X009177Y009167D03*
X008390Y009541D03*
X010712Y009876D03*
X010712Y009128D03*
X011500Y009502D03*
X008980Y004876D03*
X008980Y004128D03*
X008193Y004502D03*
X003390Y009167D03*
X003390Y009915D03*
X002602Y009541D03*
D15*
X001342Y010407D03*
X007051Y010407D03*
X007051Y005092D03*
X012760Y010407D03*
X007051Y015722D03*
D16*
X006647Y016628D03*
X007455Y016628D03*
X007455Y014817D03*
X006647Y014817D03*
X006647Y011313D03*
X007455Y011313D03*
X007455Y009502D03*
X006647Y009502D03*
X006647Y005998D03*
X007455Y005998D03*
X007455Y004187D03*
X006647Y004187D03*
X001746Y009502D03*
X000939Y009502D03*
X000939Y011313D03*
X001746Y011313D03*
X012356Y011313D03*
X013163Y011313D03*
X013163Y009502D03*
X012356Y009502D03*
D17*
X011500Y010643D03*
X011500Y011352D03*
X008468Y011313D03*
X008468Y010604D03*
X008232Y014738D03*
X008232Y015447D03*
X002602Y011313D03*
X002602Y010604D03*
X008193Y006116D03*
X008193Y005407D03*
D18*
X007926Y004696D02*
X003485Y004696D01*
X003363Y004774D02*
X008063Y004774D01*
X008063Y004749D02*
X007978Y004749D01*
X007926Y004696D01*
X007926Y004418D01*
X007824Y004317D01*
X007771Y004317D01*
X007771Y004482D01*
X007718Y004535D01*
X007191Y004535D01*
X007138Y004482D01*
X007138Y004317D01*
X006964Y004317D01*
X006964Y004482D01*
X006911Y004535D01*
X006384Y004535D01*
X006331Y004482D01*
X006331Y003892D01*
X006384Y003839D01*
X006911Y003839D01*
X006964Y003892D01*
X006964Y004057D01*
X007138Y004057D01*
X007138Y003892D01*
X007191Y003839D01*
X007718Y003839D01*
X007771Y003892D01*
X007771Y004057D01*
X007824Y004057D01*
X007932Y004057D01*
X008129Y004254D01*
X008407Y004254D01*
X008460Y004307D01*
X008460Y004696D01*
X008664Y004696D01*
X008663Y004700D02*
X008673Y004664D01*
X008691Y004632D01*
X008717Y004606D01*
X008749Y004588D01*
X008785Y004578D01*
X008941Y004578D01*
X008941Y004837D01*
X008663Y004837D01*
X008663Y004700D01*
X008663Y004774D02*
X008323Y004774D01*
X008323Y004749D02*
X008323Y005160D01*
X008466Y005160D01*
X008519Y005212D01*
X008519Y005602D01*
X008466Y005655D01*
X007919Y005655D01*
X007867Y005602D01*
X007867Y005212D01*
X007919Y005160D01*
X008063Y005160D01*
X008063Y004749D01*
X008063Y004853D02*
X003241Y004853D01*
X003119Y004931D02*
X006331Y004931D01*
X006331Y004917D02*
X006384Y004864D01*
X007718Y004864D01*
X007771Y004917D01*
X007771Y005267D01*
X007718Y005320D01*
X006384Y005320D01*
X006331Y005267D01*
X006331Y004917D01*
X006331Y005010D02*
X002999Y005010D01*
X003006Y005004D02*
X002278Y005634D01*
X001648Y006362D01*
X001127Y007172D01*
X000727Y008048D01*
X000455Y008972D01*
X000318Y009926D01*
X000318Y010889D01*
X000455Y011842D01*
X000727Y012766D01*
X001127Y013642D01*
X001648Y014452D01*
X002278Y015180D01*
X003006Y015811D01*
X003816Y016331D01*
X004692Y016731D01*
X005616Y017003D01*
X006569Y017140D01*
X007051Y017157D01*
X007533Y017140D01*
X008486Y017003D01*
X008670Y016949D01*
X008652Y016930D01*
X008633Y016898D01*
X008624Y016863D01*
X008624Y016726D01*
X008902Y016726D01*
X008902Y016648D01*
X008980Y016648D01*
X008980Y016726D01*
X009258Y016726D01*
X009258Y016776D01*
X009410Y016731D01*
X010286Y016331D01*
X010958Y015900D01*
X010948Y015894D01*
X010817Y015763D01*
X011082Y015497D01*
X011026Y015441D01*
X010760Y015706D01*
X010629Y015576D01*
X010611Y015544D01*
X010601Y015508D01*
X010601Y015471D01*
X010602Y015468D01*
X010593Y015468D01*
X010248Y015123D01*
X010248Y015049D01*
X010690Y014606D01*
X010765Y014606D01*
X010846Y014688D01*
X011115Y014419D01*
X009929Y013233D01*
X009929Y013125D01*
X009929Y012185D01*
X009714Y011970D01*
X009007Y011970D01*
X009007Y012096D01*
X009168Y012096D01*
X009168Y012081D01*
X009221Y012028D01*
X009768Y012028D01*
X009820Y012081D01*
X009820Y012372D01*
X009814Y012378D01*
X009816Y012380D01*
X009843Y012406D01*
X009861Y012438D01*
X009870Y012473D01*
X009870Y012586D01*
X009509Y012586D01*
X009509Y012614D01*
X009870Y012614D01*
X009870Y012727D01*
X009861Y012762D01*
X009843Y012794D01*
X009816Y012820D01*
X009814Y012822D01*
X009820Y012829D01*
X009820Y013120D01*
X009768Y013172D01*
X009221Y013172D01*
X009168Y013120D01*
X009168Y012829D01*
X009175Y012822D01*
X009172Y012820D01*
X009146Y012794D01*
X009128Y012762D01*
X009118Y012727D01*
X009118Y012614D01*
X009480Y012614D01*
X009480Y012586D01*
X009118Y012586D01*
X009118Y012473D01*
X009128Y012438D01*
X009146Y012406D01*
X009172Y012380D01*
X009175Y012378D01*
X009168Y012372D01*
X009168Y012356D01*
X009007Y012356D01*
X009007Y012484D01*
X008996Y012495D01*
X009094Y012592D01*
X009094Y012758D01*
X009024Y012828D01*
X009024Y015691D01*
X009155Y015691D01*
X009208Y015744D01*
X009208Y016133D01*
X009155Y016186D01*
X008726Y016186D01*
X008674Y016133D01*
X008674Y015744D01*
X008726Y015691D01*
X008764Y015691D01*
X008764Y012828D01*
X008694Y012758D01*
X008694Y012592D01*
X008749Y012537D01*
X008565Y012537D01*
X008512Y012484D01*
X008512Y011970D01*
X008298Y011970D01*
X008298Y012484D01*
X008246Y012537D01*
X007856Y012537D01*
X007804Y012484D01*
X007804Y012388D01*
X007543Y012388D01*
X007645Y012490D01*
X007645Y012655D01*
X007528Y012773D01*
X007362Y012773D01*
X007292Y012703D01*
X006859Y012703D01*
X006777Y012703D01*
X006777Y014469D01*
X006911Y014469D01*
X006964Y014522D01*
X006964Y014687D01*
X007138Y014687D01*
X007138Y014522D01*
X007191Y014469D01*
X007718Y014469D01*
X007771Y014522D01*
X007771Y014687D01*
X007906Y014687D01*
X007906Y014543D01*
X007959Y014490D01*
X008506Y014490D01*
X008558Y014543D01*
X008558Y014933D01*
X008506Y014985D01*
X008764Y014985D01*
X008764Y015063D02*
X007771Y015063D01*
X007771Y015112D02*
X007718Y015165D01*
X007191Y015165D01*
X007138Y015112D01*
X007138Y014947D01*
X006964Y014947D01*
X006964Y015112D01*
X006911Y015165D01*
X006384Y015165D01*
X006331Y015112D01*
X006331Y014522D01*
X006384Y014469D01*
X006517Y014469D01*
X006517Y012469D01*
X006517Y012361D01*
X006517Y011661D01*
X006384Y011661D01*
X006331Y011608D01*
X006331Y011458D01*
X005743Y011458D01*
X005673Y011528D01*
X005508Y011528D01*
X005438Y011458D01*
X003345Y011458D01*
X003345Y011498D01*
X003228Y011615D01*
X003063Y011615D01*
X002946Y011498D01*
X002946Y011458D01*
X002928Y011458D01*
X002928Y011507D01*
X002876Y011560D01*
X002329Y011560D01*
X002276Y011507D01*
X002276Y011443D01*
X002062Y011443D01*
X002062Y011608D01*
X002010Y011661D01*
X001482Y011661D01*
X001430Y011608D01*
X001430Y011443D01*
X001255Y011443D01*
X001255Y011608D01*
X001202Y011661D01*
X000675Y011661D01*
X000622Y011608D01*
X000622Y011018D01*
X000675Y010965D01*
X001202Y010965D01*
X001255Y011018D01*
X001255Y011183D01*
X001430Y011183D01*
X001430Y011018D01*
X001482Y010965D01*
X002010Y010965D01*
X002062Y011018D01*
X002062Y011183D01*
X002276Y011183D01*
X002276Y011118D01*
X002329Y011065D01*
X002876Y011065D01*
X002928Y011118D01*
X002928Y011199D01*
X003092Y011199D01*
X003199Y011199D01*
X005438Y011199D01*
X005453Y011183D01*
X005329Y011183D01*
X005222Y011183D01*
X003453Y009415D01*
X003175Y009415D01*
X003122Y009362D01*
X003122Y008972D01*
X003175Y008920D01*
X003604Y008920D01*
X003657Y008972D01*
X003657Y009250D01*
X005329Y010923D01*
X006040Y010923D01*
X006110Y010853D01*
X006276Y010853D01*
X006388Y010965D01*
X006911Y010965D01*
X006964Y011018D01*
X006964Y011183D01*
X007138Y011183D01*
X007138Y011018D01*
X007191Y010965D01*
X007718Y010965D01*
X007771Y011018D01*
X007771Y011183D01*
X008142Y011183D01*
X008142Y011118D01*
X008195Y011065D01*
X008742Y011065D01*
X008795Y011118D01*
X008795Y011183D01*
X010477Y011183D01*
X010107Y010813D01*
X010031Y010737D01*
X010031Y009655D01*
X009961Y009585D01*
X009961Y009486D01*
X008417Y007941D01*
X008417Y007834D01*
X008417Y006804D01*
X008347Y006734D01*
X008347Y006568D01*
X008353Y006562D01*
X008154Y006364D01*
X008153Y006363D01*
X007919Y006363D01*
X007867Y006311D01*
X007867Y006128D01*
X007771Y006128D01*
X007771Y006293D01*
X007718Y006346D01*
X007191Y006346D01*
X007138Y006293D01*
X007138Y006128D01*
X006964Y006128D01*
X006964Y006293D01*
X006911Y006346D01*
X006384Y006346D01*
X006331Y006293D01*
X006331Y005703D01*
X006384Y005650D01*
X006911Y005650D01*
X006964Y005703D01*
X006964Y005868D01*
X007138Y005868D01*
X007138Y005703D01*
X007191Y005650D01*
X007718Y005650D01*
X007771Y005703D01*
X007771Y005868D01*
X007903Y005868D01*
X008148Y005868D01*
X008149Y005868D01*
X008466Y005868D01*
X008519Y005921D01*
X008519Y006311D01*
X008494Y006336D01*
X008593Y006435D01*
X008610Y006451D01*
X008630Y006451D01*
X008747Y006568D01*
X008747Y006734D01*
X008677Y006804D01*
X008677Y007834D01*
X010145Y009302D01*
X010244Y009302D01*
X010361Y009419D01*
X010361Y009585D01*
X010291Y009655D01*
X010291Y010629D01*
X010814Y011152D01*
X010913Y011152D01*
X010924Y011163D01*
X011174Y011163D01*
X011174Y011157D01*
X011226Y011105D01*
X011773Y011105D01*
X011826Y011157D01*
X011826Y011222D01*
X012040Y011222D01*
X012040Y011018D01*
X012092Y010965D01*
X012620Y010965D01*
X012672Y011018D01*
X012672Y011183D01*
X012847Y011183D01*
X012847Y011018D01*
X012900Y010965D01*
X013427Y010965D01*
X013480Y011018D01*
X013480Y011608D01*
X013427Y011661D01*
X012900Y011661D01*
X012847Y011608D01*
X012847Y011443D01*
X012672Y011443D01*
X012672Y011608D01*
X012620Y011661D01*
X012092Y011661D01*
X012040Y011608D01*
X012040Y011482D01*
X011826Y011482D01*
X011826Y011547D01*
X011773Y011600D01*
X011226Y011600D01*
X011174Y011547D01*
X011174Y011423D01*
X011046Y011423D01*
X011557Y011934D01*
X011558Y011933D01*
X011576Y011901D01*
X011602Y011875D01*
X011634Y011856D01*
X011670Y011847D01*
X011807Y011847D01*
X011807Y012184D01*
X011884Y012184D01*
X011884Y011847D01*
X012021Y011847D01*
X012057Y011856D01*
X012089Y011875D01*
X012115Y011901D01*
X012133Y011933D01*
X012143Y011968D01*
X012143Y012184D01*
X011884Y012184D01*
X011884Y012262D01*
X011807Y012262D01*
X011807Y012599D01*
X011670Y012599D01*
X011634Y012590D01*
X011623Y012583D01*
X011623Y012779D01*
X011687Y012779D01*
X011740Y012831D01*
X011740Y013378D01*
X011687Y013431D01*
X011298Y013431D01*
X011245Y013378D01*
X011245Y013235D01*
X010595Y013235D01*
X010532Y013172D01*
X010244Y013172D01*
X010192Y013120D01*
X010192Y012829D01*
X010244Y012776D01*
X010791Y012776D01*
X010844Y012829D01*
X010844Y012975D01*
X011245Y012975D01*
X011245Y012831D01*
X011298Y012779D01*
X011363Y012779D01*
X011363Y012518D01*
X011332Y012549D01*
X010942Y012549D01*
X010889Y012496D01*
X010889Y012353D01*
X010844Y012353D01*
X010844Y012372D01*
X010791Y012424D01*
X010244Y012424D01*
X010192Y012372D01*
X010192Y012081D01*
X010244Y012028D01*
X010791Y012028D01*
X010844Y012081D01*
X010844Y012093D01*
X010889Y012093D01*
X010889Y011949D01*
X010942Y011897D01*
X011152Y011897D01*
X010850Y011595D01*
X010685Y011760D01*
X010609Y011836D01*
X009947Y011836D01*
X010113Y012002D01*
X010189Y012078D01*
X010189Y013125D01*
X011299Y014235D01*
X011332Y014203D01*
X011250Y014121D01*
X011250Y014046D01*
X011692Y013604D01*
X011767Y013604D01*
X012112Y013949D01*
X012112Y013958D01*
X012115Y013958D01*
X012152Y013958D01*
X012187Y013967D01*
X012219Y013986D01*
X012350Y014117D01*
X012085Y014382D01*
X012141Y014438D01*
X012407Y014173D01*
X012538Y014304D01*
X012543Y014314D01*
X012975Y013642D01*
X013375Y012766D01*
X013647Y011842D01*
X013784Y010889D01*
X013784Y009926D01*
X013647Y008972D01*
X013375Y008048D01*
X012975Y007172D01*
X012454Y006362D01*
X011824Y005634D01*
X011096Y005004D01*
X010286Y004483D01*
X009410Y004083D01*
X009247Y004035D01*
X009247Y004211D01*
X011240Y006204D01*
X011240Y006311D01*
X011240Y009300D01*
X011285Y009254D01*
X011714Y009254D01*
X011767Y009307D01*
X011767Y009372D01*
X012040Y009372D01*
X012040Y009207D01*
X012092Y009154D01*
X012620Y009154D01*
X012672Y009207D01*
X012672Y009372D01*
X012847Y009372D01*
X012847Y009207D01*
X012900Y009154D01*
X013427Y009154D01*
X013480Y009207D01*
X013480Y009797D01*
X013427Y009850D01*
X012900Y009850D01*
X012847Y009797D01*
X012847Y009632D01*
X012672Y009632D01*
X012672Y009797D01*
X012620Y009850D01*
X012092Y009850D01*
X012040Y009797D01*
X012040Y009632D01*
X011767Y009632D01*
X011767Y009696D01*
X011714Y009749D01*
X011630Y009749D01*
X011630Y010396D01*
X011773Y010396D01*
X011826Y010449D01*
X011826Y010838D01*
X011773Y010891D01*
X011226Y010891D01*
X011174Y010838D01*
X011174Y010449D01*
X011226Y010396D01*
X011370Y010396D01*
X011370Y009749D01*
X011285Y009749D01*
X011235Y009699D01*
X011193Y009741D01*
X011027Y009741D01*
X010980Y009693D01*
X010980Y010070D01*
X010927Y010123D01*
X010858Y010123D01*
X010858Y010365D01*
X010928Y010435D01*
X010928Y010600D01*
X010811Y010717D01*
X010645Y010717D01*
X010528Y010600D01*
X010528Y010435D01*
X010598Y010365D01*
X010598Y010123D01*
X010498Y010123D01*
X010445Y010070D01*
X010445Y009681D01*
X010498Y009628D01*
X010914Y009628D01*
X010910Y009624D01*
X010910Y009458D01*
X010965Y009403D01*
X010944Y009416D01*
X010908Y009425D01*
X010751Y009425D01*
X010751Y009167D01*
X010674Y009167D01*
X010674Y009425D01*
X010517Y009425D01*
X010481Y009416D01*
X010449Y009397D01*
X010423Y009371D01*
X010405Y009339D01*
X010395Y009304D01*
X010395Y009166D01*
X010673Y009166D01*
X010673Y009089D01*
X010395Y009089D01*
X010395Y008952D01*
X010405Y008916D01*
X010423Y008884D01*
X010449Y008858D01*
X010481Y008840D01*
X010517Y008830D01*
X010674Y008830D01*
X010674Y009089D01*
X010751Y009089D01*
X010751Y008830D01*
X010908Y008830D01*
X010944Y008840D01*
X010976Y008858D01*
X010980Y008858D01*
X010976Y008858D02*
X010980Y008863D01*
X010980Y006311D01*
X009044Y004375D01*
X008766Y004375D01*
X008713Y004322D01*
X008713Y003933D01*
X008755Y003891D01*
X008486Y003812D01*
X007533Y003675D01*
X007051Y003657D01*
X006569Y003675D01*
X005616Y003812D01*
X004692Y004083D01*
X003816Y004483D01*
X003006Y005004D01*
X002908Y005088D02*
X006331Y005088D01*
X006331Y005167D02*
X002818Y005167D01*
X002727Y005245D02*
X006331Y005245D01*
X006331Y005717D02*
X002207Y005717D01*
X002139Y005795D02*
X006331Y005795D01*
X006331Y005874D02*
X002071Y005874D01*
X002003Y005952D02*
X006331Y005952D01*
X006331Y006031D02*
X001935Y006031D01*
X001867Y006109D02*
X006331Y006109D01*
X006331Y006188D02*
X001799Y006188D01*
X001731Y006266D02*
X006331Y006266D01*
X006383Y006345D02*
X001662Y006345D01*
X001608Y006424D02*
X008214Y006424D01*
X008293Y006502D02*
X001558Y006502D01*
X001507Y006581D02*
X008347Y006581D01*
X008347Y006659D02*
X001457Y006659D01*
X001406Y006738D02*
X008351Y006738D01*
X008417Y006816D02*
X001356Y006816D01*
X001305Y006895D02*
X008417Y006895D01*
X008417Y006973D02*
X001255Y006973D01*
X001204Y007052D02*
X008417Y007052D01*
X008417Y007130D02*
X001154Y007130D01*
X001110Y007209D02*
X008417Y007209D01*
X008417Y007288D02*
X001074Y007288D01*
X001038Y007366D02*
X008417Y007366D01*
X008417Y007445D02*
X001003Y007445D01*
X000967Y007523D02*
X008417Y007523D01*
X008417Y007602D02*
X000931Y007602D01*
X000895Y007680D02*
X008417Y007680D01*
X008417Y007759D02*
X000859Y007759D01*
X000823Y007837D02*
X008417Y007837D01*
X008417Y007916D02*
X000787Y007916D01*
X000751Y007994D02*
X008470Y007994D01*
X008549Y008073D02*
X000720Y008073D01*
X000697Y008152D02*
X008627Y008152D01*
X008706Y008230D02*
X000674Y008230D01*
X000650Y008309D02*
X008784Y008309D01*
X008863Y008387D02*
X000627Y008387D01*
X000604Y008466D02*
X008941Y008466D01*
X009020Y008544D02*
X000581Y008544D01*
X000558Y008623D02*
X009099Y008623D01*
X009177Y008701D02*
X000535Y008701D01*
X000512Y008780D02*
X009256Y008780D01*
X009334Y008858D02*
X000489Y008858D01*
X000466Y008937D02*
X003158Y008937D01*
X003122Y009016D02*
X000449Y009016D01*
X000438Y009094D02*
X003122Y009094D01*
X003122Y009173D02*
X002028Y009173D01*
X002010Y009154D02*
X002062Y009207D01*
X002062Y009372D01*
X002335Y009372D01*
X002335Y009346D01*
X002388Y009294D01*
X002817Y009294D01*
X002869Y009346D01*
X002869Y009736D01*
X002817Y009789D01*
X002732Y009789D01*
X002732Y010357D01*
X002876Y010357D01*
X002928Y010409D01*
X002928Y010799D01*
X002876Y010852D01*
X002329Y010852D01*
X002276Y010799D01*
X002276Y010409D01*
X002329Y010357D01*
X002472Y010357D01*
X002472Y009789D01*
X002388Y009789D01*
X002335Y009736D01*
X002335Y009632D01*
X002062Y009632D01*
X002062Y009797D01*
X002010Y009850D01*
X001482Y009850D01*
X001430Y009797D01*
X001430Y009632D01*
X001255Y009632D01*
X001255Y009797D01*
X001202Y009850D01*
X000675Y009850D01*
X000622Y009797D01*
X000622Y009207D01*
X000675Y009154D01*
X001202Y009154D01*
X001255Y009207D01*
X001255Y009372D01*
X001430Y009372D01*
X001430Y009207D01*
X001482Y009154D01*
X002010Y009154D01*
X002062Y009251D02*
X003122Y009251D01*
X003122Y009330D02*
X002853Y009330D01*
X002869Y009408D02*
X003169Y009408D01*
X003194Y009618D02*
X003351Y009618D01*
X003351Y009876D01*
X003428Y009876D01*
X003428Y009618D01*
X003585Y009618D01*
X003621Y009627D01*
X003653Y009646D01*
X003679Y009672D01*
X003697Y009704D01*
X003707Y009739D01*
X003707Y009876D01*
X003429Y009876D01*
X003429Y009954D01*
X003707Y009954D01*
X003707Y010091D01*
X003697Y010127D01*
X003679Y010159D01*
X003653Y010185D01*
X003621Y010203D01*
X003585Y010213D01*
X003428Y010213D01*
X003428Y009954D01*
X003351Y009954D01*
X003351Y010213D01*
X003194Y010213D01*
X003158Y010203D01*
X003126Y010185D01*
X003100Y010159D01*
X003082Y010127D01*
X003072Y010091D01*
X003072Y009954D01*
X003351Y009954D01*
X003351Y009876D01*
X003072Y009876D01*
X003072Y009739D01*
X003082Y009704D01*
X003100Y009672D01*
X003126Y009646D01*
X003158Y009627D01*
X003194Y009618D01*
X003129Y009644D02*
X002869Y009644D01*
X002869Y009722D02*
X003077Y009722D01*
X003072Y009801D02*
X002732Y009801D01*
X002732Y009879D02*
X003351Y009879D01*
X003429Y009879D02*
X003918Y009879D01*
X003840Y009801D02*
X003707Y009801D01*
X003702Y009722D02*
X003761Y009722D01*
X003683Y009644D02*
X003650Y009644D01*
X003604Y009565D02*
X002869Y009565D01*
X002869Y009487D02*
X003525Y009487D01*
X003428Y009644D02*
X003351Y009644D01*
X003351Y009722D02*
X003428Y009722D01*
X003428Y009801D02*
X003351Y009801D01*
X003351Y009958D02*
X003428Y009958D01*
X003428Y010037D02*
X003351Y010037D01*
X003351Y010115D02*
X003428Y010115D01*
X003428Y010194D02*
X003351Y010194D01*
X003142Y010194D02*
X002732Y010194D01*
X002732Y010272D02*
X004311Y010272D01*
X004232Y010194D02*
X003637Y010194D01*
X003700Y010115D02*
X004154Y010115D01*
X004075Y010037D02*
X003707Y010037D01*
X003707Y009958D02*
X003997Y009958D01*
X004207Y009801D02*
X005409Y009801D01*
X005409Y009779D02*
X005485Y009702D01*
X006249Y008939D01*
X006357Y008939D01*
X008944Y008939D01*
X008963Y008920D01*
X009391Y008920D01*
X009444Y008972D01*
X009444Y009362D01*
X009391Y009415D01*
X008963Y009415D01*
X008910Y009362D01*
X008910Y009199D01*
X007763Y009199D01*
X007771Y009207D01*
X007771Y009372D01*
X008122Y009372D01*
X008122Y009346D01*
X008175Y009294D01*
X008604Y009294D01*
X008657Y009346D01*
X008657Y009736D01*
X008604Y009789D01*
X008598Y009789D01*
X008598Y010357D01*
X008742Y010357D01*
X008795Y010409D01*
X008795Y010799D01*
X008742Y010852D01*
X008195Y010852D01*
X008142Y010799D01*
X008142Y010409D01*
X008195Y010357D01*
X008338Y010357D01*
X008338Y009789D01*
X008175Y009789D01*
X008122Y009736D01*
X008122Y009632D01*
X007771Y009632D01*
X007771Y009797D01*
X007718Y009850D01*
X007191Y009850D01*
X007138Y009797D01*
X007138Y009632D01*
X006964Y009632D01*
X006964Y009797D01*
X006911Y009850D01*
X006384Y009850D01*
X006331Y009797D01*
X006331Y009224D01*
X005669Y009886D01*
X005669Y010113D01*
X005739Y010183D01*
X005739Y010348D01*
X005622Y010465D01*
X005456Y010465D01*
X005339Y010348D01*
X005339Y010183D01*
X005409Y010113D01*
X005409Y009779D01*
X005465Y009722D02*
X004129Y009722D01*
X004050Y009644D02*
X005544Y009644D01*
X005622Y009565D02*
X003972Y009565D01*
X003893Y009487D02*
X005701Y009487D01*
X005780Y009408D02*
X003815Y009408D01*
X003736Y009330D02*
X005858Y009330D01*
X005937Y009251D02*
X003657Y009251D01*
X003657Y009173D02*
X006015Y009173D01*
X006094Y009094D02*
X003657Y009094D01*
X003657Y009016D02*
X006172Y009016D01*
X006303Y009069D02*
X005539Y009832D01*
X005539Y010266D01*
X005739Y010272D02*
X006331Y010272D01*
X006331Y010232D02*
X006384Y010179D01*
X007718Y010179D01*
X007771Y010232D01*
X007771Y010582D01*
X007718Y010635D01*
X006384Y010635D01*
X006331Y010582D01*
X006331Y010232D01*
X006370Y010194D02*
X005739Y010194D01*
X005672Y010115D02*
X008338Y010115D01*
X008338Y010037D02*
X005669Y010037D01*
X005669Y009958D02*
X008338Y009958D01*
X008338Y009879D02*
X005676Y009879D01*
X005754Y009801D02*
X006335Y009801D01*
X006331Y009722D02*
X005833Y009722D01*
X005912Y009644D02*
X006331Y009644D01*
X006331Y009565D02*
X005990Y009565D01*
X006069Y009487D02*
X006331Y009487D01*
X006331Y009408D02*
X006147Y009408D01*
X006226Y009330D02*
X006331Y009330D01*
X006331Y009251D02*
X006304Y009251D01*
X006303Y009069D02*
X009083Y009069D01*
X009177Y009163D01*
X009177Y009167D01*
X009409Y008937D02*
X009413Y008937D01*
X009444Y009016D02*
X009491Y009016D01*
X009444Y009094D02*
X009570Y009094D01*
X009648Y009173D02*
X009444Y009173D01*
X009444Y009251D02*
X009727Y009251D01*
X009805Y009330D02*
X009444Y009330D01*
X009398Y009408D02*
X009884Y009408D01*
X009961Y009487D02*
X008657Y009487D01*
X008657Y009565D02*
X009961Y009565D01*
X010021Y009644D02*
X009437Y009644D01*
X009440Y009646D02*
X009408Y009627D01*
X009373Y009618D01*
X009216Y009618D01*
X009216Y009876D01*
X009138Y009876D01*
X009138Y009618D01*
X008981Y009618D01*
X008946Y009627D01*
X008914Y009646D01*
X008888Y009672D01*
X008869Y009704D01*
X008860Y009739D01*
X008860Y009876D01*
X009138Y009876D01*
X009138Y009954D01*
X008860Y009954D01*
X008860Y010091D01*
X008869Y010127D01*
X008888Y010159D01*
X008914Y010185D01*
X008946Y010203D01*
X008981Y010213D01*
X009138Y010213D01*
X009138Y009954D01*
X009216Y009954D01*
X009494Y009954D01*
X009494Y010091D01*
X009485Y010127D01*
X009466Y010159D01*
X009440Y010185D01*
X009408Y010203D01*
X009373Y010213D01*
X009216Y010213D01*
X009216Y009954D01*
X009216Y009876D01*
X009494Y009876D01*
X009494Y009739D01*
X009485Y009704D01*
X009466Y009672D01*
X009440Y009646D01*
X009490Y009722D02*
X010031Y009722D01*
X010031Y009801D02*
X009494Y009801D01*
X009494Y009958D02*
X010031Y009958D01*
X010031Y009879D02*
X009216Y009879D01*
X009138Y009879D02*
X008598Y009879D01*
X008598Y009801D02*
X008860Y009801D01*
X008864Y009722D02*
X008657Y009722D01*
X008657Y009644D02*
X008917Y009644D01*
X009138Y009644D02*
X009216Y009644D01*
X009216Y009722D02*
X009138Y009722D01*
X009138Y009801D02*
X009216Y009801D01*
X009216Y009958D02*
X009138Y009958D01*
X009138Y010037D02*
X009216Y010037D01*
X009216Y010115D02*
X009138Y010115D01*
X009138Y010194D02*
X009216Y010194D01*
X009424Y010194D02*
X010031Y010194D01*
X010031Y010272D02*
X008598Y010272D01*
X008598Y010194D02*
X008930Y010194D01*
X008866Y010115D02*
X008598Y010115D01*
X008598Y010037D02*
X008860Y010037D01*
X008860Y009958D02*
X008598Y009958D01*
X008338Y009801D02*
X007767Y009801D01*
X007771Y009722D02*
X008122Y009722D01*
X008122Y009644D02*
X007771Y009644D01*
X007771Y009330D02*
X008139Y009330D01*
X008350Y009502D02*
X008390Y009541D01*
X008468Y009620D01*
X008468Y010604D01*
X008338Y010351D02*
X007771Y010351D01*
X007771Y010429D02*
X008142Y010429D01*
X008142Y010508D02*
X007771Y010508D01*
X007767Y010586D02*
X008142Y010586D01*
X008142Y010665D02*
X005071Y010665D01*
X004993Y010586D02*
X006335Y010586D01*
X006331Y010508D02*
X004914Y010508D01*
X004836Y010429D02*
X005420Y010429D01*
X005342Y010351D02*
X004757Y010351D01*
X004679Y010272D02*
X005339Y010272D01*
X005339Y010194D02*
X004600Y010194D01*
X004521Y010115D02*
X005407Y010115D01*
X005409Y010037D02*
X004443Y010037D01*
X004364Y009958D02*
X005409Y009958D01*
X005409Y009879D02*
X004286Y009879D01*
X004389Y010351D02*
X002732Y010351D01*
X002928Y010429D02*
X004468Y010429D01*
X004547Y010508D02*
X002928Y010508D01*
X002928Y010586D02*
X004625Y010586D01*
X004704Y010665D02*
X002928Y010665D01*
X002928Y010743D02*
X004782Y010743D01*
X004861Y010822D02*
X002905Y010822D01*
X002928Y011136D02*
X005175Y011136D01*
X005096Y011058D02*
X002062Y011058D01*
X002062Y011136D02*
X002276Y011136D01*
X002299Y010822D02*
X000318Y010822D01*
X000320Y010901D02*
X004939Y010901D01*
X005018Y010979D02*
X002024Y010979D01*
X002010Y010635D02*
X000675Y010635D01*
X000622Y010582D01*
X000622Y010232D01*
X000675Y010179D01*
X002010Y010179D01*
X002062Y010232D01*
X002062Y010582D01*
X002010Y010635D01*
X002058Y010586D02*
X002276Y010586D01*
X002276Y010508D02*
X002062Y010508D01*
X002062Y010429D02*
X002276Y010429D01*
X002472Y010351D02*
X002062Y010351D01*
X002062Y010272D02*
X002472Y010272D01*
X002472Y010194D02*
X002024Y010194D01*
X002058Y009801D02*
X002472Y009801D01*
X002472Y009879D02*
X000325Y009879D01*
X000336Y009801D02*
X000627Y009801D01*
X000622Y009722D02*
X000348Y009722D01*
X000359Y009644D02*
X000622Y009644D01*
X000622Y009565D02*
X000370Y009565D01*
X000382Y009487D02*
X000622Y009487D01*
X000622Y009408D02*
X000393Y009408D01*
X000404Y009330D02*
X000622Y009330D01*
X000622Y009251D02*
X000415Y009251D01*
X000427Y009173D02*
X000656Y009173D01*
X000939Y009502D02*
X001746Y009502D01*
X002563Y009502D01*
X002602Y009541D01*
X002602Y010604D01*
X002276Y010665D02*
X000318Y010665D01*
X000318Y010743D02*
X002276Y010743D01*
X002602Y011313D02*
X002622Y011332D01*
X002626Y011329D01*
X003146Y011329D01*
X003146Y011415D01*
X003146Y011329D02*
X005590Y011329D01*
X006624Y011329D01*
X006628Y011332D01*
X006647Y011313D01*
X007455Y011313D01*
X008468Y011313D01*
X010791Y011313D01*
X010831Y011352D01*
X010831Y011391D01*
X011493Y012054D01*
X011493Y013105D01*
X010649Y013105D01*
X010518Y012974D01*
X010538Y013178D02*
X010242Y013178D01*
X010192Y013100D02*
X010189Y013100D01*
X010189Y013021D02*
X010192Y013021D01*
X010189Y012943D02*
X010192Y012943D01*
X010189Y012864D02*
X010192Y012864D01*
X010189Y012786D02*
X010235Y012786D01*
X010189Y012707D02*
X011363Y012707D01*
X011363Y012629D02*
X010189Y012629D01*
X010189Y012550D02*
X011363Y012550D01*
X011137Y012223D02*
X010521Y012223D01*
X010518Y012226D01*
X010192Y012236D02*
X010189Y012236D01*
X010189Y012314D02*
X010192Y012314D01*
X010189Y012393D02*
X010213Y012393D01*
X010189Y012471D02*
X010889Y012471D01*
X010889Y012393D02*
X010823Y012393D01*
X010842Y012079D02*
X010889Y012079D01*
X010889Y012000D02*
X010111Y012000D01*
X010189Y012079D02*
X010194Y012079D01*
X010189Y012157D02*
X010192Y012157D01*
X010059Y012132D02*
X010059Y013179D01*
X011299Y014419D01*
X010681Y015037D01*
X010679Y015037D01*
X010469Y014828D02*
X009024Y014828D01*
X009024Y014906D02*
X010390Y014906D01*
X010312Y014985D02*
X009024Y014985D01*
X009024Y015063D02*
X010248Y015063D01*
X010266Y015142D02*
X009024Y015142D01*
X009024Y015220D02*
X010345Y015220D01*
X010424Y015299D02*
X009024Y015299D01*
X009024Y015378D02*
X010502Y015378D01*
X010581Y015456D02*
X009024Y015456D01*
X009024Y015535D02*
X010609Y015535D01*
X010667Y015613D02*
X009024Y015613D01*
X009156Y015692D02*
X010746Y015692D01*
X010775Y015692D02*
X010888Y015692D01*
X010854Y015613D02*
X010967Y015613D01*
X010932Y015535D02*
X011045Y015535D01*
X011041Y015456D02*
X011011Y015456D01*
X011083Y015384D02*
X011139Y015441D01*
X011404Y015175D01*
X011535Y015306D01*
X011554Y015338D01*
X011563Y015374D01*
X011563Y015406D01*
X011824Y015180D01*
X012049Y014920D01*
X012017Y014920D01*
X011982Y014910D01*
X011950Y014892D01*
X011819Y014761D01*
X012084Y014495D01*
X012028Y014439D01*
X011763Y014704D01*
X011632Y014573D01*
X011613Y014541D01*
X011604Y014506D01*
X011604Y014469D01*
X011604Y014466D01*
X011595Y014466D01*
X011515Y014386D01*
X011429Y014473D01*
X011353Y014549D01*
X011353Y014549D01*
X011030Y014872D01*
X011110Y014951D01*
X011110Y014961D01*
X011113Y014960D01*
X011150Y014960D01*
X011185Y014969D01*
X011217Y014988D01*
X011348Y015119D01*
X011083Y015384D01*
X011089Y015378D02*
X011202Y015378D01*
X011168Y015299D02*
X011281Y015299D01*
X011246Y015220D02*
X011359Y015220D01*
X011325Y015142D02*
X011857Y015142D01*
X011925Y015063D02*
X011293Y015063D01*
X011212Y014985D02*
X011993Y014985D01*
X011975Y014906D02*
X011065Y014906D01*
X011074Y014828D02*
X011886Y014828D01*
X011831Y014749D02*
X011153Y014749D01*
X011231Y014671D02*
X011729Y014671D01*
X011796Y014671D02*
X011909Y014671D01*
X011875Y014592D02*
X011988Y014592D01*
X011953Y014514D02*
X012066Y014514D01*
X012138Y014435D02*
X012145Y014435D01*
X012110Y014356D02*
X012223Y014356D01*
X012189Y014278D02*
X012302Y014278D01*
X012267Y014199D02*
X012380Y014199D01*
X012433Y014199D02*
X012617Y014199D01*
X012667Y014121D02*
X012346Y014121D01*
X012276Y014042D02*
X012718Y014042D01*
X012768Y013964D02*
X012175Y013964D01*
X012048Y013885D02*
X012819Y013885D01*
X012869Y013807D02*
X011970Y013807D01*
X011891Y013728D02*
X012920Y013728D01*
X012970Y013650D02*
X011813Y013650D01*
X011647Y013650D02*
X010713Y013650D01*
X010792Y013728D02*
X011568Y013728D01*
X011490Y013807D02*
X010870Y013807D01*
X010949Y013885D02*
X011411Y013885D01*
X011333Y013964D02*
X011028Y013964D01*
X011106Y014042D02*
X011254Y014042D01*
X011250Y014121D02*
X011185Y014121D01*
X011263Y014199D02*
X011328Y014199D01*
X011299Y014419D02*
X011681Y014037D01*
X011681Y014035D01*
X011564Y014435D02*
X011467Y014435D01*
X011429Y014473D02*
X011429Y014473D01*
X011388Y014514D02*
X011606Y014514D01*
X011650Y014592D02*
X011310Y014592D01*
X011099Y014435D02*
X009024Y014435D01*
X009024Y014356D02*
X011053Y014356D01*
X010974Y014278D02*
X009024Y014278D01*
X009024Y014199D02*
X010896Y014199D01*
X010817Y014121D02*
X009024Y014121D01*
X009024Y014042D02*
X010738Y014042D01*
X010660Y013964D02*
X009024Y013964D01*
X009024Y013885D02*
X010581Y013885D01*
X010503Y013807D02*
X009024Y013807D01*
X009024Y013728D02*
X010424Y013728D01*
X010346Y013650D02*
X009024Y013650D01*
X009024Y013571D02*
X010267Y013571D01*
X010189Y013492D02*
X009024Y013492D01*
X009024Y013414D02*
X010110Y013414D01*
X010032Y013335D02*
X009024Y013335D01*
X009024Y013257D02*
X009953Y013257D01*
X009929Y013178D02*
X009024Y013178D01*
X009024Y013100D02*
X009168Y013100D01*
X009168Y013021D02*
X009024Y013021D01*
X009024Y012943D02*
X009168Y012943D01*
X009168Y012864D02*
X009024Y012864D01*
X009066Y012786D02*
X009141Y012786D01*
X009118Y012707D02*
X009094Y012707D01*
X009094Y012629D02*
X009118Y012629D01*
X009118Y012550D02*
X009051Y012550D01*
X009007Y012471D02*
X009119Y012471D01*
X009159Y012393D02*
X009007Y012393D01*
X008756Y012226D02*
X008760Y012210D01*
X008756Y012226D02*
X009494Y012226D01*
X009820Y012236D02*
X009929Y012236D01*
X009929Y012314D02*
X009820Y012314D01*
X009829Y012393D02*
X009929Y012393D01*
X009929Y012471D02*
X009870Y012471D01*
X009870Y012550D02*
X009929Y012550D01*
X009929Y012629D02*
X009870Y012629D01*
X009870Y012707D02*
X009929Y012707D01*
X009929Y012786D02*
X009848Y012786D01*
X009820Y012864D02*
X009929Y012864D01*
X009929Y012943D02*
X009820Y012943D01*
X009820Y013021D02*
X009929Y013021D01*
X009929Y013100D02*
X009820Y013100D01*
X010321Y013257D02*
X011245Y013257D01*
X011245Y013335D02*
X010399Y013335D01*
X010478Y013414D02*
X011281Y013414D01*
X011245Y012943D02*
X010844Y012943D01*
X010844Y012864D02*
X011245Y012864D01*
X011291Y012786D02*
X010801Y012786D01*
X010556Y013492D02*
X013043Y013492D01*
X013079Y013414D02*
X012479Y013414D01*
X012471Y013427D02*
X012445Y013453D01*
X012413Y013472D01*
X012377Y013481D01*
X012240Y013481D01*
X012240Y013144D01*
X012163Y013144D01*
X012163Y013481D01*
X012025Y013481D01*
X011990Y013472D01*
X011958Y013453D01*
X011932Y013427D01*
X011913Y013395D01*
X011904Y013360D01*
X011904Y013144D01*
X012162Y013144D01*
X012162Y013066D01*
X011904Y013066D01*
X011904Y012850D01*
X011913Y012815D01*
X011932Y012783D01*
X011958Y012757D01*
X011990Y012738D01*
X012025Y012729D01*
X012163Y012729D01*
X012163Y013066D01*
X012240Y013066D01*
X012240Y012729D01*
X012377Y012729D01*
X012413Y012738D01*
X012445Y012757D01*
X012471Y012783D01*
X012489Y012815D01*
X012499Y012850D01*
X012499Y013066D01*
X012240Y013066D01*
X012240Y013144D01*
X012499Y013144D01*
X012499Y013360D01*
X012489Y013395D01*
X012471Y013427D01*
X012499Y013335D02*
X013115Y013335D01*
X013151Y013257D02*
X012499Y013257D01*
X012499Y013178D02*
X013187Y013178D01*
X013223Y013100D02*
X012240Y013100D01*
X012162Y013100D02*
X011740Y013100D01*
X011740Y013178D02*
X011904Y013178D01*
X011904Y013257D02*
X011740Y013257D01*
X011740Y013335D02*
X011904Y013335D01*
X011924Y013414D02*
X011705Y013414D01*
X011740Y013021D02*
X011904Y013021D01*
X011904Y012943D02*
X011740Y012943D01*
X011740Y012864D02*
X011904Y012864D01*
X011930Y012786D02*
X011694Y012786D01*
X011623Y012707D02*
X013392Y012707D01*
X013416Y012629D02*
X011623Y012629D01*
X011807Y012550D02*
X011884Y012550D01*
X011884Y012599D02*
X011884Y012262D01*
X012143Y012262D01*
X012143Y012478D01*
X012133Y012513D01*
X012115Y012545D01*
X012089Y012571D01*
X012057Y012590D01*
X012021Y012599D01*
X011884Y012599D01*
X011884Y012471D02*
X011807Y012471D01*
X011807Y012393D02*
X011884Y012393D01*
X011884Y012314D02*
X011807Y012314D01*
X011884Y012236D02*
X013531Y012236D01*
X013508Y012314D02*
X012143Y012314D01*
X012143Y012393D02*
X013485Y012393D01*
X013462Y012471D02*
X012143Y012471D01*
X012110Y012550D02*
X013439Y012550D01*
X013366Y012786D02*
X012473Y012786D01*
X012499Y012864D02*
X013330Y012864D01*
X013294Y012943D02*
X012499Y012943D01*
X012499Y013021D02*
X013259Y013021D01*
X013008Y013571D02*
X010635Y013571D01*
X011021Y014514D02*
X009024Y014514D01*
X009024Y014592D02*
X010942Y014592D01*
X010864Y014671D02*
X010829Y014671D01*
X010626Y014671D02*
X009024Y014671D01*
X009024Y014749D02*
X010547Y014749D01*
X010824Y015770D02*
X009208Y015770D01*
X009208Y015849D02*
X010903Y015849D01*
X010915Y015927D02*
X009208Y015927D01*
X009208Y016006D02*
X010792Y016006D01*
X010670Y016084D02*
X009208Y016084D01*
X009178Y016163D02*
X010548Y016163D01*
X010426Y016241D02*
X008421Y016241D01*
X008421Y016163D02*
X008703Y016163D01*
X008674Y016084D02*
X008387Y016084D01*
X008368Y016065D02*
X008421Y016118D01*
X008421Y016507D01*
X008368Y016560D01*
X008130Y016560D01*
X008047Y016671D01*
X008047Y016682D01*
X008016Y016713D01*
X008902Y016713D01*
X008902Y016648D02*
X008624Y016648D01*
X008624Y016511D01*
X008633Y016475D01*
X008652Y016443D01*
X008678Y016417D01*
X008710Y016399D01*
X008745Y016389D01*
X008902Y016389D01*
X008902Y016648D01*
X008902Y016634D02*
X008980Y016634D01*
X008980Y016648D02*
X008980Y016389D01*
X009136Y016389D01*
X009172Y016399D01*
X009204Y016417D01*
X009230Y016443D01*
X009248Y016475D01*
X009258Y016511D01*
X009258Y016648D01*
X008980Y016648D01*
X008980Y016713D02*
X009451Y016713D01*
X009623Y016634D02*
X009258Y016634D01*
X009258Y016556D02*
X009795Y016556D01*
X009967Y016477D02*
X009249Y016477D01*
X009171Y016399D02*
X010139Y016399D01*
X010304Y016320D02*
X008421Y016320D01*
X008421Y016399D02*
X008710Y016399D01*
X008633Y016477D02*
X008421Y016477D01*
X008372Y016556D02*
X008624Y016556D01*
X008624Y016634D02*
X008075Y016634D01*
X008016Y016713D02*
X007989Y016749D01*
X007978Y016750D01*
X007971Y016758D01*
X007926Y016758D01*
X007882Y016764D01*
X007874Y016758D01*
X007771Y016758D01*
X007771Y016923D01*
X007718Y016976D01*
X007191Y016976D01*
X007138Y016923D01*
X007138Y016758D01*
X006964Y016758D01*
X006964Y016923D01*
X006911Y016976D01*
X006384Y016976D01*
X006331Y016923D01*
X006331Y016333D01*
X006384Y016280D01*
X006911Y016280D01*
X006964Y016333D01*
X006964Y016498D01*
X007138Y016498D01*
X007138Y016333D01*
X007191Y016280D01*
X007718Y016280D01*
X007771Y016333D01*
X007771Y016498D01*
X007852Y016498D01*
X007886Y016452D01*
X007886Y016118D01*
X007939Y016065D01*
X008023Y016065D01*
X008023Y015694D01*
X007959Y015694D01*
X007906Y015641D01*
X007906Y015252D01*
X007959Y015199D01*
X008506Y015199D01*
X008558Y015252D01*
X008558Y015641D01*
X008506Y015694D01*
X008283Y015694D01*
X008283Y016065D01*
X008368Y016065D01*
X008283Y016006D02*
X008674Y016006D01*
X008674Y015927D02*
X008283Y015927D01*
X008283Y015849D02*
X008674Y015849D01*
X008674Y015770D02*
X008283Y015770D01*
X008508Y015692D02*
X008726Y015692D01*
X008764Y015613D02*
X008558Y015613D01*
X008558Y015535D02*
X008764Y015535D01*
X008764Y015456D02*
X008558Y015456D01*
X008558Y015378D02*
X008764Y015378D01*
X008764Y015299D02*
X008558Y015299D01*
X008527Y015220D02*
X008764Y015220D01*
X008764Y015142D02*
X007741Y015142D01*
X007771Y015112D02*
X007771Y014947D01*
X007920Y014947D01*
X007959Y014985D01*
X008506Y014985D01*
X008558Y014906D02*
X008764Y014906D01*
X008764Y014828D02*
X008558Y014828D01*
X008558Y014749D02*
X008764Y014749D01*
X008764Y014671D02*
X008558Y014671D01*
X008558Y014592D02*
X008764Y014592D01*
X008764Y014514D02*
X008529Y014514D01*
X008764Y014435D02*
X006777Y014435D01*
X006777Y014356D02*
X008764Y014356D01*
X008764Y014278D02*
X006777Y014278D01*
X006777Y014199D02*
X008764Y014199D01*
X008764Y014121D02*
X006777Y014121D01*
X006777Y014042D02*
X008764Y014042D01*
X008764Y013964D02*
X006777Y013964D01*
X006777Y013885D02*
X008764Y013885D01*
X008764Y013807D02*
X006777Y013807D01*
X006777Y013728D02*
X008764Y013728D01*
X008764Y013650D02*
X006777Y013650D01*
X006777Y013571D02*
X008764Y013571D01*
X008764Y013492D02*
X006777Y013492D01*
X006777Y013414D02*
X008764Y013414D01*
X008764Y013335D02*
X006777Y013335D01*
X006777Y013257D02*
X008764Y013257D01*
X008764Y013178D02*
X006777Y013178D01*
X006777Y013100D02*
X008764Y013100D01*
X008764Y013021D02*
X006777Y013021D01*
X006777Y012943D02*
X008764Y012943D01*
X008764Y012864D02*
X006777Y012864D01*
X006777Y012786D02*
X008721Y012786D01*
X008694Y012707D02*
X007593Y012707D01*
X007645Y012629D02*
X008694Y012629D01*
X008736Y012550D02*
X007645Y012550D01*
X007626Y012471D02*
X007804Y012471D01*
X007804Y012393D02*
X007548Y012393D01*
X007445Y012573D02*
X006805Y012573D01*
X006647Y012415D01*
X006647Y014817D01*
X007455Y014817D01*
X008153Y014817D01*
X008232Y014738D01*
X007906Y014671D02*
X007771Y014671D01*
X007771Y014592D02*
X007906Y014592D01*
X007936Y014514D02*
X007763Y014514D01*
X007771Y014985D02*
X007958Y014985D01*
X007937Y015220D02*
X002325Y015220D01*
X002245Y015142D02*
X006361Y015142D01*
X006331Y015063D02*
X002177Y015063D01*
X002109Y014985D02*
X006331Y014985D01*
X006331Y014906D02*
X002041Y014906D01*
X001973Y014828D02*
X006331Y014828D01*
X006331Y014749D02*
X001905Y014749D01*
X001837Y014671D02*
X006331Y014671D01*
X006331Y014592D02*
X001769Y014592D01*
X001701Y014514D02*
X006339Y014514D01*
X006517Y014435D02*
X001636Y014435D01*
X001586Y014356D02*
X006517Y014356D01*
X006517Y014278D02*
X001535Y014278D01*
X001485Y014199D02*
X006517Y014199D01*
X006517Y014121D02*
X001434Y014121D01*
X001384Y014042D02*
X006517Y014042D01*
X006517Y013964D02*
X001334Y013964D01*
X001283Y013885D02*
X006517Y013885D01*
X006517Y013807D02*
X001233Y013807D01*
X001182Y013728D02*
X006517Y013728D01*
X006517Y013650D02*
X001132Y013650D01*
X001094Y013571D02*
X006517Y013571D01*
X006517Y013492D02*
X001059Y013492D01*
X001023Y013414D02*
X006517Y013414D01*
X006517Y013335D02*
X000987Y013335D01*
X000951Y013257D02*
X006517Y013257D01*
X006517Y013178D02*
X000915Y013178D01*
X000879Y013100D02*
X006517Y013100D01*
X006517Y013021D02*
X000843Y013021D01*
X000807Y012943D02*
X006517Y012943D01*
X006517Y012864D02*
X000772Y012864D01*
X000736Y012786D02*
X006517Y012786D01*
X006517Y012707D02*
X000709Y012707D01*
X000686Y012629D02*
X006517Y012629D01*
X006517Y012550D02*
X000663Y012550D01*
X000640Y012471D02*
X006517Y012471D01*
X006517Y012393D02*
X000617Y012393D01*
X000594Y012314D02*
X006517Y012314D01*
X006517Y012236D02*
X000571Y012236D01*
X000548Y012157D02*
X006517Y012157D01*
X006517Y012079D02*
X000525Y012079D01*
X000502Y012000D02*
X006517Y012000D01*
X006517Y011922D02*
X000479Y011922D01*
X000456Y011843D02*
X006517Y011843D01*
X006517Y011765D02*
X000444Y011765D01*
X000433Y011686D02*
X006517Y011686D01*
X006647Y011706D02*
X006647Y012415D01*
X006777Y012707D02*
X007296Y012707D01*
X007138Y012258D02*
X008023Y012258D01*
X008051Y012210D01*
X008298Y012236D02*
X008512Y012236D01*
X008512Y012314D02*
X008298Y012314D01*
X008298Y012393D02*
X008512Y012393D01*
X008512Y012471D02*
X008298Y012471D01*
X008298Y012157D02*
X008512Y012157D01*
X008512Y012079D02*
X008298Y012079D01*
X008298Y012000D02*
X008512Y012000D01*
X009007Y012000D02*
X009744Y012000D01*
X009819Y012079D02*
X009822Y012079D01*
X009820Y012157D02*
X009901Y012157D01*
X010059Y012132D02*
X009768Y011840D01*
X007894Y011840D01*
X007752Y011982D01*
X007279Y011982D01*
X007232Y011935D01*
X007138Y011935D01*
X006647Y011706D02*
X010555Y011706D01*
X010831Y011431D01*
X010831Y011352D01*
X010161Y010683D01*
X010161Y009502D01*
X008547Y007888D01*
X008547Y006651D01*
X008539Y006612D01*
X008539Y006565D01*
X008209Y006234D01*
X008193Y006116D01*
X008185Y006179D01*
X008153Y006195D01*
X007957Y005998D01*
X008094Y005998D01*
X007957Y005998D02*
X007455Y005998D01*
X006647Y005998D01*
X006964Y006188D02*
X007138Y006188D01*
X007138Y006266D02*
X006964Y006266D01*
X006912Y006345D02*
X007190Y006345D01*
X007719Y006345D02*
X007901Y006345D01*
X007867Y006266D02*
X007771Y006266D01*
X007771Y006188D02*
X007867Y006188D01*
X008169Y006234D02*
X008193Y006116D01*
X008519Y006109D02*
X010778Y006109D01*
X010700Y006031D02*
X008519Y006031D01*
X008519Y005952D02*
X010621Y005952D01*
X010542Y005874D02*
X008472Y005874D01*
X008483Y005638D02*
X010307Y005638D01*
X010385Y005717D02*
X007771Y005717D01*
X007771Y005795D02*
X010464Y005795D01*
X010674Y005638D02*
X011827Y005638D01*
X011895Y005717D02*
X010753Y005717D01*
X010831Y005795D02*
X011963Y005795D01*
X012031Y005874D02*
X010910Y005874D01*
X010989Y005952D02*
X012099Y005952D01*
X012167Y006031D02*
X011067Y006031D01*
X011146Y006109D02*
X012235Y006109D01*
X012304Y006188D02*
X011224Y006188D01*
X011240Y006266D02*
X012372Y006266D01*
X012440Y006345D02*
X011240Y006345D01*
X011240Y006424D02*
X012494Y006424D01*
X012544Y006502D02*
X011240Y006502D01*
X011240Y006581D02*
X012595Y006581D01*
X012645Y006659D02*
X011240Y006659D01*
X011240Y006738D02*
X012696Y006738D01*
X012746Y006816D02*
X011240Y006816D01*
X011240Y006895D02*
X012797Y006895D01*
X012847Y006973D02*
X011240Y006973D01*
X011240Y007052D02*
X012898Y007052D01*
X012948Y007130D02*
X011240Y007130D01*
X011240Y007209D02*
X012992Y007209D01*
X013028Y007288D02*
X011240Y007288D01*
X011240Y007366D02*
X013064Y007366D01*
X013099Y007445D02*
X011240Y007445D01*
X011240Y007523D02*
X013135Y007523D01*
X013171Y007602D02*
X011240Y007602D01*
X011240Y007680D02*
X013207Y007680D01*
X013243Y007759D02*
X011240Y007759D01*
X011240Y007837D02*
X013279Y007837D01*
X013315Y007916D02*
X011240Y007916D01*
X011240Y007994D02*
X013351Y007994D01*
X013382Y008073D02*
X011240Y008073D01*
X011240Y008152D02*
X013406Y008152D01*
X013429Y008230D02*
X011240Y008230D01*
X011240Y008309D02*
X013452Y008309D01*
X013475Y008387D02*
X011240Y008387D01*
X011240Y008466D02*
X013498Y008466D01*
X013521Y008544D02*
X011240Y008544D01*
X011240Y008623D02*
X013544Y008623D01*
X013567Y008701D02*
X011240Y008701D01*
X011240Y008780D02*
X013590Y008780D01*
X013613Y008858D02*
X011240Y008858D01*
X011240Y008937D02*
X013636Y008937D01*
X013653Y009016D02*
X011240Y009016D01*
X011240Y009094D02*
X013664Y009094D01*
X013675Y009173D02*
X013446Y009173D01*
X013480Y009251D02*
X013687Y009251D01*
X013698Y009330D02*
X013480Y009330D01*
X013480Y009408D02*
X013709Y009408D01*
X013721Y009487D02*
X013480Y009487D01*
X013480Y009565D02*
X013732Y009565D01*
X013743Y009644D02*
X013480Y009644D01*
X013480Y009722D02*
X013754Y009722D01*
X013766Y009801D02*
X013475Y009801D01*
X013777Y009879D02*
X011630Y009879D01*
X011630Y009801D02*
X012044Y009801D01*
X012040Y009722D02*
X011741Y009722D01*
X011767Y009644D02*
X012040Y009644D01*
X012040Y009330D02*
X011767Y009330D01*
X012040Y009251D02*
X011240Y009251D01*
X011240Y009173D02*
X012074Y009173D01*
X012356Y009502D02*
X013163Y009502D01*
X012847Y009644D02*
X012672Y009644D01*
X012672Y009722D02*
X012847Y009722D01*
X012851Y009801D02*
X012668Y009801D01*
X012356Y009502D02*
X011500Y009502D01*
X011500Y010643D01*
X011630Y010351D02*
X012040Y010351D01*
X012040Y010429D02*
X011807Y010429D01*
X011826Y010508D02*
X012040Y010508D01*
X012040Y010582D02*
X012040Y010232D01*
X012092Y010179D01*
X013427Y010179D01*
X013480Y010232D01*
X013480Y010582D01*
X013427Y010635D01*
X012092Y010635D01*
X012040Y010582D01*
X012044Y010586D02*
X011826Y010586D01*
X011826Y010665D02*
X013784Y010665D01*
X013784Y010743D02*
X011826Y010743D01*
X011826Y010822D02*
X013784Y010822D01*
X013782Y010901D02*
X010563Y010901D01*
X010641Y010979D02*
X012078Y010979D01*
X012040Y011058D02*
X010720Y011058D01*
X010798Y011136D02*
X011195Y011136D01*
X011174Y010822D02*
X010484Y010822D01*
X010406Y010743D02*
X011174Y010743D01*
X011174Y010665D02*
X010864Y010665D01*
X010928Y010586D02*
X011174Y010586D01*
X011174Y010508D02*
X010928Y010508D01*
X010923Y010429D02*
X011193Y010429D01*
X011370Y010351D02*
X010858Y010351D01*
X010858Y010272D02*
X011370Y010272D01*
X011370Y010194D02*
X010858Y010194D01*
X010935Y010115D02*
X011370Y010115D01*
X011370Y010037D02*
X010980Y010037D01*
X010980Y009958D02*
X011370Y009958D01*
X011370Y009879D02*
X010980Y009879D01*
X010980Y009801D02*
X011370Y009801D01*
X011259Y009722D02*
X011212Y009722D01*
X011009Y009722D02*
X010980Y009722D01*
X010910Y009565D02*
X010361Y009565D01*
X010361Y009487D02*
X010910Y009487D01*
X010956Y009408D02*
X010960Y009408D01*
X011110Y009541D02*
X011110Y006258D01*
X008980Y004128D01*
X008736Y003910D02*
X007771Y003910D01*
X007771Y003989D02*
X008713Y003989D01*
X008713Y004067D02*
X007942Y004067D01*
X008021Y004146D02*
X008713Y004146D01*
X008713Y004224D02*
X008099Y004224D01*
X007878Y004187D02*
X008193Y004502D01*
X008193Y005407D01*
X008323Y005088D02*
X008673Y005088D01*
X008673Y005087D02*
X008663Y005052D01*
X008663Y004914D01*
X008941Y004914D01*
X008941Y004837D01*
X009019Y004837D01*
X009019Y004914D01*
X009297Y004914D01*
X009297Y005052D01*
X009288Y005087D01*
X009269Y005119D01*
X009243Y005145D01*
X009211Y005164D01*
X009176Y005173D01*
X009019Y005173D01*
X009019Y004915D01*
X008941Y004915D01*
X008941Y005173D01*
X008785Y005173D01*
X008749Y005164D01*
X008717Y005145D01*
X008691Y005119D01*
X008673Y005087D01*
X008663Y005010D02*
X008323Y005010D01*
X008323Y004931D02*
X008663Y004931D01*
X008761Y005167D02*
X008473Y005167D01*
X008519Y005245D02*
X009914Y005245D01*
X009836Y005167D02*
X009199Y005167D01*
X009287Y005088D02*
X009757Y005088D01*
X009678Y005010D02*
X009297Y005010D01*
X009297Y004931D02*
X009600Y004931D01*
X009521Y004853D02*
X009019Y004853D01*
X009019Y004837D02*
X009297Y004837D01*
X009297Y004700D01*
X009288Y004664D01*
X009269Y004632D01*
X009243Y004606D01*
X009211Y004588D01*
X009176Y004578D01*
X009019Y004578D01*
X009019Y004837D01*
X009019Y004774D02*
X008941Y004774D01*
X008941Y004696D02*
X009019Y004696D01*
X009019Y004617D02*
X008941Y004617D01*
X008941Y004853D02*
X008323Y004853D01*
X008323Y004749D02*
X008407Y004749D01*
X008460Y004696D01*
X008460Y004617D02*
X008706Y004617D01*
X008460Y004539D02*
X009207Y004539D01*
X009254Y004617D02*
X009286Y004617D01*
X009296Y004696D02*
X009364Y004696D01*
X009297Y004774D02*
X009443Y004774D01*
X009653Y004617D02*
X010494Y004617D01*
X010372Y004539D02*
X009575Y004539D01*
X009496Y004460D02*
X010235Y004460D01*
X010063Y004381D02*
X009418Y004381D01*
X009339Y004303D02*
X009891Y004303D01*
X009719Y004224D02*
X009261Y004224D01*
X009247Y004146D02*
X009547Y004146D01*
X009356Y004067D02*
X009247Y004067D01*
X009050Y004381D02*
X008460Y004381D01*
X008456Y004303D02*
X008713Y004303D01*
X008460Y004460D02*
X009129Y004460D01*
X009019Y004931D02*
X008941Y004931D01*
X008941Y005010D02*
X009019Y005010D01*
X009019Y005088D02*
X008941Y005088D01*
X008941Y005167D02*
X009019Y005167D01*
X008519Y005324D02*
X009993Y005324D01*
X010071Y005403D02*
X008519Y005403D01*
X008519Y005481D02*
X010150Y005481D01*
X010228Y005560D02*
X008519Y005560D01*
X008063Y005088D02*
X007771Y005088D01*
X007771Y005010D02*
X008063Y005010D01*
X008063Y004931D02*
X007771Y004931D01*
X007771Y005167D02*
X007912Y005167D01*
X007867Y005245D02*
X007771Y005245D01*
X007867Y005324D02*
X002636Y005324D01*
X002546Y005403D02*
X007867Y005403D01*
X007867Y005481D02*
X002455Y005481D01*
X002365Y005560D02*
X007867Y005560D01*
X007903Y005638D02*
X002275Y005638D01*
X003608Y004617D02*
X007926Y004617D01*
X007926Y004539D02*
X003730Y004539D01*
X003867Y004460D02*
X006331Y004460D01*
X006331Y004381D02*
X004039Y004381D01*
X004211Y004303D02*
X006331Y004303D01*
X006331Y004224D02*
X004383Y004224D01*
X004555Y004146D02*
X006331Y004146D01*
X006331Y004067D02*
X004746Y004067D01*
X005013Y003989D02*
X006331Y003989D01*
X006331Y003910D02*
X005281Y003910D01*
X005548Y003832D02*
X008554Y003832D01*
X008078Y003753D02*
X006024Y003753D01*
X006572Y003675D02*
X007530Y003675D01*
X007138Y003910D02*
X006964Y003910D01*
X006964Y003989D02*
X007138Y003989D01*
X007455Y004187D02*
X007878Y004187D01*
X007889Y004381D02*
X007771Y004381D01*
X007771Y004460D02*
X007926Y004460D01*
X007455Y004187D02*
X006647Y004187D01*
X006964Y004381D02*
X007138Y004381D01*
X007138Y004460D02*
X006964Y004460D01*
X006964Y005717D02*
X007138Y005717D01*
X007138Y005795D02*
X006964Y005795D01*
X008519Y006188D02*
X010857Y006188D01*
X010935Y006266D02*
X008519Y006266D01*
X008503Y006345D02*
X010980Y006345D01*
X010980Y006424D02*
X008582Y006424D01*
X008681Y006502D02*
X010980Y006502D01*
X010980Y006581D02*
X008747Y006581D01*
X008747Y006659D02*
X010980Y006659D01*
X010980Y006738D02*
X008743Y006738D01*
X008677Y006816D02*
X010980Y006816D01*
X010980Y006895D02*
X008677Y006895D01*
X008677Y006973D02*
X010980Y006973D01*
X010980Y007052D02*
X008677Y007052D01*
X008677Y007130D02*
X010980Y007130D01*
X010980Y007209D02*
X008677Y007209D01*
X008677Y007288D02*
X010980Y007288D01*
X010980Y007366D02*
X008677Y007366D01*
X008677Y007445D02*
X010980Y007445D01*
X010980Y007523D02*
X008677Y007523D01*
X008677Y007602D02*
X010980Y007602D01*
X010980Y007680D02*
X008677Y007680D01*
X008677Y007759D02*
X010980Y007759D01*
X010980Y007837D02*
X008681Y007837D01*
X008759Y007916D02*
X010980Y007916D01*
X010980Y007994D02*
X008838Y007994D01*
X008916Y008073D02*
X010980Y008073D01*
X010980Y008152D02*
X008995Y008152D01*
X009073Y008230D02*
X010980Y008230D01*
X010980Y008309D02*
X009152Y008309D01*
X009231Y008387D02*
X010980Y008387D01*
X010980Y008466D02*
X009309Y008466D01*
X009388Y008544D02*
X010980Y008544D01*
X010980Y008623D02*
X009466Y008623D01*
X009545Y008701D02*
X010980Y008701D01*
X010980Y008780D02*
X009623Y008780D01*
X009702Y008858D02*
X010449Y008858D01*
X010399Y008937D02*
X009780Y008937D01*
X009859Y009016D02*
X010395Y009016D01*
X010395Y009173D02*
X010016Y009173D01*
X010094Y009251D02*
X010395Y009251D01*
X010402Y009330D02*
X010272Y009330D01*
X010351Y009408D02*
X010468Y009408D01*
X010674Y009408D02*
X010751Y009408D01*
X010751Y009330D02*
X010674Y009330D01*
X010674Y009251D02*
X010751Y009251D01*
X010751Y009173D02*
X010674Y009173D01*
X010673Y009094D02*
X009937Y009094D01*
X010302Y009644D02*
X010482Y009644D01*
X010445Y009722D02*
X010291Y009722D01*
X010291Y009801D02*
X010445Y009801D01*
X010445Y009879D02*
X010291Y009879D01*
X010291Y009958D02*
X010445Y009958D01*
X010445Y010037D02*
X010291Y010037D01*
X010291Y010115D02*
X010490Y010115D01*
X010598Y010194D02*
X010291Y010194D01*
X010291Y010272D02*
X010598Y010272D01*
X010598Y010351D02*
X010291Y010351D01*
X010291Y010429D02*
X010534Y010429D01*
X010528Y010508D02*
X010291Y010508D01*
X010291Y010586D02*
X010528Y010586D01*
X010593Y010665D02*
X010327Y010665D01*
X010195Y010901D02*
X006323Y010901D01*
X006193Y011053D02*
X005275Y011053D01*
X003390Y009167D01*
X003390Y009171D01*
X003621Y008937D02*
X008945Y008937D01*
X008910Y009251D02*
X007771Y009251D01*
X007455Y009502D02*
X008350Y009502D01*
X008657Y009408D02*
X008956Y009408D01*
X008910Y009330D02*
X008640Y009330D01*
X008338Y010194D02*
X007732Y010194D01*
X007771Y010272D02*
X008338Y010272D01*
X008598Y010351D02*
X010031Y010351D01*
X010031Y010429D02*
X008795Y010429D01*
X008795Y010508D02*
X010031Y010508D01*
X010031Y010586D02*
X008795Y010586D01*
X008795Y010665D02*
X010031Y010665D01*
X010038Y010743D02*
X008795Y010743D01*
X008771Y010822D02*
X010117Y010822D01*
X010274Y010979D02*
X007732Y010979D01*
X007771Y011058D02*
X010352Y011058D01*
X010431Y011136D02*
X008795Y011136D01*
X008142Y011136D02*
X007771Y011136D01*
X008165Y010822D02*
X005228Y010822D01*
X005150Y010743D02*
X008142Y010743D01*
X007177Y010979D02*
X006925Y010979D01*
X006964Y011058D02*
X007138Y011058D01*
X007138Y011136D02*
X006964Y011136D01*
X006331Y011529D02*
X003315Y011529D01*
X003236Y011607D02*
X006331Y011607D01*
X006062Y010901D02*
X005307Y010901D01*
X005658Y010429D02*
X006331Y010429D01*
X006331Y010351D02*
X005737Y010351D01*
X006647Y009502D02*
X007455Y009502D01*
X007138Y009644D02*
X006964Y009644D01*
X006964Y009722D02*
X007138Y009722D01*
X007142Y009801D02*
X006960Y009801D01*
X009007Y012079D02*
X009170Y012079D01*
X008894Y012675D02*
X008894Y015891D01*
X008941Y015939D01*
X008902Y016399D02*
X008980Y016399D01*
X008980Y016477D02*
X008902Y016477D01*
X008902Y016556D02*
X008980Y016556D01*
X008624Y016791D02*
X007771Y016791D01*
X007771Y016870D02*
X008626Y016870D01*
X008670Y016948D02*
X007745Y016948D01*
X007771Y017105D02*
X006331Y017105D01*
X006357Y016948D02*
X005431Y016948D01*
X005164Y016870D02*
X006331Y016870D01*
X006331Y016791D02*
X004896Y016791D01*
X004651Y016713D02*
X006331Y016713D01*
X006331Y016634D02*
X004479Y016634D01*
X004307Y016556D02*
X006331Y016556D01*
X006331Y016477D02*
X004135Y016477D01*
X003963Y016399D02*
X006331Y016399D01*
X006344Y016320D02*
X003799Y016320D01*
X003676Y016241D02*
X007886Y016241D01*
X007886Y016163D02*
X003554Y016163D01*
X003432Y016084D02*
X007920Y016084D01*
X008023Y016006D02*
X003310Y016006D01*
X003187Y015927D02*
X006361Y015927D01*
X006384Y015950D02*
X006331Y015897D01*
X006331Y015547D01*
X006384Y015494D01*
X007718Y015494D01*
X007771Y015547D01*
X007771Y015897D01*
X007718Y015950D01*
X006384Y015950D01*
X006331Y015849D02*
X003065Y015849D01*
X002959Y015770D02*
X006331Y015770D01*
X006331Y015692D02*
X002869Y015692D01*
X002778Y015613D02*
X006331Y015613D01*
X006344Y015535D02*
X002687Y015535D01*
X002597Y015456D02*
X007906Y015456D01*
X007906Y015378D02*
X002506Y015378D01*
X002415Y015299D02*
X007906Y015299D01*
X008153Y015525D02*
X008153Y016313D01*
X008232Y016313D01*
X008153Y016313D02*
X007917Y016628D01*
X007455Y016628D01*
X006647Y016628D01*
X006964Y016477D02*
X007138Y016477D01*
X007138Y016399D02*
X006964Y016399D01*
X006951Y016320D02*
X007151Y016320D01*
X007138Y016791D02*
X006964Y016791D01*
X006964Y016870D02*
X007138Y016870D01*
X007164Y016948D02*
X006938Y016948D01*
X007051Y017157D02*
X007051Y017157D01*
X007771Y016477D02*
X007868Y016477D01*
X007886Y016399D02*
X007771Y016399D01*
X007758Y016320D02*
X007886Y016320D01*
X008023Y015927D02*
X007741Y015927D01*
X007771Y015849D02*
X008023Y015849D01*
X008023Y015770D02*
X007771Y015770D01*
X007771Y015692D02*
X007956Y015692D01*
X007906Y015613D02*
X007771Y015613D01*
X007758Y015535D02*
X007906Y015535D01*
X008153Y015525D02*
X008232Y015447D01*
X007168Y015142D02*
X006934Y015142D01*
X006964Y015063D02*
X007138Y015063D01*
X007138Y014985D02*
X006964Y014985D01*
X006964Y014671D02*
X007138Y014671D01*
X007138Y014592D02*
X006964Y014592D01*
X006956Y014514D02*
X007146Y014514D01*
X008318Y017027D02*
X005784Y017027D01*
X010033Y011922D02*
X010917Y011922D01*
X011020Y011765D02*
X010681Y011765D01*
X010759Y011686D02*
X010941Y011686D01*
X010863Y011607D02*
X010838Y011607D01*
X010831Y011352D02*
X010752Y011352D01*
X010831Y011352D02*
X010831Y011313D01*
X010823Y011293D01*
X011460Y011293D01*
X011500Y011352D01*
X012563Y011352D01*
X012602Y011313D01*
X013163Y011313D01*
X013480Y011293D02*
X013725Y011293D01*
X013737Y011215D02*
X013480Y011215D01*
X013480Y011136D02*
X013748Y011136D01*
X013759Y011058D02*
X013480Y011058D01*
X013441Y010979D02*
X013771Y010979D01*
X013784Y010586D02*
X013475Y010586D01*
X013480Y010508D02*
X013784Y010508D01*
X013784Y010429D02*
X013480Y010429D01*
X013480Y010351D02*
X013784Y010351D01*
X013784Y010272D02*
X013480Y010272D01*
X013441Y010194D02*
X013784Y010194D01*
X013784Y010115D02*
X011630Y010115D01*
X011630Y010037D02*
X013784Y010037D01*
X013784Y009958D02*
X011630Y009958D01*
X011630Y010194D02*
X012078Y010194D01*
X012040Y010272D02*
X011630Y010272D01*
X011805Y011136D02*
X012040Y011136D01*
X012040Y011215D02*
X011826Y011215D01*
X011826Y011529D02*
X012040Y011529D01*
X012040Y011607D02*
X011230Y011607D01*
X011174Y011529D02*
X011152Y011529D01*
X011174Y011450D02*
X011073Y011450D01*
X011309Y011686D02*
X013669Y011686D01*
X013680Y011607D02*
X013480Y011607D01*
X013480Y011529D02*
X013692Y011529D01*
X013703Y011450D02*
X013480Y011450D01*
X013480Y011372D02*
X013714Y011372D01*
X013658Y011765D02*
X011387Y011765D01*
X011466Y011843D02*
X013646Y011843D01*
X013623Y011922D02*
X012127Y011922D01*
X012143Y012000D02*
X013600Y012000D01*
X013577Y012079D02*
X012143Y012079D01*
X012143Y012157D02*
X013554Y012157D01*
X012847Y011607D02*
X012672Y011607D01*
X012672Y011529D02*
X012847Y011529D01*
X012847Y011450D02*
X012672Y011450D01*
X012602Y011313D02*
X012563Y011313D01*
X012543Y011332D01*
X012563Y011313D02*
X012356Y011313D01*
X012672Y011136D02*
X012847Y011136D01*
X012847Y011058D02*
X012672Y011058D01*
X012634Y010979D02*
X012885Y010979D01*
X011884Y011922D02*
X011807Y011922D01*
X011807Y012000D02*
X011884Y012000D01*
X011884Y012079D02*
X011807Y012079D01*
X011807Y012157D02*
X011884Y012157D01*
X011564Y011922D02*
X011544Y011922D01*
X011098Y011843D02*
X009954Y011843D01*
X010728Y010517D02*
X010728Y009895D01*
X010712Y009880D01*
X010712Y009876D01*
X010031Y010037D02*
X009494Y010037D01*
X009488Y010115D02*
X010031Y010115D01*
X010674Y009016D02*
X010751Y009016D01*
X010751Y008937D02*
X010674Y008937D01*
X010674Y008858D02*
X010751Y008858D01*
X012639Y009173D02*
X012881Y009173D01*
X012847Y009251D02*
X012672Y009251D01*
X012672Y009330D02*
X012847Y009330D01*
X012240Y012786D02*
X012163Y012786D01*
X012163Y012864D02*
X012240Y012864D01*
X012240Y012943D02*
X012163Y012943D01*
X012163Y013021D02*
X012240Y013021D01*
X012240Y013178D02*
X012163Y013178D01*
X012163Y013257D02*
X012240Y013257D01*
X012240Y013335D02*
X012163Y013335D01*
X012163Y013414D02*
X012240Y013414D01*
X012512Y014278D02*
X012566Y014278D01*
X011777Y015220D02*
X011450Y015220D01*
X011528Y015299D02*
X011687Y015299D01*
X011596Y015378D02*
X011563Y015378D01*
X011738Y005560D02*
X010596Y005560D01*
X010517Y005481D02*
X011647Y005481D01*
X011556Y005403D02*
X010439Y005403D01*
X010360Y005324D02*
X011466Y005324D01*
X011375Y005245D02*
X010282Y005245D01*
X010203Y005167D02*
X011284Y005167D01*
X011194Y005088D02*
X010125Y005088D01*
X010046Y005010D02*
X011103Y005010D01*
X010983Y004931D02*
X009967Y004931D01*
X009889Y004853D02*
X010861Y004853D01*
X010739Y004774D02*
X009810Y004774D01*
X009732Y004696D02*
X010617Y004696D01*
X003072Y009958D02*
X002732Y009958D01*
X002732Y010037D02*
X003072Y010037D01*
X003079Y010115D02*
X002732Y010115D01*
X002472Y010115D02*
X000318Y010115D01*
X000318Y010037D02*
X002472Y010037D01*
X002472Y009958D02*
X000318Y009958D01*
X000318Y010194D02*
X000661Y010194D01*
X000622Y010272D02*
X000318Y010272D01*
X000318Y010351D02*
X000622Y010351D01*
X000622Y010429D02*
X000318Y010429D01*
X000318Y010508D02*
X000622Y010508D01*
X000627Y010586D02*
X000318Y010586D01*
X000331Y010979D02*
X000661Y010979D01*
X000622Y011058D02*
X000343Y011058D01*
X000354Y011136D02*
X000622Y011136D01*
X000622Y011215D02*
X000365Y011215D01*
X000377Y011293D02*
X000622Y011293D01*
X000622Y011372D02*
X000388Y011372D01*
X000399Y011450D02*
X000622Y011450D01*
X000622Y011529D02*
X000410Y011529D01*
X000422Y011607D02*
X000622Y011607D01*
X000939Y011313D02*
X001746Y011313D01*
X002602Y011313D01*
X002276Y011450D02*
X002062Y011450D01*
X002062Y011529D02*
X002297Y011529D01*
X002062Y011607D02*
X003055Y011607D01*
X002976Y011529D02*
X002907Y011529D01*
X001430Y011529D02*
X001255Y011529D01*
X001255Y011607D02*
X001430Y011607D01*
X001430Y011450D02*
X001255Y011450D01*
X001255Y011136D02*
X001430Y011136D01*
X001430Y011058D02*
X001255Y011058D01*
X001217Y010979D02*
X001468Y010979D01*
X001434Y009801D02*
X001251Y009801D01*
X001255Y009722D02*
X001430Y009722D01*
X001430Y009644D02*
X001255Y009644D01*
X001255Y009330D02*
X001430Y009330D01*
X001430Y009251D02*
X001255Y009251D01*
X001221Y009173D02*
X001464Y009173D01*
X002062Y009330D02*
X002352Y009330D01*
X002335Y009644D02*
X002062Y009644D01*
X002062Y009722D02*
X002335Y009722D01*
D19*
X003035Y008517D03*
X003146Y011415D03*
X001067Y012415D03*
X005590Y011329D03*
X006193Y011053D03*
X005539Y010266D03*
X007138Y011935D03*
X007138Y012258D03*
X007445Y012573D03*
X007642Y013793D03*
X008894Y012675D03*
X007838Y010801D03*
X010161Y009502D03*
X011110Y009541D03*
X010728Y010517D03*
X010831Y011352D03*
X012720Y012297D03*
X009138Y014817D03*
X005673Y015250D03*
X010122Y007415D03*
X008547Y006651D03*
X005476Y004423D03*
X011697Y006391D03*
M02*
